<svg width="246" height="331" viewBox="0 0 246 331" fill="none" xmlns="http://www.w3.org/2000/svg">
<path d="M63.3359 26H62.2051V22.0566H57.9043V26H56.7793V17.4688H57.9043V21.1367H62.2051V17.4688H63.3359V26ZM71.0527 18.3945H68.3105V26H67.1914V18.3945H64.4551V17.4688H71.0527V18.3945ZM73.7715 17.4688L76.5605 24.4297L79.3496 17.4688H80.8086V26H79.6836V22.6777L79.7891 19.0918L76.9883 26H76.127L73.332 19.1094L73.4434 22.6777V26H72.3184V17.4688H73.7715ZM83.9258 25.0801H87.9688V26H82.7949V17.4688H83.9258V25.0801ZM89.4688 21.7227L89.9023 17.4688H94.2734V18.4707H90.8223L90.5645 20.7969C90.9824 20.5508 91.457 20.4277 91.9883 20.4277C92.7656 20.4277 93.3828 20.6855 93.8398 21.2012C94.2969 21.7129 94.5254 22.4062 94.5254 23.2812C94.5254 24.1602 94.2871 24.8535 93.8105 25.3613C93.3379 25.8652 92.6758 26.1172 91.8242 26.1172C91.0703 26.1172 90.4551 25.9082 89.9785 25.4902C89.502 25.0723 89.2305 24.4941 89.1641 23.7559H90.1895C90.2559 24.2441 90.4297 24.6133 90.7109 24.8633C90.9922 25.1094 91.3633 25.2324 91.8242 25.2324C92.3281 25.2324 92.7227 25.0605 93.0078 24.7168C93.2969 24.373 93.4414 23.8984 93.4414 23.293C93.4414 22.7227 93.2852 22.2656 92.9727 21.9219C92.6641 21.5742 92.252 21.4004 91.7363 21.4004C91.2637 21.4004 90.8926 21.5039 90.623 21.7109L90.3359 21.9453L89.4688 21.7227Z" fill="#54565A"/>
<path d="M46.0508 79.293C45.9453 80.1953 45.6113 80.8926 45.0488 81.3848C44.4902 81.873 43.7461 82.1172 42.8164 82.1172C41.8086 82.1172 41 81.7559 40.3906 81.0332C39.7852 80.3105 39.4824 79.3438 39.4824 78.1328V77.3125C39.4824 76.5195 39.623 75.8223 39.9043 75.2207C40.1895 74.6191 40.5918 74.1582 41.1113 73.8379C41.6309 73.5137 42.2324 73.3516 42.916 73.3516C43.8223 73.3516 44.5488 73.6055 45.0957 74.1133C45.6426 74.6172 45.9609 75.3164 46.0508 76.2109H44.9199C44.8223 75.5312 44.6094 75.0391 44.2812 74.7344C43.957 74.4297 43.502 74.2773 42.916 74.2773C42.1973 74.2773 41.6328 74.543 41.2227 75.0742C40.8164 75.6055 40.6133 76.3613 40.6133 77.3418V78.168C40.6133 79.0938 40.8066 79.8301 41.1934 80.377C41.5801 80.9238 42.1211 81.1973 42.8164 81.1973C43.4414 81.1973 43.9199 81.0566 44.252 80.7754C44.5879 80.4902 44.8105 79.9961 44.9199 79.293H46.0508ZM50.1055 78.1973C49.1406 77.9199 48.4375 77.5801 47.9961 77.1777C47.5586 76.7715 47.3398 76.2715 47.3398 75.6777C47.3398 75.0059 47.6074 74.4512 48.1426 74.0137C48.6816 73.5723 49.3809 73.3516 50.2402 73.3516C50.8262 73.3516 51.3477 73.4648 51.8047 73.6914C52.2656 73.918 52.6211 74.2305 52.8711 74.6289C53.125 75.0273 53.252 75.4629 53.252 75.9355H52.1211C52.1211 75.4199 51.957 75.0156 51.6289 74.7227C51.3008 74.4258 50.8379 74.2773 50.2402 74.2773C49.6855 74.2773 49.252 74.4004 48.9395 74.6465C48.6309 74.8887 48.4766 75.2266 48.4766 75.6602C48.4766 76.0078 48.623 76.3027 48.916 76.5449C49.2129 76.7832 49.7148 77.002 50.4219 77.2012C51.1328 77.4004 51.6875 77.6211 52.0859 77.8633C52.4883 78.1016 52.7852 78.3809 52.9766 78.7012C53.1719 79.0215 53.2695 79.3984 53.2695 79.832C53.2695 80.5234 53 81.0781 52.4609 81.4961C51.9219 81.9102 51.2012 82.1172 50.2988 82.1172C49.7129 82.1172 49.166 82.0059 48.6582 81.7832C48.1504 81.5566 47.7578 81.248 47.4805 80.8574C47.207 80.4668 47.0703 80.0234 47.0703 79.5273H48.2012C48.2012 80.043 48.3906 80.4512 48.7695 80.752C49.1523 81.0488 49.6621 81.1973 50.2988 81.1973C50.8926 81.1973 51.3477 81.0762 51.6641 80.834C51.9805 80.5918 52.1387 80.2617 52.1387 79.8438C52.1387 79.4258 51.9922 79.1035 51.6992 78.877C51.4062 78.6465 50.875 78.4199 50.1055 78.1973ZM57.2305 78.1973C56.2656 77.9199 55.5625 77.5801 55.1211 77.1777C54.6836 76.7715 54.4648 76.2715 54.4648 75.6777C54.4648 75.0059 54.7324 74.4512 55.2676 74.0137C55.8066 73.5723 56.5059 73.3516 57.3652 73.3516C57.9512 73.3516 58.4727 73.4648 58.9297 73.6914C59.3906 73.918 59.7461 74.2305 59.9961 74.6289C60.25 75.0273 60.377 75.4629 60.377 75.9355H59.2461C59.2461 75.4199 59.082 75.0156 58.7539 74.7227C58.4258 74.4258 57.9629 74.2773 57.3652 74.2773C56.8105 74.2773 56.377 74.4004 56.0645 74.6465C55.7559 74.8887 55.6016 75.2266 55.6016 75.6602C55.6016 76.0078 55.748 76.3027 56.041 76.5449C56.3379 76.7832 56.8398 77.002 57.5469 77.2012C58.2578 77.4004 58.8125 77.6211 59.2109 77.8633C59.6133 78.1016 59.9102 78.3809 60.1016 78.7012C60.2969 79.0215 60.3945 79.3984 60.3945 79.832C60.3945 80.5234 60.125 81.0781 59.5859 81.4961C59.0469 81.9102 58.3262 82.1172 57.4238 82.1172C56.8379 82.1172 56.291 82.0059 55.7832 81.7832C55.2754 81.5566 54.8828 81.248 54.6055 80.8574C54.332 80.4668 54.1953 80.0234 54.1953 79.5273H55.3262C55.3262 80.043 55.5156 80.4512 55.8945 80.752C56.2773 81.0488 56.7871 81.1973 57.4238 81.1973C58.0176 81.1973 58.4727 81.0762 58.7891 80.834C59.1055 80.5918 59.2637 80.2617 59.2637 79.8438C59.2637 79.4258 59.1172 79.1035 58.8242 78.877C58.5312 78.6465 58 78.4199 57.2305 78.1973ZM61.8887 82.7324H60.957L64.5195 73.4688H65.4453L61.8887 82.7324ZM69.3008 78.1973C68.3359 77.9199 67.6328 77.5801 67.1914 77.1777C66.7539 76.7715 66.5352 76.2715 66.5352 75.6777C66.5352 75.0059 66.8027 74.4512 67.3379 74.0137C67.877 73.5723 68.5762 73.3516 69.4355 73.3516C70.0215 73.3516 70.543 73.4648 71 73.6914C71.4609 73.918 71.8164 74.2305 72.0664 74.6289C72.3203 75.0273 72.4473 75.4629 72.4473 75.9355H71.3164C71.3164 75.4199 71.1523 75.0156 70.8242 74.7227C70.4961 74.4258 70.0332 74.2773 69.4355 74.2773C68.8809 74.2773 68.4473 74.4004 68.1348 74.6465C67.8262 74.8887 67.6719 75.2266 67.6719 75.6602C67.6719 76.0078 67.8184 76.3027 68.1113 76.5449C68.4082 76.7832 68.9102 77.002 69.6172 77.2012C70.3281 77.4004 70.8828 77.6211 71.2812 77.8633C71.6836 78.1016 71.9805 78.3809 72.1719 78.7012C72.3672 79.0215 72.4648 79.3984 72.4648 79.832C72.4648 80.5234 72.1953 81.0781 71.6562 81.4961C71.1172 81.9102 70.3965 82.1172 69.4941 82.1172C68.9082 82.1172 68.3613 82.0059 67.8535 81.7832C67.3457 81.5566 66.9531 81.248 66.6758 80.8574C66.4023 80.4668 66.2656 80.0234 66.2656 79.5273H67.3965C67.3965 80.043 67.5859 80.4512 67.9648 80.752C68.3477 81.0488 68.8574 81.1973 69.4941 81.1973C70.0879 81.1973 70.543 81.0762 70.8594 80.834C71.1758 80.5918 71.334 80.2617 71.334 79.8438C71.334 79.4258 71.1875 79.1035 70.8945 78.877C70.6016 78.6465 70.0703 78.4199 69.3008 78.1973ZM78.623 79.7734H75.0488L74.2461 82H73.0859L76.3438 73.4688H77.3281L80.5918 82H79.4375L78.623 79.7734ZM75.3887 78.8477H78.2891L76.8359 74.8574L75.3887 78.8477ZM84.2539 78.1973C83.2891 77.9199 82.5859 77.5801 82.1445 77.1777C81.707 76.7715 81.4883 76.2715 81.4883 75.6777C81.4883 75.0059 81.7559 74.4512 82.291 74.0137C82.8301 73.5723 83.5293 73.3516 84.3887 73.3516C84.9746 73.3516 85.4961 73.4648 85.9531 73.6914C86.4141 73.918 86.7695 74.2305 87.0195 74.6289C87.2734 75.0273 87.4004 75.4629 87.4004 75.9355H86.2695C86.2695 75.4199 86.1055 75.0156 85.7773 74.7227C85.4492 74.4258 84.9863 74.2773 84.3887 74.2773C83.834 74.2773 83.4004 74.4004 83.0879 74.6465C82.7793 74.8887 82.625 75.2266 82.625 75.6602C82.625 76.0078 82.7715 76.3027 83.0645 76.5449C83.3613 76.7832 83.8633 77.002 84.5703 77.2012C85.2812 77.4004 85.8359 77.6211 86.2344 77.8633C86.6367 78.1016 86.9336 78.3809 87.125 78.7012C87.3203 79.0215 87.418 79.3984 87.418 79.832C87.418 80.5234 87.1484 81.0781 86.6094 81.4961C86.0703 81.9102 85.3496 82.1172 84.4473 82.1172C83.8613 82.1172 83.3145 82.0059 82.8066 81.7832C82.2988 81.5566 81.9062 81.248 81.6289 80.8574C81.3555 80.4668 81.2188 80.0234 81.2188 79.5273H82.3496C82.3496 80.043 82.5391 80.4512 82.918 80.752C83.3008 81.0488 83.8105 81.1973 84.4473 81.1973C85.041 81.1973 85.4961 81.0762 85.8125 80.834C86.1289 80.5918 86.2871 80.2617 86.2871 79.8438C86.2871 79.4258 86.1406 79.1035 85.8477 78.877C85.5547 78.6465 85.0234 78.4199 84.2539 78.1973ZM91.3789 78.1973C90.4141 77.9199 89.7109 77.5801 89.2695 77.1777C88.832 76.7715 88.6133 76.2715 88.6133 75.6777C88.6133 75.0059 88.8809 74.4512 89.416 74.0137C89.9551 73.5723 90.6543 73.3516 91.5137 73.3516C92.0996 73.3516 92.6211 73.4648 93.0781 73.6914C93.5391 73.918 93.8945 74.2305 94.1445 74.6289C94.3984 75.0273 94.5254 75.4629 94.5254 75.9355H93.3945C93.3945 75.4199 93.2305 75.0156 92.9023 74.7227C92.5742 74.4258 92.1113 74.2773 91.5137 74.2773C90.959 74.2773 90.5254 74.4004 90.2129 74.6465C89.9043 74.8887 89.75 75.2266 89.75 75.6602C89.75 76.0078 89.8965 76.3027 90.1895 76.5449C90.4863 76.7832 90.9883 77.002 91.6953 77.2012C92.4062 77.4004 92.9609 77.6211 93.3594 77.8633C93.7617 78.1016 94.0586 78.3809 94.25 78.7012C94.4453 79.0215 94.543 79.3984 94.543 79.832C94.543 80.5234 94.2734 81.0781 93.7344 81.4961C93.1953 81.9102 92.4746 82.1172 91.5723 82.1172C90.9863 82.1172 90.4395 82.0059 89.9316 81.7832C89.4238 81.5566 89.0312 81.248 88.7539 80.8574C88.4805 80.4668 88.3438 80.0234 88.3438 79.5273H89.4746C89.4746 80.043 89.6641 80.4512 90.043 80.752C90.4258 81.0488 90.9355 81.1973 91.5723 81.1973C92.166 81.1973 92.6211 81.0762 92.9375 80.834C93.2539 80.5918 93.4121 80.2617 93.4121 79.8438C93.4121 79.4258 93.2656 79.1035 92.9727 78.877C92.6797 78.6465 92.1484 78.4199 91.3789 78.1973Z" fill="#54565A"/>
<path d="M38.2637 119.469H39.3945V125.51C39.3945 126.326 39.1484 126.965 38.6562 127.426C38.168 127.887 37.5156 128.117 36.6992 128.117C35.8516 128.117 35.1914 127.9 34.7188 127.467C34.2461 127.033 34.0098 126.426 34.0098 125.645H35.1348C35.1348 126.133 35.2676 126.514 35.5332 126.787C35.8027 127.061 36.1914 127.197 36.6992 127.197C37.1641 127.197 37.5391 127.051 37.8242 126.758C38.1133 126.465 38.2598 126.055 38.2637 125.527V119.469ZM45.0547 128C44.9922 127.875 44.9414 127.652 44.9023 127.332C44.3984 127.855 43.7969 128.117 43.0977 128.117C42.4727 128.117 41.959 127.941 41.5566 127.59C41.1582 127.234 40.959 126.785 40.959 126.242C40.959 125.582 41.209 125.07 41.709 124.707C42.2129 124.34 42.9199 124.156 43.8301 124.156H44.8848V123.658C44.8848 123.279 44.7715 122.979 44.5449 122.756C44.3184 122.529 43.9844 122.416 43.543 122.416C43.1562 122.416 42.832 122.514 42.5703 122.709C42.3086 122.904 42.1777 123.141 42.1777 123.418H41.0879C41.0879 123.102 41.1992 122.797 41.4219 122.504C41.6484 122.207 41.9531 121.973 42.3359 121.801C42.7227 121.629 43.1465 121.543 43.6074 121.543C44.3379 121.543 44.9102 121.727 45.3242 122.094C45.7383 122.457 45.9531 122.959 45.9688 123.6V126.518C45.9688 127.1 46.043 127.562 46.1914 127.906V128H45.0547ZM43.2559 127.174C43.5957 127.174 43.918 127.086 44.2227 126.91C44.5273 126.734 44.748 126.506 44.8848 126.225V124.924H44.0352C42.707 124.924 42.043 125.312 42.043 126.09C42.043 126.43 42.1562 126.695 42.3828 126.887C42.6094 127.078 42.9004 127.174 43.2559 127.174ZM49.666 126.529L51.2363 121.66H52.3438L50.0703 128H49.2441L46.9473 121.66H48.0547L49.666 126.529ZM57.207 128C57.1445 127.875 57.0938 127.652 57.0547 127.332C56.5508 127.855 55.9492 128.117 55.25 128.117C54.625 128.117 54.1113 127.941 53.709 127.59C53.3105 127.234 53.1113 126.785 53.1113 126.242C53.1113 125.582 53.3613 125.07 53.8613 124.707C54.3652 124.34 55.0723 124.156 55.9824 124.156H57.0371V123.658C57.0371 123.279 56.9238 122.979 56.6973 122.756C56.4707 122.529 56.1367 122.416 55.6953 122.416C55.3086 122.416 54.9844 122.514 54.7227 122.709C54.4609 122.904 54.3301 123.141 54.3301 123.418H53.2402C53.2402 123.102 53.3516 122.797 53.5742 122.504C53.8008 122.207 54.1055 121.973 54.4883 121.801C54.875 121.629 55.2988 121.543 55.7598 121.543C56.4902 121.543 57.0625 121.727 57.4766 122.094C57.8906 122.457 58.1055 122.959 58.1211 123.6V126.518C58.1211 127.1 58.1953 127.562 58.3438 127.906V128H57.207ZM55.4082 127.174C55.748 127.174 56.0703 127.086 56.375 126.91C56.6797 126.734 56.9004 126.506 57.0371 126.225V124.924H56.1875C54.8594 124.924 54.1953 125.312 54.1953 126.09C54.1953 126.43 54.3086 126.695 54.5352 126.887C54.7617 127.078 55.0527 127.174 55.4082 127.174ZM62.5039 124.197C61.5391 123.92 60.8359 123.58 60.3945 123.178C59.957 122.771 59.7383 122.271 59.7383 121.678C59.7383 121.006 60.0059 120.451 60.541 120.014C61.0801 119.572 61.7793 119.352 62.6387 119.352C63.2246 119.352 63.7461 119.465 64.2031 119.691C64.6641 119.918 65.0195 120.23 65.2695 120.629C65.5234 121.027 65.6504 121.463 65.6504 121.936H64.5195C64.5195 121.42 64.3555 121.016 64.0273 120.723C63.6992 120.426 63.2363 120.277 62.6387 120.277C62.084 120.277 61.6504 120.4 61.3379 120.646C61.0293 120.889 60.875 121.227 60.875 121.66C60.875 122.008 61.0215 122.303 61.3145 122.545C61.6113 122.783 62.1133 123.002 62.8203 123.201C63.5312 123.4 64.0859 123.621 64.4844 123.863C64.8867 124.102 65.1836 124.381 65.375 124.701C65.5703 125.021 65.668 125.398 65.668 125.832C65.668 126.523 65.3984 127.078 64.8594 127.496C64.3203 127.91 63.5996 128.117 62.6973 128.117C62.1113 128.117 61.5645 128.006 61.0566 127.783C60.5488 127.557 60.1562 127.248 59.8789 126.857C59.6055 126.467 59.4688 126.023 59.4688 125.527H60.5996C60.5996 126.043 60.7891 126.451 61.168 126.752C61.5508 127.049 62.0605 127.197 62.6973 127.197C63.291 127.197 63.7461 127.076 64.0625 126.834C64.3789 126.592 64.5371 126.262 64.5371 125.844C64.5371 125.426 64.3906 125.104 64.0977 124.877C63.8047 124.646 63.2734 124.42 62.5039 124.197ZM69.4883 127.232C69.875 127.232 70.2129 127.115 70.502 126.881C70.791 126.646 70.9512 126.354 70.9824 126.002H72.0078C71.9883 126.365 71.8633 126.711 71.6328 127.039C71.4023 127.367 71.0938 127.629 70.707 127.824C70.3242 128.02 69.918 128.117 69.4883 128.117C68.625 128.117 67.9375 127.83 67.4258 127.256C66.918 126.678 66.6641 125.889 66.6641 124.889V124.707C66.6641 124.09 66.7773 123.541 67.0039 123.061C67.2305 122.58 67.5547 122.207 67.9766 121.941C68.4023 121.676 68.9043 121.543 69.4824 121.543C70.1934 121.543 70.7832 121.756 71.252 122.182C71.7246 122.607 71.9766 123.16 72.0078 123.84H70.9824C70.9512 123.43 70.7949 123.094 70.5137 122.832C70.2363 122.566 69.8926 122.434 69.4824 122.434C68.9316 122.434 68.5039 122.633 68.1992 123.031C67.8984 123.426 67.748 123.998 67.748 124.748V124.953C67.748 125.684 67.8984 126.246 68.1992 126.641C68.5 127.035 68.9297 127.232 69.4883 127.232ZM76.291 122.633C76.127 122.605 75.9492 122.592 75.7578 122.592C75.0469 122.592 74.5645 122.895 74.3105 123.5V128H73.2266V121.66H74.2812L74.2988 122.393C74.6543 121.826 75.1582 121.543 75.8105 121.543C76.0215 121.543 76.1816 121.57 76.291 121.625V122.633ZM78.4707 128H77.3867V121.66H78.4707V128ZM77.2988 119.979C77.2988 119.803 77.3516 119.654 77.457 119.533C77.5664 119.412 77.7266 119.352 77.9375 119.352C78.1484 119.352 78.3086 119.412 78.418 119.533C78.5273 119.654 78.582 119.803 78.582 119.979C78.582 120.154 78.5273 120.301 78.418 120.418C78.3086 120.535 78.1484 120.594 77.9375 120.594C77.7266 120.594 77.5664 120.535 77.457 120.418C77.3516 120.301 77.2988 120.154 77.2988 119.979ZM85.5664 124.9C85.5664 125.865 85.3457 126.643 84.9043 127.232C84.4629 127.822 83.8652 128.117 83.1113 128.117C82.3418 128.117 81.7363 127.873 81.2949 127.385V130.438H80.2109V121.66H81.2012L81.2539 122.363C81.6953 121.816 82.3086 121.543 83.0938 121.543C83.8555 121.543 84.457 121.83 84.8984 122.404C85.3438 122.979 85.5664 123.777 85.5664 124.801V124.9ZM84.4824 124.777C84.4824 124.062 84.3301 123.498 84.0254 123.084C83.7207 122.67 83.3027 122.463 82.7715 122.463C82.1152 122.463 81.623 122.754 81.2949 123.336V126.365C81.6191 126.943 82.1152 127.232 82.7832 127.232C83.3027 127.232 83.7148 127.027 84.0195 126.617C84.3281 126.203 84.4824 125.59 84.4824 124.777ZM88.4199 120.125V121.66H89.6035V122.498H88.4199V126.43C88.4199 126.684 88.4727 126.875 88.5781 127.004C88.6836 127.129 88.8633 127.191 89.1172 127.191C89.2422 127.191 89.4141 127.168 89.6328 127.121V128C89.3477 128.078 89.0703 128.117 88.8008 128.117C88.3164 128.117 87.9512 127.971 87.7051 127.678C87.459 127.385 87.3359 126.969 87.3359 126.43V122.498H86.1816V121.66H87.3359V120.125H88.4199ZM91.0918 128.732H90.1602L93.7227 119.469H94.6484L91.0918 128.732ZM45.3066 134.395H42.5645V142H41.4453V134.395H38.709V133.469H45.3066V134.395ZM48.0547 140.412L49.5312 135.66H50.6914L48.1426 142.979C47.748 144.033 47.1211 144.561 46.2617 144.561L46.0566 144.543L45.6523 144.467V143.588L45.9453 143.611C46.3125 143.611 46.5977 143.537 46.8008 143.389C47.0078 143.24 47.1777 142.969 47.3105 142.574L47.5508 141.93L45.2891 135.66H46.4727L48.0547 140.412ZM57.0195 138.9C57.0195 139.865 56.7988 140.643 56.3574 141.232C55.916 141.822 55.3184 142.117 54.5645 142.117C53.7949 142.117 53.1895 141.873 52.748 141.385V144.438H51.6641V135.66H52.6543L52.707 136.363C53.1484 135.816 53.7617 135.543 54.5469 135.543C55.3086 135.543 55.9102 135.83 56.3516 136.404C56.7969 136.979 57.0195 137.777 57.0195 138.801V138.9ZM55.9355 138.777C55.9355 138.062 55.7832 137.498 55.4785 137.084C55.1738 136.67 54.7559 136.463 54.2246 136.463C53.5684 136.463 53.0762 136.754 52.748 137.336V140.365C53.0723 140.943 53.5684 141.232 54.2363 141.232C54.7559 141.232 55.168 141.027 55.4727 140.617C55.7812 140.203 55.9355 139.59 55.9355 138.777ZM61.0332 142.117C60.1738 142.117 59.4746 141.836 58.9355 141.273C58.3965 140.707 58.127 139.951 58.127 139.006V138.807C58.127 138.178 58.2461 137.617 58.4844 137.125C58.7266 136.629 59.0625 136.242 59.4922 135.965C59.9258 135.684 60.3945 135.543 60.8984 135.543C61.7227 135.543 62.3633 135.814 62.8203 136.357C63.2773 136.9 63.5059 137.678 63.5059 138.689V139.141H59.2109C59.2266 139.766 59.4082 140.271 59.7559 140.658C60.1074 141.041 60.5527 141.232 61.0918 141.232C61.4746 141.232 61.7988 141.154 62.0645 140.998C62.3301 140.842 62.5625 140.635 62.7617 140.377L63.4238 140.893C62.8926 141.709 62.0957 142.117 61.0332 142.117ZM60.8984 136.434C60.4609 136.434 60.0938 136.594 59.7969 136.914C59.5 137.23 59.3164 137.676 59.2461 138.25H62.4219V138.168C62.3906 137.617 62.2422 137.191 61.9766 136.891C61.7109 136.586 61.3516 136.434 60.8984 136.434ZM67.4492 138.197C66.4844 137.92 65.7812 137.58 65.3398 137.178C64.9023 136.771 64.6836 136.271 64.6836 135.678C64.6836 135.006 64.9512 134.451 65.4863 134.014C66.0254 133.572 66.7246 133.352 67.584 133.352C68.1699 133.352 68.6914 133.465 69.1484 133.691C69.6094 133.918 69.9648 134.23 70.2148 134.629C70.4688 135.027 70.5957 135.463 70.5957 135.936H69.4648C69.4648 135.42 69.3008 135.016 68.9727 134.723C68.6445 134.426 68.1816 134.277 67.584 134.277C67.0293 134.277 66.5957 134.4 66.2832 134.646C65.9746 134.889 65.8203 135.227 65.8203 135.66C65.8203 136.008 65.9668 136.303 66.2598 136.545C66.5566 136.783 67.0586 137.002 67.7656 137.201C68.4766 137.4 69.0312 137.621 69.4297 137.863C69.832 138.102 70.1289 138.381 70.3203 138.701C70.5156 139.021 70.6133 139.398 70.6133 139.832C70.6133 140.523 70.3438 141.078 69.8047 141.496C69.2656 141.91 68.5449 142.117 67.6426 142.117C67.0566 142.117 66.5098 142.006 66.002 141.783C65.4941 141.557 65.1016 141.248 64.8242 140.857C64.5508 140.467 64.4141 140.023 64.4141 139.527H65.5449C65.5449 140.043 65.7344 140.451 66.1133 140.752C66.4961 141.049 67.0059 141.197 67.6426 141.197C68.2363 141.197 68.6914 141.076 69.0078 140.834C69.3242 140.592 69.4824 140.262 69.4824 139.844C69.4824 139.426 69.3359 139.104 69.043 138.877C68.75 138.646 68.2188 138.42 67.4492 138.197ZM74.4336 141.232C74.8203 141.232 75.1582 141.115 75.4473 140.881C75.7363 140.646 75.8965 140.354 75.9277 140.002H76.9531C76.9336 140.365 76.8086 140.711 76.5781 141.039C76.3477 141.367 76.0391 141.629 75.6523 141.824C75.2695 142.02 74.8633 142.117 74.4336 142.117C73.5703 142.117 72.8828 141.83 72.3711 141.256C71.8633 140.678 71.6094 139.889 71.6094 138.889V138.707C71.6094 138.09 71.7227 137.541 71.9492 137.061C72.1758 136.58 72.5 136.207 72.9219 135.941C73.3477 135.676 73.8496 135.543 74.4277 135.543C75.1387 135.543 75.7285 135.756 76.1973 136.182C76.6699 136.607 76.9219 137.16 76.9531 137.84H75.9277C75.8965 137.43 75.7402 137.094 75.459 136.832C75.1816 136.566 74.8379 136.434 74.4277 136.434C73.877 136.434 73.4492 136.633 73.1445 137.031C72.8438 137.426 72.6934 137.998 72.6934 138.748V138.953C72.6934 139.684 72.8438 140.246 73.1445 140.641C73.4453 141.035 73.875 141.232 74.4336 141.232ZM81.2363 136.633C81.0723 136.605 80.8945 136.592 80.7031 136.592C79.9922 136.592 79.5098 136.895 79.2559 137.5V142H78.1719V135.66H79.2266L79.2441 136.393C79.5996 135.826 80.1035 135.543 80.7559 135.543C80.9668 135.543 81.127 135.57 81.2363 135.625V136.633ZM83.416 142H82.332V135.66H83.416V142ZM82.2441 133.979C82.2441 133.803 82.2969 133.654 82.4023 133.533C82.5117 133.412 82.6719 133.352 82.8828 133.352C83.0938 133.352 83.2539 133.412 83.3633 133.533C83.4727 133.654 83.5273 133.803 83.5273 133.979C83.5273 134.154 83.4727 134.301 83.3633 134.418C83.2539 134.535 83.0938 134.594 82.8828 134.594C82.6719 134.594 82.5117 134.535 82.4023 134.418C82.2969 134.301 82.2441 134.154 82.2441 133.979ZM90.5117 138.9C90.5117 139.865 90.291 140.643 89.8496 141.232C89.4082 141.822 88.8105 142.117 88.0566 142.117C87.2871 142.117 86.6816 141.873 86.2402 141.385V144.438H85.1562V135.66H86.1465L86.1992 136.363C86.6406 135.816 87.2539 135.543 88.0391 135.543C88.8008 135.543 89.4023 135.83 89.8438 136.404C90.2891 136.979 90.5117 137.777 90.5117 138.801V138.9ZM89.4277 138.777C89.4277 138.062 89.2754 137.498 88.9707 137.084C88.666 136.67 88.248 136.463 87.7168 136.463C87.0605 136.463 86.5684 136.754 86.2402 137.336V140.365C86.5645 140.943 87.0605 141.232 87.7285 141.232C88.248 141.232 88.6602 141.027 88.9648 140.617C89.2734 140.203 89.4277 139.59 89.4277 138.777ZM93.3652 134.125V135.66H94.5488V136.498H93.3652V140.43C93.3652 140.684 93.418 140.875 93.5234 141.004C93.6289 141.129 93.8086 141.191 94.0625 141.191C94.1875 141.191 94.3594 141.168 94.5781 141.121V142C94.293 142.078 94.0156 142.117 93.7461 142.117C93.2617 142.117 92.8965 141.971 92.6504 141.678C92.4043 141.385 92.2812 140.969 92.2812 140.43V136.498H91.127V135.66H92.2812V134.125H93.3652Z" fill="#54565A"/>
<path d="M68.627 185.549H66.623V189H65.4922V180.469H68.3164C69.2773 180.469 70.0156 180.688 70.5312 181.125C71.0508 181.562 71.3105 182.199 71.3105 183.035C71.3105 183.566 71.166 184.029 70.877 184.424C70.5918 184.818 70.1934 185.113 69.6816 185.309L71.6855 188.93V189H70.4785L68.627 185.549ZM66.623 184.629H68.3516C68.9102 184.629 69.3535 184.484 69.6816 184.195C70.0137 183.906 70.1797 183.52 70.1797 183.035C70.1797 182.508 70.0215 182.104 69.7051 181.822C69.3926 181.541 68.9395 181.398 68.3457 181.395H66.623V184.629ZM75.3535 189.117C74.4941 189.117 73.7949 188.836 73.2559 188.273C72.7168 187.707 72.4473 186.951 72.4473 186.006V185.807C72.4473 185.178 72.5664 184.617 72.8047 184.125C73.0469 183.629 73.3828 183.242 73.8125 182.965C74.2461 182.684 74.7148 182.543 75.2188 182.543C76.043 182.543 76.6836 182.814 77.1406 183.357C77.5977 183.9 77.8262 184.678 77.8262 185.689V186.141H73.5312C73.5469 186.766 73.7285 187.271 74.0762 187.658C74.4277 188.041 74.873 188.232 75.4121 188.232C75.7949 188.232 76.1191 188.154 76.3848 187.998C76.6504 187.842 76.8828 187.635 77.082 187.377L77.7441 187.893C77.2129 188.709 76.416 189.117 75.3535 189.117ZM75.2188 183.434C74.7812 183.434 74.4141 183.594 74.1172 183.914C73.8203 184.23 73.6367 184.676 73.5664 185.25H76.7422V185.168C76.7109 184.617 76.5625 184.191 76.2969 183.891C76.0312 183.586 75.6719 183.434 75.2188 183.434ZM83 189C82.9375 188.875 82.8867 188.652 82.8477 188.332C82.3438 188.855 81.7422 189.117 81.043 189.117C80.418 189.117 79.9043 188.941 79.502 188.59C79.1035 188.234 78.9043 187.785 78.9043 187.242C78.9043 186.582 79.1543 186.07 79.6543 185.707C80.1582 185.34 80.8652 185.156 81.7754 185.156H82.8301V184.658C82.8301 184.279 82.7168 183.979 82.4902 183.756C82.2637 183.529 81.9297 183.416 81.4883 183.416C81.1016 183.416 80.7773 183.514 80.5156 183.709C80.2539 183.904 80.123 184.141 80.123 184.418H79.0332C79.0332 184.102 79.1445 183.797 79.3672 183.504C79.5938 183.207 79.8984 182.973 80.2812 182.801C80.668 182.629 81.0918 182.543 81.5527 182.543C82.2832 182.543 82.8555 182.727 83.2695 183.094C83.6836 183.457 83.8984 183.959 83.9141 184.6V187.518C83.9141 188.1 83.9883 188.562 84.1367 188.906V189H83ZM81.2012 188.174C81.541 188.174 81.8633 188.086 82.168 187.91C82.4727 187.734 82.6934 187.506 82.8301 187.225V185.924H81.9805C80.6523 185.924 79.9883 186.312 79.9883 187.09C79.9883 187.43 80.1016 187.695 80.3281 187.887C80.5547 188.078 80.8457 188.174 81.2012 188.174ZM88.1562 188.232C88.543 188.232 88.8809 188.115 89.1699 187.881C89.459 187.646 89.6191 187.354 89.6504 187.002H90.6758C90.6562 187.365 90.5312 187.711 90.3008 188.039C90.0703 188.367 89.7617 188.629 89.375 188.824C88.9922 189.02 88.5859 189.117 88.1562 189.117C87.293 189.117 86.6055 188.83 86.0938 188.256C85.5859 187.678 85.332 186.889 85.332 185.889V185.707C85.332 185.09 85.4453 184.541 85.6719 184.061C85.8984 183.58 86.2227 183.207 86.6445 182.941C87.0703 182.676 87.5723 182.543 88.1504 182.543C88.8613 182.543 89.4512 182.756 89.9199 183.182C90.3926 183.607 90.6445 184.16 90.6758 184.84H89.6504C89.6191 184.43 89.4629 184.094 89.1816 183.832C88.9043 183.566 88.5605 183.434 88.1504 183.434C87.5996 183.434 87.1719 183.633 86.8672 184.031C86.5664 184.426 86.416 184.998 86.416 185.748V185.953C86.416 186.684 86.5664 187.246 86.8672 187.641C87.168 188.035 87.5977 188.232 88.1562 188.232ZM93.3652 181.125V182.66H94.5488V183.498H93.3652V187.43C93.3652 187.684 93.418 187.875 93.5234 188.004C93.6289 188.129 93.8086 188.191 94.0625 188.191C94.1875 188.191 94.3594 188.168 94.5781 188.121V189C94.293 189.078 94.0156 189.117 93.7461 189.117C93.2617 189.117 92.8965 188.971 92.6504 188.678C92.4043 188.385 92.2812 187.969 92.2812 187.43V183.498H91.127V182.66H92.2812V181.125H93.3652Z" fill="#54565A"/>
<path d="M59.3809 240.773H55.8066L55.0039 243H53.8438L57.1016 234.469H58.0859L61.3496 243H60.1953L59.3809 240.773ZM56.1465 239.848H59.0469L57.5938 235.857L56.1465 239.848ZM63.3535 236.66L63.3887 237.457C63.873 236.848 64.5059 236.543 65.2871 236.543C66.627 236.543 67.3027 237.299 67.3145 238.811V243H66.2305V238.805C66.2266 238.348 66.1211 238.01 65.9141 237.791C65.7109 237.572 65.3926 237.463 64.959 237.463C64.6074 237.463 64.2988 237.557 64.0332 237.744C63.7676 237.932 63.5605 238.178 63.4121 238.482V243H62.3281V236.66H63.3535ZM68.6914 239.777C68.6914 238.789 68.9199 238.004 69.377 237.422C69.834 236.836 70.4395 236.543 71.1934 236.543C71.9668 236.543 72.5703 236.816 73.0039 237.363L73.0566 236.66H74.0469V242.848C74.0469 243.668 73.8027 244.314 73.3145 244.787C72.8301 245.26 72.1777 245.496 71.3574 245.496C70.9004 245.496 70.4531 245.398 70.0156 245.203C69.5781 245.008 69.2441 244.74 69.0137 244.4L69.5762 243.75C70.041 244.324 70.6094 244.611 71.2812 244.611C71.8086 244.611 72.2188 244.463 72.5117 244.166C72.8086 243.869 72.957 243.451 72.957 242.912V242.367C72.5234 242.867 71.9316 243.117 71.1816 243.117C70.4395 243.117 69.8379 242.818 69.377 242.221C68.9199 241.623 68.6914 240.809 68.6914 239.777ZM69.7812 239.9C69.7812 240.615 69.9277 241.178 70.2207 241.588C70.5137 241.994 70.9238 242.197 71.4512 242.197C72.1348 242.197 72.6367 241.887 72.957 241.266V238.371C72.625 237.766 72.127 237.463 71.4629 237.463C70.9355 237.463 70.5234 237.668 70.2266 238.078C69.9297 238.488 69.7812 239.096 69.7812 239.9ZM79.6016 242.373C79.1797 242.869 78.5605 243.117 77.7441 243.117C77.0684 243.117 76.5527 242.922 76.1973 242.531C75.8457 242.137 75.668 241.555 75.6641 240.785V236.66H76.748V240.756C76.748 241.717 77.1387 242.197 77.9199 242.197C78.748 242.197 79.2988 241.889 79.5723 241.271V236.66H80.6562V243H79.625L79.6016 242.373ZM83.4863 243H82.4023V234H83.4863V243ZM89.1406 243C89.0781 242.875 89.0273 242.652 88.9883 242.332C88.4844 242.855 87.8828 243.117 87.1836 243.117C86.5586 243.117 86.0449 242.941 85.6426 242.59C85.2441 242.234 85.0449 241.785 85.0449 241.242C85.0449 240.582 85.2949 240.07 85.7949 239.707C86.2988 239.34 87.0059 239.156 87.916 239.156H88.9707V238.658C88.9707 238.279 88.8574 237.979 88.6309 237.756C88.4043 237.529 88.0703 237.416 87.6289 237.416C87.2422 237.416 86.918 237.514 86.6562 237.709C86.3945 237.904 86.2637 238.141 86.2637 238.418H85.1738C85.1738 238.102 85.2852 237.797 85.5078 237.504C85.7344 237.207 86.0391 236.973 86.4219 236.801C86.8086 236.629 87.2324 236.543 87.6934 236.543C88.4238 236.543 88.9961 236.727 89.4102 237.094C89.8242 237.457 90.0391 237.959 90.0547 238.6V241.518C90.0547 242.1 90.1289 242.562 90.2773 242.906V243H89.1406ZM87.3418 242.174C87.6816 242.174 88.0039 242.086 88.3086 241.91C88.6133 241.734 88.834 241.506 88.9707 241.225V239.924H88.1211C86.793 239.924 86.1289 240.312 86.1289 241.09C86.1289 241.43 86.2422 241.695 86.4688 241.887C86.6953 242.078 86.9863 242.174 87.3418 242.174ZM94.8184 237.633C94.6543 237.605 94.4766 237.592 94.2852 237.592C93.5742 237.592 93.0918 237.895 92.8379 238.5V243H91.7539V236.66H92.8086L92.8262 237.393C93.1816 236.826 93.6855 236.543 94.3379 236.543C94.5488 236.543 94.709 236.57 94.8184 236.625V237.633Z" fill="#54565A"/>
<path d="M61.7891 301H60.6582L56.3633 294.426V301H55.2324V292.469H56.3633L60.6699 299.072V292.469H61.7891V301ZM63.3301 297.771C63.3301 297.15 63.4512 296.592 63.6934 296.096C63.9395 295.6 64.2793 295.217 64.7129 294.947C65.1504 294.678 65.6484 294.543 66.207 294.543C67.0703 294.543 67.7676 294.842 68.2988 295.439C68.834 296.037 69.1016 296.832 69.1016 297.824V297.9C69.1016 298.518 68.9824 299.072 68.7441 299.564C68.5098 300.053 68.1719 300.434 67.7305 300.707C67.293 300.98 66.7891 301.117 66.2188 301.117C65.3594 301.117 64.6621 300.818 64.127 300.221C63.5957 299.623 63.3301 298.832 63.3301 297.848V297.771ZM64.4199 297.9C64.4199 298.604 64.582 299.168 64.9062 299.594C65.2344 300.02 65.6719 300.232 66.2188 300.232C66.7695 300.232 67.207 300.018 67.5312 299.588C67.8555 299.154 68.0176 298.549 68.0176 297.771C68.0176 297.076 67.8516 296.514 67.5195 296.084C67.1914 295.65 66.7539 295.434 66.207 295.434C65.6719 295.434 65.2402 295.646 64.9121 296.072C64.584 296.498 64.4199 297.107 64.4199 297.9ZM70.1973 297.777C70.1973 296.805 70.4277 296.023 70.8887 295.434C71.3496 294.84 71.9531 294.543 72.6992 294.543C73.4414 294.543 74.0293 294.797 74.4629 295.305V292H75.5469V301H74.5508L74.498 300.32C74.0645 300.852 73.4609 301.117 72.6875 301.117C71.9531 301.117 71.3535 300.816 70.8887 300.215C70.4277 299.613 70.1973 298.828 70.1973 297.859V297.777ZM71.2812 297.9C71.2812 298.619 71.4297 299.182 71.7266 299.588C72.0234 299.994 72.4336 300.197 72.957 300.197C73.6445 300.197 74.1465 299.889 74.4629 299.271V296.359C74.1387 295.762 73.6406 295.463 72.9688 295.463C72.4375 295.463 72.0234 295.668 71.7266 296.078C71.4297 296.488 71.2812 297.096 71.2812 297.9ZM79.8652 301.117C79.0059 301.117 78.3066 300.836 77.7676 300.273C77.2285 299.707 76.959 298.951 76.959 298.006V297.807C76.959 297.178 77.0781 296.617 77.3164 296.125C77.5586 295.629 77.8945 295.242 78.3242 294.965C78.7578 294.684 79.2266 294.543 79.7305 294.543C80.5547 294.543 81.1953 294.814 81.6523 295.357C82.1094 295.9 82.3379 296.678 82.3379 297.689V298.141H78.043C78.0586 298.766 78.2402 299.271 78.5879 299.658C78.9395 300.041 79.3848 300.232 79.9238 300.232C80.3066 300.232 80.6309 300.154 80.8965 299.998C81.1621 299.842 81.3945 299.635 81.5938 299.377L82.2559 299.893C81.7246 300.709 80.9277 301.117 79.8652 301.117ZM79.7305 295.434C79.293 295.434 78.9258 295.594 78.6289 295.914C78.332 296.23 78.1484 296.676 78.0781 297.25H81.2539V297.168C81.2227 296.617 81.0742 296.191 80.8086 295.891C80.543 295.586 80.1836 295.434 79.7305 295.434ZM83.6211 300.432C83.6211 300.244 83.6758 300.088 83.7852 299.963C83.8984 299.838 84.0664 299.775 84.2891 299.775C84.5117 299.775 84.6797 299.838 84.793 299.963C84.9102 300.088 84.9688 300.244 84.9688 300.432C84.9688 300.611 84.9102 300.762 84.793 300.883C84.6797 301.004 84.5117 301.064 84.2891 301.064C84.0664 301.064 83.8984 301.004 83.7852 300.883C83.6758 300.762 83.6211 300.611 83.6211 300.432ZM87.8809 294.66V301.732C87.8809 302.951 87.3281 303.561 86.2227 303.561C85.9844 303.561 85.7637 303.525 85.5605 303.455V302.588C85.6855 302.619 85.8496 302.635 86.0527 302.635C86.2949 302.635 86.4785 302.568 86.6035 302.436C86.7324 302.307 86.7969 302.08 86.7969 301.756V294.66H87.8809ZM86.6855 292.979C86.6855 292.807 86.7383 292.66 86.8438 292.539C86.9531 292.414 87.1113 292.352 87.3184 292.352C87.5293 292.352 87.6895 292.412 87.7988 292.533C87.9082 292.654 87.9629 292.803 87.9629 292.979C87.9629 293.154 87.9082 293.301 87.7988 293.418C87.6895 293.535 87.5293 293.594 87.3184 293.594C87.1074 293.594 86.9492 293.535 86.8438 293.418C86.7383 293.301 86.6855 293.154 86.6855 292.979ZM93.3242 299.318C93.3242 299.025 93.2129 298.799 92.9902 298.639C92.7715 298.475 92.3867 298.334 91.8359 298.217C91.2891 298.1 90.8535 297.959 90.5293 297.795C90.209 297.631 89.9707 297.436 89.8145 297.209C89.6621 296.982 89.5859 296.713 89.5859 296.4C89.5859 295.881 89.8047 295.441 90.2422 295.082C90.6836 294.723 91.2461 294.543 91.9297 294.543C92.6484 294.543 93.2305 294.729 93.6758 295.1C94.125 295.471 94.3496 295.945 94.3496 296.523H93.2598C93.2598 296.227 93.1328 295.971 92.8789 295.756C92.6289 295.541 92.3125 295.434 91.9297 295.434C91.5352 295.434 91.2266 295.52 91.0039 295.691C90.7812 295.863 90.6699 296.088 90.6699 296.365C90.6699 296.627 90.7734 296.824 90.9805 296.957C91.1875 297.09 91.5605 297.217 92.0996 297.338C92.6426 297.459 93.082 297.604 93.418 297.771C93.7539 297.939 94.002 298.143 94.1621 298.381C94.3262 298.615 94.4082 298.902 94.4082 299.242C94.4082 299.809 94.1816 300.264 93.7285 300.607C93.2754 300.947 92.6875 301.117 91.9648 301.117C91.457 301.117 91.0078 301.027 90.6172 300.848C90.2266 300.668 89.9199 300.418 89.6973 300.098C89.4785 299.773 89.3691 299.424 89.3691 299.049H90.4531C90.4727 299.412 90.6172 299.701 90.8867 299.916C91.1602 300.127 91.5195 300.232 91.9648 300.232C92.375 300.232 92.7031 300.15 92.9492 299.986C93.1992 299.818 93.3242 299.596 93.3242 299.318Z" fill="#54565A"/>
<path d="M245 9.60938H104.348V34.6034H245V9.60938Z" fill="#E3E5E8" stroke="#319795" stroke-miterlimit="10"/>
<path d="M224.119 9.60938H104.348V34.6034H224.119V9.60938Z" fill="#319795" stroke="#319795" stroke-miterlimit="10"/>
<path d="M224.119 9.60938H104.348V34.6034H224.119V9.60938Z" fill="#319795" stroke="#319795" stroke-miterlimit="10"/>
<path d="M245 63.8906H104.348V88.8848H245V63.8906Z" fill="#E3E5E8" stroke="#319795" stroke-miterlimit="10"/>
<path d="M219.194 63.8906H104.348V88.8848H219.194V63.8906Z" fill="#319795" stroke="#319795" stroke-miterlimit="10"/>
<path d="M219.194 63.8906H104.348V88.8848H219.194V63.8906Z" fill="#319795" stroke="#319795" stroke-miterlimit="10"/>
<path d="M245 120.137H104.348V141.616H245V120.137Z" fill="#E3E5E8" stroke="#319795" stroke-miterlimit="10"/>
<path d="M215.057 120.137H104.348V141.616H215.057V120.137Z" fill="#319795" stroke="#319795" stroke-miterlimit="10"/>
<path d="M215.057 120.137H104.348V141.616H215.057V120.137Z" fill="#319795" stroke="#319795" stroke-miterlimit="10"/>
<path d="M245 172.457H104.348V197.451H245V172.457Z" fill="#E3E5E8" stroke="#319795" stroke-miterlimit="10"/>
<path d="M215.057 172.457H104.348V197.451H215.057V172.457Z" fill="#319795" stroke="#319795" stroke-miterlimit="10"/>
<path d="M215.057 172.457H104.348V197.451H215.057V172.457Z" fill="#319795" stroke="#319795" stroke-miterlimit="10"/>
<path d="M245 226.75H104.348V251.744H245V226.75Z" fill="#E3E5E8" stroke="#319795" stroke-miterlimit="10"/>
<path d="M215.057 226.75H104.348V251.744H215.057V226.75Z" fill="#319795" stroke="#319795" stroke-miterlimit="10"/>
<path d="M215.057 226.75H104.348V251.744H215.057V226.75Z" fill="#319795" stroke="#319795" stroke-miterlimit="10"/>
<path d="M245 284.934H104.348V309.928H245V284.934Z" fill="#E3E5E8" stroke="#319795" stroke-miterlimit="10"/>
<path d="M188.66 284.934H104.348V309.928H188.66V284.934Z" fill="#319795" stroke="#319795" stroke-miterlimit="10"/>
<path d="M104.348 0.625V330.625" stroke="#BBBBBB" stroke-width="2" stroke-miterlimit="10"/>
</svg>
