<svg width="246" height="330" viewBox="0 0 246 330" fill="none" xmlns="http://www.w3.org/2000/svg">
<path d="M63.3359 25.375H62.2051V21.4316H57.9043V25.375H56.7793V16.8438H57.9043V20.5117H62.2051V16.8438H63.3359V25.375ZM71.0527 17.7695H68.3105V25.375H67.1914V17.7695H64.4551V16.8438H71.0527V17.7695ZM73.7715 16.8438L76.5605 23.8047L79.3496 16.8438H80.8086V25.375H79.6836V22.0527L79.7891 18.4668L76.9883 25.375H76.127L73.332 18.4844L73.4434 22.0527V25.375H72.3184V16.8438H73.7715ZM83.9258 24.4551H87.9688V25.375H82.7949V16.8438H83.9258V24.4551ZM89.4688 21.0977L89.9023 16.8438H94.2734V17.8457H90.8223L90.5645 20.1719C90.9824 19.9258 91.457 19.8027 91.9883 19.8027C92.7656 19.8027 93.3828 20.0605 93.8398 20.5762C94.2969 21.0879 94.5254 21.7812 94.5254 22.6562C94.5254 23.5352 94.2871 24.2285 93.8105 24.7363C93.3379 25.2402 92.6758 25.4922 91.8242 25.4922C91.0703 25.4922 90.4551 25.2832 89.9785 24.8652C89.502 24.4473 89.2305 23.8691 89.1641 23.1309H90.1895C90.2559 23.6191 90.4297 23.9883 90.7109 24.2383C90.9922 24.4844 91.3633 24.6074 91.8242 24.6074C92.3281 24.6074 92.7227 24.4355 93.0078 24.0918C93.2969 23.748 93.4414 23.2734 93.4414 22.668C93.4414 22.0977 93.2852 21.6406 92.9727 21.2969C92.6641 20.9492 92.252 20.7754 91.7363 20.7754C91.2637 20.7754 90.8926 20.8789 90.623 21.0859L90.3359 21.3203L89.4688 21.0977Z" fill="#E3E5E8"/>
<path d="M46.0508 78.668C45.9453 79.5703 45.6113 80.2676 45.0488 80.7598C44.4902 81.248 43.7461 81.4922 42.8164 81.4922C41.8086 81.4922 41 81.1309 40.3906 80.4082C39.7852 79.6855 39.4824 78.7188 39.4824 77.5078V76.6875C39.4824 75.8945 39.623 75.1973 39.9043 74.5957C40.1895 73.9941 40.5918 73.5332 41.1113 73.2129C41.6309 72.8887 42.2324 72.7266 42.916 72.7266C43.8223 72.7266 44.5488 72.9805 45.0957 73.4883C45.6426 73.9922 45.9609 74.6914 46.0508 75.5859H44.9199C44.8223 74.9062 44.6094 74.4141 44.2812 74.1094C43.957 73.8047 43.502 73.6523 42.916 73.6523C42.1973 73.6523 41.6328 73.918 41.2227 74.4492C40.8164 74.9805 40.6133 75.7363 40.6133 76.7168V77.543C40.6133 78.4688 40.8066 79.2051 41.1934 79.752C41.5801 80.2988 42.1211 80.5723 42.8164 80.5723C43.4414 80.5723 43.9199 80.4316 44.252 80.1504C44.5879 79.8652 44.8105 79.3711 44.9199 78.668H46.0508ZM50.1055 77.5723C49.1406 77.2949 48.4375 76.9551 47.9961 76.5527C47.5586 76.1465 47.3398 75.6465 47.3398 75.0527C47.3398 74.3809 47.6074 73.8262 48.1426 73.3887C48.6816 72.9473 49.3809 72.7266 50.2402 72.7266C50.8262 72.7266 51.3477 72.8398 51.8047 73.0664C52.2656 73.293 52.6211 73.6055 52.8711 74.0039C53.125 74.4023 53.252 74.8379 53.252 75.3105H52.1211C52.1211 74.7949 51.957 74.3906 51.6289 74.0977C51.3008 73.8008 50.8379 73.6523 50.2402 73.6523C49.6855 73.6523 49.252 73.7754 48.9395 74.0215C48.6309 74.2637 48.4766 74.6016 48.4766 75.0352C48.4766 75.3828 48.623 75.6777 48.916 75.9199C49.2129 76.1582 49.7148 76.377 50.4219 76.5762C51.1328 76.7754 51.6875 76.9961 52.0859 77.2383C52.4883 77.4766 52.7852 77.7559 52.9766 78.0762C53.1719 78.3965 53.2695 78.7734 53.2695 79.207C53.2695 79.8984 53 80.4531 52.4609 80.8711C51.9219 81.2852 51.2012 81.4922 50.2988 81.4922C49.7129 81.4922 49.166 81.3809 48.6582 81.1582C48.1504 80.9316 47.7578 80.623 47.4805 80.2324C47.207 79.8418 47.0703 79.3984 47.0703 78.9023H48.2012C48.2012 79.418 48.3906 79.8262 48.7695 80.127C49.1523 80.4238 49.6621 80.5723 50.2988 80.5723C50.8926 80.5723 51.3477 80.4512 51.6641 80.209C51.9805 79.9668 52.1387 79.6367 52.1387 79.2188C52.1387 78.8008 51.9922 78.4785 51.6992 78.252C51.4062 78.0215 50.875 77.7949 50.1055 77.5723ZM57.2305 77.5723C56.2656 77.2949 55.5625 76.9551 55.1211 76.5527C54.6836 76.1465 54.4648 75.6465 54.4648 75.0527C54.4648 74.3809 54.7324 73.8262 55.2676 73.3887C55.8066 72.9473 56.5059 72.7266 57.3652 72.7266C57.9512 72.7266 58.4727 72.8398 58.9297 73.0664C59.3906 73.293 59.7461 73.6055 59.9961 74.0039C60.25 74.4023 60.377 74.8379 60.377 75.3105H59.2461C59.2461 74.7949 59.082 74.3906 58.7539 74.0977C58.4258 73.8008 57.9629 73.6523 57.3652 73.6523C56.8105 73.6523 56.377 73.7754 56.0645 74.0215C55.7559 74.2637 55.6016 74.6016 55.6016 75.0352C55.6016 75.3828 55.748 75.6777 56.041 75.9199C56.3379 76.1582 56.8398 76.377 57.5469 76.5762C58.2578 76.7754 58.8125 76.9961 59.2109 77.2383C59.6133 77.4766 59.9102 77.7559 60.1016 78.0762C60.2969 78.3965 60.3945 78.7734 60.3945 79.207C60.3945 79.8984 60.125 80.4531 59.5859 80.8711C59.0469 81.2852 58.3262 81.4922 57.4238 81.4922C56.8379 81.4922 56.291 81.3809 55.7832 81.1582C55.2754 80.9316 54.8828 80.623 54.6055 80.2324C54.332 79.8418 54.1953 79.3984 54.1953 78.9023H55.3262C55.3262 79.418 55.5156 79.8262 55.8945 80.127C56.2773 80.4238 56.7871 80.5723 57.4238 80.5723C58.0176 80.5723 58.4727 80.4512 58.7891 80.209C59.1055 79.9668 59.2637 79.6367 59.2637 79.2188C59.2637 78.8008 59.1172 78.4785 58.8242 78.252C58.5312 78.0215 58 77.7949 57.2305 77.5723ZM61.8887 82.1074H60.957L64.5195 72.8438H65.4453L61.8887 82.1074ZM69.3008 77.5723C68.3359 77.2949 67.6328 76.9551 67.1914 76.5527C66.7539 76.1465 66.5352 75.6465 66.5352 75.0527C66.5352 74.3809 66.8027 73.8262 67.3379 73.3887C67.877 72.9473 68.5762 72.7266 69.4355 72.7266C70.0215 72.7266 70.543 72.8398 71 73.0664C71.4609 73.293 71.8164 73.6055 72.0664 74.0039C72.3203 74.4023 72.4473 74.8379 72.4473 75.3105H71.3164C71.3164 74.7949 71.1523 74.3906 70.8242 74.0977C70.4961 73.8008 70.0332 73.6523 69.4355 73.6523C68.8809 73.6523 68.4473 73.7754 68.1348 74.0215C67.8262 74.2637 67.6719 74.6016 67.6719 75.0352C67.6719 75.3828 67.8184 75.6777 68.1113 75.9199C68.4082 76.1582 68.9102 76.377 69.6172 76.5762C70.3281 76.7754 70.8828 76.9961 71.2812 77.2383C71.6836 77.4766 71.9805 77.7559 72.1719 78.0762C72.3672 78.3965 72.4648 78.7734 72.4648 79.207C72.4648 79.8984 72.1953 80.4531 71.6562 80.8711C71.1172 81.2852 70.3965 81.4922 69.4941 81.4922C68.9082 81.4922 68.3613 81.3809 67.8535 81.1582C67.3457 80.9316 66.9531 80.623 66.6758 80.2324C66.4023 79.8418 66.2656 79.3984 66.2656 78.9023H67.3965C67.3965 79.418 67.5859 79.8262 67.9648 80.127C68.3477 80.4238 68.8574 80.5723 69.4941 80.5723C70.0879 80.5723 70.543 80.4512 70.8594 80.209C71.1758 79.9668 71.334 79.6367 71.334 79.2188C71.334 78.8008 71.1875 78.4785 70.8945 78.252C70.6016 78.0215 70.0703 77.7949 69.3008 77.5723ZM78.623 79.1484H75.0488L74.2461 81.375H73.0859L76.3438 72.8438H77.3281L80.5918 81.375H79.4375L78.623 79.1484ZM75.3887 78.2227H78.2891L76.8359 74.2324L75.3887 78.2227ZM84.2539 77.5723C83.2891 77.2949 82.5859 76.9551 82.1445 76.5527C81.707 76.1465 81.4883 75.6465 81.4883 75.0527C81.4883 74.3809 81.7559 73.8262 82.291 73.3887C82.8301 72.9473 83.5293 72.7266 84.3887 72.7266C84.9746 72.7266 85.4961 72.8398 85.9531 73.0664C86.4141 73.293 86.7695 73.6055 87.0195 74.0039C87.2734 74.4023 87.4004 74.8379 87.4004 75.3105H86.2695C86.2695 74.7949 86.1055 74.3906 85.7773 74.0977C85.4492 73.8008 84.9863 73.6523 84.3887 73.6523C83.834 73.6523 83.4004 73.7754 83.0879 74.0215C82.7793 74.2637 82.625 74.6016 82.625 75.0352C82.625 75.3828 82.7715 75.6777 83.0645 75.9199C83.3613 76.1582 83.8633 76.377 84.5703 76.5762C85.2812 76.7754 85.8359 76.9961 86.2344 77.2383C86.6367 77.4766 86.9336 77.7559 87.125 78.0762C87.3203 78.3965 87.418 78.7734 87.418 79.207C87.418 79.8984 87.1484 80.4531 86.6094 80.8711C86.0703 81.2852 85.3496 81.4922 84.4473 81.4922C83.8613 81.4922 83.3145 81.3809 82.8066 81.1582C82.2988 80.9316 81.9062 80.623 81.6289 80.2324C81.3555 79.8418 81.2188 79.3984 81.2188 78.9023H82.3496C82.3496 79.418 82.5391 79.8262 82.918 80.127C83.3008 80.4238 83.8105 80.5723 84.4473 80.5723C85.041 80.5723 85.4961 80.4512 85.8125 80.209C86.1289 79.9668 86.2871 79.6367 86.2871 79.2188C86.2871 78.8008 86.1406 78.4785 85.8477 78.252C85.5547 78.0215 85.0234 77.7949 84.2539 77.5723ZM91.3789 77.5723C90.4141 77.2949 89.7109 76.9551 89.2695 76.5527C88.832 76.1465 88.6133 75.6465 88.6133 75.0527C88.6133 74.3809 88.8809 73.8262 89.416 73.3887C89.9551 72.9473 90.6543 72.7266 91.5137 72.7266C92.0996 72.7266 92.6211 72.8398 93.0781 73.0664C93.5391 73.293 93.8945 73.6055 94.1445 74.0039C94.3984 74.4023 94.5254 74.8379 94.5254 75.3105H93.3945C93.3945 74.7949 93.2305 74.3906 92.9023 74.0977C92.5742 73.8008 92.1113 73.6523 91.5137 73.6523C90.959 73.6523 90.5254 73.7754 90.2129 74.0215C89.9043 74.2637 89.75 74.6016 89.75 75.0352C89.75 75.3828 89.8965 75.6777 90.1895 75.9199C90.4863 76.1582 90.9883 76.377 91.6953 76.5762C92.4062 76.7754 92.9609 76.9961 93.3594 77.2383C93.7617 77.4766 94.0586 77.7559 94.25 78.0762C94.4453 78.3965 94.543 78.7734 94.543 79.207C94.543 79.8984 94.2734 80.4531 93.7344 80.8711C93.1953 81.2852 92.4746 81.4922 91.5723 81.4922C90.9863 81.4922 90.4395 81.3809 89.9316 81.1582C89.4238 80.9316 89.0312 80.623 88.7539 80.2324C88.4805 79.8418 88.3438 79.3984 88.3438 78.9023H89.4746C89.4746 79.418 89.6641 79.8262 90.043 80.127C90.4258 80.4238 90.9355 80.5723 91.5723 80.5723C92.166 80.5723 92.6211 80.4512 92.9375 80.209C93.2539 79.9668 93.4121 79.6367 93.4121 79.2188C93.4121 78.8008 93.2656 78.4785 92.9727 78.252C92.6797 78.0215 92.1484 77.7949 91.3789 77.5723Z" fill="#E3E5E8"/>
<path d="M38.2637 118.844H39.3945V124.885C39.3945 125.701 39.1484 126.34 38.6562 126.801C38.168 127.262 37.5156 127.492 36.6992 127.492C35.8516 127.492 35.1914 127.275 34.7188 126.842C34.2461 126.408 34.0098 125.801 34.0098 125.02H35.1348C35.1348 125.508 35.2676 125.889 35.5332 126.162C35.8027 126.436 36.1914 126.572 36.6992 126.572C37.1641 126.572 37.5391 126.426 37.8242 126.133C38.1133 125.84 38.2598 125.43 38.2637 124.902V118.844ZM45.0547 127.375C44.9922 127.25 44.9414 127.027 44.9023 126.707C44.3984 127.23 43.7969 127.492 43.0977 127.492C42.4727 127.492 41.959 127.316 41.5566 126.965C41.1582 126.609 40.959 126.16 40.959 125.617C40.959 124.957 41.209 124.445 41.709 124.082C42.2129 123.715 42.9199 123.531 43.8301 123.531H44.8848V123.033C44.8848 122.654 44.7715 122.354 44.5449 122.131C44.3184 121.904 43.9844 121.791 43.543 121.791C43.1562 121.791 42.832 121.889 42.5703 122.084C42.3086 122.279 42.1777 122.516 42.1777 122.793H41.0879C41.0879 122.477 41.1992 122.172 41.4219 121.879C41.6484 121.582 41.9531 121.348 42.3359 121.176C42.7227 121.004 43.1465 120.918 43.6074 120.918C44.3379 120.918 44.9102 121.102 45.3242 121.469C45.7383 121.832 45.9531 122.334 45.9688 122.975V125.893C45.9688 126.475 46.043 126.938 46.1914 127.281V127.375H45.0547ZM43.2559 126.549C43.5957 126.549 43.918 126.461 44.2227 126.285C44.5273 126.109 44.748 125.881 44.8848 125.6V124.299H44.0352C42.707 124.299 42.043 124.688 42.043 125.465C42.043 125.805 42.1562 126.07 42.3828 126.262C42.6094 126.453 42.9004 126.549 43.2559 126.549ZM49.666 125.904L51.2363 121.035H52.3438L50.0703 127.375H49.2441L46.9473 121.035H48.0547L49.666 125.904ZM57.207 127.375C57.1445 127.25 57.0938 127.027 57.0547 126.707C56.5508 127.23 55.9492 127.492 55.25 127.492C54.625 127.492 54.1113 127.316 53.709 126.965C53.3105 126.609 53.1113 126.16 53.1113 125.617C53.1113 124.957 53.3613 124.445 53.8613 124.082C54.3652 123.715 55.0723 123.531 55.9824 123.531H57.0371V123.033C57.0371 122.654 56.9238 122.354 56.6973 122.131C56.4707 121.904 56.1367 121.791 55.6953 121.791C55.3086 121.791 54.9844 121.889 54.7227 122.084C54.4609 122.279 54.3301 122.516 54.3301 122.793H53.2402C53.2402 122.477 53.3516 122.172 53.5742 121.879C53.8008 121.582 54.1055 121.348 54.4883 121.176C54.875 121.004 55.2988 120.918 55.7598 120.918C56.4902 120.918 57.0625 121.102 57.4766 121.469C57.8906 121.832 58.1055 122.334 58.1211 122.975V125.893C58.1211 126.475 58.1953 126.938 58.3438 127.281V127.375H57.207ZM55.4082 126.549C55.748 126.549 56.0703 126.461 56.375 126.285C56.6797 126.109 56.9004 125.881 57.0371 125.6V124.299H56.1875C54.8594 124.299 54.1953 124.688 54.1953 125.465C54.1953 125.805 54.3086 126.07 54.5352 126.262C54.7617 126.453 55.0527 126.549 55.4082 126.549ZM62.5039 123.572C61.5391 123.295 60.8359 122.955 60.3945 122.553C59.957 122.146 59.7383 121.646 59.7383 121.053C59.7383 120.381 60.0059 119.826 60.541 119.389C61.0801 118.947 61.7793 118.727 62.6387 118.727C63.2246 118.727 63.7461 118.84 64.2031 119.066C64.6641 119.293 65.0195 119.605 65.2695 120.004C65.5234 120.402 65.6504 120.838 65.6504 121.311H64.5195C64.5195 120.795 64.3555 120.391 64.0273 120.098C63.6992 119.801 63.2363 119.652 62.6387 119.652C62.084 119.652 61.6504 119.775 61.3379 120.021C61.0293 120.264 60.875 120.602 60.875 121.035C60.875 121.383 61.0215 121.678 61.3145 121.92C61.6113 122.158 62.1133 122.377 62.8203 122.576C63.5312 122.775 64.0859 122.996 64.4844 123.238C64.8867 123.477 65.1836 123.756 65.375 124.076C65.5703 124.396 65.668 124.773 65.668 125.207C65.668 125.898 65.3984 126.453 64.8594 126.871C64.3203 127.285 63.5996 127.492 62.6973 127.492C62.1113 127.492 61.5645 127.381 61.0566 127.158C60.5488 126.932 60.1562 126.623 59.8789 126.232C59.6055 125.842 59.4688 125.398 59.4688 124.902H60.5996C60.5996 125.418 60.7891 125.826 61.168 126.127C61.5508 126.424 62.0605 126.572 62.6973 126.572C63.291 126.572 63.7461 126.451 64.0625 126.209C64.3789 125.967 64.5371 125.637 64.5371 125.219C64.5371 124.801 64.3906 124.479 64.0977 124.252C63.8047 124.021 63.2734 123.795 62.5039 123.572ZM69.4883 126.607C69.875 126.607 70.2129 126.49 70.502 126.256C70.791 126.021 70.9512 125.729 70.9824 125.377H72.0078C71.9883 125.74 71.8633 126.086 71.6328 126.414C71.4023 126.742 71.0938 127.004 70.707 127.199C70.3242 127.395 69.918 127.492 69.4883 127.492C68.625 127.492 67.9375 127.205 67.4258 126.631C66.918 126.053 66.6641 125.264 66.6641 124.264V124.082C66.6641 123.465 66.7773 122.916 67.0039 122.436C67.2305 121.955 67.5547 121.582 67.9766 121.316C68.4023 121.051 68.9043 120.918 69.4824 120.918C70.1934 120.918 70.7832 121.131 71.252 121.557C71.7246 121.982 71.9766 122.535 72.0078 123.215H70.9824C70.9512 122.805 70.7949 122.469 70.5137 122.207C70.2363 121.941 69.8926 121.809 69.4824 121.809C68.9316 121.809 68.5039 122.008 68.1992 122.406C67.8984 122.801 67.748 123.373 67.748 124.123V124.328C67.748 125.059 67.8984 125.621 68.1992 126.016C68.5 126.41 68.9297 126.607 69.4883 126.607ZM76.291 122.008C76.127 121.98 75.9492 121.967 75.7578 121.967C75.0469 121.967 74.5645 122.27 74.3105 122.875V127.375H73.2266V121.035H74.2812L74.2988 121.768C74.6543 121.201 75.1582 120.918 75.8105 120.918C76.0215 120.918 76.1816 120.945 76.291 121V122.008ZM78.4707 127.375H77.3867V121.035H78.4707V127.375ZM77.2988 119.354C77.2988 119.178 77.3516 119.029 77.457 118.908C77.5664 118.787 77.7266 118.727 77.9375 118.727C78.1484 118.727 78.3086 118.787 78.418 118.908C78.5273 119.029 78.582 119.178 78.582 119.354C78.582 119.529 78.5273 119.676 78.418 119.793C78.3086 119.91 78.1484 119.969 77.9375 119.969C77.7266 119.969 77.5664 119.91 77.457 119.793C77.3516 119.676 77.2988 119.529 77.2988 119.354ZM85.5664 124.275C85.5664 125.24 85.3457 126.018 84.9043 126.607C84.4629 127.197 83.8652 127.492 83.1113 127.492C82.3418 127.492 81.7363 127.248 81.2949 126.76V129.812H80.2109V121.035H81.2012L81.2539 121.738C81.6953 121.191 82.3086 120.918 83.0938 120.918C83.8555 120.918 84.457 121.205 84.8984 121.779C85.3438 122.354 85.5664 123.152 85.5664 124.176V124.275ZM84.4824 124.152C84.4824 123.438 84.3301 122.873 84.0254 122.459C83.7207 122.045 83.3027 121.838 82.7715 121.838C82.1152 121.838 81.623 122.129 81.2949 122.711V125.74C81.6191 126.318 82.1152 126.607 82.7832 126.607C83.3027 126.607 83.7148 126.402 84.0195 125.992C84.3281 125.578 84.4824 124.965 84.4824 124.152ZM88.4199 119.5V121.035H89.6035V121.873H88.4199V125.805C88.4199 126.059 88.4727 126.25 88.5781 126.379C88.6836 126.504 88.8633 126.566 89.1172 126.566C89.2422 126.566 89.4141 126.543 89.6328 126.496V127.375C89.3477 127.453 89.0703 127.492 88.8008 127.492C88.3164 127.492 87.9512 127.346 87.7051 127.053C87.459 126.76 87.3359 126.344 87.3359 125.805V121.873H86.1816V121.035H87.3359V119.5H88.4199ZM91.0918 128.107H90.1602L93.7227 118.844H94.6484L91.0918 128.107ZM45.3066 133.77H42.5645V141.375H41.4453V133.77H38.709V132.844H45.3066V133.77ZM48.0547 139.787L49.5312 135.035H50.6914L48.1426 142.354C47.748 143.408 47.1211 143.936 46.2617 143.936L46.0566 143.918L45.6523 143.842V142.963L45.9453 142.986C46.3125 142.986 46.5977 142.912 46.8008 142.764C47.0078 142.615 47.1777 142.344 47.3105 141.949L47.5508 141.305L45.2891 135.035H46.4727L48.0547 139.787ZM57.0195 138.275C57.0195 139.24 56.7988 140.018 56.3574 140.607C55.916 141.197 55.3184 141.492 54.5645 141.492C53.7949 141.492 53.1895 141.248 52.748 140.76V143.812H51.6641V135.035H52.6543L52.707 135.738C53.1484 135.191 53.7617 134.918 54.5469 134.918C55.3086 134.918 55.9102 135.205 56.3516 135.779C56.7969 136.354 57.0195 137.152 57.0195 138.176V138.275ZM55.9355 138.152C55.9355 137.438 55.7832 136.873 55.4785 136.459C55.1738 136.045 54.7559 135.838 54.2246 135.838C53.5684 135.838 53.0762 136.129 52.748 136.711V139.74C53.0723 140.318 53.5684 140.607 54.2363 140.607C54.7559 140.607 55.168 140.402 55.4727 139.992C55.7812 139.578 55.9355 138.965 55.9355 138.152ZM61.0332 141.492C60.1738 141.492 59.4746 141.211 58.9355 140.648C58.3965 140.082 58.127 139.326 58.127 138.381V138.182C58.127 137.553 58.2461 136.992 58.4844 136.5C58.7266 136.004 59.0625 135.617 59.4922 135.34C59.9258 135.059 60.3945 134.918 60.8984 134.918C61.7227 134.918 62.3633 135.189 62.8203 135.732C63.2773 136.275 63.5059 137.053 63.5059 138.064V138.516H59.2109C59.2266 139.141 59.4082 139.646 59.7559 140.033C60.1074 140.416 60.5527 140.607 61.0918 140.607C61.4746 140.607 61.7988 140.529 62.0645 140.373C62.3301 140.217 62.5625 140.01 62.7617 139.752L63.4238 140.268C62.8926 141.084 62.0957 141.492 61.0332 141.492ZM60.8984 135.809C60.4609 135.809 60.0938 135.969 59.7969 136.289C59.5 136.605 59.3164 137.051 59.2461 137.625H62.4219V137.543C62.3906 136.992 62.2422 136.566 61.9766 136.266C61.7109 135.961 61.3516 135.809 60.8984 135.809ZM67.4492 137.572C66.4844 137.295 65.7812 136.955 65.3398 136.553C64.9023 136.146 64.6836 135.646 64.6836 135.053C64.6836 134.381 64.9512 133.826 65.4863 133.389C66.0254 132.947 66.7246 132.727 67.584 132.727C68.1699 132.727 68.6914 132.84 69.1484 133.066C69.6094 133.293 69.9648 133.605 70.2148 134.004C70.4688 134.402 70.5957 134.838 70.5957 135.311H69.4648C69.4648 134.795 69.3008 134.391 68.9727 134.098C68.6445 133.801 68.1816 133.652 67.584 133.652C67.0293 133.652 66.5957 133.775 66.2832 134.021C65.9746 134.264 65.8203 134.602 65.8203 135.035C65.8203 135.383 65.9668 135.678 66.2598 135.92C66.5566 136.158 67.0586 136.377 67.7656 136.576C68.4766 136.775 69.0312 136.996 69.4297 137.238C69.832 137.477 70.1289 137.756 70.3203 138.076C70.5156 138.396 70.6133 138.773 70.6133 139.207C70.6133 139.898 70.3438 140.453 69.8047 140.871C69.2656 141.285 68.5449 141.492 67.6426 141.492C67.0566 141.492 66.5098 141.381 66.002 141.158C65.4941 140.932 65.1016 140.623 64.8242 140.232C64.5508 139.842 64.4141 139.398 64.4141 138.902H65.5449C65.5449 139.418 65.7344 139.826 66.1133 140.127C66.4961 140.424 67.0059 140.572 67.6426 140.572C68.2363 140.572 68.6914 140.451 69.0078 140.209C69.3242 139.967 69.4824 139.637 69.4824 139.219C69.4824 138.801 69.3359 138.479 69.043 138.252C68.75 138.021 68.2188 137.795 67.4492 137.572ZM74.4336 140.607C74.8203 140.607 75.1582 140.49 75.4473 140.256C75.7363 140.021 75.8965 139.729 75.9277 139.377H76.9531C76.9336 139.74 76.8086 140.086 76.5781 140.414C76.3477 140.742 76.0391 141.004 75.6523 141.199C75.2695 141.395 74.8633 141.492 74.4336 141.492C73.5703 141.492 72.8828 141.205 72.3711 140.631C71.8633 140.053 71.6094 139.264 71.6094 138.264V138.082C71.6094 137.465 71.7227 136.916 71.9492 136.436C72.1758 135.955 72.5 135.582 72.9219 135.316C73.3477 135.051 73.8496 134.918 74.4277 134.918C75.1387 134.918 75.7285 135.131 76.1973 135.557C76.6699 135.982 76.9219 136.535 76.9531 137.215H75.9277C75.8965 136.805 75.7402 136.469 75.459 136.207C75.1816 135.941 74.8379 135.809 74.4277 135.809C73.877 135.809 73.4492 136.008 73.1445 136.406C72.8438 136.801 72.6934 137.373 72.6934 138.123V138.328C72.6934 139.059 72.8438 139.621 73.1445 140.016C73.4453 140.41 73.875 140.607 74.4336 140.607ZM81.2363 136.008C81.0723 135.98 80.8945 135.967 80.7031 135.967C79.9922 135.967 79.5098 136.27 79.2559 136.875V141.375H78.1719V135.035H79.2266L79.2441 135.768C79.5996 135.201 80.1035 134.918 80.7559 134.918C80.9668 134.918 81.127 134.945 81.2363 135V136.008ZM83.416 141.375H82.332V135.035H83.416V141.375ZM82.2441 133.354C82.2441 133.178 82.2969 133.029 82.4023 132.908C82.5117 132.787 82.6719 132.727 82.8828 132.727C83.0938 132.727 83.2539 132.787 83.3633 132.908C83.4727 133.029 83.5273 133.178 83.5273 133.354C83.5273 133.529 83.4727 133.676 83.3633 133.793C83.2539 133.91 83.0938 133.969 82.8828 133.969C82.6719 133.969 82.5117 133.91 82.4023 133.793C82.2969 133.676 82.2441 133.529 82.2441 133.354ZM90.5117 138.275C90.5117 139.24 90.291 140.018 89.8496 140.607C89.4082 141.197 88.8105 141.492 88.0566 141.492C87.2871 141.492 86.6816 141.248 86.2402 140.76V143.812H85.1562V135.035H86.1465L86.1992 135.738C86.6406 135.191 87.2539 134.918 88.0391 134.918C88.8008 134.918 89.4023 135.205 89.8438 135.779C90.2891 136.354 90.5117 137.152 90.5117 138.176V138.275ZM89.4277 138.152C89.4277 137.438 89.2754 136.873 88.9707 136.459C88.666 136.045 88.248 135.838 87.7168 135.838C87.0605 135.838 86.5684 136.129 86.2402 136.711V139.74C86.5645 140.318 87.0605 140.607 87.7285 140.607C88.248 140.607 88.6602 140.402 88.9648 139.992C89.2734 139.578 89.4277 138.965 89.4277 138.152ZM93.3652 133.5V135.035H94.5488V135.873H93.3652V139.805C93.3652 140.059 93.418 140.25 93.5234 140.379C93.6289 140.504 93.8086 140.566 94.0625 140.566C94.1875 140.566 94.3594 140.543 94.5781 140.496V141.375C94.293 141.453 94.0156 141.492 93.7461 141.492C93.2617 141.492 92.8965 141.346 92.6504 141.053C92.4043 140.76 92.2812 140.344 92.2812 139.805V135.873H91.127V135.035H92.2812V133.5H93.3652Z" fill="#E3E5E8"/>
<path d="M68.627 184.924H66.623V188.375H65.4922V179.844H68.3164C69.2773 179.844 70.0156 180.062 70.5312 180.5C71.0508 180.938 71.3105 181.574 71.3105 182.41C71.3105 182.941 71.166 183.404 70.877 183.799C70.5918 184.193 70.1934 184.488 69.6816 184.684L71.6855 188.305V188.375H70.4785L68.627 184.924ZM66.623 184.004H68.3516C68.9102 184.004 69.3535 183.859 69.6816 183.57C70.0137 183.281 70.1797 182.895 70.1797 182.41C70.1797 181.883 70.0215 181.479 69.7051 181.197C69.3926 180.916 68.9395 180.773 68.3457 180.77H66.623V184.004ZM75.3535 188.492C74.4941 188.492 73.7949 188.211 73.2559 187.648C72.7168 187.082 72.4473 186.326 72.4473 185.381V185.182C72.4473 184.553 72.5664 183.992 72.8047 183.5C73.0469 183.004 73.3828 182.617 73.8125 182.34C74.2461 182.059 74.7148 181.918 75.2188 181.918C76.043 181.918 76.6836 182.189 77.1406 182.732C77.5977 183.275 77.8262 184.053 77.8262 185.064V185.516H73.5312C73.5469 186.141 73.7285 186.646 74.0762 187.033C74.4277 187.416 74.873 187.607 75.4121 187.607C75.7949 187.607 76.1191 187.529 76.3848 187.373C76.6504 187.217 76.8828 187.01 77.082 186.752L77.7441 187.268C77.2129 188.084 76.416 188.492 75.3535 188.492ZM75.2188 182.809C74.7812 182.809 74.4141 182.969 74.1172 183.289C73.8203 183.605 73.6367 184.051 73.5664 184.625H76.7422V184.543C76.7109 183.992 76.5625 183.566 76.2969 183.266C76.0312 182.961 75.6719 182.809 75.2188 182.809ZM83 188.375C82.9375 188.25 82.8867 188.027 82.8477 187.707C82.3438 188.23 81.7422 188.492 81.043 188.492C80.418 188.492 79.9043 188.316 79.502 187.965C79.1035 187.609 78.9043 187.16 78.9043 186.617C78.9043 185.957 79.1543 185.445 79.6543 185.082C80.1582 184.715 80.8652 184.531 81.7754 184.531H82.8301V184.033C82.8301 183.654 82.7168 183.354 82.4902 183.131C82.2637 182.904 81.9297 182.791 81.4883 182.791C81.1016 182.791 80.7773 182.889 80.5156 183.084C80.2539 183.279 80.123 183.516 80.123 183.793H79.0332C79.0332 183.477 79.1445 183.172 79.3672 182.879C79.5938 182.582 79.8984 182.348 80.2812 182.176C80.668 182.004 81.0918 181.918 81.5527 181.918C82.2832 181.918 82.8555 182.102 83.2695 182.469C83.6836 182.832 83.8984 183.334 83.9141 183.975V186.893C83.9141 187.475 83.9883 187.938 84.1367 188.281V188.375H83ZM81.2012 187.549C81.541 187.549 81.8633 187.461 82.168 187.285C82.4727 187.109 82.6934 186.881 82.8301 186.6V185.299H81.9805C80.6523 185.299 79.9883 185.688 79.9883 186.465C79.9883 186.805 80.1016 187.07 80.3281 187.262C80.5547 187.453 80.8457 187.549 81.2012 187.549ZM88.1562 187.607C88.543 187.607 88.8809 187.49 89.1699 187.256C89.459 187.021 89.6191 186.729 89.6504 186.377H90.6758C90.6562 186.74 90.5312 187.086 90.3008 187.414C90.0703 187.742 89.7617 188.004 89.375 188.199C88.9922 188.395 88.5859 188.492 88.1562 188.492C87.293 188.492 86.6055 188.205 86.0938 187.631C85.5859 187.053 85.332 186.264 85.332 185.264V185.082C85.332 184.465 85.4453 183.916 85.6719 183.436C85.8984 182.955 86.2227 182.582 86.6445 182.316C87.0703 182.051 87.5723 181.918 88.1504 181.918C88.8613 181.918 89.4512 182.131 89.9199 182.557C90.3926 182.982 90.6445 183.535 90.6758 184.215H89.6504C89.6191 183.805 89.4629 183.469 89.1816 183.207C88.9043 182.941 88.5605 182.809 88.1504 182.809C87.5996 182.809 87.1719 183.008 86.8672 183.406C86.5664 183.801 86.416 184.373 86.416 185.123V185.328C86.416 186.059 86.5664 186.621 86.8672 187.016C87.168 187.41 87.5977 187.607 88.1562 187.607ZM93.3652 180.5V182.035H94.5488V182.873H93.3652V186.805C93.3652 187.059 93.418 187.25 93.5234 187.379C93.6289 187.504 93.8086 187.566 94.0625 187.566C94.1875 187.566 94.3594 187.543 94.5781 187.496V188.375C94.293 188.453 94.0156 188.492 93.7461 188.492C93.2617 188.492 92.8965 188.346 92.6504 188.053C92.4043 187.76 92.2812 187.344 92.2812 186.805V182.873H91.127V182.035H92.2812V180.5H93.3652Z" fill="#E3E5E8"/>
<path d="M59.3809 240.148H55.8066L55.0039 242.375H53.8438L57.1016 233.844H58.0859L61.3496 242.375H60.1953L59.3809 240.148ZM56.1465 239.223H59.0469L57.5938 235.232L56.1465 239.223ZM63.3535 236.035L63.3887 236.832C63.873 236.223 64.5059 235.918 65.2871 235.918C66.627 235.918 67.3027 236.674 67.3145 238.186V242.375H66.2305V238.18C66.2266 237.723 66.1211 237.385 65.9141 237.166C65.7109 236.947 65.3926 236.838 64.959 236.838C64.6074 236.838 64.2988 236.932 64.0332 237.119C63.7676 237.307 63.5605 237.553 63.4121 237.857V242.375H62.3281V236.035H63.3535ZM68.6914 239.152C68.6914 238.164 68.9199 237.379 69.377 236.797C69.834 236.211 70.4395 235.918 71.1934 235.918C71.9668 235.918 72.5703 236.191 73.0039 236.738L73.0566 236.035H74.0469V242.223C74.0469 243.043 73.8027 243.689 73.3145 244.162C72.8301 244.635 72.1777 244.871 71.3574 244.871C70.9004 244.871 70.4531 244.773 70.0156 244.578C69.5781 244.383 69.2441 244.115 69.0137 243.775L69.5762 243.125C70.041 243.699 70.6094 243.986 71.2812 243.986C71.8086 243.986 72.2188 243.838 72.5117 243.541C72.8086 243.244 72.957 242.826 72.957 242.287V241.742C72.5234 242.242 71.9316 242.492 71.1816 242.492C70.4395 242.492 69.8379 242.193 69.377 241.596C68.9199 240.998 68.6914 240.184 68.6914 239.152ZM69.7812 239.275C69.7812 239.99 69.9277 240.553 70.2207 240.963C70.5137 241.369 70.9238 241.572 71.4512 241.572C72.1348 241.572 72.6367 241.262 72.957 240.641V237.746C72.625 237.141 72.127 236.838 71.4629 236.838C70.9355 236.838 70.5234 237.043 70.2266 237.453C69.9297 237.863 69.7812 238.471 69.7812 239.275ZM79.6016 241.748C79.1797 242.244 78.5605 242.492 77.7441 242.492C77.0684 242.492 76.5527 242.297 76.1973 241.906C75.8457 241.512 75.668 240.93 75.6641 240.16V236.035H76.748V240.131C76.748 241.092 77.1387 241.572 77.9199 241.572C78.748 241.572 79.2988 241.264 79.5723 240.646V236.035H80.6562V242.375H79.625L79.6016 241.748ZM83.4863 242.375H82.4023V233.375H83.4863V242.375ZM89.1406 242.375C89.0781 242.25 89.0273 242.027 88.9883 241.707C88.4844 242.23 87.8828 242.492 87.1836 242.492C86.5586 242.492 86.0449 242.316 85.6426 241.965C85.2441 241.609 85.0449 241.16 85.0449 240.617C85.0449 239.957 85.2949 239.445 85.7949 239.082C86.2988 238.715 87.0059 238.531 87.916 238.531H88.9707V238.033C88.9707 237.654 88.8574 237.354 88.6309 237.131C88.4043 236.904 88.0703 236.791 87.6289 236.791C87.2422 236.791 86.918 236.889 86.6562 237.084C86.3945 237.279 86.2637 237.516 86.2637 237.793H85.1738C85.1738 237.477 85.2852 237.172 85.5078 236.879C85.7344 236.582 86.0391 236.348 86.4219 236.176C86.8086 236.004 87.2324 235.918 87.6934 235.918C88.4238 235.918 88.9961 236.102 89.4102 236.469C89.8242 236.832 90.0391 237.334 90.0547 237.975V240.893C90.0547 241.475 90.1289 241.938 90.2773 242.281V242.375H89.1406ZM87.3418 241.549C87.6816 241.549 88.0039 241.461 88.3086 241.285C88.6133 241.109 88.834 240.881 88.9707 240.6V239.299H88.1211C86.793 239.299 86.1289 239.688 86.1289 240.465C86.1289 240.805 86.2422 241.07 86.4688 241.262C86.6953 241.453 86.9863 241.549 87.3418 241.549ZM94.8184 237.008C94.6543 236.98 94.4766 236.967 94.2852 236.967C93.5742 236.967 93.0918 237.27 92.8379 237.875V242.375H91.7539V236.035H92.8086L92.8262 236.768C93.1816 236.201 93.6855 235.918 94.3379 235.918C94.5488 235.918 94.709 235.945 94.8184 236V237.008Z" fill="#E3E5E8"/>
<path d="M61.7891 300.375H60.6582L56.3633 293.801V300.375H55.2324V291.844H56.3633L60.6699 298.447V291.844H61.7891V300.375ZM63.3301 297.146C63.3301 296.525 63.4512 295.967 63.6934 295.471C63.9395 294.975 64.2793 294.592 64.7129 294.322C65.1504 294.053 65.6484 293.918 66.207 293.918C67.0703 293.918 67.7676 294.217 68.2988 294.814C68.834 295.412 69.1016 296.207 69.1016 297.199V297.275C69.1016 297.893 68.9824 298.447 68.7441 298.939C68.5098 299.428 68.1719 299.809 67.7305 300.082C67.293 300.355 66.7891 300.492 66.2188 300.492C65.3594 300.492 64.6621 300.193 64.127 299.596C63.5957 298.998 63.3301 298.207 63.3301 297.223V297.146ZM64.4199 297.275C64.4199 297.979 64.582 298.543 64.9062 298.969C65.2344 299.395 65.6719 299.607 66.2188 299.607C66.7695 299.607 67.207 299.393 67.5312 298.963C67.8555 298.529 68.0176 297.924 68.0176 297.146C68.0176 296.451 67.8516 295.889 67.5195 295.459C67.1914 295.025 66.7539 294.809 66.207 294.809C65.6719 294.809 65.2402 295.021 64.9121 295.447C64.584 295.873 64.4199 296.482 64.4199 297.275ZM70.1973 297.152C70.1973 296.18 70.4277 295.398 70.8887 294.809C71.3496 294.215 71.9531 293.918 72.6992 293.918C73.4414 293.918 74.0293 294.172 74.4629 294.68V291.375H75.5469V300.375H74.5508L74.498 299.695C74.0645 300.227 73.4609 300.492 72.6875 300.492C71.9531 300.492 71.3535 300.191 70.8887 299.59C70.4277 298.988 70.1973 298.203 70.1973 297.234V297.152ZM71.2812 297.275C71.2812 297.994 71.4297 298.557 71.7266 298.963C72.0234 299.369 72.4336 299.572 72.957 299.572C73.6445 299.572 74.1465 299.264 74.4629 298.646V295.734C74.1387 295.137 73.6406 294.838 72.9688 294.838C72.4375 294.838 72.0234 295.043 71.7266 295.453C71.4297 295.863 71.2812 296.471 71.2812 297.275ZM79.8652 300.492C79.0059 300.492 78.3066 300.211 77.7676 299.648C77.2285 299.082 76.959 298.326 76.959 297.381V297.182C76.959 296.553 77.0781 295.992 77.3164 295.5C77.5586 295.004 77.8945 294.617 78.3242 294.34C78.7578 294.059 79.2266 293.918 79.7305 293.918C80.5547 293.918 81.1953 294.189 81.6523 294.732C82.1094 295.275 82.3379 296.053 82.3379 297.064V297.516H78.043C78.0586 298.141 78.2402 298.646 78.5879 299.033C78.9395 299.416 79.3848 299.607 79.9238 299.607C80.3066 299.607 80.6309 299.529 80.8965 299.373C81.1621 299.217 81.3945 299.01 81.5938 298.752L82.2559 299.268C81.7246 300.084 80.9277 300.492 79.8652 300.492ZM79.7305 294.809C79.293 294.809 78.9258 294.969 78.6289 295.289C78.332 295.605 78.1484 296.051 78.0781 296.625H81.2539V296.543C81.2227 295.992 81.0742 295.566 80.8086 295.266C80.543 294.961 80.1836 294.809 79.7305 294.809ZM83.6211 299.807C83.6211 299.619 83.6758 299.463 83.7852 299.338C83.8984 299.213 84.0664 299.15 84.2891 299.15C84.5117 299.15 84.6797 299.213 84.793 299.338C84.9102 299.463 84.9688 299.619 84.9688 299.807C84.9688 299.986 84.9102 300.137 84.793 300.258C84.6797 300.379 84.5117 300.439 84.2891 300.439C84.0664 300.439 83.8984 300.379 83.7852 300.258C83.6758 300.137 83.6211 299.986 83.6211 299.807ZM87.8809 294.035V301.107C87.8809 302.326 87.3281 302.936 86.2227 302.936C85.9844 302.936 85.7637 302.9 85.5605 302.83V301.963C85.6855 301.994 85.8496 302.01 86.0527 302.01C86.2949 302.01 86.4785 301.943 86.6035 301.811C86.7324 301.682 86.7969 301.455 86.7969 301.131V294.035H87.8809ZM86.6855 292.354C86.6855 292.182 86.7383 292.035 86.8438 291.914C86.9531 291.789 87.1113 291.727 87.3184 291.727C87.5293 291.727 87.6895 291.787 87.7988 291.908C87.9082 292.029 87.9629 292.178 87.9629 292.354C87.9629 292.529 87.9082 292.676 87.7988 292.793C87.6895 292.91 87.5293 292.969 87.3184 292.969C87.1074 292.969 86.9492 292.91 86.8438 292.793C86.7383 292.676 86.6855 292.529 86.6855 292.354ZM93.3242 298.693C93.3242 298.4 93.2129 298.174 92.9902 298.014C92.7715 297.85 92.3867 297.709 91.8359 297.592C91.2891 297.475 90.8535 297.334 90.5293 297.17C90.209 297.006 89.9707 296.811 89.8145 296.584C89.6621 296.357 89.5859 296.088 89.5859 295.775C89.5859 295.256 89.8047 294.816 90.2422 294.457C90.6836 294.098 91.2461 293.918 91.9297 293.918C92.6484 293.918 93.2305 294.104 93.6758 294.475C94.125 294.846 94.3496 295.32 94.3496 295.898H93.2598C93.2598 295.602 93.1328 295.346 92.8789 295.131C92.6289 294.916 92.3125 294.809 91.9297 294.809C91.5352 294.809 91.2266 294.895 91.0039 295.066C90.7812 295.238 90.6699 295.463 90.6699 295.74C90.6699 296.002 90.7734 296.199 90.9805 296.332C91.1875 296.465 91.5605 296.592 92.0996 296.713C92.6426 296.834 93.082 296.979 93.418 297.146C93.7539 297.314 94.002 297.518 94.1621 297.756C94.3262 297.99 94.4082 298.277 94.4082 298.617C94.4082 299.184 94.1816 299.639 93.7285 299.982C93.2754 300.322 92.6875 300.492 91.9648 300.492C91.457 300.492 91.0078 300.402 90.6172 300.223C90.2266 300.043 89.9199 299.793 89.6973 299.473C89.4785 299.148 89.3691 298.799 89.3691 298.424H90.4531C90.4727 298.787 90.6172 299.076 90.8867 299.291C91.1602 299.502 91.5195 299.607 91.9648 299.607C92.375 299.607 92.7031 299.525 92.9492 299.361C93.1992 299.193 93.3242 298.971 93.3242 298.693Z" fill="#E3E5E8"/>
<path d="M245 8.98438H104.348V33.9784H245V8.98438Z" stroke="#319795" stroke-miterlimit="10"/>
<path d="M224.119 8.98438H104.348V33.9784H224.119V8.98438Z" fill="#319795" stroke="#319795" stroke-miterlimit="10"/>
<path d="M224.119 8.98438H104.348V33.9784H224.119V8.98438Z" fill="#319795" stroke="#319795" stroke-miterlimit="10"/>
<path d="M245 63.2656H104.348V88.2598H245V63.2656Z" stroke="#319795" stroke-miterlimit="10"/>
<path d="M219.194 63.2656H104.348V88.2598H219.194V63.2656Z" fill="#319795" stroke="#319795" stroke-miterlimit="10"/>
<path d="M219.194 63.2656H104.348V88.2598H219.194V63.2656Z" fill="#319795" stroke="#319795" stroke-miterlimit="10"/>
<path d="M245 119.512H104.348V140.991H245V119.512Z" stroke="#319795" stroke-miterlimit="10"/>
<path d="M215.057 119.512H104.348V140.991H215.057V119.512Z" fill="#319795" stroke="#319795" stroke-miterlimit="10"/>
<path d="M215.057 119.512H104.348V140.991H215.057V119.512Z" fill="#319795" stroke="#319795" stroke-miterlimit="10"/>
<path d="M245 171.832H104.348V196.826H245V171.832Z" stroke="#319795" stroke-miterlimit="10"/>
<path d="M215.057 171.832H104.348V196.826H215.057V171.832Z" fill="#319795" stroke="#319795" stroke-miterlimit="10"/>
<path d="M215.057 171.832H104.348V196.826H215.057V171.832Z" fill="#319795" stroke="#319795" stroke-miterlimit="10"/>
<path d="M245 226.125H104.348V251.119H245V226.125Z" stroke="#319795" stroke-miterlimit="10"/>
<path d="M215.057 226.125H104.348V251.119H215.057V226.125Z" fill="#319795" stroke="#319795" stroke-miterlimit="10"/>
<path d="M215.057 226.125H104.348V251.119H215.057V226.125Z" fill="#319795" stroke="#319795" stroke-miterlimit="10"/>
<path d="M245 284.309H104.348V309.303H245V284.309Z" stroke="#319795" stroke-miterlimit="10"/>
<path d="M188.66 284.309H104.348V309.303H188.66V284.309Z" fill="#319795" stroke="#319795" stroke-miterlimit="10"/>
<path d="M104.348 0V330" stroke="#E3E5E8" stroke-width="2" stroke-miterlimit="10"/>
</svg>
