<svg width="414" height="439" viewBox="0 0 414 439" fill="none" xmlns="http://www.w3.org/2000/svg">
<path d="M147.336 80.375H146.205V76.4316H141.904V80.375H140.779V71.8438H141.904V75.5117H146.205V71.8438H147.336V80.375ZM155.053 72.7695H152.311V80.375H151.191V72.7695H148.455V71.8438H155.053V72.7695ZM157.771 71.8438L160.561 78.8047L163.35 71.8438H164.809V80.375H163.684V77.0527L163.789 73.4668L160.988 80.375H160.127L157.332 73.4844L157.443 77.0527V80.375H156.318V71.8438H157.771ZM167.926 79.4551H171.969V80.375H166.795V71.8438H167.926V79.4551ZM173.469 76.0977L173.902 71.8438H178.273V72.8457H174.822L174.564 75.1719C174.982 74.9258 175.457 74.8027 175.988 74.8027C176.766 74.8027 177.383 75.0605 177.84 75.5762C178.297 76.0879 178.525 76.7812 178.525 77.6562C178.525 78.5352 178.287 79.2285 177.811 79.7363C177.338 80.2402 176.676 80.4922 175.824 80.4922C175.07 80.4922 174.455 80.2832 173.979 79.8652C173.502 79.4473 173.23 78.8691 173.164 78.1309H174.189C174.256 78.6191 174.43 78.9883 174.711 79.2383C174.992 79.4844 175.363 79.6074 175.824 79.6074C176.328 79.6074 176.723 79.4355 177.008 79.0918C177.297 78.748 177.441 78.2734 177.441 77.668C177.441 77.0977 177.285 76.6406 176.973 76.2969C176.664 75.9492 176.252 75.7754 175.736 75.7754C175.264 75.7754 174.893 75.8789 174.623 76.0859L174.336 76.3203L173.469 76.0977Z" fill="#E3E5E8"/>
<path d="M130.051 133.668C129.945 134.57 129.611 135.268 129.049 135.76C128.49 136.248 127.746 136.492 126.816 136.492C125.809 136.492 125 136.131 124.391 135.408C123.785 134.686 123.482 133.719 123.482 132.508V131.688C123.482 130.895 123.623 130.197 123.904 129.596C124.189 128.994 124.592 128.533 125.111 128.213C125.631 127.889 126.232 127.727 126.916 127.727C127.822 127.727 128.549 127.98 129.096 128.488C129.643 128.992 129.961 129.691 130.051 130.586H128.92C128.822 129.906 128.609 129.414 128.281 129.109C127.957 128.805 127.502 128.652 126.916 128.652C126.197 128.652 125.633 128.918 125.223 129.449C124.816 129.98 124.613 130.736 124.613 131.717V132.543C124.613 133.469 124.807 134.205 125.193 134.752C125.58 135.299 126.121 135.572 126.816 135.572C127.441 135.572 127.92 135.432 128.252 135.15C128.588 134.865 128.811 134.371 128.92 133.668H130.051ZM134.105 132.572C133.141 132.295 132.438 131.955 131.996 131.553C131.559 131.146 131.34 130.646 131.34 130.053C131.34 129.381 131.607 128.826 132.143 128.389C132.682 127.947 133.381 127.727 134.24 127.727C134.826 127.727 135.348 127.84 135.805 128.066C136.266 128.293 136.621 128.605 136.871 129.004C137.125 129.402 137.252 129.838 137.252 130.311H136.121C136.121 129.795 135.957 129.391 135.629 129.098C135.301 128.801 134.838 128.652 134.24 128.652C133.686 128.652 133.252 128.775 132.939 129.021C132.631 129.264 132.477 129.602 132.477 130.035C132.477 130.383 132.623 130.678 132.916 130.92C133.213 131.158 133.715 131.377 134.422 131.576C135.133 131.775 135.688 131.996 136.086 132.238C136.488 132.477 136.785 132.756 136.977 133.076C137.172 133.396 137.27 133.773 137.27 134.207C137.27 134.898 137 135.453 136.461 135.871C135.922 136.285 135.201 136.492 134.299 136.492C133.713 136.492 133.166 136.381 132.658 136.158C132.15 135.932 131.758 135.623 131.48 135.232C131.207 134.842 131.07 134.398 131.07 133.902H132.201C132.201 134.418 132.391 134.826 132.77 135.127C133.152 135.424 133.662 135.572 134.299 135.572C134.893 135.572 135.348 135.451 135.664 135.209C135.98 134.967 136.139 134.637 136.139 134.219C136.139 133.801 135.992 133.479 135.699 133.252C135.406 133.021 134.875 132.795 134.105 132.572ZM141.23 132.572C140.266 132.295 139.562 131.955 139.121 131.553C138.684 131.146 138.465 130.646 138.465 130.053C138.465 129.381 138.732 128.826 139.268 128.389C139.807 127.947 140.506 127.727 141.365 127.727C141.951 127.727 142.473 127.84 142.93 128.066C143.391 128.293 143.746 128.605 143.996 129.004C144.25 129.402 144.377 129.838 144.377 130.311H143.246C143.246 129.795 143.082 129.391 142.754 129.098C142.426 128.801 141.963 128.652 141.365 128.652C140.811 128.652 140.377 128.775 140.064 129.021C139.756 129.264 139.602 129.602 139.602 130.035C139.602 130.383 139.748 130.678 140.041 130.92C140.338 131.158 140.84 131.377 141.547 131.576C142.258 131.775 142.812 131.996 143.211 132.238C143.613 132.477 143.91 132.756 144.102 133.076C144.297 133.396 144.395 133.773 144.395 134.207C144.395 134.898 144.125 135.453 143.586 135.871C143.047 136.285 142.326 136.492 141.424 136.492C140.838 136.492 140.291 136.381 139.783 136.158C139.275 135.932 138.883 135.623 138.605 135.232C138.332 134.842 138.195 134.398 138.195 133.902H139.326C139.326 134.418 139.516 134.826 139.895 135.127C140.277 135.424 140.787 135.572 141.424 135.572C142.018 135.572 142.473 135.451 142.789 135.209C143.105 134.967 143.264 134.637 143.264 134.219C143.264 133.801 143.117 133.479 142.824 133.252C142.531 133.021 142 132.795 141.23 132.572ZM145.889 137.107H144.957L148.52 127.844H149.445L145.889 137.107ZM153.301 132.572C152.336 132.295 151.633 131.955 151.191 131.553C150.754 131.146 150.535 130.646 150.535 130.053C150.535 129.381 150.803 128.826 151.338 128.389C151.877 127.947 152.576 127.727 153.436 127.727C154.021 127.727 154.543 127.84 155 128.066C155.461 128.293 155.816 128.605 156.066 129.004C156.32 129.402 156.447 129.838 156.447 130.311H155.316C155.316 129.795 155.152 129.391 154.824 129.098C154.496 128.801 154.033 128.652 153.436 128.652C152.881 128.652 152.447 128.775 152.135 129.021C151.826 129.264 151.672 129.602 151.672 130.035C151.672 130.383 151.818 130.678 152.111 130.92C152.408 131.158 152.91 131.377 153.617 131.576C154.328 131.775 154.883 131.996 155.281 132.238C155.684 132.477 155.98 132.756 156.172 133.076C156.367 133.396 156.465 133.773 156.465 134.207C156.465 134.898 156.195 135.453 155.656 135.871C155.117 136.285 154.396 136.492 153.494 136.492C152.908 136.492 152.361 136.381 151.854 136.158C151.346 135.932 150.953 135.623 150.676 135.232C150.402 134.842 150.266 134.398 150.266 133.902H151.396C151.396 134.418 151.586 134.826 151.965 135.127C152.348 135.424 152.857 135.572 153.494 135.572C154.088 135.572 154.543 135.451 154.859 135.209C155.176 134.967 155.334 134.637 155.334 134.219C155.334 133.801 155.188 133.479 154.895 133.252C154.602 133.021 154.07 132.795 153.301 132.572ZM162.623 134.148H159.049L158.246 136.375H157.086L160.344 127.844H161.328L164.592 136.375H163.438L162.623 134.148ZM159.389 133.223H162.289L160.836 129.232L159.389 133.223ZM168.254 132.572C167.289 132.295 166.586 131.955 166.145 131.553C165.707 131.146 165.488 130.646 165.488 130.053C165.488 129.381 165.756 128.826 166.291 128.389C166.83 127.947 167.529 127.727 168.389 127.727C168.975 127.727 169.496 127.84 169.953 128.066C170.414 128.293 170.77 128.605 171.02 129.004C171.273 129.402 171.4 129.838 171.4 130.311H170.27C170.27 129.795 170.105 129.391 169.777 129.098C169.449 128.801 168.986 128.652 168.389 128.652C167.834 128.652 167.4 128.775 167.088 129.021C166.779 129.264 166.625 129.602 166.625 130.035C166.625 130.383 166.771 130.678 167.064 130.92C167.361 131.158 167.863 131.377 168.57 131.576C169.281 131.775 169.836 131.996 170.234 132.238C170.637 132.477 170.934 132.756 171.125 133.076C171.32 133.396 171.418 133.773 171.418 134.207C171.418 134.898 171.148 135.453 170.609 135.871C170.07 136.285 169.35 136.492 168.447 136.492C167.861 136.492 167.314 136.381 166.807 136.158C166.299 135.932 165.906 135.623 165.629 135.232C165.355 134.842 165.219 134.398 165.219 133.902H166.35C166.35 134.418 166.539 134.826 166.918 135.127C167.301 135.424 167.811 135.572 168.447 135.572C169.041 135.572 169.496 135.451 169.812 135.209C170.129 134.967 170.287 134.637 170.287 134.219C170.287 133.801 170.141 133.479 169.848 133.252C169.555 133.021 169.023 132.795 168.254 132.572ZM175.379 132.572C174.414 132.295 173.711 131.955 173.27 131.553C172.832 131.146 172.613 130.646 172.613 130.053C172.613 129.381 172.881 128.826 173.416 128.389C173.955 127.947 174.654 127.727 175.514 127.727C176.1 127.727 176.621 127.84 177.078 128.066C177.539 128.293 177.895 128.605 178.145 129.004C178.398 129.402 178.525 129.838 178.525 130.311H177.395C177.395 129.795 177.23 129.391 176.902 129.098C176.574 128.801 176.111 128.652 175.514 128.652C174.959 128.652 174.525 128.775 174.213 129.021C173.904 129.264 173.75 129.602 173.75 130.035C173.75 130.383 173.896 130.678 174.189 130.92C174.486 131.158 174.988 131.377 175.695 131.576C176.406 131.775 176.961 131.996 177.359 132.238C177.762 132.477 178.059 132.756 178.25 133.076C178.445 133.396 178.543 133.773 178.543 134.207C178.543 134.898 178.273 135.453 177.734 135.871C177.195 136.285 176.475 136.492 175.572 136.492C174.986 136.492 174.439 136.381 173.932 136.158C173.424 135.932 173.031 135.623 172.754 135.232C172.48 134.842 172.344 134.398 172.344 133.902H173.475C173.475 134.418 173.664 134.826 174.043 135.127C174.426 135.424 174.936 135.572 175.572 135.572C176.166 135.572 176.621 135.451 176.938 135.209C177.254 134.967 177.412 134.637 177.412 134.219C177.412 133.801 177.266 133.479 176.973 133.252C176.68 133.021 176.148 132.795 175.379 132.572Z" fill="#E3E5E8"/>
<path d="M122.264 173.844H123.395V179.885C123.395 180.701 123.148 181.34 122.656 181.801C122.168 182.262 121.516 182.492 120.699 182.492C119.852 182.492 119.191 182.275 118.719 181.842C118.246 181.408 118.01 180.801 118.01 180.02H119.135C119.135 180.508 119.268 180.889 119.533 181.162C119.803 181.436 120.191 181.572 120.699 181.572C121.164 181.572 121.539 181.426 121.824 181.133C122.113 180.84 122.26 180.43 122.264 179.902V173.844ZM129.055 182.375C128.992 182.25 128.941 182.027 128.902 181.707C128.398 182.23 127.797 182.492 127.098 182.492C126.473 182.492 125.959 182.316 125.557 181.965C125.158 181.609 124.959 181.16 124.959 180.617C124.959 179.957 125.209 179.445 125.709 179.082C126.213 178.715 126.92 178.531 127.83 178.531H128.885V178.033C128.885 177.654 128.771 177.354 128.545 177.131C128.318 176.904 127.984 176.791 127.543 176.791C127.156 176.791 126.832 176.889 126.57 177.084C126.309 177.279 126.178 177.516 126.178 177.793H125.088C125.088 177.477 125.199 177.172 125.422 176.879C125.648 176.582 125.953 176.348 126.336 176.176C126.723 176.004 127.146 175.918 127.607 175.918C128.338 175.918 128.91 176.102 129.324 176.469C129.738 176.832 129.953 177.334 129.969 177.975V180.893C129.969 181.475 130.043 181.938 130.191 182.281V182.375H129.055ZM127.256 181.549C127.596 181.549 127.918 181.461 128.223 181.285C128.527 181.109 128.748 180.881 128.885 180.6V179.299H128.035C126.707 179.299 126.043 179.688 126.043 180.465C126.043 180.805 126.156 181.07 126.383 181.262C126.609 181.453 126.9 181.549 127.256 181.549ZM133.666 180.904L135.236 176.035H136.344L134.07 182.375H133.244L130.947 176.035H132.055L133.666 180.904ZM141.207 182.375C141.145 182.25 141.094 182.027 141.055 181.707C140.551 182.23 139.949 182.492 139.25 182.492C138.625 182.492 138.111 182.316 137.709 181.965C137.311 181.609 137.111 181.16 137.111 180.617C137.111 179.957 137.361 179.445 137.861 179.082C138.365 178.715 139.072 178.531 139.982 178.531H141.037V178.033C141.037 177.654 140.924 177.354 140.697 177.131C140.471 176.904 140.137 176.791 139.695 176.791C139.309 176.791 138.984 176.889 138.723 177.084C138.461 177.279 138.33 177.516 138.33 177.793H137.24C137.24 177.477 137.352 177.172 137.574 176.879C137.801 176.582 138.105 176.348 138.488 176.176C138.875 176.004 139.299 175.918 139.76 175.918C140.49 175.918 141.062 176.102 141.477 176.469C141.891 176.832 142.105 177.334 142.121 177.975V180.893C142.121 181.475 142.195 181.938 142.344 182.281V182.375H141.207ZM139.408 181.549C139.748 181.549 140.07 181.461 140.375 181.285C140.68 181.109 140.9 180.881 141.037 180.6V179.299H140.188C138.859 179.299 138.195 179.688 138.195 180.465C138.195 180.805 138.309 181.07 138.535 181.262C138.762 181.453 139.053 181.549 139.408 181.549ZM146.504 178.572C145.539 178.295 144.836 177.955 144.395 177.553C143.957 177.146 143.738 176.646 143.738 176.053C143.738 175.381 144.006 174.826 144.541 174.389C145.08 173.947 145.779 173.727 146.639 173.727C147.225 173.727 147.746 173.84 148.203 174.066C148.664 174.293 149.02 174.605 149.27 175.004C149.523 175.402 149.65 175.838 149.65 176.311H148.52C148.52 175.795 148.355 175.391 148.027 175.098C147.699 174.801 147.236 174.652 146.639 174.652C146.084 174.652 145.65 174.775 145.338 175.021C145.029 175.264 144.875 175.602 144.875 176.035C144.875 176.383 145.021 176.678 145.314 176.92C145.611 177.158 146.113 177.377 146.82 177.576C147.531 177.775 148.086 177.996 148.484 178.238C148.887 178.477 149.184 178.756 149.375 179.076C149.57 179.396 149.668 179.773 149.668 180.207C149.668 180.898 149.398 181.453 148.859 181.871C148.32 182.285 147.6 182.492 146.697 182.492C146.111 182.492 145.564 182.381 145.057 182.158C144.549 181.932 144.156 181.623 143.879 181.232C143.605 180.842 143.469 180.398 143.469 179.902H144.6C144.6 180.418 144.789 180.826 145.168 181.127C145.551 181.424 146.061 181.572 146.697 181.572C147.291 181.572 147.746 181.451 148.062 181.209C148.379 180.967 148.537 180.637 148.537 180.219C148.537 179.801 148.391 179.479 148.098 179.252C147.805 179.021 147.273 178.795 146.504 178.572ZM153.488 181.607C153.875 181.607 154.213 181.49 154.502 181.256C154.791 181.021 154.951 180.729 154.982 180.377H156.008C155.988 180.74 155.863 181.086 155.633 181.414C155.402 181.742 155.094 182.004 154.707 182.199C154.324 182.395 153.918 182.492 153.488 182.492C152.625 182.492 151.938 182.205 151.426 181.631C150.918 181.053 150.664 180.264 150.664 179.264V179.082C150.664 178.465 150.777 177.916 151.004 177.436C151.23 176.955 151.555 176.582 151.977 176.316C152.402 176.051 152.904 175.918 153.482 175.918C154.193 175.918 154.783 176.131 155.252 176.557C155.725 176.982 155.977 177.535 156.008 178.215H154.982C154.951 177.805 154.795 177.469 154.514 177.207C154.236 176.941 153.893 176.809 153.482 176.809C152.932 176.809 152.504 177.008 152.199 177.406C151.898 177.801 151.748 178.373 151.748 179.123V179.328C151.748 180.059 151.898 180.621 152.199 181.016C152.5 181.41 152.93 181.607 153.488 181.607ZM160.291 177.008C160.127 176.98 159.949 176.967 159.758 176.967C159.047 176.967 158.564 177.27 158.311 177.875V182.375H157.227V176.035H158.281L158.299 176.768C158.654 176.201 159.158 175.918 159.811 175.918C160.021 175.918 160.182 175.945 160.291 176V177.008ZM162.471 182.375H161.387V176.035H162.471V182.375ZM161.299 174.354C161.299 174.178 161.352 174.029 161.457 173.908C161.566 173.787 161.727 173.727 161.938 173.727C162.148 173.727 162.309 173.787 162.418 173.908C162.527 174.029 162.582 174.178 162.582 174.354C162.582 174.529 162.527 174.676 162.418 174.793C162.309 174.91 162.148 174.969 161.938 174.969C161.727 174.969 161.566 174.91 161.457 174.793C161.352 174.676 161.299 174.529 161.299 174.354ZM169.566 179.275C169.566 180.24 169.346 181.018 168.904 181.607C168.463 182.197 167.865 182.492 167.111 182.492C166.342 182.492 165.736 182.248 165.295 181.76V184.812H164.211V176.035H165.201L165.254 176.738C165.695 176.191 166.309 175.918 167.094 175.918C167.855 175.918 168.457 176.205 168.898 176.779C169.344 177.354 169.566 178.152 169.566 179.176V179.275ZM168.482 179.152C168.482 178.438 168.33 177.873 168.025 177.459C167.721 177.045 167.303 176.838 166.771 176.838C166.115 176.838 165.623 177.129 165.295 177.711V180.74C165.619 181.318 166.115 181.607 166.783 181.607C167.303 181.607 167.715 181.402 168.02 180.992C168.328 180.578 168.482 179.965 168.482 179.152ZM172.42 174.5V176.035H173.604V176.873H172.42V180.805C172.42 181.059 172.473 181.25 172.578 181.379C172.684 181.504 172.863 181.566 173.117 181.566C173.242 181.566 173.414 181.543 173.633 181.496V182.375C173.348 182.453 173.07 182.492 172.801 182.492C172.316 182.492 171.951 182.346 171.705 182.053C171.459 181.76 171.336 181.344 171.336 180.805V176.873H170.182V176.035H171.336V174.5H172.42ZM175.092 183.107H174.16L177.723 173.844H178.648L175.092 183.107ZM129.307 188.77H126.564V196.375H125.445V188.77H122.709V187.844H129.307V188.77ZM132.055 194.787L133.531 190.035H134.691L132.143 197.354C131.748 198.408 131.121 198.936 130.262 198.936L130.057 198.918L129.652 198.842V197.963L129.945 197.986C130.312 197.986 130.598 197.912 130.801 197.764C131.008 197.615 131.178 197.344 131.311 196.949L131.551 196.305L129.289 190.035H130.473L132.055 194.787ZM141.02 193.275C141.02 194.24 140.799 195.018 140.357 195.607C139.916 196.197 139.318 196.492 138.564 196.492C137.795 196.492 137.189 196.248 136.748 195.76V198.812H135.664V190.035H136.654L136.707 190.738C137.148 190.191 137.762 189.918 138.547 189.918C139.309 189.918 139.91 190.205 140.352 190.779C140.797 191.354 141.02 192.152 141.02 193.176V193.275ZM139.936 193.152C139.936 192.438 139.783 191.873 139.479 191.459C139.174 191.045 138.756 190.838 138.225 190.838C137.568 190.838 137.076 191.129 136.748 191.711V194.74C137.072 195.318 137.568 195.607 138.236 195.607C138.756 195.607 139.168 195.402 139.473 194.992C139.781 194.578 139.936 193.965 139.936 193.152ZM145.033 196.492C144.174 196.492 143.475 196.211 142.936 195.648C142.396 195.082 142.127 194.326 142.127 193.381V193.182C142.127 192.553 142.246 191.992 142.484 191.5C142.727 191.004 143.062 190.617 143.492 190.34C143.926 190.059 144.395 189.918 144.898 189.918C145.723 189.918 146.363 190.189 146.82 190.732C147.277 191.275 147.506 192.053 147.506 193.064V193.516H143.211C143.227 194.141 143.408 194.646 143.756 195.033C144.107 195.416 144.553 195.607 145.092 195.607C145.475 195.607 145.799 195.529 146.064 195.373C146.33 195.217 146.562 195.01 146.762 194.752L147.424 195.268C146.893 196.084 146.096 196.492 145.033 196.492ZM144.898 190.809C144.461 190.809 144.094 190.969 143.797 191.289C143.5 191.605 143.316 192.051 143.246 192.625H146.422V192.543C146.391 191.992 146.242 191.566 145.977 191.266C145.711 190.961 145.352 190.809 144.898 190.809ZM151.449 192.572C150.484 192.295 149.781 191.955 149.34 191.553C148.902 191.146 148.684 190.646 148.684 190.053C148.684 189.381 148.951 188.826 149.486 188.389C150.025 187.947 150.725 187.727 151.584 187.727C152.17 187.727 152.691 187.84 153.148 188.066C153.609 188.293 153.965 188.605 154.215 189.004C154.469 189.402 154.596 189.838 154.596 190.311H153.465C153.465 189.795 153.301 189.391 152.973 189.098C152.645 188.801 152.182 188.652 151.584 188.652C151.029 188.652 150.596 188.775 150.283 189.021C149.975 189.264 149.82 189.602 149.82 190.035C149.82 190.383 149.967 190.678 150.26 190.92C150.557 191.158 151.059 191.377 151.766 191.576C152.477 191.775 153.031 191.996 153.43 192.238C153.832 192.477 154.129 192.756 154.32 193.076C154.516 193.396 154.613 193.773 154.613 194.207C154.613 194.898 154.344 195.453 153.805 195.871C153.266 196.285 152.545 196.492 151.643 196.492C151.057 196.492 150.51 196.381 150.002 196.158C149.494 195.932 149.102 195.623 148.824 195.232C148.551 194.842 148.414 194.398 148.414 193.902H149.545C149.545 194.418 149.734 194.826 150.113 195.127C150.496 195.424 151.006 195.572 151.643 195.572C152.236 195.572 152.691 195.451 153.008 195.209C153.324 194.967 153.482 194.637 153.482 194.219C153.482 193.801 153.336 193.479 153.043 193.252C152.75 193.021 152.219 192.795 151.449 192.572ZM158.434 195.607C158.82 195.607 159.158 195.49 159.447 195.256C159.736 195.021 159.896 194.729 159.928 194.377H160.953C160.934 194.74 160.809 195.086 160.578 195.414C160.348 195.742 160.039 196.004 159.652 196.199C159.27 196.395 158.863 196.492 158.434 196.492C157.57 196.492 156.883 196.205 156.371 195.631C155.863 195.053 155.609 194.264 155.609 193.264V193.082C155.609 192.465 155.723 191.916 155.949 191.436C156.176 190.955 156.5 190.582 156.922 190.316C157.348 190.051 157.85 189.918 158.428 189.918C159.139 189.918 159.729 190.131 160.197 190.557C160.67 190.982 160.922 191.535 160.953 192.215H159.928C159.896 191.805 159.74 191.469 159.459 191.207C159.182 190.941 158.838 190.809 158.428 190.809C157.877 190.809 157.449 191.008 157.145 191.406C156.844 191.801 156.693 192.373 156.693 193.123V193.328C156.693 194.059 156.844 194.621 157.145 195.016C157.445 195.41 157.875 195.607 158.434 195.607ZM165.236 191.008C165.072 190.98 164.895 190.967 164.703 190.967C163.992 190.967 163.51 191.27 163.256 191.875V196.375H162.172V190.035H163.227L163.244 190.768C163.6 190.201 164.104 189.918 164.756 189.918C164.967 189.918 165.127 189.945 165.236 190V191.008ZM167.416 196.375H166.332V190.035H167.416V196.375ZM166.244 188.354C166.244 188.178 166.297 188.029 166.402 187.908C166.512 187.787 166.672 187.727 166.883 187.727C167.094 187.727 167.254 187.787 167.363 187.908C167.473 188.029 167.527 188.178 167.527 188.354C167.527 188.529 167.473 188.676 167.363 188.793C167.254 188.91 167.094 188.969 166.883 188.969C166.672 188.969 166.512 188.91 166.402 188.793C166.297 188.676 166.244 188.529 166.244 188.354ZM174.512 193.275C174.512 194.24 174.291 195.018 173.85 195.607C173.408 196.197 172.811 196.492 172.057 196.492C171.287 196.492 170.682 196.248 170.24 195.76V198.812H169.156V190.035H170.146L170.199 190.738C170.641 190.191 171.254 189.918 172.039 189.918C172.801 189.918 173.402 190.205 173.844 190.779C174.289 191.354 174.512 192.152 174.512 193.176V193.275ZM173.428 193.152C173.428 192.438 173.275 191.873 172.971 191.459C172.666 191.045 172.248 190.838 171.717 190.838C171.061 190.838 170.568 191.129 170.24 191.711V194.74C170.564 195.318 171.061 195.607 171.729 195.607C172.248 195.607 172.66 195.402 172.965 194.992C173.273 194.578 173.428 193.965 173.428 193.152ZM177.365 188.5V190.035H178.549V190.873H177.365V194.805C177.365 195.059 177.418 195.25 177.523 195.379C177.629 195.504 177.809 195.566 178.062 195.566C178.188 195.566 178.359 195.543 178.578 195.496V196.375C178.293 196.453 178.016 196.492 177.746 196.492C177.262 196.492 176.896 196.346 176.65 196.053C176.404 195.76 176.281 195.344 176.281 194.805V190.873H175.127V190.035H176.281V188.5H177.365Z" fill="#E3E5E8"/>
<path d="M152.627 239.924H150.623V243.375H149.492V234.844H152.316C153.277 234.844 154.016 235.062 154.531 235.5C155.051 235.938 155.311 236.574 155.311 237.41C155.311 237.941 155.166 238.404 154.877 238.799C154.592 239.193 154.193 239.488 153.682 239.684L155.686 243.305V243.375H154.479L152.627 239.924ZM150.623 239.004H152.352C152.91 239.004 153.354 238.859 153.682 238.57C154.014 238.281 154.18 237.895 154.18 237.41C154.18 236.883 154.021 236.479 153.705 236.197C153.393 235.916 152.939 235.773 152.346 235.77H150.623V239.004ZM159.354 243.492C158.494 243.492 157.795 243.211 157.256 242.648C156.717 242.082 156.447 241.326 156.447 240.381V240.182C156.447 239.553 156.566 238.992 156.805 238.5C157.047 238.004 157.383 237.617 157.812 237.34C158.246 237.059 158.715 236.918 159.219 236.918C160.043 236.918 160.684 237.189 161.141 237.732C161.598 238.275 161.826 239.053 161.826 240.064V240.516H157.531C157.547 241.141 157.729 241.646 158.076 242.033C158.428 242.416 158.873 242.607 159.412 242.607C159.795 242.607 160.119 242.529 160.385 242.373C160.65 242.217 160.883 242.01 161.082 241.752L161.744 242.268C161.213 243.084 160.416 243.492 159.354 243.492ZM159.219 237.809C158.781 237.809 158.414 237.969 158.117 238.289C157.82 238.605 157.637 239.051 157.566 239.625H160.742V239.543C160.711 238.992 160.562 238.566 160.297 238.266C160.031 237.961 159.672 237.809 159.219 237.809ZM167 243.375C166.938 243.25 166.887 243.027 166.848 242.707C166.344 243.23 165.742 243.492 165.043 243.492C164.418 243.492 163.904 243.316 163.502 242.965C163.104 242.609 162.904 242.16 162.904 241.617C162.904 240.957 163.154 240.445 163.654 240.082C164.158 239.715 164.865 239.531 165.775 239.531H166.83V239.033C166.83 238.654 166.717 238.354 166.49 238.131C166.264 237.904 165.93 237.791 165.488 237.791C165.102 237.791 164.777 237.889 164.516 238.084C164.254 238.279 164.123 238.516 164.123 238.793H163.033C163.033 238.477 163.145 238.172 163.367 237.879C163.594 237.582 163.898 237.348 164.281 237.176C164.668 237.004 165.092 236.918 165.553 236.918C166.283 236.918 166.855 237.102 167.27 237.469C167.684 237.832 167.898 238.334 167.914 238.975V241.893C167.914 242.475 167.988 242.938 168.137 243.281V243.375H167ZM165.201 242.549C165.541 242.549 165.863 242.461 166.168 242.285C166.473 242.109 166.693 241.881 166.83 241.6V240.299H165.98C164.652 240.299 163.988 240.688 163.988 241.465C163.988 241.805 164.102 242.07 164.328 242.262C164.555 242.453 164.846 242.549 165.201 242.549ZM172.156 242.607C172.543 242.607 172.881 242.49 173.17 242.256C173.459 242.021 173.619 241.729 173.65 241.377H174.676C174.656 241.74 174.531 242.086 174.301 242.414C174.07 242.742 173.762 243.004 173.375 243.199C172.992 243.395 172.586 243.492 172.156 243.492C171.293 243.492 170.605 243.205 170.094 242.631C169.586 242.053 169.332 241.264 169.332 240.264V240.082C169.332 239.465 169.445 238.916 169.672 238.436C169.898 237.955 170.223 237.582 170.645 237.316C171.07 237.051 171.572 236.918 172.15 236.918C172.861 236.918 173.451 237.131 173.92 237.557C174.393 237.982 174.645 238.535 174.676 239.215H173.65C173.619 238.805 173.463 238.469 173.182 238.207C172.904 237.941 172.561 237.809 172.15 237.809C171.6 237.809 171.172 238.008 170.867 238.406C170.566 238.801 170.416 239.373 170.416 240.123V240.328C170.416 241.059 170.566 241.621 170.867 242.016C171.168 242.41 171.598 242.607 172.156 242.607ZM177.365 235.5V237.035H178.549V237.873H177.365V241.805C177.365 242.059 177.418 242.25 177.523 242.379C177.629 242.504 177.809 242.566 178.062 242.566C178.188 242.566 178.359 242.543 178.578 242.496V243.375C178.293 243.453 178.016 243.492 177.746 243.492C177.262 243.492 176.896 243.346 176.65 243.053C176.404 242.76 176.281 242.344 176.281 241.805V237.873H175.127V237.035H176.281V235.5H177.365Z" fill="#E3E5E8"/>
<path d="M143.381 295.148H139.807L139.004 297.375H137.844L141.102 288.844H142.086L145.35 297.375H144.195L143.381 295.148ZM140.146 294.223H143.047L141.594 290.232L140.146 294.223ZM147.354 291.035L147.389 291.832C147.873 291.223 148.506 290.918 149.287 290.918C150.627 290.918 151.303 291.674 151.314 293.186V297.375H150.23V293.18C150.227 292.723 150.121 292.385 149.914 292.166C149.711 291.947 149.393 291.838 148.959 291.838C148.607 291.838 148.299 291.932 148.033 292.119C147.768 292.307 147.561 292.553 147.412 292.857V297.375H146.328V291.035H147.354ZM152.691 294.152C152.691 293.164 152.92 292.379 153.377 291.797C153.834 291.211 154.439 290.918 155.193 290.918C155.967 290.918 156.57 291.191 157.004 291.738L157.057 291.035H158.047V297.223C158.047 298.043 157.803 298.689 157.314 299.162C156.83 299.635 156.178 299.871 155.357 299.871C154.9 299.871 154.453 299.773 154.016 299.578C153.578 299.383 153.244 299.115 153.014 298.775L153.576 298.125C154.041 298.699 154.609 298.986 155.281 298.986C155.809 298.986 156.219 298.838 156.512 298.541C156.809 298.244 156.957 297.826 156.957 297.287V296.742C156.523 297.242 155.932 297.492 155.182 297.492C154.439 297.492 153.838 297.193 153.377 296.596C152.92 295.998 152.691 295.184 152.691 294.152ZM153.781 294.275C153.781 294.99 153.928 295.553 154.221 295.963C154.514 296.369 154.924 296.572 155.451 296.572C156.135 296.572 156.637 296.262 156.957 295.641V292.746C156.625 292.141 156.127 291.838 155.463 291.838C154.936 291.838 154.523 292.043 154.227 292.453C153.93 292.863 153.781 293.471 153.781 294.275ZM163.602 296.748C163.18 297.244 162.561 297.492 161.744 297.492C161.068 297.492 160.553 297.297 160.197 296.906C159.846 296.512 159.668 295.93 159.664 295.16V291.035H160.748V295.131C160.748 296.092 161.139 296.572 161.92 296.572C162.748 296.572 163.299 296.264 163.572 295.646V291.035H164.656V297.375H163.625L163.602 296.748ZM167.486 297.375H166.402V288.375H167.486V297.375ZM173.141 297.375C173.078 297.25 173.027 297.027 172.988 296.707C172.484 297.23 171.883 297.492 171.184 297.492C170.559 297.492 170.045 297.316 169.643 296.965C169.244 296.609 169.045 296.16 169.045 295.617C169.045 294.957 169.295 294.445 169.795 294.082C170.299 293.715 171.006 293.531 171.916 293.531H172.971V293.033C172.971 292.654 172.857 292.354 172.631 292.131C172.404 291.904 172.07 291.791 171.629 291.791C171.242 291.791 170.918 291.889 170.656 292.084C170.395 292.279 170.264 292.516 170.264 292.793H169.174C169.174 292.477 169.285 292.172 169.508 291.879C169.734 291.582 170.039 291.348 170.422 291.176C170.809 291.004 171.232 290.918 171.693 290.918C172.424 290.918 172.996 291.102 173.41 291.469C173.824 291.832 174.039 292.334 174.055 292.975V295.893C174.055 296.475 174.129 296.938 174.277 297.281V297.375H173.141ZM171.342 296.549C171.682 296.549 172.004 296.461 172.309 296.285C172.613 296.109 172.834 295.881 172.971 295.6V294.299H172.121C170.793 294.299 170.129 294.688 170.129 295.465C170.129 295.805 170.242 296.07 170.469 296.262C170.695 296.453 170.986 296.549 171.342 296.549ZM178.818 292.008C178.654 291.98 178.477 291.967 178.285 291.967C177.574 291.967 177.092 292.27 176.838 292.875V297.375H175.754V291.035H176.809L176.826 291.768C177.182 291.201 177.686 290.918 178.338 290.918C178.549 290.918 178.709 290.945 178.818 291V292.008Z" fill="#E3E5E8"/>
<path d="M145.789 355.375H144.658L140.363 348.801V355.375H139.232V346.844H140.363L144.67 353.447V346.844H145.789V355.375ZM147.33 352.146C147.33 351.525 147.451 350.967 147.693 350.471C147.939 349.975 148.279 349.592 148.713 349.322C149.15 349.053 149.648 348.918 150.207 348.918C151.07 348.918 151.768 349.217 152.299 349.814C152.834 350.412 153.102 351.207 153.102 352.199V352.275C153.102 352.893 152.982 353.447 152.744 353.939C152.51 354.428 152.172 354.809 151.73 355.082C151.293 355.355 150.789 355.492 150.219 355.492C149.359 355.492 148.662 355.193 148.127 354.596C147.596 353.998 147.33 353.207 147.33 352.223V352.146ZM148.42 352.275C148.42 352.979 148.582 353.543 148.906 353.969C149.234 354.395 149.672 354.607 150.219 354.607C150.77 354.607 151.207 354.393 151.531 353.963C151.855 353.529 152.018 352.924 152.018 352.146C152.018 351.451 151.852 350.889 151.52 350.459C151.191 350.025 150.754 349.809 150.207 349.809C149.672 349.809 149.24 350.021 148.912 350.447C148.584 350.873 148.42 351.482 148.42 352.275ZM154.197 352.152C154.197 351.18 154.428 350.398 154.889 349.809C155.35 349.215 155.953 348.918 156.699 348.918C157.441 348.918 158.029 349.172 158.463 349.68V346.375H159.547V355.375H158.551L158.498 354.695C158.064 355.227 157.461 355.492 156.688 355.492C155.953 355.492 155.354 355.191 154.889 354.59C154.428 353.988 154.197 353.203 154.197 352.234V352.152ZM155.281 352.275C155.281 352.994 155.43 353.557 155.727 353.963C156.023 354.369 156.434 354.572 156.957 354.572C157.645 354.572 158.146 354.264 158.463 353.646V350.734C158.139 350.137 157.641 349.838 156.969 349.838C156.438 349.838 156.023 350.043 155.727 350.453C155.43 350.863 155.281 351.471 155.281 352.275ZM163.865 355.492C163.006 355.492 162.307 355.211 161.768 354.648C161.229 354.082 160.959 353.326 160.959 352.381V352.182C160.959 351.553 161.078 350.992 161.316 350.5C161.559 350.004 161.895 349.617 162.324 349.34C162.758 349.059 163.227 348.918 163.73 348.918C164.555 348.918 165.195 349.189 165.652 349.732C166.109 350.275 166.338 351.053 166.338 352.064V352.516H162.043C162.059 353.141 162.24 353.646 162.588 354.033C162.939 354.416 163.385 354.607 163.924 354.607C164.307 354.607 164.631 354.529 164.896 354.373C165.162 354.217 165.395 354.01 165.594 353.752L166.256 354.268C165.725 355.084 164.928 355.492 163.865 355.492ZM163.73 349.809C163.293 349.809 162.926 349.969 162.629 350.289C162.332 350.605 162.148 351.051 162.078 351.625H165.254V351.543C165.223 350.992 165.074 350.566 164.809 350.266C164.543 349.961 164.184 349.809 163.73 349.809ZM167.621 354.807C167.621 354.619 167.676 354.463 167.785 354.338C167.898 354.213 168.066 354.15 168.289 354.15C168.512 354.15 168.68 354.213 168.793 354.338C168.91 354.463 168.969 354.619 168.969 354.807C168.969 354.986 168.91 355.137 168.793 355.258C168.68 355.379 168.512 355.439 168.289 355.439C168.066 355.439 167.898 355.379 167.785 355.258C167.676 355.137 167.621 354.986 167.621 354.807ZM171.881 349.035V356.107C171.881 357.326 171.328 357.936 170.223 357.936C169.984 357.936 169.764 357.9 169.561 357.83V356.963C169.686 356.994 169.85 357.01 170.053 357.01C170.295 357.01 170.479 356.943 170.604 356.811C170.732 356.682 170.797 356.455 170.797 356.131V349.035H171.881ZM170.686 347.354C170.686 347.182 170.738 347.035 170.844 346.914C170.953 346.789 171.111 346.727 171.318 346.727C171.529 346.727 171.689 346.787 171.799 346.908C171.908 347.029 171.963 347.178 171.963 347.354C171.963 347.529 171.908 347.676 171.799 347.793C171.689 347.91 171.529 347.969 171.318 347.969C171.107 347.969 170.949 347.91 170.844 347.793C170.738 347.676 170.686 347.529 170.686 347.354ZM177.324 353.693C177.324 353.4 177.213 353.174 176.99 353.014C176.771 352.85 176.387 352.709 175.836 352.592C175.289 352.475 174.854 352.334 174.529 352.17C174.209 352.006 173.971 351.811 173.814 351.584C173.662 351.357 173.586 351.088 173.586 350.775C173.586 350.256 173.805 349.816 174.242 349.457C174.684 349.098 175.246 348.918 175.93 348.918C176.648 348.918 177.23 349.104 177.676 349.475C178.125 349.846 178.35 350.32 178.35 350.898H177.26C177.26 350.602 177.133 350.346 176.879 350.131C176.629 349.916 176.312 349.809 175.93 349.809C175.535 349.809 175.227 349.895 175.004 350.066C174.781 350.238 174.67 350.463 174.67 350.74C174.67 351.002 174.773 351.199 174.98 351.332C175.188 351.465 175.561 351.592 176.1 351.713C176.643 351.834 177.082 351.979 177.418 352.146C177.754 352.314 178.002 352.518 178.162 352.756C178.326 352.99 178.408 353.277 178.408 353.617C178.408 354.184 178.182 354.639 177.729 354.982C177.275 355.322 176.688 355.492 175.965 355.492C175.457 355.492 175.008 355.402 174.617 355.223C174.227 355.043 173.92 354.793 173.697 354.473C173.479 354.148 173.369 353.799 173.369 353.424H174.453C174.473 353.787 174.617 354.076 174.887 354.291C175.16 354.502 175.52 354.607 175.965 354.607C176.375 354.607 176.703 354.525 176.949 354.361C177.199 354.193 177.324 353.971 177.324 353.693Z" fill="#E3E5E8"/>
<path d="M329 63.9844H188.348V88.9784H329V63.9844Z" stroke="#319795" stroke-miterlimit="10"/>
<path d="M308.119 63.9844H188.348V88.9784H308.119V63.9844Z" fill="#319795" stroke="#319795" stroke-miterlimit="10"/>
<path d="M308.119 63.9844H188.348V88.9784H308.119V63.9844Z" fill="#319795" stroke="#319795" stroke-miterlimit="10"/>
<path d="M329 118.266H188.348V143.26H329V118.266Z" stroke="#319795" stroke-miterlimit="10"/>
<path d="M303.194 118.266H188.348V143.26H303.194V118.266Z" fill="#319795" stroke="#319795" stroke-miterlimit="10"/>
<path d="M303.194 118.266H188.348V143.26H303.194V118.266Z" fill="#319795" stroke="#319795" stroke-miterlimit="10"/>
<path d="M329 174.512H188.348V195.991H329V174.512Z" stroke="#319795" stroke-miterlimit="10"/>
<path d="M299.057 174.512H188.348V195.991H299.057V174.512Z" fill="#319795" stroke="#319795" stroke-miterlimit="10"/>
<path d="M299.057 174.512H188.348V195.991H299.057V174.512Z" fill="#319795" stroke="#319795" stroke-miterlimit="10"/>
<path d="M329 226.832H188.348V251.826H329V226.832Z" stroke="#319795" stroke-miterlimit="10"/>
<path d="M299.057 226.832H188.348V251.826H299.057V226.832Z" fill="#319795" stroke="#319795" stroke-miterlimit="10"/>
<path d="M299.057 226.832H188.348V251.826H299.057V226.832Z" fill="#319795" stroke="#319795" stroke-miterlimit="10"/>
<path d="M329 281.125H188.348V306.119H329V281.125Z" stroke="#319795" stroke-miterlimit="10"/>
<path d="M299.057 281.125H188.348V306.119H299.057V281.125Z" fill="#319795" stroke="#319795" stroke-miterlimit="10"/>
<path d="M299.057 281.125H188.348V306.119H299.057V281.125Z" fill="#319795" stroke="#319795" stroke-miterlimit="10"/>
<path d="M329 339.309H188.348V364.303H329V339.309Z" stroke="#319795" stroke-miterlimit="10"/>
<path d="M272.66 339.309H188.348V364.303H272.66V339.309Z" fill="#319795" stroke="#319795" stroke-miterlimit="10"/>
<path d="M188.348 55V385" stroke="#E3E5E8" stroke-width="2" stroke-miterlimit="10"/>
</svg>
