<svg width="414" height="439" viewBox="0 0 414 439" fill="none" xmlns="http://www.w3.org/2000/svg">
<path d="M157.779 38H156.654V29.4688H157.779V38ZM160.697 31.6602L160.732 32.457C161.216 31.8477 161.849 31.543 162.63 31.543C163.97 31.543 164.646 32.2988 164.658 33.8105V38H163.574V33.8047C163.57 33.3477 163.464 33.0098 163.257 32.791C163.054 32.5723 162.736 32.4629 162.302 32.4629C161.951 32.4629 161.642 32.5566 161.376 32.7441C161.111 32.9316 160.904 33.1777 160.755 33.4824V38H159.671V31.6602H160.697ZM166.826 38V32.498H165.824V31.6602H166.826V31.0098C166.826 30.3301 167.007 29.8047 167.37 29.4336C167.734 29.0625 168.247 28.877 168.911 28.877C169.161 28.877 169.41 28.9102 169.656 28.9766L169.597 29.8555C169.413 29.8203 169.218 29.8027 169.011 29.8027C168.66 29.8027 168.388 29.9062 168.197 30.1133C168.005 30.3164 167.91 30.6094 167.91 30.9922V31.6602H169.263V32.498H167.91V38H166.826ZM170.177 34.7715C170.177 34.1504 170.298 33.5918 170.54 33.0957C170.786 32.5996 171.126 32.2168 171.56 31.9473C171.997 31.6777 172.495 31.543 173.054 31.543C173.917 31.543 174.615 31.8418 175.146 32.4395C175.681 33.0371 175.949 33.832 175.949 34.8242V34.9004C175.949 35.5176 175.829 36.0723 175.591 36.5645C175.357 37.0527 175.019 37.4336 174.577 37.707C174.14 37.9805 173.636 38.1172 173.066 38.1172C172.206 38.1172 171.509 37.8184 170.974 37.2207C170.443 36.623 170.177 35.832 170.177 34.8477V34.7715ZM171.267 34.9004C171.267 35.6035 171.429 36.168 171.753 36.5938C172.081 37.0195 172.519 37.2324 173.066 37.2324C173.617 37.2324 174.054 37.0176 174.378 36.5879C174.702 36.1543 174.865 35.5488 174.865 34.7715C174.865 34.0762 174.699 33.5137 174.367 33.084C174.038 32.6504 173.601 32.4336 173.054 32.4336C172.519 32.4336 172.087 32.6465 171.759 33.0723C171.431 33.498 171.267 34.1074 171.267 34.9004ZM180.372 32.6328C180.208 32.6055 180.031 32.5918 179.839 32.5918C179.128 32.5918 178.646 32.8945 178.392 33.5V38H177.308V31.6602H178.363L178.38 32.3926C178.736 31.8262 179.24 31.543 179.892 31.543C180.103 31.543 180.263 31.5703 180.372 31.625V32.6328ZM182.394 31.6602L182.423 32.3633C182.888 31.8164 183.515 31.543 184.304 31.543C185.191 31.543 185.794 31.8828 186.115 32.5625C186.326 32.2578 186.599 32.0117 186.935 31.8242C187.275 31.6367 187.675 31.543 188.136 31.543C189.527 31.543 190.234 32.2793 190.257 33.752V38H189.173V33.8164C189.173 33.3633 189.07 33.0254 188.863 32.8027C188.656 32.5762 188.308 32.4629 187.82 32.4629C187.417 32.4629 187.083 32.584 186.818 32.8262C186.552 33.0645 186.398 33.3867 186.355 33.793V38H185.265V33.8457C185.265 32.9238 184.814 32.4629 183.911 32.4629C183.201 32.4629 182.714 32.7656 182.452 33.3711V38H181.369V31.6602H182.394ZM195.812 38C195.749 37.875 195.699 37.6523 195.66 37.332C195.156 37.8555 194.554 38.1172 193.855 38.1172C193.23 38.1172 192.716 37.9414 192.314 37.5898C191.915 37.2344 191.716 36.7852 191.716 36.2422C191.716 35.582 191.966 35.0703 192.466 34.707C192.97 34.3398 193.677 34.1562 194.587 34.1562H195.642V33.6582C195.642 33.2793 195.529 32.9785 195.302 32.7559C195.076 32.5293 194.742 32.416 194.3 32.416C193.913 32.416 193.589 32.5137 193.327 32.709C193.066 32.9043 192.935 33.1406 192.935 33.418H191.845C191.845 33.1016 191.956 32.7969 192.179 32.5039C192.406 32.207 192.71 31.9727 193.093 31.8008C193.48 31.6289 193.904 31.543 194.365 31.543C195.095 31.543 195.667 31.7266 196.081 32.0938C196.495 32.457 196.71 32.959 196.726 33.5996V36.5176C196.726 37.0996 196.8 37.5625 196.949 37.9062V38H195.812ZM194.013 37.1738C194.353 37.1738 194.675 37.0859 194.98 36.9102C195.285 36.7344 195.505 36.5059 195.642 36.2246V34.9238H194.792C193.464 34.9238 192.8 35.3125 192.8 36.0898C192.8 36.4297 192.913 36.6953 193.14 36.8867C193.367 37.0781 193.658 37.1738 194.013 37.1738ZM199.896 30.125V31.6602H201.079V32.498H199.896V36.4297C199.896 36.6836 199.949 36.875 200.054 37.0039C200.16 37.1289 200.339 37.1914 200.593 37.1914C200.718 37.1914 200.89 37.168 201.109 37.1211V38C200.824 38.0781 200.546 38.1172 200.277 38.1172C199.792 38.1172 199.427 37.9707 199.181 37.6777C198.935 37.3848 198.812 36.9688 198.812 36.4297V32.498H197.658V31.6602H198.812V30.125H199.896ZM203.529 38H202.445V31.6602H203.529V38ZM202.357 29.9785C202.357 29.8027 202.41 29.6543 202.515 29.5332C202.624 29.4121 202.785 29.3516 202.995 29.3516C203.206 29.3516 203.367 29.4121 203.476 29.5332C203.585 29.6543 203.64 29.8027 203.64 29.9785C203.64 30.1543 203.585 30.3008 203.476 30.418C203.367 30.5352 203.206 30.5938 202.995 30.5938C202.785 30.5938 202.624 30.5352 202.515 30.418C202.41 30.3008 202.357 30.1543 202.357 29.9785ZM204.982 34.7715C204.982 34.1504 205.103 33.5918 205.345 33.0957C205.591 32.5996 205.931 32.2168 206.365 31.9473C206.802 31.6777 207.3 31.543 207.859 31.543C208.722 31.543 209.419 31.8418 209.951 32.4395C210.486 33.0371 210.753 33.832 210.753 34.8242V34.9004C210.753 35.5176 210.634 36.0723 210.396 36.5645C210.161 37.0527 209.824 37.4336 209.382 37.707C208.945 37.9805 208.441 38.1172 207.87 38.1172C207.011 38.1172 206.314 37.8184 205.779 37.2207C205.247 36.623 204.982 35.832 204.982 34.8477V34.7715ZM206.072 34.9004C206.072 35.6035 206.234 36.168 206.558 36.5938C206.886 37.0195 207.324 37.2324 207.87 37.2324C208.421 37.2324 208.859 37.0176 209.183 36.5879C209.507 36.1543 209.669 35.5488 209.669 34.7715C209.669 34.0762 209.503 33.5137 209.171 33.084C208.843 32.6504 208.406 32.4336 207.859 32.4336C207.324 32.4336 206.892 32.6465 206.564 33.0723C206.236 33.498 206.072 34.1074 206.072 34.9004ZM213.138 31.6602L213.173 32.457C213.658 31.8477 214.29 31.543 215.072 31.543C216.411 31.543 217.087 32.2988 217.099 33.8105V38H216.015V33.8047C216.011 33.3477 215.906 33.0098 215.699 32.791C215.495 32.5723 215.177 32.4629 214.744 32.4629C214.392 32.4629 214.083 32.5566 213.818 32.7441C213.552 32.9316 213.345 33.1777 213.197 33.4824V38H212.113V31.6602H213.138ZM159.941 49.7734H156.367L155.564 52H154.404L157.661 43.4688H158.646L161.91 52H160.755L159.941 49.7734ZM156.706 48.8477H159.607L158.154 44.8574L156.706 48.8477ZM165.952 46.6328C165.788 46.6055 165.611 46.5918 165.419 46.5918C164.708 46.5918 164.226 46.8945 163.972 47.5V52H162.888V45.6602H163.943L163.96 46.3926C164.316 45.8262 164.82 45.543 165.472 45.543C165.683 45.543 165.843 45.5703 165.952 45.625V46.6328ZM169.38 51.2324C169.767 51.2324 170.105 51.1152 170.394 50.8809C170.683 50.6465 170.843 50.3535 170.874 50.002H171.9C171.88 50.3652 171.755 50.7109 171.525 51.0391C171.294 51.3672 170.986 51.6289 170.599 51.8242C170.216 52.0195 169.81 52.1172 169.38 52.1172C168.517 52.1172 167.829 51.8301 167.318 51.2559C166.81 50.6777 166.556 49.8887 166.556 48.8887V48.707C166.556 48.0898 166.669 47.541 166.896 47.0605C167.122 46.5801 167.447 46.207 167.869 45.9414C168.294 45.6758 168.796 45.543 169.374 45.543C170.085 45.543 170.675 45.7559 171.144 46.1816C171.617 46.6074 171.869 47.1602 171.9 47.8398H170.874C170.843 47.4297 170.687 47.0938 170.406 46.832C170.128 46.5664 169.785 46.4336 169.374 46.4336C168.824 46.4336 168.396 46.6328 168.091 47.0312C167.79 47.4258 167.64 47.998 167.64 48.748V48.9531C167.64 49.6836 167.79 50.2461 168.091 50.6406C168.392 51.0352 168.822 51.2324 169.38 51.2324ZM174.202 46.4277C174.683 45.8379 175.308 45.543 176.077 45.543C177.417 45.543 178.093 46.2988 178.105 47.8105V52H177.021V47.8047C177.017 47.3477 176.911 47.0098 176.704 46.791C176.501 46.5723 176.183 46.4629 175.749 46.4629C175.398 46.4629 175.089 46.5566 174.824 46.7441C174.558 46.9316 174.351 47.1777 174.202 47.4824V52H173.119V43H174.202V46.4277ZM180.906 52H179.822V45.6602H180.906V52ZM179.734 43.9785C179.734 43.8027 179.786 43.6543 179.892 43.5332C180.001 43.4121 180.161 43.3516 180.372 43.3516C180.583 43.3516 180.744 43.4121 180.853 43.5332C180.962 43.6543 181.017 43.8027 181.017 43.9785C181.017 44.1543 180.962 44.3008 180.853 44.418C180.744 44.5352 180.583 44.5938 180.372 44.5938C180.161 44.5938 180.001 44.5352 179.892 44.418C179.786 44.3008 179.734 44.1543 179.734 43.9785ZM184.117 44.125V45.6602H185.3V46.498H184.117V50.4297C184.117 50.6836 184.169 50.875 184.275 51.0039C184.38 51.1289 184.56 51.1914 184.814 51.1914C184.939 51.1914 185.111 51.168 185.329 51.1211V52C185.044 52.0781 184.767 52.1172 184.497 52.1172C184.013 52.1172 183.648 51.9707 183.402 51.6777C183.156 51.3848 183.033 50.9688 183.033 50.4297V46.498H181.878V45.6602H183.033V44.125H184.117ZM189.202 52.1172C188.343 52.1172 187.644 51.8359 187.105 51.2734C186.566 50.707 186.296 49.9512 186.296 49.0059V48.8066C186.296 48.1777 186.415 47.6172 186.654 47.125C186.896 46.6289 187.232 46.2422 187.661 45.9648C188.095 45.6836 188.564 45.543 189.068 45.543C189.892 45.543 190.533 45.8145 190.99 46.3574C191.447 46.9004 191.675 47.6777 191.675 48.6895V49.1406H187.38C187.396 49.7656 187.577 50.2715 187.925 50.6582C188.277 51.041 188.722 51.2324 189.261 51.2324C189.644 51.2324 189.968 51.1543 190.234 50.998C190.499 50.8418 190.732 50.6348 190.931 50.377L191.593 50.8926C191.062 51.709 190.265 52.1172 189.202 52.1172ZM189.068 46.4336C188.63 46.4336 188.263 46.5938 187.966 46.9141C187.669 47.2305 187.486 47.6758 187.415 48.25H190.591V48.168C190.56 47.6172 190.411 47.1914 190.146 46.8906C189.88 46.5859 189.521 46.4336 189.068 46.4336ZM195.478 51.2324C195.865 51.2324 196.202 51.1152 196.492 50.8809C196.781 50.6465 196.941 50.3535 196.972 50.002H197.997C197.978 50.3652 197.853 50.7109 197.622 51.0391C197.392 51.3672 197.083 51.6289 196.697 51.8242C196.314 52.0195 195.908 52.1172 195.478 52.1172C194.615 52.1172 193.927 51.8301 193.415 51.2559C192.908 50.6777 192.654 49.8887 192.654 48.8887V48.707C192.654 48.0898 192.767 47.541 192.994 47.0605C193.22 46.5801 193.544 46.207 193.966 45.9414C194.392 45.6758 194.894 45.543 195.472 45.543C196.183 45.543 196.773 45.7559 197.242 46.1816C197.714 46.6074 197.966 47.1602 197.997 47.8398H196.972C196.941 47.4297 196.785 47.0938 196.503 46.832C196.226 46.5664 195.882 46.4336 195.472 46.4336C194.921 46.4336 194.494 46.6328 194.189 47.0312C193.888 47.4258 193.738 47.998 193.738 48.748V48.9531C193.738 49.6836 193.888 50.2461 194.189 50.6406C194.49 51.0352 194.919 51.2324 195.478 51.2324ZM200.687 44.125V45.6602H201.87V46.498H200.687V50.4297C200.687 50.6836 200.74 50.875 200.845 51.0039C200.951 51.1289 201.13 51.1914 201.384 51.1914C201.509 51.1914 201.681 51.168 201.9 51.1211V52C201.615 52.0781 201.337 52.1172 201.068 52.1172C200.583 52.1172 200.218 51.9707 199.972 51.6777C199.726 51.3848 199.603 50.9688 199.603 50.4297V46.498H198.449V45.6602H199.603V44.125H200.687ZM207.056 51.373C206.634 51.8691 206.015 52.1172 205.199 52.1172C204.523 52.1172 204.007 51.9219 203.652 51.5312C203.3 51.1367 203.122 50.5547 203.119 49.7852V45.6602H204.202V49.7559C204.202 50.7168 204.593 51.1973 205.374 51.1973C206.202 51.1973 206.753 50.8887 207.027 50.2715V45.6602H208.111V52H207.079L207.056 51.373ZM212.827 46.6328C212.663 46.6055 212.486 46.5918 212.294 46.5918C211.583 46.5918 211.101 46.8945 210.847 47.5V52H209.763V45.6602H210.818L210.835 46.3926C211.191 45.8262 211.695 45.543 212.347 45.543C212.558 45.543 212.718 45.5703 212.827 45.625V46.6328ZM216.343 52.1172C215.484 52.1172 214.785 51.8359 214.245 51.2734C213.706 50.707 213.437 49.9512 213.437 49.0059V48.8066C213.437 48.1777 213.556 47.6172 213.794 47.125C214.036 46.6289 214.372 46.2422 214.802 45.9648C215.236 45.6836 215.704 45.543 216.208 45.543C217.033 45.543 217.673 45.8145 218.13 46.3574C218.587 46.9004 218.816 47.6777 218.816 48.6895V49.1406H214.521C214.536 49.7656 214.718 50.2715 215.066 50.6582C215.417 51.041 215.863 51.2324 216.402 51.2324C216.785 51.2324 217.109 51.1543 217.374 50.998C217.64 50.8418 217.872 50.6348 218.072 50.377L218.734 50.8926C218.202 51.709 217.406 52.1172 216.343 52.1172ZM216.208 46.4336C215.771 46.4336 215.404 46.5938 215.107 46.9141C214.81 47.2305 214.626 47.6758 214.556 48.25H217.732V48.168C217.701 47.6172 217.552 47.1914 217.286 46.8906C217.021 46.5859 216.661 46.4336 216.208 46.4336Z" fill="#54565A"/>
<path d="M290.605 119.147L187.041 76.9648L84.0589 120.31L41.877 223.874L85.2225 326.857L188.787 369.039L291.769 325.693L333.951 222.129L290.605 119.147Z" stroke="#BBBBBB" stroke-width="0.5" stroke-miterlimit="10"/>
<path d="M290.605 119.147L187.041 76.9648L84.0589 120.31L41.877 223.874L85.2225 326.857L188.787 369.039L291.769 325.693L333.951 222.129L290.605 119.147Z" stroke="#BBBBBB" stroke-width="0.5" stroke-miterlimit="10"/>
<path d="M105.292 306.495L70.3828 223.586L104.419 140.386L187.038 105.477L270.238 139.513L305.147 222.422L271.402 305.623L188.492 340.532L105.292 306.495Z" stroke="#BBBBBB" stroke-width="0.5" stroke-miterlimit="10"/>
<path d="M125.366 286.128L99.1836 223.583L124.784 160.746L187.329 134.273L250.166 159.873L276.639 222.419L251.039 285.256L188.202 311.729L125.366 286.128Z" stroke="#BBBBBB" stroke-width="0.5" stroke-miterlimit="10"/>
<path d="M145.732 265.758L127.695 223.285L145.15 180.812L187.332 163.066L230.096 180.23L247.841 222.703L230.387 265.176L188.205 282.921L145.732 265.758Z" stroke="#BBBBBB" stroke-width="0.5" stroke-miterlimit="10"/>
<path d="M165.801 245.397L156.492 223.287L165.511 200.887L187.62 191.578L209.729 200.596L219.038 222.706L210.02 245.106L187.911 254.415L165.801 245.397Z" stroke="#BBBBBB" stroke-width="0.5" stroke-miterlimit="10"/>
<path d="M187.912 223.004L74.748 109.84" stroke="#BBBBBB" stroke-width="0.5" stroke-miterlimit="10"/>
<path d="M187.913 223H27.9121" stroke="#BBBBBB" stroke-width="0.5" stroke-miterlimit="10"/>
<path d="M187.912 223V383.001" stroke="#BBBBBB" stroke-width="0.5" stroke-miterlimit="10"/>
<path d="M187.912 223H347.913" stroke="#BBBBBB" stroke-width="0.5" stroke-miterlimit="10"/>
<path d="M187.912 223.004L74.748 109.84" stroke="#BBBBBB" stroke-width="0.5" stroke-miterlimit="10"/>
<path d="M187.912 223L74.748 336.164" stroke="#BBBBBB" stroke-width="0.5" stroke-miterlimit="10"/>
<path d="M187.912 223L301.076 336.164" stroke="#BBBBBB" stroke-width="0.5" stroke-miterlimit="10"/>
<path d="M187.912 223.004L301.076 109.84" stroke="#BBBBBB" stroke-width="0.5" stroke-miterlimit="10"/>
<path d="M187.912 223.001V63" stroke="#BBBBBB" stroke-width="0.5" stroke-miterlimit="10"/>
<path opacity="0.25" d="M187.039 105.477L230.093 180.24L333.948 222.131L271.403 305.623L188.493 340.532L105.293 306.495L127.693 223.295L187.039 105.477Z" fill="#319795"/>
<path d="M187.039 105.477L230.093 180.24L333.948 222.131L271.403 305.623L188.493 340.532L105.293 306.495L127.693 223.295L187.039 105.477Z" stroke="#319795" stroke-width="3" stroke-miterlimit="10"/>
<path d="M67.2617 97.9746H63.5645V100.998H67.8594V101.918H62.4395V93.3867H67.8008V94.3125H63.5645V97.0547H67.2617V97.9746ZM68.709 98.6953C68.709 97.7227 68.9395 96.9414 69.4004 96.3516C69.8613 95.7578 70.4648 95.4609 71.2109 95.4609C71.9531 95.4609 72.541 95.7148 72.9746 96.2227V92.918H74.0586V101.918H73.0625L73.0098 101.238C72.5762 101.77 71.9727 102.035 71.1992 102.035C70.4648 102.035 69.8652 101.734 69.4004 101.133C68.9395 100.531 68.709 99.7461 68.709 98.7773V98.6953ZM69.793 98.8184C69.793 99.5371 69.9414 100.1 70.2383 100.506C70.5352 100.912 70.9453 101.115 71.4688 101.115C72.1562 101.115 72.6582 100.807 72.9746 100.189V97.2773C72.6504 96.6797 72.1523 96.3809 71.4805 96.3809C70.9492 96.3809 70.5352 96.5859 70.2383 96.9961C69.9414 97.4062 69.793 98.0137 69.793 98.8184ZM76.9238 101.918H75.8398V95.5781H76.9238V101.918ZM75.752 93.8965C75.752 93.7207 75.8047 93.5723 75.9102 93.4512C76.0195 93.3301 76.1797 93.2695 76.3906 93.2695C76.6016 93.2695 76.7617 93.3301 76.8711 93.4512C76.9805 93.5723 77.0352 93.7207 77.0352 93.8965C77.0352 94.0723 76.9805 94.2188 76.8711 94.3359C76.7617 94.4531 76.6016 94.5117 76.3906 94.5117C76.1797 94.5117 76.0195 94.4531 75.9102 94.3359C75.8047 94.2188 75.752 94.0723 75.752 93.8965ZM80.1348 94.043V95.5781H81.3184V96.416H80.1348V100.348C80.1348 100.602 80.1875 100.793 80.293 100.922C80.3984 101.047 80.5781 101.109 80.832 101.109C80.957 101.109 81.1289 101.086 81.3477 101.039V101.918C81.0625 101.996 80.7852 102.035 80.5156 102.035C80.0312 102.035 79.666 101.889 79.4199 101.596C79.1738 101.303 79.0508 100.887 79.0508 100.348V96.416H77.8965V95.5781H79.0508V94.043H80.1348ZM83.7676 101.918H82.6836V95.5781H83.7676V101.918ZM82.5957 93.8965C82.5957 93.7207 82.6484 93.5723 82.7539 93.4512C82.8633 93.3301 83.0234 93.2695 83.2344 93.2695C83.4453 93.2695 83.6055 93.3301 83.7148 93.4512C83.8242 93.5723 83.8789 93.7207 83.8789 93.8965C83.8789 94.0723 83.8242 94.2188 83.7148 94.3359C83.6055 94.4531 83.4453 94.5117 83.2344 94.5117C83.0234 94.5117 82.8633 94.4531 82.7539 94.3359C82.6484 94.2188 82.5957 94.0723 82.5957 93.8965ZM86.5332 95.5781L86.5684 96.375C87.0527 95.7656 87.6855 95.4609 88.4668 95.4609C89.8066 95.4609 90.4824 96.2168 90.4941 97.7285V101.918H89.4102V97.7227C89.4062 97.2656 89.3008 96.9277 89.0938 96.709C88.8906 96.4902 88.5723 96.3809 88.1387 96.3809C87.7871 96.3809 87.4785 96.4746 87.2129 96.6621C86.9473 96.8496 86.7402 97.0957 86.5918 97.4004V101.918H85.5078V95.5781H86.5332ZM91.8711 98.6953C91.8711 97.707 92.0996 96.9219 92.5566 96.3398C93.0137 95.7539 93.6191 95.4609 94.373 95.4609C95.1465 95.4609 95.75 95.7344 96.1836 96.2812L96.2363 95.5781H97.2266V101.766C97.2266 102.586 96.9824 103.232 96.4941 103.705C96.0098 104.178 95.3574 104.414 94.5371 104.414C94.0801 104.414 93.6328 104.316 93.1953 104.121C92.7578 103.926 92.4238 103.658 92.1934 103.318L92.7559 102.668C93.2207 103.242 93.7891 103.529 94.4609 103.529C94.9883 103.529 95.3984 103.381 95.6914 103.084C95.9883 102.787 96.1367 102.369 96.1367 101.83V101.285C95.7031 101.785 95.1113 102.035 94.3613 102.035C93.6191 102.035 93.0176 101.736 92.5566 101.139C92.0996 100.541 91.8711 99.7266 91.8711 98.6953ZM92.9609 98.8184C92.9609 99.5332 93.1074 100.096 93.4004 100.506C93.6934 100.912 94.1035 101.115 94.6309 101.115C95.3145 101.115 95.8164 100.805 96.1367 100.184V97.2891C95.8047 96.6836 95.3066 96.3809 94.6426 96.3809C94.1152 96.3809 93.7031 96.5859 93.4062 96.9961C93.1094 97.4062 92.9609 98.0137 92.9609 98.8184Z" fill="#54565A"/>
<path d="M297.709 79.4688V85.2695C297.705 86.0742 297.451 86.7324 296.947 87.2441C296.447 87.7559 295.768 88.043 294.908 88.1055L294.609 88.1172C293.676 88.1172 292.932 87.8652 292.377 87.3613C291.822 86.8574 291.541 86.1641 291.533 85.2812V79.4688H292.646V85.2461C292.646 85.8633 292.816 86.3438 293.156 86.6875C293.496 87.0273 293.98 87.1973 294.609 87.1973C295.246 87.1973 295.732 87.0273 296.068 86.6875C296.408 86.3477 296.578 85.8691 296.578 85.252V79.4688H297.709ZM303.006 86.3184C303.006 86.0254 302.895 85.7988 302.672 85.6387C302.453 85.4746 302.068 85.334 301.518 85.2168C300.971 85.0996 300.535 84.959 300.211 84.7949C299.891 84.6309 299.652 84.4355 299.496 84.209C299.344 83.9824 299.268 83.7129 299.268 83.4004C299.268 82.8809 299.486 82.4414 299.924 82.082C300.365 81.7227 300.928 81.543 301.611 81.543C302.33 81.543 302.912 81.7285 303.357 82.0996C303.807 82.4707 304.031 82.9453 304.031 83.5234H302.941C302.941 83.2266 302.814 82.9707 302.561 82.7559C302.311 82.541 301.994 82.4336 301.611 82.4336C301.217 82.4336 300.908 82.5195 300.686 82.6914C300.463 82.8633 300.352 83.0879 300.352 83.3652C300.352 83.627 300.455 83.8242 300.662 83.957C300.869 84.0898 301.242 84.2168 301.781 84.3379C302.324 84.459 302.764 84.6035 303.1 84.7715C303.436 84.9395 303.684 85.1426 303.844 85.3809C304.008 85.6152 304.09 85.9023 304.09 86.2422C304.09 86.8086 303.863 87.2637 303.41 87.6074C302.957 87.9473 302.369 88.1172 301.646 88.1172C301.139 88.1172 300.689 88.0273 300.299 87.8477C299.908 87.668 299.602 87.418 299.379 87.0977C299.16 86.7734 299.051 86.4238 299.051 86.0488H300.135C300.154 86.4121 300.299 86.7012 300.568 86.916C300.842 87.127 301.201 87.2324 301.646 87.2324C302.057 87.2324 302.385 87.1504 302.631 86.9863C302.881 86.8184 303.006 86.5957 303.006 86.3184ZM308.133 88.1172C307.273 88.1172 306.574 87.8359 306.035 87.2734C305.496 86.707 305.227 85.9512 305.227 85.0059V84.8066C305.227 84.1777 305.346 83.6172 305.584 83.125C305.826 82.6289 306.162 82.2422 306.592 81.9648C307.025 81.6836 307.494 81.543 307.998 81.543C308.822 81.543 309.463 81.8145 309.92 82.3574C310.377 82.9004 310.605 83.6777 310.605 84.6895V85.1406H306.311C306.326 85.7656 306.508 86.2715 306.855 86.6582C307.207 87.041 307.652 87.2324 308.191 87.2324C308.574 87.2324 308.898 87.1543 309.164 86.998C309.43 86.8418 309.662 86.6348 309.861 86.377L310.523 86.8926C309.992 87.709 309.195 88.1172 308.133 88.1172ZM307.998 82.4336C307.561 82.4336 307.193 82.5938 306.896 82.9141C306.6 83.2305 306.416 83.6758 306.346 84.25H309.521V84.168C309.49 83.6172 309.342 83.1914 309.076 82.8906C308.811 82.5859 308.451 82.4336 307.998 82.4336ZM314.93 82.6328C314.766 82.6055 314.588 82.5918 314.396 82.5918C313.686 82.5918 313.203 82.8945 312.949 83.5V88H311.865V81.6602H312.92L312.938 82.3926C313.293 81.8262 313.797 81.543 314.449 81.543C314.66 81.543 314.82 81.5703 314.93 81.625V82.6328ZM294.832 98.5488H292.828V102H291.697V93.4688H294.521C295.482 93.4688 296.221 93.6875 296.736 94.125C297.256 94.5625 297.516 95.1992 297.516 96.0352C297.516 96.5664 297.371 97.0293 297.082 97.4238C296.797 97.8184 296.398 98.1133 295.887 98.3086L297.891 101.93V102H296.684L294.832 98.5488ZM292.828 97.6289H294.557C295.115 97.6289 295.559 97.4844 295.887 97.1953C296.219 96.9062 296.385 96.5195 296.385 96.0352C296.385 95.5078 296.227 95.1035 295.91 94.8223C295.598 94.541 295.145 94.3984 294.551 94.3945H292.828V97.6289ZM301.559 102.117C300.699 102.117 300 101.836 299.461 101.273C298.922 100.707 298.652 99.9512 298.652 99.0059V98.8066C298.652 98.1777 298.771 97.6172 299.01 97.125C299.252 96.6289 299.588 96.2422 300.018 95.9648C300.451 95.6836 300.92 95.543 301.424 95.543C302.248 95.543 302.889 95.8145 303.346 96.3574C303.803 96.9004 304.031 97.6777 304.031 98.6895V99.1406H299.736C299.752 99.7656 299.934 100.271 300.281 100.658C300.633 101.041 301.078 101.232 301.617 101.232C302 101.232 302.324 101.154 302.59 100.998C302.855 100.842 303.088 100.635 303.287 100.377L303.949 100.893C303.418 101.709 302.621 102.117 301.559 102.117ZM301.424 96.4336C300.986 96.4336 300.619 96.5938 300.322 96.9141C300.025 97.2305 299.842 97.6758 299.771 98.25H302.947V98.168C302.916 97.6172 302.768 97.1914 302.502 96.8906C302.236 96.5859 301.877 96.4336 301.424 96.4336ZM308.982 100.318C308.982 100.025 308.871 99.7988 308.648 99.6387C308.43 99.4746 308.045 99.334 307.494 99.2168C306.947 99.0996 306.512 98.959 306.188 98.7949C305.867 98.6309 305.629 98.4355 305.473 98.209C305.32 97.9824 305.244 97.7129 305.244 97.4004C305.244 96.8809 305.463 96.4414 305.9 96.082C306.342 95.7227 306.904 95.543 307.588 95.543C308.307 95.543 308.889 95.7285 309.334 96.0996C309.783 96.4707 310.008 96.9453 310.008 97.5234H308.918C308.918 97.2266 308.791 96.9707 308.537 96.7559C308.287 96.541 307.971 96.4336 307.588 96.4336C307.193 96.4336 306.885 96.5195 306.662 96.6914C306.439 96.8633 306.328 97.0879 306.328 97.3652C306.328 97.627 306.432 97.8242 306.639 97.957C306.846 98.0898 307.219 98.2168 307.758 98.3379C308.301 98.459 308.74 98.6035 309.076 98.7715C309.412 98.9395 309.66 99.1426 309.82 99.3809C309.984 99.6152 310.066 99.9023 310.066 100.242C310.066 100.809 309.84 101.264 309.387 101.607C308.934 101.947 308.346 102.117 307.623 102.117C307.115 102.117 306.666 102.027 306.275 101.848C305.885 101.668 305.578 101.418 305.355 101.098C305.137 100.773 305.027 100.424 305.027 100.049H306.111C306.131 100.412 306.275 100.701 306.545 100.916C306.818 101.127 307.178 101.232 307.623 101.232C308.033 101.232 308.361 101.15 308.607 100.986C308.857 100.818 308.982 100.596 308.982 100.318ZM314.109 102.117C313.25 102.117 312.551 101.836 312.012 101.273C311.473 100.707 311.203 99.9512 311.203 99.0059V98.8066C311.203 98.1777 311.322 97.6172 311.561 97.125C311.803 96.6289 312.139 96.2422 312.568 95.9648C313.002 95.6836 313.471 95.543 313.975 95.543C314.799 95.543 315.439 95.8145 315.896 96.3574C316.354 96.9004 316.582 97.6777 316.582 98.6895V99.1406H312.287C312.303 99.7656 312.484 100.271 312.832 100.658C313.184 101.041 313.629 101.232 314.168 101.232C314.551 101.232 314.875 101.154 315.141 100.998C315.406 100.842 315.639 100.635 315.838 100.377L316.5 100.893C315.969 101.709 315.172 102.117 314.109 102.117ZM313.975 96.4336C313.537 96.4336 313.17 96.5938 312.873 96.9141C312.576 97.2305 312.393 97.6758 312.322 98.25H315.498V98.168C315.467 97.6172 315.318 97.1914 315.053 96.8906C314.787 96.5859 314.428 96.4336 313.975 96.4336ZM321.756 102C321.693 101.875 321.643 101.652 321.604 101.332C321.1 101.855 320.498 102.117 319.799 102.117C319.174 102.117 318.66 101.941 318.258 101.59C317.859 101.234 317.66 100.785 317.66 100.242C317.66 99.582 317.91 99.0703 318.41 98.707C318.914 98.3398 319.621 98.1562 320.531 98.1562H321.586V97.6582C321.586 97.2793 321.473 96.9785 321.246 96.7559C321.02 96.5293 320.686 96.416 320.244 96.416C319.857 96.416 319.533 96.5137 319.271 96.709C319.01 96.9043 318.879 97.1406 318.879 97.418H317.789C317.789 97.1016 317.9 96.7969 318.123 96.5039C318.35 96.207 318.654 95.9727 319.037 95.8008C319.424 95.6289 319.848 95.543 320.309 95.543C321.039 95.543 321.611 95.7266 322.025 96.0938C322.439 96.457 322.654 96.959 322.67 97.5996V100.518C322.67 101.1 322.744 101.562 322.893 101.906V102H321.756ZM319.957 101.174C320.297 101.174 320.619 101.086 320.924 100.91C321.229 100.734 321.449 100.506 321.586 100.225V98.9238H320.736C319.408 98.9238 318.744 99.3125 318.744 100.09C318.744 100.43 318.857 100.695 319.084 100.887C319.311 101.078 319.602 101.174 319.957 101.174ZM327.434 96.6328C327.27 96.6055 327.092 96.5918 326.9 96.5918C326.189 96.5918 325.707 96.8945 325.453 97.5V102H324.369V95.6602H325.424L325.441 96.3926C325.797 95.8262 326.301 95.543 326.953 95.543C327.164 95.543 327.324 95.5703 327.434 95.625V96.6328ZM330.861 101.232C331.248 101.232 331.586 101.115 331.875 100.881C332.164 100.646 332.324 100.354 332.355 100.002H333.381C333.361 100.365 333.236 100.711 333.006 101.039C332.775 101.367 332.467 101.629 332.08 101.824C331.697 102.02 331.291 102.117 330.861 102.117C329.998 102.117 329.311 101.83 328.799 101.256C328.291 100.678 328.037 99.8887 328.037 98.8887V98.707C328.037 98.0898 328.15 97.541 328.377 97.0605C328.604 96.5801 328.928 96.207 329.35 95.9414C329.775 95.6758 330.277 95.543 330.855 95.543C331.566 95.543 332.156 95.7559 332.625 96.1816C333.098 96.6074 333.35 97.1602 333.381 97.8398H332.355C332.324 97.4297 332.168 97.0938 331.887 96.832C331.609 96.5664 331.266 96.4336 330.855 96.4336C330.305 96.4336 329.877 96.6328 329.572 97.0312C329.271 97.4258 329.121 97.998 329.121 98.748V98.9531C329.121 99.6836 329.271 100.246 329.572 100.641C329.873 101.035 330.303 101.232 330.861 101.232ZM335.684 96.4277C336.164 95.8379 336.789 95.543 337.559 95.543C338.898 95.543 339.574 96.2988 339.586 97.8105V102H338.502V97.8047C338.498 97.3477 338.393 97.0098 338.186 96.791C337.982 96.5723 337.664 96.4629 337.23 96.4629C336.879 96.4629 336.57 96.5566 336.305 96.7441C336.039 96.9316 335.832 97.1777 335.684 97.4824V102H334.6V93H335.684V96.4277Z" fill="#54565A"/>
<path d="M361.898 217.842L364.335 210.805H365.566L362.402 219.336H361.406L358.248 210.805H359.472L361.898 217.842ZM367.722 219.336H366.638V212.996H367.722V219.336ZM366.55 211.314C366.55 211.139 366.603 210.99 366.708 210.869C366.818 210.748 366.978 210.688 367.189 210.688C367.4 210.688 367.56 210.748 367.669 210.869C367.779 210.99 367.833 211.139 367.833 211.314C367.833 211.49 367.779 211.637 367.669 211.754C367.56 211.871 367.4 211.93 367.189 211.93C366.978 211.93 366.818 211.871 366.708 211.754C366.603 211.637 366.55 211.49 366.55 211.314ZM373.154 217.654C373.154 217.361 373.042 217.135 372.82 216.975C372.601 216.811 372.216 216.67 371.666 216.553C371.119 216.436 370.683 216.295 370.359 216.131C370.039 215.967 369.8 215.771 369.644 215.545C369.492 215.318 369.416 215.049 369.416 214.736C369.416 214.217 369.634 213.777 370.072 213.418C370.513 213.059 371.076 212.879 371.759 212.879C372.478 212.879 373.06 213.064 373.505 213.436C373.955 213.807 374.179 214.281 374.179 214.859H373.089C373.089 214.562 372.962 214.307 372.708 214.092C372.458 213.877 372.142 213.77 371.759 213.77C371.365 213.77 371.056 213.855 370.833 214.027C370.611 214.199 370.499 214.424 370.499 214.701C370.499 214.963 370.603 215.16 370.81 215.293C371.017 215.426 371.39 215.553 371.929 215.674C372.472 215.795 372.912 215.939 373.248 216.107C373.583 216.275 373.832 216.479 373.992 216.717C374.156 216.951 374.238 217.238 374.238 217.578C374.238 218.145 374.011 218.6 373.558 218.943C373.105 219.283 372.517 219.453 371.794 219.453C371.287 219.453 370.837 219.363 370.447 219.184C370.056 219.004 369.749 218.754 369.527 218.434C369.308 218.109 369.199 217.76 369.199 217.385H370.283C370.302 217.748 370.447 218.037 370.716 218.252C370.99 218.463 371.349 218.568 371.794 218.568C372.205 218.568 372.533 218.486 372.779 218.322C373.029 218.154 373.154 217.932 373.154 217.654ZM379.564 218.709C379.142 219.205 378.523 219.453 377.707 219.453C377.031 219.453 376.515 219.258 376.16 218.867C375.808 218.473 375.63 217.891 375.626 217.121V212.996H376.71V217.092C376.71 218.053 377.101 218.533 377.882 218.533C378.71 218.533 379.261 218.225 379.535 217.607V212.996H380.619V219.336H379.587L379.564 218.709ZM386.185 219.336C386.123 219.211 386.072 218.988 386.033 218.668C385.529 219.191 384.927 219.453 384.228 219.453C383.603 219.453 383.089 219.277 382.687 218.926C382.289 218.57 382.089 218.121 382.089 217.578C382.089 216.918 382.339 216.406 382.839 216.043C383.343 215.676 384.05 215.492 384.96 215.492H386.015V214.994C386.015 214.615 385.902 214.314 385.675 214.092C385.449 213.865 385.115 213.752 384.673 213.752C384.287 213.752 383.962 213.85 383.701 214.045C383.439 214.24 383.308 214.477 383.308 214.754H382.218C382.218 214.438 382.33 214.133 382.552 213.84C382.779 213.543 383.083 213.309 383.466 213.137C383.853 212.965 384.277 212.879 384.738 212.879C385.468 212.879 386.041 213.062 386.455 213.43C386.869 213.793 387.083 214.295 387.099 214.936V217.854C387.099 218.436 387.173 218.898 387.322 219.242V219.336H386.185ZM384.386 218.51C384.726 218.51 385.048 218.422 385.353 218.246C385.658 218.07 385.878 217.842 386.015 217.561V216.26H385.166C383.837 216.26 383.173 216.648 383.173 217.426C383.173 217.766 383.287 218.031 383.513 218.223C383.74 218.414 384.031 218.51 384.386 218.51ZM389.976 219.336H388.892V210.336H389.976V219.336ZM357.128 233.336V224.805H359.537C360.279 224.805 360.935 224.969 361.505 225.297C362.076 225.625 362.515 226.092 362.824 226.697C363.136 227.303 363.294 227.998 363.298 228.783V229.328C363.298 230.133 363.142 230.838 362.83 231.443C362.521 232.049 362.078 232.514 361.499 232.838C360.925 233.162 360.255 233.328 359.49 233.336H357.128ZM358.253 225.73V232.416H359.437C360.304 232.416 360.978 232.146 361.458 231.607C361.943 231.068 362.185 230.301 362.185 229.305V228.807C362.185 227.838 361.957 227.086 361.499 226.551C361.046 226.012 360.402 225.738 359.566 225.73H358.253ZM367.464 233.453C366.605 233.453 365.906 233.172 365.367 232.609C364.828 232.043 364.558 231.287 364.558 230.342V230.143C364.558 229.514 364.677 228.953 364.916 228.461C365.158 227.965 365.494 227.578 365.923 227.301C366.357 227.02 366.826 226.879 367.33 226.879C368.154 226.879 368.794 227.15 369.251 227.693C369.708 228.236 369.937 229.014 369.937 230.025V230.477H365.642C365.658 231.102 365.839 231.607 366.187 231.994C366.539 232.377 366.984 232.568 367.523 232.568C367.906 232.568 368.23 232.49 368.496 232.334C368.761 232.178 368.994 231.971 369.193 231.713L369.855 232.229C369.324 233.045 368.527 233.453 367.464 233.453ZM367.33 227.77C366.892 227.77 366.525 227.93 366.228 228.25C365.931 228.566 365.748 229.012 365.677 229.586H368.853V229.504C368.822 228.953 368.673 228.527 368.408 228.227C368.142 227.922 367.783 227.77 367.33 227.77ZM374.888 231.654C374.888 231.361 374.777 231.135 374.554 230.975C374.335 230.811 373.951 230.67 373.4 230.553C372.853 230.436 372.417 230.295 372.093 230.131C371.773 229.967 371.535 229.771 371.378 229.545C371.226 229.318 371.15 229.049 371.15 228.736C371.15 228.217 371.369 227.777 371.806 227.418C372.248 227.059 372.81 226.879 373.494 226.879C374.212 226.879 374.794 227.064 375.24 227.436C375.689 227.807 375.914 228.281 375.914 228.859H374.824C374.824 228.562 374.697 228.307 374.443 228.092C374.193 227.877 373.876 227.77 373.494 227.77C373.099 227.77 372.791 227.855 372.568 228.027C372.345 228.199 372.234 228.424 372.234 228.701C372.234 228.963 372.337 229.16 372.544 229.293C372.751 229.426 373.124 229.553 373.664 229.674C374.207 229.795 374.646 229.939 374.982 230.107C375.318 230.275 375.566 230.479 375.726 230.717C375.89 230.951 375.972 231.238 375.972 231.578C375.972 232.145 375.746 232.6 375.292 232.943C374.839 233.283 374.251 233.453 373.529 233.453C373.021 233.453 372.572 233.363 372.181 233.184C371.791 233.004 371.484 232.754 371.261 232.434C371.042 232.109 370.933 231.76 370.933 231.385H372.017C372.037 231.748 372.181 232.037 372.451 232.252C372.724 232.463 373.083 232.568 373.529 232.568C373.939 232.568 374.267 232.486 374.513 232.322C374.763 232.154 374.888 231.932 374.888 231.654ZM378.562 233.336H377.478V226.996H378.562V233.336ZM377.39 225.314C377.39 225.139 377.443 224.99 377.548 224.869C377.658 224.748 377.818 224.688 378.029 224.688C378.24 224.688 378.4 224.748 378.509 224.869C378.619 224.99 378.673 225.139 378.673 225.314C378.673 225.49 378.619 225.637 378.509 225.754C378.4 225.871 378.24 225.93 378.029 225.93C377.818 225.93 377.658 225.871 377.548 225.754C377.443 225.637 377.39 225.49 377.39 225.314ZM380.044 230.113C380.044 229.125 380.273 228.34 380.73 227.758C381.187 227.172 381.792 226.879 382.546 226.879C383.32 226.879 383.923 227.152 384.357 227.699L384.41 226.996H385.4V233.184C385.4 234.004 385.156 234.65 384.667 235.123C384.183 235.596 383.531 235.832 382.71 235.832C382.253 235.832 381.806 235.734 381.369 235.539C380.931 235.344 380.597 235.076 380.367 234.736L380.929 234.086C381.394 234.66 381.962 234.947 382.634 234.947C383.162 234.947 383.572 234.799 383.865 234.502C384.162 234.205 384.31 233.787 384.31 233.248V232.703C383.876 233.203 383.285 233.453 382.535 233.453C381.792 233.453 381.191 233.154 380.73 232.557C380.273 231.959 380.044 231.145 380.044 230.113ZM381.134 230.236C381.134 230.951 381.281 231.514 381.574 231.924C381.867 232.33 382.277 232.533 382.804 232.533C383.488 232.533 383.99 232.223 384.31 231.602V228.707C383.978 228.102 383.48 227.799 382.816 227.799C382.289 227.799 381.876 228.004 381.58 228.414C381.283 228.824 381.134 229.432 381.134 230.236ZM388.066 226.996L388.101 227.793C388.585 227.184 389.218 226.879 389.999 226.879C391.339 226.879 392.015 227.635 392.027 229.146V233.336H390.943V229.141C390.939 228.684 390.833 228.346 390.626 228.127C390.423 227.908 390.105 227.799 389.671 227.799C389.32 227.799 389.011 227.893 388.746 228.08C388.48 228.268 388.273 228.514 388.124 228.818V233.336H387.041V226.996H388.066Z" fill="#54565A"/>
<path d="M289.756 351.898H288.631V343.367H289.756V351.898ZM292.674 345.559L292.709 346.355C293.194 345.746 293.826 345.441 294.608 345.441C295.947 345.441 296.623 346.197 296.635 347.709V351.898H295.551V347.703C295.547 347.246 295.442 346.908 295.235 346.689C295.031 346.471 294.713 346.361 294.279 346.361C293.928 346.361 293.619 346.455 293.354 346.643C293.088 346.83 292.881 347.076 292.733 347.381V351.898H291.649V345.559H292.674ZM298.803 351.898V346.396H297.801V345.559H298.803V344.908C298.803 344.229 298.985 343.703 299.348 343.332C299.711 342.961 300.225 342.775 300.889 342.775C301.139 342.775 301.387 342.809 301.633 342.875L301.574 343.754C301.391 343.719 301.195 343.701 300.988 343.701C300.637 343.701 300.365 343.805 300.174 344.012C299.983 344.215 299.887 344.508 299.887 344.891V345.559H301.24V346.396H299.887V351.898H298.803ZM302.154 348.67C302.154 348.049 302.276 347.49 302.518 346.994C302.764 346.498 303.104 346.115 303.537 345.846C303.975 345.576 304.473 345.441 305.031 345.441C305.895 345.441 306.592 345.74 307.123 346.338C307.658 346.936 307.926 347.73 307.926 348.723V348.799C307.926 349.416 307.807 349.971 307.569 350.463C307.334 350.951 306.996 351.332 306.555 351.605C306.117 351.879 305.613 352.016 305.043 352.016C304.184 352.016 303.486 351.717 302.951 351.119C302.42 350.521 302.154 349.73 302.154 348.746V348.67ZM303.244 348.799C303.244 349.502 303.406 350.066 303.731 350.492C304.059 350.918 304.496 351.131 305.043 351.131C305.594 351.131 306.031 350.916 306.356 350.486C306.68 350.053 306.842 349.447 306.842 348.67C306.842 347.975 306.676 347.412 306.344 346.982C306.016 346.549 305.578 346.332 305.031 346.332C304.496 346.332 304.065 346.545 303.736 346.971C303.408 347.396 303.244 348.006 303.244 348.799ZM312.35 346.531C312.186 346.504 312.008 346.49 311.817 346.49C311.106 346.49 310.623 346.793 310.369 347.398V351.898H309.285V345.559H310.34L310.358 346.291C310.713 345.725 311.217 345.441 311.869 345.441C312.08 345.441 312.24 345.469 312.35 345.523V346.531ZM314.371 345.559L314.401 346.262C314.865 345.715 315.492 345.441 316.281 345.441C317.168 345.441 317.772 345.781 318.092 346.461C318.303 346.156 318.576 345.91 318.912 345.723C319.252 345.535 319.652 345.441 320.113 345.441C321.504 345.441 322.211 346.178 322.235 347.65V351.898H321.151V347.715C321.151 347.262 321.047 346.924 320.84 346.701C320.633 346.475 320.285 346.361 319.797 346.361C319.395 346.361 319.061 346.482 318.795 346.725C318.529 346.963 318.375 347.285 318.332 347.691V351.898H317.242V347.744C317.242 346.822 316.791 346.361 315.889 346.361C315.178 346.361 314.692 346.664 314.43 347.27V351.898H313.346V345.559H314.371ZM327.789 351.898C327.727 351.773 327.676 351.551 327.637 351.23C327.133 351.754 326.531 352.016 325.832 352.016C325.207 352.016 324.694 351.84 324.291 351.488C323.893 351.133 323.694 350.684 323.694 350.141C323.694 349.48 323.944 348.969 324.444 348.605C324.947 348.238 325.654 348.055 326.565 348.055H327.619V347.557C327.619 347.178 327.506 346.877 327.279 346.654C327.053 346.428 326.719 346.314 326.277 346.314C325.891 346.314 325.567 346.412 325.305 346.607C325.043 346.803 324.912 347.039 324.912 347.316H323.822C323.822 347 323.934 346.695 324.156 346.402C324.383 346.105 324.688 345.871 325.07 345.699C325.457 345.527 325.881 345.441 326.342 345.441C327.072 345.441 327.645 345.625 328.059 345.992C328.473 346.355 328.688 346.857 328.703 347.498V350.416C328.703 350.998 328.777 351.461 328.926 351.805V351.898H327.789ZM325.99 351.072C326.33 351.072 326.652 350.984 326.957 350.809C327.262 350.633 327.483 350.404 327.619 350.123V348.822H326.77C325.442 348.822 324.777 349.211 324.777 349.988C324.777 350.328 324.891 350.594 325.117 350.785C325.344 350.977 325.635 351.072 325.99 351.072ZM331.873 344.023V345.559H333.057V346.396H331.873V350.328C331.873 350.582 331.926 350.773 332.031 350.902C332.137 351.027 332.317 351.09 332.57 351.09C332.695 351.09 332.867 351.066 333.086 351.02V351.898C332.801 351.977 332.524 352.016 332.254 352.016C331.77 352.016 331.404 351.869 331.158 351.576C330.912 351.283 330.789 350.867 330.789 350.328V346.396H329.635V345.559H330.789V344.023H331.873ZM335.506 351.898H334.422V345.559H335.506V351.898ZM334.334 343.877C334.334 343.701 334.387 343.553 334.492 343.432C334.602 343.311 334.762 343.25 334.973 343.25C335.184 343.25 335.344 343.311 335.453 343.432C335.563 343.553 335.617 343.701 335.617 343.877C335.617 344.053 335.563 344.199 335.453 344.316C335.344 344.434 335.184 344.492 334.973 344.492C334.762 344.492 334.602 344.434 334.492 344.316C334.387 344.199 334.334 344.053 334.334 343.877ZM336.959 348.67C336.959 348.049 337.08 347.49 337.322 346.994C337.568 346.498 337.908 346.115 338.342 345.846C338.779 345.576 339.277 345.441 339.836 345.441C340.699 345.441 341.397 345.74 341.928 346.338C342.463 346.936 342.731 347.73 342.731 348.723V348.799C342.731 349.416 342.611 349.971 342.373 350.463C342.139 350.951 341.801 351.332 341.36 351.605C340.922 351.879 340.418 352.016 339.848 352.016C338.988 352.016 338.291 351.717 337.756 351.119C337.225 350.521 336.959 349.73 336.959 348.746V348.67ZM338.049 348.799C338.049 349.502 338.211 350.066 338.535 350.492C338.863 350.918 339.301 351.131 339.848 351.131C340.399 351.131 340.836 350.916 341.16 350.486C341.485 350.053 341.647 349.447 341.647 348.67C341.647 347.975 341.481 347.412 341.149 346.982C340.82 346.549 340.383 346.332 339.836 346.332C339.301 346.332 338.869 346.545 338.541 346.971C338.213 347.396 338.049 348.006 338.049 348.799ZM345.115 345.559L345.151 346.355C345.635 345.746 346.268 345.441 347.049 345.441C348.389 345.441 349.065 346.197 349.076 347.709V351.898H347.992V347.703C347.988 347.246 347.883 346.908 347.676 346.689C347.473 346.471 347.154 346.361 346.721 346.361C346.369 346.361 346.061 346.455 345.795 346.643C345.529 346.83 345.322 347.076 345.174 347.381V351.898H344.09V345.559H345.115ZM301.363 365.898V357.367H303.772C304.514 357.367 305.17 357.531 305.74 357.859C306.311 358.188 306.75 358.654 307.059 359.26C307.371 359.865 307.529 360.561 307.533 361.346V361.891C307.533 362.695 307.377 363.4 307.065 364.006C306.756 364.611 306.313 365.076 305.735 365.4C305.16 365.725 304.49 365.891 303.725 365.898H301.363ZM302.488 358.293V364.979H303.672C304.539 364.979 305.213 364.709 305.694 364.17C306.178 363.631 306.42 362.863 306.42 361.867V361.369C306.42 360.4 306.192 359.648 305.735 359.113C305.281 358.574 304.637 358.301 303.801 358.293H302.488ZM311.699 366.016C310.84 366.016 310.141 365.734 309.602 365.172C309.063 364.605 308.793 363.85 308.793 362.904V362.705C308.793 362.076 308.912 361.516 309.151 361.023C309.393 360.527 309.729 360.141 310.158 359.863C310.592 359.582 311.061 359.441 311.565 359.441C312.389 359.441 313.029 359.713 313.486 360.256C313.944 360.799 314.172 361.576 314.172 362.588V363.039H309.877C309.893 363.664 310.074 364.17 310.422 364.557C310.774 364.939 311.219 365.131 311.758 365.131C312.141 365.131 312.465 365.053 312.731 364.896C312.996 364.74 313.229 364.533 313.428 364.275L314.09 364.791C313.559 365.607 312.762 366.016 311.699 366.016ZM311.565 360.332C311.127 360.332 310.76 360.492 310.463 360.812C310.166 361.129 309.983 361.574 309.912 362.148H313.088V362.066C313.057 361.516 312.908 361.09 312.643 360.789C312.377 360.484 312.018 360.332 311.565 360.332ZM319.123 364.217C319.123 363.924 319.012 363.697 318.789 363.537C318.57 363.373 318.186 363.232 317.635 363.115C317.088 362.998 316.652 362.857 316.328 362.693C316.008 362.529 315.77 362.334 315.613 362.107C315.461 361.881 315.385 361.611 315.385 361.299C315.385 360.779 315.604 360.34 316.041 359.98C316.483 359.621 317.045 359.441 317.729 359.441C318.447 359.441 319.029 359.627 319.475 359.998C319.924 360.369 320.149 360.844 320.149 361.422H319.059C319.059 361.125 318.932 360.869 318.678 360.654C318.428 360.439 318.111 360.332 317.729 360.332C317.334 360.332 317.026 360.418 316.803 360.59C316.58 360.762 316.469 360.986 316.469 361.264C316.469 361.525 316.572 361.723 316.779 361.855C316.986 361.988 317.36 362.115 317.899 362.236C318.442 362.357 318.881 362.502 319.217 362.67C319.553 362.838 319.801 363.041 319.961 363.279C320.125 363.514 320.207 363.801 320.207 364.141C320.207 364.707 319.981 365.162 319.527 365.506C319.074 365.846 318.486 366.016 317.764 366.016C317.256 366.016 316.807 365.926 316.416 365.746C316.026 365.566 315.719 365.316 315.496 364.996C315.277 364.672 315.168 364.322 315.168 363.947H316.252C316.272 364.311 316.416 364.6 316.686 364.814C316.959 365.025 317.319 365.131 317.764 365.131C318.174 365.131 318.502 365.049 318.748 364.885C318.998 364.717 319.123 364.494 319.123 364.217ZM322.797 365.898H321.713V359.559H322.797V365.898ZM321.625 357.877C321.625 357.701 321.678 357.553 321.783 357.432C321.893 357.311 322.053 357.25 322.264 357.25C322.475 357.25 322.635 357.311 322.744 357.432C322.854 357.553 322.908 357.701 322.908 357.877C322.908 358.053 322.854 358.199 322.744 358.316C322.635 358.434 322.475 358.492 322.264 358.492C322.053 358.492 321.893 358.434 321.783 358.316C321.678 358.199 321.625 358.053 321.625 357.877ZM324.279 362.676C324.279 361.688 324.508 360.902 324.965 360.32C325.422 359.734 326.027 359.441 326.781 359.441C327.555 359.441 328.158 359.715 328.592 360.262L328.645 359.559H329.635V365.746C329.635 366.566 329.391 367.213 328.902 367.686C328.418 368.158 327.766 368.395 326.945 368.395C326.488 368.395 326.041 368.297 325.604 368.102C325.166 367.906 324.832 367.639 324.602 367.299L325.164 366.648C325.629 367.223 326.197 367.51 326.869 367.51C327.397 367.51 327.807 367.361 328.1 367.064C328.397 366.768 328.545 366.35 328.545 365.811V365.266C328.111 365.766 327.52 366.016 326.77 366.016C326.027 366.016 325.426 365.717 324.965 365.119C324.508 364.521 324.279 363.707 324.279 362.676ZM325.369 362.799C325.369 363.514 325.516 364.076 325.809 364.486C326.102 364.893 326.512 365.096 327.039 365.096C327.723 365.096 328.225 364.785 328.545 364.164V361.27C328.213 360.664 327.715 360.361 327.051 360.361C326.524 360.361 326.111 360.566 325.815 360.977C325.518 361.387 325.369 361.994 325.369 362.799ZM332.301 359.559L332.336 360.355C332.82 359.746 333.453 359.441 334.235 359.441C335.574 359.441 336.25 360.197 336.262 361.709V365.898H335.178V361.703C335.174 361.246 335.068 360.908 334.861 360.689C334.658 360.471 334.34 360.361 333.906 360.361C333.555 360.361 333.246 360.455 332.981 360.643C332.715 360.83 332.508 361.076 332.36 361.381V365.898H331.276V359.559H332.301Z" fill="#54565A"/>
<path d="M165.04 396.836H163.915V388.305H165.04V396.836ZM167.958 390.496L167.993 391.293C168.478 390.684 169.111 390.379 169.892 390.379C171.232 390.379 171.907 391.135 171.919 392.646V396.836H170.835V392.641C170.831 392.184 170.726 391.846 170.519 391.627C170.316 391.408 169.997 391.299 169.564 391.299C169.212 391.299 168.904 391.393 168.638 391.58C168.372 391.768 168.165 392.014 168.017 392.318V396.836H166.933V390.496H167.958ZM175.025 388.961V390.496H176.208V391.334H175.025V395.266C175.025 395.52 175.077 395.711 175.183 395.84C175.288 395.965 175.468 396.027 175.722 396.027C175.847 396.027 176.019 396.004 176.238 395.957V396.836C175.952 396.914 175.675 396.953 175.405 396.953C174.921 396.953 174.556 396.807 174.31 396.514C174.064 396.221 173.941 395.805 173.941 395.266V391.334H172.786V390.496H173.941V388.961H175.025ZM180.111 396.953C179.251 396.953 178.552 396.672 178.013 396.109C177.474 395.543 177.204 394.787 177.204 393.842V393.643C177.204 393.014 177.323 392.453 177.562 391.961C177.804 391.465 178.14 391.078 178.57 390.801C179.003 390.52 179.472 390.379 179.976 390.379C180.8 390.379 181.441 390.65 181.898 391.193C182.355 391.736 182.583 392.514 182.583 393.525V393.977H178.288C178.304 394.602 178.486 395.107 178.833 395.494C179.185 395.877 179.63 396.068 180.169 396.068C180.552 396.068 180.876 395.99 181.142 395.834C181.407 395.678 181.64 395.471 181.839 395.213L182.501 395.729C181.97 396.545 181.173 396.953 180.111 396.953ZM179.976 391.27C179.538 391.27 179.171 391.43 178.874 391.75C178.577 392.066 178.394 392.512 178.323 393.086H181.499V393.004C181.468 392.453 181.32 392.027 181.054 391.727C180.788 391.422 180.429 391.27 179.976 391.27ZM186.907 391.469C186.743 391.441 186.566 391.428 186.374 391.428C185.663 391.428 185.181 391.73 184.927 392.336V396.836H183.843V390.496H184.898L184.915 391.229C185.271 390.662 185.775 390.379 186.427 390.379C186.638 390.379 186.798 390.406 186.907 390.461V391.469ZM191.589 396.836C191.527 396.711 191.476 396.488 191.437 396.168C190.933 396.691 190.331 396.953 189.632 396.953C189.007 396.953 188.493 396.777 188.091 396.426C187.693 396.07 187.493 395.621 187.493 395.078C187.493 394.418 187.743 393.906 188.243 393.543C188.747 393.176 189.454 392.992 190.364 392.992H191.419V392.494C191.419 392.115 191.306 391.814 191.079 391.592C190.853 391.365 190.519 391.252 190.077 391.252C189.691 391.252 189.366 391.35 189.105 391.545C188.843 391.74 188.712 391.977 188.712 392.254H187.622C187.622 391.938 187.734 391.633 187.956 391.34C188.183 391.043 188.488 390.809 188.87 390.637C189.257 390.465 189.681 390.379 190.142 390.379C190.872 390.379 191.445 390.562 191.859 390.93C192.273 391.293 192.488 391.795 192.503 392.436V395.354C192.503 395.936 192.577 396.398 192.726 396.742V396.836H191.589ZM189.79 396.01C190.13 396.01 190.452 395.922 190.757 395.746C191.062 395.57 191.282 395.342 191.419 395.061V393.76H190.57C189.241 393.76 188.577 394.148 188.577 394.926C188.577 395.266 188.691 395.531 188.917 395.723C189.144 395.914 189.435 396.01 189.79 396.01ZM196.745 396.068C197.132 396.068 197.47 395.951 197.759 395.717C198.048 395.482 198.208 395.189 198.239 394.838H199.265C199.245 395.201 199.12 395.547 198.89 395.875C198.659 396.203 198.351 396.465 197.964 396.66C197.581 396.855 197.175 396.953 196.745 396.953C195.882 396.953 195.195 396.666 194.683 396.092C194.175 395.514 193.921 394.725 193.921 393.725V393.543C193.921 392.926 194.034 392.377 194.261 391.896C194.488 391.416 194.812 391.043 195.234 390.777C195.659 390.512 196.161 390.379 196.739 390.379C197.45 390.379 198.04 390.592 198.509 391.018C198.982 391.443 199.234 391.996 199.265 392.676H198.239C198.208 392.266 198.052 391.93 197.771 391.668C197.493 391.402 197.15 391.27 196.739 391.27C196.189 391.27 195.761 391.469 195.456 391.867C195.155 392.262 195.005 392.834 195.005 393.584V393.789C195.005 394.52 195.155 395.082 195.456 395.477C195.757 395.871 196.187 396.068 196.745 396.068ZM201.954 388.961V390.496H203.138V391.334H201.954V395.266C201.954 395.52 202.007 395.711 202.113 395.84C202.218 395.965 202.398 396.027 202.652 396.027C202.777 396.027 202.948 396.004 203.167 395.957V396.836C202.882 396.914 202.605 396.953 202.335 396.953C201.851 396.953 201.486 396.807 201.239 396.514C200.993 396.221 200.87 395.805 200.87 395.266V391.334H199.716V390.496H200.87V388.961H201.954ZM205.587 396.836H204.503V390.496H205.587V396.836ZM204.415 388.814C204.415 388.639 204.468 388.49 204.573 388.369C204.683 388.248 204.843 388.188 205.054 388.188C205.265 388.188 205.425 388.248 205.534 388.369C205.644 388.49 205.698 388.639 205.698 388.814C205.698 388.99 205.644 389.137 205.534 389.254C205.425 389.371 205.265 389.43 205.054 389.43C204.843 389.43 204.683 389.371 204.573 389.254C204.468 389.137 204.415 388.99 204.415 388.814ZM207.04 393.607C207.04 392.986 207.161 392.428 207.404 391.932C207.65 391.436 207.989 391.053 208.423 390.783C208.861 390.514 209.359 390.379 209.917 390.379C210.78 390.379 211.478 390.678 212.009 391.275C212.544 391.873 212.812 392.668 212.812 393.66V393.736C212.812 394.354 212.693 394.908 212.454 395.4C212.22 395.889 211.882 396.27 211.441 396.543C211.003 396.816 210.499 396.953 209.929 396.953C209.07 396.953 208.372 396.654 207.837 396.057C207.306 395.459 207.04 394.668 207.04 393.684V393.607ZM208.13 393.736C208.13 394.439 208.292 395.004 208.616 395.43C208.945 395.855 209.382 396.068 209.929 396.068C210.48 396.068 210.917 395.854 211.241 395.424C211.566 394.99 211.728 394.385 211.728 393.607C211.728 392.912 211.562 392.35 211.23 391.92C210.902 391.486 210.464 391.27 209.917 391.27C209.382 391.27 208.95 391.482 208.622 391.908C208.294 392.334 208.13 392.943 208.13 393.736ZM215.196 390.496L215.232 391.293C215.716 390.684 216.349 390.379 217.13 390.379C218.47 390.379 219.146 391.135 219.157 392.646V396.836H218.073V392.641C218.07 392.184 217.964 391.846 217.757 391.627C217.554 391.408 217.236 391.299 216.802 391.299C216.45 391.299 216.142 391.393 215.876 391.58C215.611 391.768 215.404 392.014 215.255 392.318V396.836H214.171V390.496H215.196ZM174.046 410.836V402.305H176.454C177.196 402.305 177.853 402.469 178.423 402.797C178.993 403.125 179.433 403.592 179.741 404.197C180.054 404.803 180.212 405.498 180.216 406.283V406.828C180.216 407.633 180.06 408.338 179.747 408.943C179.439 409.549 178.995 410.014 178.417 410.338C177.843 410.662 177.173 410.828 176.407 410.836H174.046ZM175.171 403.23V409.916H176.355C177.222 409.916 177.896 409.646 178.376 409.107C178.861 408.568 179.103 407.801 179.103 406.805V406.307C179.103 405.338 178.874 404.586 178.417 404.051C177.964 403.512 177.32 403.238 176.484 403.23H175.171ZM184.382 410.953C183.523 410.953 182.823 410.672 182.284 410.109C181.745 409.543 181.476 408.787 181.476 407.842V407.643C181.476 407.014 181.595 406.453 181.833 405.961C182.075 405.465 182.411 405.078 182.841 404.801C183.275 404.52 183.743 404.379 184.247 404.379C185.071 404.379 185.712 404.65 186.169 405.193C186.626 405.736 186.855 406.514 186.855 407.525V407.977H182.56C182.575 408.602 182.757 409.107 183.105 409.494C183.456 409.877 183.902 410.068 184.441 410.068C184.823 410.068 185.148 409.99 185.413 409.834C185.679 409.678 185.911 409.471 186.111 409.213L186.773 409.729C186.241 410.545 185.445 410.953 184.382 410.953ZM184.247 405.27C183.81 405.27 183.443 405.43 183.146 405.75C182.849 406.066 182.665 406.512 182.595 407.086H185.771V407.004C185.739 406.453 185.591 406.027 185.325 405.727C185.06 405.422 184.7 405.27 184.247 405.27ZM191.806 409.154C191.806 408.861 191.695 408.635 191.472 408.475C191.253 408.311 190.868 408.17 190.318 408.053C189.771 407.936 189.335 407.795 189.011 407.631C188.691 407.467 188.452 407.271 188.296 407.045C188.144 406.818 188.068 406.549 188.068 406.236C188.068 405.717 188.286 405.277 188.724 404.918C189.165 404.559 189.728 404.379 190.411 404.379C191.13 404.379 191.712 404.564 192.157 404.936C192.607 405.307 192.831 405.781 192.831 406.359H191.741C191.741 406.062 191.614 405.807 191.361 405.592C191.111 405.377 190.794 405.27 190.411 405.27C190.017 405.27 189.708 405.355 189.486 405.527C189.263 405.699 189.152 405.924 189.152 406.201C189.152 406.463 189.255 406.66 189.462 406.793C189.669 406.926 190.042 407.053 190.581 407.174C191.124 407.295 191.564 407.439 191.9 407.607C192.236 407.775 192.484 407.979 192.644 408.217C192.808 408.451 192.89 408.738 192.89 409.078C192.89 409.645 192.663 410.1 192.21 410.443C191.757 410.783 191.169 410.953 190.446 410.953C189.939 410.953 189.489 410.863 189.099 410.684C188.708 410.504 188.402 410.254 188.179 409.934C187.96 409.609 187.851 409.26 187.851 408.885H188.935C188.954 409.248 189.099 409.537 189.368 409.752C189.642 409.963 190.001 410.068 190.446 410.068C190.857 410.068 191.185 409.986 191.431 409.822C191.681 409.654 191.806 409.432 191.806 409.154ZM195.48 410.836H194.396V404.496H195.48V410.836ZM194.308 402.814C194.308 402.639 194.361 402.49 194.466 402.369C194.575 402.248 194.736 402.188 194.946 402.188C195.157 402.188 195.318 402.248 195.427 402.369C195.536 402.49 195.591 402.639 195.591 402.814C195.591 402.99 195.536 403.137 195.427 403.254C195.318 403.371 195.157 403.43 194.946 403.43C194.736 403.43 194.575 403.371 194.466 403.254C194.361 403.137 194.308 402.99 194.308 402.814ZM196.962 407.613C196.962 406.625 197.191 405.84 197.648 405.258C198.105 404.672 198.71 404.379 199.464 404.379C200.238 404.379 200.841 404.652 201.275 405.199L201.327 404.496H202.318V410.684C202.318 411.504 202.073 412.15 201.585 412.623C201.101 413.096 200.448 413.332 199.628 413.332C199.171 413.332 198.724 413.234 198.286 413.039C197.849 412.844 197.515 412.576 197.284 412.236L197.847 411.586C198.312 412.16 198.88 412.447 199.552 412.447C200.079 412.447 200.489 412.299 200.782 412.002C201.079 411.705 201.228 411.287 201.228 410.748V410.203C200.794 410.703 200.202 410.953 199.452 410.953C198.71 410.953 198.109 410.654 197.648 410.057C197.191 409.459 196.962 408.645 196.962 407.613ZM198.052 407.736C198.052 408.451 198.198 409.014 198.491 409.424C198.784 409.83 199.195 410.033 199.722 410.033C200.405 410.033 200.907 409.723 201.228 409.102V406.207C200.896 405.602 200.398 405.299 199.734 405.299C199.206 405.299 198.794 405.504 198.497 405.914C198.2 406.324 198.052 406.932 198.052 407.736ZM204.984 404.496L205.019 405.293C205.503 404.684 206.136 404.379 206.917 404.379C208.257 404.379 208.933 405.135 208.945 406.646V410.836H207.861V406.641C207.857 406.184 207.751 405.846 207.544 405.627C207.341 405.408 207.023 405.299 206.589 405.299C206.238 405.299 205.929 405.393 205.663 405.58C205.398 405.768 205.191 406.014 205.042 406.318V410.836H203.958V404.496H204.984Z" fill="#54565A"/>
<path d="M47.0793 350.408H43.4992V354.176H42.3742V345.645H47.6594V346.57H43.4992V349.488H47.0793V350.408ZM52.552 354.176C52.4895 354.051 52.4387 353.828 52.3996 353.508C51.8957 354.031 51.2942 354.293 50.5949 354.293C49.9699 354.293 49.4563 354.117 49.0539 353.766C48.6555 353.41 48.4563 352.961 48.4563 352.418C48.4563 351.758 48.7063 351.246 49.2063 350.883C49.7102 350.516 50.4172 350.332 51.3274 350.332H52.382V349.834C52.382 349.455 52.2688 349.154 52.0422 348.932C51.8156 348.705 51.4817 348.592 51.0402 348.592C50.6535 348.592 50.3293 348.689 50.0676 348.885C49.8059 349.08 49.675 349.316 49.675 349.594H48.5852C48.5852 349.277 48.6965 348.973 48.9192 348.68C49.1457 348.383 49.4504 348.148 49.8332 347.977C50.2199 347.805 50.6438 347.719 51.1047 347.719C51.8352 347.719 52.4074 347.902 52.8215 348.27C53.2356 348.633 53.4504 349.135 53.466 349.775V352.693C53.466 353.275 53.5402 353.738 53.6887 354.082V354.176H52.552ZM50.7531 353.35C51.093 353.35 51.4152 353.262 51.7199 353.086C52.0246 352.91 52.2453 352.682 52.382 352.4V351.1H51.5324C50.2043 351.1 49.5402 351.488 49.5402 352.266C49.5402 352.605 49.6535 352.871 49.8801 353.062C50.1067 353.254 50.3977 353.35 50.7531 353.35ZM58.8567 352.494C58.8567 352.201 58.7453 351.975 58.5227 351.814C58.3039 351.65 57.9192 351.51 57.3684 351.393C56.8215 351.275 56.3859 351.135 56.0617 350.971C55.7414 350.807 55.5031 350.611 55.3469 350.385C55.1945 350.158 55.1184 349.889 55.1184 349.576C55.1184 349.057 55.3371 348.617 55.7746 348.258C56.216 347.898 56.7785 347.719 57.4621 347.719C58.1809 347.719 58.7629 347.904 59.2082 348.275C59.6574 348.646 59.882 349.121 59.882 349.699H58.7922C58.7922 349.402 58.6652 349.146 58.4113 348.932C58.1613 348.717 57.8449 348.609 57.4621 348.609C57.0676 348.609 56.759 348.695 56.5363 348.867C56.3137 349.039 56.2024 349.264 56.2024 349.541C56.2024 349.803 56.3059 350 56.5129 350.133C56.7199 350.266 57.093 350.393 57.632 350.514C58.175 350.635 58.6145 350.779 58.9504 350.947C59.2863 351.115 59.5344 351.318 59.6945 351.557C59.8586 351.791 59.9406 352.078 59.9406 352.418C59.9406 352.984 59.7141 353.439 59.2609 353.783C58.8078 354.123 58.2199 354.293 57.4973 354.293C56.9895 354.293 56.5402 354.203 56.1496 354.023C55.759 353.844 55.4524 353.594 55.2297 353.273C55.0109 352.949 54.9016 352.6 54.9016 352.225H55.9856C56.0051 352.588 56.1496 352.877 56.4192 353.092C56.6926 353.303 57.052 353.408 57.4973 353.408C57.9074 353.408 58.2356 353.326 58.4817 353.162C58.7317 352.994 58.8567 352.771 58.8567 352.494ZM62.8234 346.301V347.836H64.007V348.674H62.8234V352.605C62.8234 352.859 62.8762 353.051 62.9817 353.18C63.0871 353.305 63.2668 353.367 63.5207 353.367C63.6457 353.367 63.8176 353.344 64.0363 353.297V354.176C63.7512 354.254 63.4738 354.293 63.2043 354.293C62.7199 354.293 62.3547 354.146 62.1086 353.854C61.8625 353.561 61.7395 353.145 61.7395 352.605V348.674H60.5852V347.836H61.7395V346.301H62.8234ZM69.632 354.176H68.507V345.645H69.632V354.176ZM72.9953 346.301V347.836H74.1789V348.674H72.9953V352.605C72.9953 352.859 73.0481 353.051 73.1535 353.18C73.259 353.305 73.4387 353.367 73.6926 353.367C73.8176 353.367 73.9895 353.344 74.2082 353.297V354.176C73.9231 354.254 73.6457 354.293 73.3762 354.293C72.8918 354.293 72.5266 354.146 72.2805 353.854C72.0344 353.561 71.9113 353.145 71.9113 352.605V348.674H70.757V347.836H71.9113V346.301H72.9953ZM78.0813 354.293C77.2219 354.293 76.5227 354.012 75.9836 353.449C75.4445 352.883 75.175 352.127 75.175 351.182V350.982C75.175 350.354 75.2942 349.793 75.5324 349.301C75.7746 348.805 76.1106 348.418 76.5402 348.141C76.9738 347.859 77.4426 347.719 77.9465 347.719C78.7707 347.719 79.4113 347.99 79.8684 348.533C80.3254 349.076 80.5539 349.854 80.5539 350.865V351.316H76.259C76.2746 351.941 76.4563 352.447 76.8039 352.834C77.1555 353.217 77.6008 353.408 78.1399 353.408C78.5227 353.408 78.8469 353.33 79.1125 353.174C79.3781 353.018 79.6106 352.811 79.8098 352.553L80.4719 353.068C79.9406 353.885 79.1438 354.293 78.0813 354.293ZM77.9465 348.609C77.509 348.609 77.1418 348.77 76.8449 349.09C76.5481 349.406 76.3645 349.852 76.2942 350.426H79.4699V350.344C79.4387 349.793 79.2902 349.367 79.0246 349.066C78.759 348.762 78.3996 348.609 77.9465 348.609ZM84.8781 348.809C84.7141 348.781 84.5363 348.768 84.3449 348.768C83.634 348.768 83.1516 349.07 82.8977 349.676V354.176H81.8137V347.836H82.8684L82.8859 348.568C83.2414 348.002 83.7453 347.719 84.3977 347.719C84.6086 347.719 84.7688 347.746 84.8781 347.801V348.809ZM89.5598 354.176C89.4973 354.051 89.4465 353.828 89.4074 353.508C88.9035 354.031 88.302 354.293 87.6027 354.293C86.9777 354.293 86.4641 354.117 86.0617 353.766C85.6633 353.41 85.4641 352.961 85.4641 352.418C85.4641 351.758 85.7141 351.246 86.2141 350.883C86.718 350.516 87.425 350.332 88.3352 350.332H89.3899V349.834C89.3899 349.455 89.2766 349.154 89.05 348.932C88.8234 348.705 88.4895 348.592 88.0481 348.592C87.6613 348.592 87.3371 348.689 87.0754 348.885C86.8137 349.08 86.6828 349.316 86.6828 349.594H85.593C85.593 349.277 85.7043 348.973 85.927 348.68C86.1535 348.383 86.4582 348.148 86.841 347.977C87.2277 347.805 87.6516 347.719 88.1125 347.719C88.843 347.719 89.4152 347.902 89.8293 348.27C90.2434 348.633 90.4582 349.135 90.4738 349.775V352.693C90.4738 353.275 90.5481 353.738 90.6965 354.082V354.176H89.5598ZM87.7609 353.35C88.1008 353.35 88.4231 353.262 88.7277 353.086C89.0324 352.91 89.2531 352.682 89.3899 352.4V351.1H88.5402C87.2121 351.1 86.5481 351.488 86.5481 352.266C86.5481 352.605 86.6613 352.871 86.8879 353.062C87.1145 353.254 87.4055 353.35 87.7609 353.35ZM93.6438 346.301V347.836H94.8274V348.674H93.6438V352.605C93.6438 352.859 93.6965 353.051 93.802 353.18C93.9074 353.305 94.0871 353.367 94.341 353.367C94.466 353.367 94.6379 353.344 94.8567 353.297V354.176C94.5715 354.254 94.2942 354.293 94.0246 354.293C93.5402 354.293 93.175 354.146 92.9289 353.854C92.6828 353.561 92.5598 353.145 92.5598 352.605V348.674H91.4055V347.836H92.5598V346.301H93.6438ZM97.2766 354.176H96.1926V347.836H97.2766V354.176ZM96.1047 346.154C96.1047 345.979 96.1574 345.83 96.2629 345.709C96.3723 345.588 96.5324 345.527 96.7434 345.527C96.9543 345.527 97.1145 345.588 97.2238 345.709C97.3332 345.83 97.3879 345.979 97.3879 346.154C97.3879 346.33 97.3332 346.477 97.2238 346.594C97.1145 346.711 96.9543 346.77 96.7434 346.77C96.5324 346.77 96.3723 346.711 96.2629 346.594C96.1574 346.477 96.1047 346.33 96.1047 346.154ZM98.7297 350.947C98.7297 350.326 98.8508 349.768 99.093 349.271C99.3391 348.775 99.6789 348.393 100.113 348.123C100.55 347.854 101.048 347.719 101.607 347.719C102.47 347.719 103.167 348.018 103.698 348.615C104.234 349.213 104.501 350.008 104.501 351V351.076C104.501 351.693 104.382 352.248 104.144 352.74C103.909 353.229 103.571 353.609 103.13 353.883C102.693 354.156 102.189 354.293 101.618 354.293C100.759 354.293 100.062 353.994 99.5266 353.396C98.9953 352.799 98.7297 352.008 98.7297 351.023V350.947ZM99.8195 351.076C99.8195 351.779 99.9817 352.344 100.306 352.77C100.634 353.195 101.071 353.408 101.618 353.408C102.169 353.408 102.607 353.193 102.931 352.764C103.255 352.33 103.417 351.725 103.417 350.947C103.417 350.252 103.251 349.689 102.919 349.26C102.591 348.826 102.154 348.609 101.607 348.609C101.071 348.609 100.64 348.822 100.312 349.248C99.9836 349.674 99.8195 350.283 99.8195 351.076ZM106.886 347.836L106.921 348.633C107.405 348.023 108.038 347.719 108.82 347.719C110.159 347.719 110.835 348.475 110.847 349.986V354.176H109.763V349.98C109.759 349.523 109.654 349.186 109.446 348.967C109.243 348.748 108.925 348.639 108.491 348.639C108.14 348.639 107.831 348.732 107.566 348.92C107.3 349.107 107.093 349.354 106.945 349.658V354.176H105.861V347.836H106.886ZM43.6223 359.645L46.4113 366.605L49.2004 359.645H50.6594V368.176H49.5344V364.854L49.6399 361.268L46.8391 368.176H45.9777L43.1828 361.285L43.2942 364.854V368.176H42.1692V359.645H43.6223ZM56.3899 368.176C56.3274 368.051 56.2766 367.828 56.2375 367.508C55.7336 368.031 55.132 368.293 54.4328 368.293C53.8078 368.293 53.2942 368.117 52.8918 367.766C52.4934 367.41 52.2942 366.961 52.2942 366.418C52.2942 365.758 52.5442 365.246 53.0442 364.883C53.5481 364.516 54.2551 364.332 55.1652 364.332H56.2199V363.834C56.2199 363.455 56.1067 363.154 55.8801 362.932C55.6535 362.705 55.3195 362.592 54.8781 362.592C54.4914 362.592 54.1672 362.689 53.9055 362.885C53.6438 363.08 53.5129 363.316 53.5129 363.594H52.4231C52.4231 363.277 52.5344 362.973 52.757 362.68C52.9836 362.383 53.2883 362.148 53.6711 361.977C54.0578 361.805 54.4817 361.719 54.9426 361.719C55.6731 361.719 56.2453 361.902 56.6594 362.27C57.0734 362.633 57.2883 363.135 57.3039 363.775V366.693C57.3039 367.275 57.3781 367.738 57.5266 368.082V368.176H56.3899ZM54.591 367.35C54.9309 367.35 55.2531 367.262 55.5578 367.086C55.8625 366.91 56.0832 366.682 56.2199 366.4V365.1H55.3703C54.0422 365.1 53.3781 365.488 53.3781 366.266C53.3781 366.605 53.4914 366.871 53.718 367.062C53.9445 367.254 54.2356 367.35 54.591 367.35ZM60.0285 361.836L60.0637 362.633C60.5481 362.023 61.1809 361.719 61.9621 361.719C63.302 361.719 63.9777 362.475 63.9895 363.986V368.176H62.9055V363.98C62.9016 363.523 62.7961 363.186 62.5891 362.967C62.3859 362.748 62.0676 362.639 61.634 362.639C61.2824 362.639 60.9738 362.732 60.7082 362.92C60.4426 363.107 60.2356 363.354 60.0871 363.658V368.176H59.0031V361.836H60.0285ZM69.5383 368.176C69.4758 368.051 69.425 367.828 69.3859 367.508C68.882 368.031 68.2805 368.293 67.5813 368.293C66.9563 368.293 66.4426 368.117 66.0402 367.766C65.6418 367.41 65.4426 366.961 65.4426 366.418C65.4426 365.758 65.6926 365.246 66.1926 364.883C66.6965 364.516 67.4035 364.332 68.3137 364.332H69.3684V363.834C69.3684 363.455 69.2551 363.154 69.0285 362.932C68.802 362.705 68.468 362.592 68.0266 362.592C67.6399 362.592 67.3156 362.689 67.0539 362.885C66.7922 363.08 66.6613 363.316 66.6613 363.594H65.5715C65.5715 363.277 65.6828 362.973 65.9055 362.68C66.132 362.383 66.4367 362.148 66.8195 361.977C67.2063 361.805 67.6301 361.719 68.091 361.719C68.8215 361.719 69.3938 361.902 69.8078 362.27C70.2219 362.633 70.4367 363.135 70.4524 363.775V366.693C70.4524 367.275 70.5266 367.738 70.675 368.082V368.176H69.5383ZM67.7395 367.35C68.0793 367.35 68.4016 367.262 68.7063 367.086C69.0109 366.91 69.2317 366.682 69.3684 366.4V365.1H68.5188C67.1906 365.1 66.5266 365.488 66.5266 366.266C66.5266 366.605 66.6399 366.871 66.8664 367.062C67.093 367.254 67.384 367.35 67.7395 367.35ZM71.8938 364.953C71.8938 363.965 72.1223 363.18 72.5793 362.598C73.0363 362.012 73.6418 361.719 74.3957 361.719C75.1692 361.719 75.7727 361.992 76.2063 362.539L76.259 361.836H77.2492V368.023C77.2492 368.844 77.0051 369.49 76.5168 369.963C76.0324 370.436 75.3801 370.672 74.5598 370.672C74.1027 370.672 73.6555 370.574 73.218 370.379C72.7805 370.184 72.4465 369.916 72.216 369.576L72.7785 368.926C73.2434 369.5 73.8117 369.787 74.4836 369.787C75.0109 369.787 75.4211 369.639 75.7141 369.342C76.0109 369.045 76.1594 368.627 76.1594 368.088V367.543C75.7258 368.043 75.134 368.293 74.384 368.293C73.6418 368.293 73.0402 367.994 72.5793 367.396C72.1223 366.799 71.8938 365.984 71.8938 364.953ZM72.9836 365.076C72.9836 365.791 73.1301 366.354 73.4231 366.764C73.716 367.17 74.1262 367.373 74.6535 367.373C75.3371 367.373 75.8391 367.062 76.1594 366.441V363.547C75.8274 362.941 75.3293 362.639 74.6652 362.639C74.1379 362.639 73.7258 362.844 73.4289 363.254C73.132 363.664 72.9836 364.271 72.9836 365.076ZM81.5207 368.293C80.6613 368.293 79.9621 368.012 79.4231 367.449C78.884 366.883 78.6145 366.127 78.6145 365.182V364.982C78.6145 364.354 78.7336 363.793 78.9719 363.301C79.2141 362.805 79.55 362.418 79.9797 362.141C80.4133 361.859 80.882 361.719 81.3859 361.719C82.2102 361.719 82.8508 361.99 83.3078 362.533C83.7649 363.076 83.9934 363.854 83.9934 364.865V365.316H79.6984C79.7141 365.941 79.8957 366.447 80.2434 366.834C80.5949 367.217 81.0402 367.408 81.5793 367.408C81.9621 367.408 82.2863 367.33 82.552 367.174C82.8176 367.018 83.05 366.811 83.2492 366.553L83.9113 367.068C83.3801 367.885 82.5832 368.293 81.5207 368.293ZM81.3859 362.609C80.9484 362.609 80.5813 362.77 80.2844 363.09C79.9875 363.406 79.8039 363.852 79.7336 364.426H82.9094V364.344C82.8781 363.793 82.7297 363.367 82.4641 363.066C82.1984 362.762 81.8391 362.609 81.3859 362.609ZM86.2727 361.836L86.302 362.539C86.7668 361.992 87.3938 361.719 88.1828 361.719C89.0695 361.719 89.6731 362.059 89.9934 362.738C90.2043 362.434 90.4777 362.188 90.8137 362C91.1535 361.812 91.5539 361.719 92.0149 361.719C93.4055 361.719 94.1125 362.455 94.1359 363.928V368.176H93.052V363.992C93.052 363.539 92.9484 363.201 92.7414 362.979C92.5344 362.752 92.1867 362.639 91.6984 362.639C91.2961 362.639 90.9621 362.76 90.6965 363.002C90.4309 363.24 90.2766 363.562 90.2336 363.969V368.176H89.1438V364.021C89.1438 363.1 88.6926 362.639 87.7902 362.639C87.0793 362.639 86.593 362.941 86.3313 363.547V368.176H85.2473V361.836H86.2727ZM98.4074 368.293C97.5481 368.293 96.8488 368.012 96.3098 367.449C95.7707 366.883 95.5012 366.127 95.5012 365.182V364.982C95.5012 364.354 95.6203 363.793 95.8586 363.301C96.1008 362.805 96.4367 362.418 96.8664 362.141C97.3 361.859 97.7688 361.719 98.2727 361.719C99.0969 361.719 99.7375 361.99 100.195 362.533C100.652 363.076 100.88 363.854 100.88 364.865V365.316H96.5852C96.6008 365.941 96.7824 366.447 97.1301 366.834C97.4817 367.217 97.927 367.408 98.466 367.408C98.8488 367.408 99.1731 367.33 99.4387 367.174C99.7043 367.018 99.9367 366.811 100.136 366.553L100.798 367.068C100.267 367.885 99.4699 368.293 98.4074 368.293ZM98.2727 362.609C97.8352 362.609 97.468 362.77 97.1711 363.09C96.8742 363.406 96.6906 363.852 96.6203 364.426H99.7961V364.344C99.7649 363.793 99.6164 363.367 99.3508 363.066C99.0852 362.762 98.7258 362.609 98.2727 362.609ZM103.165 361.836L103.2 362.633C103.685 362.023 104.318 361.719 105.099 361.719C106.439 361.719 107.114 362.475 107.126 363.986V368.176H106.042V363.98C106.038 363.523 105.933 363.186 105.726 362.967C105.523 362.748 105.204 362.639 104.771 362.639C104.419 362.639 104.111 362.732 103.845 362.92C103.579 363.107 103.372 363.354 103.224 363.658V368.176H102.14V361.836H103.165ZM110.232 360.301V361.836H111.415V362.674H110.232V366.605C110.232 366.859 110.284 367.051 110.39 367.18C110.495 367.305 110.675 367.367 110.929 367.367C111.054 367.367 111.226 367.344 111.445 367.297V368.176C111.159 368.254 110.882 368.293 110.613 368.293C110.128 368.293 109.763 368.146 109.517 367.854C109.271 367.561 109.148 367.145 109.148 366.605V362.674H107.993V361.836H109.148V360.301H110.232Z" fill="#54565A"/>
<path d="M7.26562 210.09C7.16016 210.992 6.82617 211.689 6.26367 212.182C5.70508 212.67 4.96094 212.914 4.03125 212.914C3.02344 212.914 2.21484 212.553 1.60547 211.83C1 211.107 0.697266 210.141 0.697266 208.93V208.109C0.697266 207.316 0.837891 206.619 1.11914 206.018C1.4043 205.416 1.80664 204.955 2.32617 204.635C2.8457 204.311 3.44727 204.148 4.13086 204.148C5.03711 204.148 5.76367 204.402 6.31055 204.91C6.85742 205.414 7.17578 206.113 7.26562 207.008H6.13477C6.03711 206.328 5.82422 205.836 5.49609 205.531C5.17188 205.227 4.7168 205.074 4.13086 205.074C3.41211 205.074 2.84766 205.34 2.4375 205.871C2.03125 206.402 1.82812 207.158 1.82812 208.139V208.965C1.82812 209.891 2.02148 210.627 2.4082 211.174C2.79492 211.721 3.33594 211.994 4.03125 211.994C4.65625 211.994 5.13477 211.854 5.4668 211.572C5.80273 211.287 6.02539 210.793 6.13477 210.09H7.26562ZM8.34961 209.568C8.34961 208.947 8.4707 208.389 8.71289 207.893C8.95898 207.396 9.29883 207.014 9.73242 206.744C10.1699 206.475 10.668 206.34 11.2266 206.34C12.0898 206.34 12.7871 206.639 13.3184 207.236C13.8535 207.834 14.1211 208.629 14.1211 209.621V209.697C14.1211 210.314 14.002 210.869 13.7637 211.361C13.5293 211.85 13.1914 212.23 12.75 212.504C12.3125 212.777 11.8086 212.914 11.2383 212.914C10.3789 212.914 9.68164 212.615 9.14648 212.018C8.61523 211.42 8.34961 210.629 8.34961 209.645V209.568ZM9.43945 209.697C9.43945 210.4 9.60156 210.965 9.92578 211.391C10.2539 211.816 10.6914 212.029 11.2383 212.029C11.7891 212.029 12.2266 211.814 12.5508 211.385C12.875 210.951 13.0371 210.346 13.0371 209.568C13.0371 208.873 12.8711 208.311 12.5391 207.881C12.2109 207.447 11.7734 207.23 11.2266 207.23C10.6914 207.23 10.2598 207.443 9.93164 207.869C9.60352 208.295 9.43945 208.904 9.43945 209.697ZM20.8359 209.697C20.8359 210.662 20.6152 211.439 20.1738 212.029C19.7324 212.619 19.1348 212.914 18.3809 212.914C17.6113 212.914 17.0059 212.67 16.5645 212.182V215.234H15.4805V206.457H16.4707L16.5234 207.16C16.9648 206.613 17.5781 206.34 18.3633 206.34C19.125 206.34 19.7266 206.627 20.168 207.201C20.6133 207.775 20.8359 208.574 20.8359 209.598V209.697ZM19.752 209.574C19.752 208.859 19.5996 208.295 19.2949 207.881C18.9902 207.467 18.5723 207.26 18.041 207.26C17.3848 207.26 16.8926 207.551 16.5645 208.133V211.162C16.8887 211.74 17.3848 212.029 18.0527 212.029C18.5723 212.029 18.9844 211.824 19.2891 211.414C19.5977 211 19.752 210.387 19.752 209.574ZM24.2227 211.209L25.6992 206.457H26.8594L24.3105 213.775C23.916 214.83 23.2891 215.357 22.4297 215.357L22.2246 215.34L21.8203 215.264V214.385L22.1133 214.408C22.4805 214.408 22.7656 214.334 22.9688 214.186C23.1758 214.037 23.3457 213.766 23.4785 213.371L23.7188 212.727L21.457 206.457H22.6406L24.2227 211.209ZM33.4453 211.303L34.6641 206.457H35.748L33.9023 212.797H33.0234L31.4824 207.992L29.9824 212.797H29.1035L27.2637 206.457H28.3418L29.5898 211.203L31.0664 206.457H31.9395L33.4453 211.303ZM39.9199 207.43C39.7559 207.402 39.5781 207.389 39.3867 207.389C38.6758 207.389 38.1934 207.691 37.9395 208.297V212.797H36.8555V206.457H37.9102L37.9277 207.189C38.2832 206.623 38.7871 206.34 39.4395 206.34C39.6504 206.34 39.8105 206.367 39.9199 206.422V207.43ZM42.0996 212.797H41.0156V206.457H42.0996V212.797ZM40.9277 204.775C40.9277 204.6 40.9805 204.451 41.0859 204.33C41.1953 204.209 41.3555 204.148 41.5664 204.148C41.7773 204.148 41.9375 204.209 42.0469 204.33C42.1562 204.451 42.2109 204.6 42.2109 204.775C42.2109 204.951 42.1562 205.098 42.0469 205.215C41.9375 205.332 41.7773 205.391 41.5664 205.391C41.3555 205.391 41.1953 205.332 41.0859 205.215C40.9805 205.098 40.9277 204.951 40.9277 204.775ZM45.3105 204.922V206.457H46.4941V207.295H45.3105V211.227C45.3105 211.48 45.3633 211.672 45.4688 211.801C45.5742 211.926 45.7539 211.988 46.0078 211.988C46.1328 211.988 46.3047 211.965 46.5234 211.918V212.797C46.2383 212.875 45.9609 212.914 45.6914 212.914C45.207 212.914 44.8418 212.768 44.5957 212.475C44.3496 212.182 44.2266 211.766 44.2266 211.227V207.295H43.0723V206.457H44.2266V204.922H45.3105ZM48.9434 212.797H47.8594V206.457H48.9434V212.797ZM47.7715 204.775C47.7715 204.6 47.8242 204.451 47.9297 204.33C48.0391 204.209 48.1992 204.148 48.4102 204.148C48.6211 204.148 48.7812 204.209 48.8906 204.33C49 204.451 49.0547 204.6 49.0547 204.775C49.0547 204.951 49 205.098 48.8906 205.215C48.7812 205.332 48.6211 205.391 48.4102 205.391C48.1992 205.391 48.0391 205.332 47.9297 205.215C47.8242 205.098 47.7715 204.951 47.7715 204.775ZM51.709 206.457L51.7441 207.254C52.2285 206.645 52.8613 206.34 53.6426 206.34C54.9824 206.34 55.6582 207.096 55.6699 208.607V212.797H54.5859V208.602C54.582 208.145 54.4766 207.807 54.2695 207.588C54.0664 207.369 53.748 207.26 53.3145 207.26C52.9629 207.26 52.6543 207.354 52.3887 207.541C52.123 207.729 51.916 207.975 51.7676 208.279V212.797H50.6836V206.457H51.709ZM57.0469 209.574C57.0469 208.586 57.2754 207.801 57.7324 207.219C58.1895 206.633 58.7949 206.34 59.5488 206.34C60.3223 206.34 60.9258 206.613 61.3594 207.16L61.4121 206.457H62.4023V212.645C62.4023 213.465 62.1582 214.111 61.6699 214.584C61.1855 215.057 60.5332 215.293 59.7129 215.293C59.2559 215.293 58.8086 215.195 58.3711 215C57.9336 214.805 57.5996 214.537 57.3691 214.197L57.9316 213.547C58.3965 214.121 58.9648 214.408 59.6367 214.408C60.1641 214.408 60.5742 214.26 60.8672 213.963C61.1641 213.666 61.3125 213.248 61.3125 212.709V212.164C60.8789 212.664 60.2871 212.914 59.5371 212.914C58.7949 212.914 58.1934 212.615 57.7324 212.018C57.2754 211.42 57.0469 210.605 57.0469 209.574ZM58.1367 209.697C58.1367 210.412 58.2832 210.975 58.5762 211.385C58.8691 211.791 59.2793 211.994 59.8066 211.994C60.4902 211.994 60.9922 211.684 61.3125 211.062V208.168C60.9805 207.562 60.4824 207.26 59.8184 207.26C59.291 207.26 58.8789 207.465 58.582 207.875C58.2852 208.285 58.1367 208.893 58.1367 209.697Z" fill="#54565A"/>
</svg>
