<svg width="414" height="387" viewBox="0 0 414 387" fill="none" xmlns="http://www.w3.org/2000/svg">
<path d="M157.779 11H156.654V2.46875H157.779V11ZM160.697 4.66016L160.732 5.45703C161.216 4.84766 161.849 4.54297 162.63 4.54297C163.97 4.54297 164.646 5.29883 164.658 6.81055V11H163.574V6.80469C163.57 6.34766 163.464 6.00977 163.257 5.79102C163.054 5.57227 162.736 5.46289 162.302 5.46289C161.951 5.46289 161.642 5.55664 161.376 5.74414C161.111 5.93164 160.904 6.17773 160.755 6.48242V11H159.671V4.66016H160.697ZM166.826 11V5.49805H165.824V4.66016H166.826V4.00977C166.826 3.33008 167.007 2.80469 167.37 2.43359C167.734 2.0625 168.247 1.87695 168.911 1.87695C169.161 1.87695 169.41 1.91016 169.656 1.97656L169.597 2.85547C169.413 2.82031 169.218 2.80273 169.011 2.80273C168.66 2.80273 168.388 2.90625 168.197 3.11328C168.005 3.31641 167.91 3.60938 167.91 3.99219V4.66016H169.263V5.49805H167.91V11H166.826ZM170.177 7.77148C170.177 7.15039 170.298 6.5918 170.54 6.0957C170.786 5.59961 171.126 5.2168 171.56 4.94727C171.997 4.67773 172.495 4.54297 173.054 4.54297C173.917 4.54297 174.615 4.8418 175.146 5.43945C175.681 6.03711 175.949 6.83203 175.949 7.82422V7.90039C175.949 8.51758 175.829 9.07227 175.591 9.56445C175.357 10.0527 175.019 10.4336 174.577 10.707C174.14 10.9805 173.636 11.1172 173.066 11.1172C172.206 11.1172 171.509 10.8184 170.974 10.2207C170.443 9.62305 170.177 8.83203 170.177 7.84766V7.77148ZM171.267 7.90039C171.267 8.60352 171.429 9.16797 171.753 9.59375C172.081 10.0195 172.519 10.2324 173.066 10.2324C173.617 10.2324 174.054 10.0176 174.378 9.58789C174.702 9.1543 174.865 8.54883 174.865 7.77148C174.865 7.07617 174.699 6.51367 174.367 6.08398C174.038 5.65039 173.601 5.43359 173.054 5.43359C172.519 5.43359 172.087 5.64648 171.759 6.07227C171.431 6.49805 171.267 7.10742 171.267 7.90039ZM180.372 5.63281C180.208 5.60547 180.031 5.5918 179.839 5.5918C179.128 5.5918 178.646 5.89453 178.392 6.5V11H177.308V4.66016H178.363L178.38 5.39258C178.736 4.82617 179.24 4.54297 179.892 4.54297C180.103 4.54297 180.263 4.57031 180.372 4.625V5.63281ZM182.394 4.66016L182.423 5.36328C182.888 4.81641 183.515 4.54297 184.304 4.54297C185.191 4.54297 185.794 4.88281 186.115 5.5625C186.326 5.25781 186.599 5.01172 186.935 4.82422C187.275 4.63672 187.675 4.54297 188.136 4.54297C189.527 4.54297 190.234 5.2793 190.257 6.75195V11H189.173V6.81641C189.173 6.36328 189.07 6.02539 188.863 5.80273C188.656 5.57617 188.308 5.46289 187.82 5.46289C187.417 5.46289 187.083 5.58398 186.818 5.82617C186.552 6.06445 186.398 6.38672 186.355 6.79297V11H185.265V6.8457C185.265 5.92383 184.814 5.46289 183.911 5.46289C183.201 5.46289 182.714 5.76562 182.452 6.37109V11H181.369V4.66016H182.394ZM195.812 11C195.749 10.875 195.699 10.6523 195.66 10.332C195.156 10.8555 194.554 11.1172 193.855 11.1172C193.23 11.1172 192.716 10.9414 192.314 10.5898C191.915 10.2344 191.716 9.78516 191.716 9.24219C191.716 8.58203 191.966 8.07031 192.466 7.70703C192.97 7.33984 193.677 7.15625 194.587 7.15625H195.642V6.6582C195.642 6.2793 195.529 5.97852 195.302 5.75586C195.076 5.5293 194.742 5.41602 194.3 5.41602C193.913 5.41602 193.589 5.51367 193.327 5.70898C193.066 5.9043 192.935 6.14062 192.935 6.41797H191.845C191.845 6.10156 191.956 5.79688 192.179 5.50391C192.406 5.20703 192.71 4.97266 193.093 4.80078C193.48 4.62891 193.904 4.54297 194.365 4.54297C195.095 4.54297 195.667 4.72656 196.081 5.09375C196.495 5.45703 196.71 5.95898 196.726 6.59961V9.51758C196.726 10.0996 196.8 10.5625 196.949 10.9062V11H195.812ZM194.013 10.1738C194.353 10.1738 194.675 10.0859 194.98 9.91016C195.285 9.73438 195.505 9.50586 195.642 9.22461V7.92383H194.792C193.464 7.92383 192.8 8.3125 192.8 9.08984C192.8 9.42969 192.913 9.69531 193.14 9.88672C193.367 10.0781 193.658 10.1738 194.013 10.1738ZM199.896 3.125V4.66016H201.079V5.49805H199.896V9.42969C199.896 9.68359 199.949 9.875 200.054 10.0039C200.16 10.1289 200.339 10.1914 200.593 10.1914C200.718 10.1914 200.89 10.168 201.109 10.1211V11C200.824 11.0781 200.546 11.1172 200.277 11.1172C199.792 11.1172 199.427 10.9707 199.181 10.6777C198.935 10.3848 198.812 9.96875 198.812 9.42969V5.49805H197.658V4.66016H198.812V3.125H199.896ZM203.529 11H202.445V4.66016H203.529V11ZM202.357 2.97852C202.357 2.80273 202.41 2.6543 202.515 2.5332C202.624 2.41211 202.785 2.35156 202.995 2.35156C203.206 2.35156 203.367 2.41211 203.476 2.5332C203.585 2.6543 203.64 2.80273 203.64 2.97852C203.64 3.1543 203.585 3.30078 203.476 3.41797C203.367 3.53516 203.206 3.59375 202.995 3.59375C202.785 3.59375 202.624 3.53516 202.515 3.41797C202.41 3.30078 202.357 3.1543 202.357 2.97852ZM204.982 7.77148C204.982 7.15039 205.103 6.5918 205.345 6.0957C205.591 5.59961 205.931 5.2168 206.365 4.94727C206.802 4.67773 207.3 4.54297 207.859 4.54297C208.722 4.54297 209.419 4.8418 209.951 5.43945C210.486 6.03711 210.753 6.83203 210.753 7.82422V7.90039C210.753 8.51758 210.634 9.07227 210.396 9.56445C210.161 10.0527 209.824 10.4336 209.382 10.707C208.945 10.9805 208.441 11.1172 207.87 11.1172C207.011 11.1172 206.314 10.8184 205.779 10.2207C205.247 9.62305 204.982 8.83203 204.982 7.84766V7.77148ZM206.072 7.90039C206.072 8.60352 206.234 9.16797 206.558 9.59375C206.886 10.0195 207.324 10.2324 207.87 10.2324C208.421 10.2324 208.859 10.0176 209.183 9.58789C209.507 9.1543 209.669 8.54883 209.669 7.77148C209.669 7.07617 209.503 6.51367 209.171 6.08398C208.843 5.65039 208.406 5.43359 207.859 5.43359C207.324 5.43359 206.892 5.64648 206.564 6.07227C206.236 6.49805 206.072 7.10742 206.072 7.90039ZM213.138 4.66016L213.173 5.45703C213.658 4.84766 214.29 4.54297 215.072 4.54297C216.411 4.54297 217.087 5.29883 217.099 6.81055V11H216.015V6.80469C216.011 6.34766 215.906 6.00977 215.699 5.79102C215.495 5.57227 215.177 5.46289 214.744 5.46289C214.392 5.46289 214.083 5.55664 213.818 5.74414C213.552 5.93164 213.345 6.17773 213.197 6.48242V11H212.113V4.66016H213.138ZM159.941 22.7734H156.367L155.564 25H154.404L157.661 16.4688H158.646L161.91 25H160.755L159.941 22.7734ZM156.706 21.8477H159.607L158.154 17.8574L156.706 21.8477ZM165.952 19.6328C165.788 19.6055 165.611 19.5918 165.419 19.5918C164.708 19.5918 164.226 19.8945 163.972 20.5V25H162.888V18.6602H163.943L163.96 19.3926C164.316 18.8262 164.82 18.543 165.472 18.543C165.683 18.543 165.843 18.5703 165.952 18.625V19.6328ZM169.38 24.2324C169.767 24.2324 170.105 24.1152 170.394 23.8809C170.683 23.6465 170.843 23.3535 170.874 23.002H171.9C171.88 23.3652 171.755 23.7109 171.525 24.0391C171.294 24.3672 170.986 24.6289 170.599 24.8242C170.216 25.0195 169.81 25.1172 169.38 25.1172C168.517 25.1172 167.829 24.8301 167.318 24.2559C166.81 23.6777 166.556 22.8887 166.556 21.8887V21.707C166.556 21.0898 166.669 20.541 166.896 20.0605C167.122 19.5801 167.447 19.207 167.869 18.9414C168.294 18.6758 168.796 18.543 169.374 18.543C170.085 18.543 170.675 18.7559 171.144 19.1816C171.617 19.6074 171.869 20.1602 171.9 20.8398H170.874C170.843 20.4297 170.687 20.0938 170.406 19.832C170.128 19.5664 169.785 19.4336 169.374 19.4336C168.824 19.4336 168.396 19.6328 168.091 20.0312C167.79 20.4258 167.64 20.998 167.64 21.748V21.9531C167.64 22.6836 167.79 23.2461 168.091 23.6406C168.392 24.0352 168.822 24.2324 169.38 24.2324ZM174.202 19.4277C174.683 18.8379 175.308 18.543 176.077 18.543C177.417 18.543 178.093 19.2988 178.105 20.8105V25H177.021V20.8047C177.017 20.3477 176.911 20.0098 176.704 19.791C176.501 19.5723 176.183 19.4629 175.749 19.4629C175.398 19.4629 175.089 19.5566 174.824 19.7441C174.558 19.9316 174.351 20.1777 174.202 20.4824V25H173.119V16H174.202V19.4277ZM180.906 25H179.822V18.6602H180.906V25ZM179.734 16.9785C179.734 16.8027 179.786 16.6543 179.892 16.5332C180.001 16.4121 180.161 16.3516 180.372 16.3516C180.583 16.3516 180.744 16.4121 180.853 16.5332C180.962 16.6543 181.017 16.8027 181.017 16.9785C181.017 17.1543 180.962 17.3008 180.853 17.418C180.744 17.5352 180.583 17.5938 180.372 17.5938C180.161 17.5938 180.001 17.5352 179.892 17.418C179.786 17.3008 179.734 17.1543 179.734 16.9785ZM184.117 17.125V18.6602H185.3V19.498H184.117V23.4297C184.117 23.6836 184.169 23.875 184.275 24.0039C184.38 24.1289 184.56 24.1914 184.814 24.1914C184.939 24.1914 185.111 24.168 185.329 24.1211V25C185.044 25.0781 184.767 25.1172 184.497 25.1172C184.013 25.1172 183.648 24.9707 183.402 24.6777C183.156 24.3848 183.033 23.9688 183.033 23.4297V19.498H181.878V18.6602H183.033V17.125H184.117ZM189.202 25.1172C188.343 25.1172 187.644 24.8359 187.105 24.2734C186.566 23.707 186.296 22.9512 186.296 22.0059V21.8066C186.296 21.1777 186.415 20.6172 186.654 20.125C186.896 19.6289 187.232 19.2422 187.661 18.9648C188.095 18.6836 188.564 18.543 189.068 18.543C189.892 18.543 190.533 18.8145 190.99 19.3574C191.447 19.9004 191.675 20.6777 191.675 21.6895V22.1406H187.38C187.396 22.7656 187.577 23.2715 187.925 23.6582C188.277 24.041 188.722 24.2324 189.261 24.2324C189.644 24.2324 189.968 24.1543 190.234 23.998C190.499 23.8418 190.732 23.6348 190.931 23.377L191.593 23.8926C191.062 24.709 190.265 25.1172 189.202 25.1172ZM189.068 19.4336C188.63 19.4336 188.263 19.5938 187.966 19.9141C187.669 20.2305 187.486 20.6758 187.415 21.25H190.591V21.168C190.56 20.6172 190.411 20.1914 190.146 19.8906C189.88 19.5859 189.521 19.4336 189.068 19.4336ZM195.478 24.2324C195.865 24.2324 196.202 24.1152 196.492 23.8809C196.781 23.6465 196.941 23.3535 196.972 23.002H197.997C197.978 23.3652 197.853 23.7109 197.622 24.0391C197.392 24.3672 197.083 24.6289 196.697 24.8242C196.314 25.0195 195.908 25.1172 195.478 25.1172C194.615 25.1172 193.927 24.8301 193.415 24.2559C192.908 23.6777 192.654 22.8887 192.654 21.8887V21.707C192.654 21.0898 192.767 20.541 192.994 20.0605C193.22 19.5801 193.544 19.207 193.966 18.9414C194.392 18.6758 194.894 18.543 195.472 18.543C196.183 18.543 196.773 18.7559 197.242 19.1816C197.714 19.6074 197.966 20.1602 197.997 20.8398H196.972C196.941 20.4297 196.785 20.0938 196.503 19.832C196.226 19.5664 195.882 19.4336 195.472 19.4336C194.921 19.4336 194.494 19.6328 194.189 20.0312C193.888 20.4258 193.738 20.998 193.738 21.748V21.9531C193.738 22.6836 193.888 23.2461 194.189 23.6406C194.49 24.0352 194.919 24.2324 195.478 24.2324ZM200.687 17.125V18.6602H201.87V19.498H200.687V23.4297C200.687 23.6836 200.74 23.875 200.845 24.0039C200.951 24.1289 201.13 24.1914 201.384 24.1914C201.509 24.1914 201.681 24.168 201.9 24.1211V25C201.615 25.0781 201.337 25.1172 201.068 25.1172C200.583 25.1172 200.218 24.9707 199.972 24.6777C199.726 24.3848 199.603 23.9688 199.603 23.4297V19.498H198.449V18.6602H199.603V17.125H200.687ZM207.056 24.373C206.634 24.8691 206.015 25.1172 205.199 25.1172C204.523 25.1172 204.007 24.9219 203.652 24.5312C203.3 24.1367 203.122 23.5547 203.119 22.7852V18.6602H204.202V22.7559C204.202 23.7168 204.593 24.1973 205.374 24.1973C206.202 24.1973 206.753 23.8887 207.027 23.2715V18.6602H208.111V25H207.079L207.056 24.373ZM212.827 19.6328C212.663 19.6055 212.486 19.5918 212.294 19.5918C211.583 19.5918 211.101 19.8945 210.847 20.5V25H209.763V18.6602H210.818L210.835 19.3926C211.191 18.8262 211.695 18.543 212.347 18.543C212.558 18.543 212.718 18.5703 212.827 18.625V19.6328ZM216.343 25.1172C215.484 25.1172 214.785 24.8359 214.245 24.2734C213.706 23.707 213.437 22.9512 213.437 22.0059V21.8066C213.437 21.1777 213.556 20.6172 213.794 20.125C214.036 19.6289 214.372 19.2422 214.802 18.9648C215.236 18.6836 215.704 18.543 216.208 18.543C217.033 18.543 217.673 18.8145 218.13 19.3574C218.587 19.9004 218.816 20.6777 218.816 21.6895V22.1406H214.521C214.536 22.7656 214.718 23.2715 215.066 23.6582C215.417 24.041 215.863 24.2324 216.402 24.2324C216.785 24.2324 217.109 24.1543 217.374 23.998C217.64 23.8418 217.872 23.6348 218.072 23.377L218.734 23.8926C218.202 24.709 217.406 25.1172 216.343 25.1172ZM216.208 19.4336C215.771 19.4336 215.404 19.5938 215.107 19.9141C214.81 20.2305 214.626 20.6758 214.556 21.25H217.732V21.168C217.701 20.6172 217.552 20.1914 217.286 19.8906C217.021 19.5859 216.661 19.4336 216.208 19.4336Z" fill="#E3E5E8"/>
<path d="M290.605 92.1468L187.041 49.9648L84.0589 93.3104L41.877 196.874L85.2225 299.857L188.787 342.039L291.769 298.693L333.951 195.129L290.605 92.1468Z" stroke="#E3E5E8" stroke-width="0.5" stroke-miterlimit="10"/>
<path d="M290.605 92.1468L187.041 49.9648L84.0589 93.3104L41.877 196.874L85.2225 299.857L188.787 342.039L291.769 298.693L333.951 195.129L290.605 92.1468Z" stroke="#E3E5E8" stroke-width="0.5" stroke-miterlimit="10"/>
<path d="M105.292 279.495L70.3828 196.586L104.419 113.386L187.038 78.4766L270.238 112.513L305.147 195.422L271.402 278.623L188.492 313.532L105.292 279.495Z" stroke="#E3E5E8" stroke-width="0.5" stroke-miterlimit="10"/>
<path d="M125.366 259.128L99.1836 196.583L124.784 133.746L187.329 107.273L250.166 132.873L276.639 195.419L251.039 258.256L188.202 284.729L125.366 259.128Z" stroke="#E3E5E8" stroke-width="0.5" stroke-miterlimit="10"/>
<path d="M145.732 238.758L127.695 196.285L145.15 153.812L187.332 136.066L230.096 153.23L247.841 195.703L230.387 238.176L188.205 255.921L145.732 238.758Z" stroke="#E3E5E8" stroke-width="0.5" stroke-miterlimit="10"/>
<path d="M165.801 218.397L156.492 196.287L165.511 173.887L187.62 164.578L209.729 173.596L219.038 195.706L210.02 218.106L187.911 227.415L165.801 218.397Z" stroke="#E3E5E8" stroke-width="0.5" stroke-miterlimit="10"/>
<path d="M187.912 196.004L74.748 82.8398" stroke="#E3E5E8" stroke-width="0.5" stroke-miterlimit="10"/>
<path d="M187.913 196H27.9121" stroke="#E3E5E8" stroke-width="0.5" stroke-miterlimit="10"/>
<path d="M187.912 196V356.001" stroke="#E3E5E8" stroke-width="0.5" stroke-miterlimit="10"/>
<path d="M187.912 196H347.913" stroke="#E3E5E8" stroke-width="0.5" stroke-miterlimit="10"/>
<path d="M187.912 196.004L74.748 82.8398" stroke="#E3E5E8" stroke-width="0.5" stroke-miterlimit="10"/>
<path d="M187.912 196L74.748 309.164" stroke="#E3E5E8" stroke-width="0.5" stroke-miterlimit="10"/>
<path d="M187.912 196L301.076 309.164" stroke="#E3E5E8" stroke-width="0.5" stroke-miterlimit="10"/>
<path d="M187.912 196.004L301.076 82.8398" stroke="#E3E5E8" stroke-width="0.5" stroke-miterlimit="10"/>
<path d="M187.912 196.001V36" stroke="#E3E5E8" stroke-width="0.5" stroke-miterlimit="10"/>
<path opacity="0.25" d="M187.039 78.4766L230.093 153.24L333.948 195.131L271.403 278.623L188.493 313.532L105.293 279.495L127.693 196.295L187.039 78.4766Z" fill="#319795"/>
<path d="M187.039 78.4766L230.093 153.24L333.948 195.131L271.403 278.623L188.493 313.532L105.293 279.495L127.693 196.295L187.039 78.4766Z" stroke="#319795" stroke-width="3" stroke-miterlimit="10"/>
<path d="M67.2617 70.9746H63.5645V73.998H67.8594V74.918H62.4395V66.3867H67.8008V67.3125H63.5645V70.0547H67.2617V70.9746ZM68.709 71.6953C68.709 70.7227 68.9395 69.9414 69.4004 69.3516C69.8613 68.7578 70.4648 68.4609 71.2109 68.4609C71.9531 68.4609 72.541 68.7148 72.9746 69.2227V65.918H74.0586V74.918H73.0625L73.0098 74.2383C72.5762 74.7695 71.9727 75.0352 71.1992 75.0352C70.4648 75.0352 69.8652 74.7344 69.4004 74.1328C68.9395 73.5312 68.709 72.7461 68.709 71.7773V71.6953ZM69.793 71.8184C69.793 72.5371 69.9414 73.0996 70.2383 73.5059C70.5352 73.9121 70.9453 74.1152 71.4688 74.1152C72.1562 74.1152 72.6582 73.8066 72.9746 73.1895V70.2773C72.6504 69.6797 72.1523 69.3809 71.4805 69.3809C70.9492 69.3809 70.5352 69.5859 70.2383 69.9961C69.9414 70.4062 69.793 71.0137 69.793 71.8184ZM76.9238 74.918H75.8398V68.5781H76.9238V74.918ZM75.752 66.8965C75.752 66.7207 75.8047 66.5723 75.9102 66.4512C76.0195 66.3301 76.1797 66.2695 76.3906 66.2695C76.6016 66.2695 76.7617 66.3301 76.8711 66.4512C76.9805 66.5723 77.0352 66.7207 77.0352 66.8965C77.0352 67.0723 76.9805 67.2188 76.8711 67.3359C76.7617 67.4531 76.6016 67.5117 76.3906 67.5117C76.1797 67.5117 76.0195 67.4531 75.9102 67.3359C75.8047 67.2188 75.752 67.0723 75.752 66.8965ZM80.1348 67.043V68.5781H81.3184V69.416H80.1348V73.3477C80.1348 73.6016 80.1875 73.793 80.293 73.9219C80.3984 74.0469 80.5781 74.1094 80.832 74.1094C80.957 74.1094 81.1289 74.0859 81.3477 74.0391V74.918C81.0625 74.9961 80.7852 75.0352 80.5156 75.0352C80.0312 75.0352 79.666 74.8887 79.4199 74.5957C79.1738 74.3027 79.0508 73.8867 79.0508 73.3477V69.416H77.8965V68.5781H79.0508V67.043H80.1348ZM83.7676 74.918H82.6836V68.5781H83.7676V74.918ZM82.5957 66.8965C82.5957 66.7207 82.6484 66.5723 82.7539 66.4512C82.8633 66.3301 83.0234 66.2695 83.2344 66.2695C83.4453 66.2695 83.6055 66.3301 83.7148 66.4512C83.8242 66.5723 83.8789 66.7207 83.8789 66.8965C83.8789 67.0723 83.8242 67.2188 83.7148 67.3359C83.6055 67.4531 83.4453 67.5117 83.2344 67.5117C83.0234 67.5117 82.8633 67.4531 82.7539 67.3359C82.6484 67.2188 82.5957 67.0723 82.5957 66.8965ZM86.5332 68.5781L86.5684 69.375C87.0527 68.7656 87.6855 68.4609 88.4668 68.4609C89.8066 68.4609 90.4824 69.2168 90.4941 70.7285V74.918H89.4102V70.7227C89.4062 70.2656 89.3008 69.9277 89.0938 69.709C88.8906 69.4902 88.5723 69.3809 88.1387 69.3809C87.7871 69.3809 87.4785 69.4746 87.2129 69.6621C86.9473 69.8496 86.7402 70.0957 86.5918 70.4004V74.918H85.5078V68.5781H86.5332ZM91.8711 71.6953C91.8711 70.707 92.0996 69.9219 92.5566 69.3398C93.0137 68.7539 93.6191 68.4609 94.373 68.4609C95.1465 68.4609 95.75 68.7344 96.1836 69.2812L96.2363 68.5781H97.2266V74.7656C97.2266 75.5859 96.9824 76.2324 96.4941 76.7051C96.0098 77.1777 95.3574 77.4141 94.5371 77.4141C94.0801 77.4141 93.6328 77.3164 93.1953 77.1211C92.7578 76.9258 92.4238 76.6582 92.1934 76.3184L92.7559 75.668C93.2207 76.2422 93.7891 76.5293 94.4609 76.5293C94.9883 76.5293 95.3984 76.3809 95.6914 76.084C95.9883 75.7871 96.1367 75.3691 96.1367 74.8301V74.2852C95.7031 74.7852 95.1113 75.0352 94.3613 75.0352C93.6191 75.0352 93.0176 74.7363 92.5566 74.1387C92.0996 73.541 91.8711 72.7266 91.8711 71.6953ZM92.9609 71.8184C92.9609 72.5332 93.1074 73.0957 93.4004 73.5059C93.6934 73.9121 94.1035 74.1152 94.6309 74.1152C95.3145 74.1152 95.8164 73.8047 96.1367 73.1836V70.2891C95.8047 69.6836 95.3066 69.3809 94.6426 69.3809C94.1152 69.3809 93.7031 69.5859 93.4062 69.9961C93.1094 70.4062 92.9609 71.0137 92.9609 71.8184Z" fill="#E3E5E8"/>
<path d="M297.709 52.4688V58.2695C297.705 59.0742 297.451 59.7324 296.947 60.2441C296.447 60.7559 295.768 61.043 294.908 61.1055L294.609 61.1172C293.676 61.1172 292.932 60.8652 292.377 60.3613C291.822 59.8574 291.541 59.1641 291.533 58.2812V52.4688H292.646V58.2461C292.646 58.8633 292.816 59.3438 293.156 59.6875C293.496 60.0273 293.98 60.1973 294.609 60.1973C295.246 60.1973 295.732 60.0273 296.068 59.6875C296.408 59.3477 296.578 58.8691 296.578 58.252V52.4688H297.709ZM303.006 59.3184C303.006 59.0254 302.895 58.7988 302.672 58.6387C302.453 58.4746 302.068 58.334 301.518 58.2168C300.971 58.0996 300.535 57.959 300.211 57.7949C299.891 57.6309 299.652 57.4355 299.496 57.209C299.344 56.9824 299.268 56.7129 299.268 56.4004C299.268 55.8809 299.486 55.4414 299.924 55.082C300.365 54.7227 300.928 54.543 301.611 54.543C302.33 54.543 302.912 54.7285 303.357 55.0996C303.807 55.4707 304.031 55.9453 304.031 56.5234H302.941C302.941 56.2266 302.814 55.9707 302.561 55.7559C302.311 55.541 301.994 55.4336 301.611 55.4336C301.217 55.4336 300.908 55.5195 300.686 55.6914C300.463 55.8633 300.352 56.0879 300.352 56.3652C300.352 56.627 300.455 56.8242 300.662 56.957C300.869 57.0898 301.242 57.2168 301.781 57.3379C302.324 57.459 302.764 57.6035 303.1 57.7715C303.436 57.9395 303.684 58.1426 303.844 58.3809C304.008 58.6152 304.09 58.9023 304.09 59.2422C304.09 59.8086 303.863 60.2637 303.41 60.6074C302.957 60.9473 302.369 61.1172 301.646 61.1172C301.139 61.1172 300.689 61.0273 300.299 60.8477C299.908 60.668 299.602 60.418 299.379 60.0977C299.16 59.7734 299.051 59.4238 299.051 59.0488H300.135C300.154 59.4121 300.299 59.7012 300.568 59.916C300.842 60.127 301.201 60.2324 301.646 60.2324C302.057 60.2324 302.385 60.1504 302.631 59.9863C302.881 59.8184 303.006 59.5957 303.006 59.3184ZM308.133 61.1172C307.273 61.1172 306.574 60.8359 306.035 60.2734C305.496 59.707 305.227 58.9512 305.227 58.0059V57.8066C305.227 57.1777 305.346 56.6172 305.584 56.125C305.826 55.6289 306.162 55.2422 306.592 54.9648C307.025 54.6836 307.494 54.543 307.998 54.543C308.822 54.543 309.463 54.8145 309.92 55.3574C310.377 55.9004 310.605 56.6777 310.605 57.6895V58.1406H306.311C306.326 58.7656 306.508 59.2715 306.855 59.6582C307.207 60.041 307.652 60.2324 308.191 60.2324C308.574 60.2324 308.898 60.1543 309.164 59.998C309.43 59.8418 309.662 59.6348 309.861 59.377L310.523 59.8926C309.992 60.709 309.195 61.1172 308.133 61.1172ZM307.998 55.4336C307.561 55.4336 307.193 55.5938 306.896 55.9141C306.6 56.2305 306.416 56.6758 306.346 57.25H309.521V57.168C309.49 56.6172 309.342 56.1914 309.076 55.8906C308.811 55.5859 308.451 55.4336 307.998 55.4336ZM314.93 55.6328C314.766 55.6055 314.588 55.5918 314.396 55.5918C313.686 55.5918 313.203 55.8945 312.949 56.5V61H311.865V54.6602H312.92L312.938 55.3926C313.293 54.8262 313.797 54.543 314.449 54.543C314.66 54.543 314.82 54.5703 314.93 54.625V55.6328ZM294.832 71.5488H292.828V75H291.697V66.4688H294.521C295.482 66.4688 296.221 66.6875 296.736 67.125C297.256 67.5625 297.516 68.1992 297.516 69.0352C297.516 69.5664 297.371 70.0293 297.082 70.4238C296.797 70.8184 296.398 71.1133 295.887 71.3086L297.891 74.9297V75H296.684L294.832 71.5488ZM292.828 70.6289H294.557C295.115 70.6289 295.559 70.4844 295.887 70.1953C296.219 69.9062 296.385 69.5195 296.385 69.0352C296.385 68.5078 296.227 68.1035 295.91 67.8223C295.598 67.541 295.145 67.3984 294.551 67.3945H292.828V70.6289ZM301.559 75.1172C300.699 75.1172 300 74.8359 299.461 74.2734C298.922 73.707 298.652 72.9512 298.652 72.0059V71.8066C298.652 71.1777 298.771 70.6172 299.01 70.125C299.252 69.6289 299.588 69.2422 300.018 68.9648C300.451 68.6836 300.92 68.543 301.424 68.543C302.248 68.543 302.889 68.8145 303.346 69.3574C303.803 69.9004 304.031 70.6777 304.031 71.6895V72.1406H299.736C299.752 72.7656 299.934 73.2715 300.281 73.6582C300.633 74.041 301.078 74.2324 301.617 74.2324C302 74.2324 302.324 74.1543 302.59 73.998C302.855 73.8418 303.088 73.6348 303.287 73.377L303.949 73.8926C303.418 74.709 302.621 75.1172 301.559 75.1172ZM301.424 69.4336C300.986 69.4336 300.619 69.5938 300.322 69.9141C300.025 70.2305 299.842 70.6758 299.771 71.25H302.947V71.168C302.916 70.6172 302.768 70.1914 302.502 69.8906C302.236 69.5859 301.877 69.4336 301.424 69.4336ZM308.982 73.3184C308.982 73.0254 308.871 72.7988 308.648 72.6387C308.43 72.4746 308.045 72.334 307.494 72.2168C306.947 72.0996 306.512 71.959 306.188 71.7949C305.867 71.6309 305.629 71.4355 305.473 71.209C305.32 70.9824 305.244 70.7129 305.244 70.4004C305.244 69.8809 305.463 69.4414 305.9 69.082C306.342 68.7227 306.904 68.543 307.588 68.543C308.307 68.543 308.889 68.7285 309.334 69.0996C309.783 69.4707 310.008 69.9453 310.008 70.5234H308.918C308.918 70.2266 308.791 69.9707 308.537 69.7559C308.287 69.541 307.971 69.4336 307.588 69.4336C307.193 69.4336 306.885 69.5195 306.662 69.6914C306.439 69.8633 306.328 70.0879 306.328 70.3652C306.328 70.627 306.432 70.8242 306.639 70.957C306.846 71.0898 307.219 71.2168 307.758 71.3379C308.301 71.459 308.74 71.6035 309.076 71.7715C309.412 71.9395 309.66 72.1426 309.82 72.3809C309.984 72.6152 310.066 72.9023 310.066 73.2422C310.066 73.8086 309.84 74.2637 309.387 74.6074C308.934 74.9473 308.346 75.1172 307.623 75.1172C307.115 75.1172 306.666 75.0273 306.275 74.8477C305.885 74.668 305.578 74.418 305.355 74.0977C305.137 73.7734 305.027 73.4238 305.027 73.0488H306.111C306.131 73.4121 306.275 73.7012 306.545 73.916C306.818 74.127 307.178 74.2324 307.623 74.2324C308.033 74.2324 308.361 74.1504 308.607 73.9863C308.857 73.8184 308.982 73.5957 308.982 73.3184ZM314.109 75.1172C313.25 75.1172 312.551 74.8359 312.012 74.2734C311.473 73.707 311.203 72.9512 311.203 72.0059V71.8066C311.203 71.1777 311.322 70.6172 311.561 70.125C311.803 69.6289 312.139 69.2422 312.568 68.9648C313.002 68.6836 313.471 68.543 313.975 68.543C314.799 68.543 315.439 68.8145 315.896 69.3574C316.354 69.9004 316.582 70.6777 316.582 71.6895V72.1406H312.287C312.303 72.7656 312.484 73.2715 312.832 73.6582C313.184 74.041 313.629 74.2324 314.168 74.2324C314.551 74.2324 314.875 74.1543 315.141 73.998C315.406 73.8418 315.639 73.6348 315.838 73.377L316.5 73.8926C315.969 74.709 315.172 75.1172 314.109 75.1172ZM313.975 69.4336C313.537 69.4336 313.17 69.5938 312.873 69.9141C312.576 70.2305 312.393 70.6758 312.322 71.25H315.498V71.168C315.467 70.6172 315.318 70.1914 315.053 69.8906C314.787 69.5859 314.428 69.4336 313.975 69.4336ZM321.756 75C321.693 74.875 321.643 74.6523 321.604 74.332C321.1 74.8555 320.498 75.1172 319.799 75.1172C319.174 75.1172 318.66 74.9414 318.258 74.5898C317.859 74.2344 317.66 73.7852 317.66 73.2422C317.66 72.582 317.91 72.0703 318.41 71.707C318.914 71.3398 319.621 71.1562 320.531 71.1562H321.586V70.6582C321.586 70.2793 321.473 69.9785 321.246 69.7559C321.02 69.5293 320.686 69.416 320.244 69.416C319.857 69.416 319.533 69.5137 319.271 69.709C319.01 69.9043 318.879 70.1406 318.879 70.418H317.789C317.789 70.1016 317.9 69.7969 318.123 69.5039C318.35 69.207 318.654 68.9727 319.037 68.8008C319.424 68.6289 319.848 68.543 320.309 68.543C321.039 68.543 321.611 68.7266 322.025 69.0938C322.439 69.457 322.654 69.959 322.67 70.5996V73.5176C322.67 74.0996 322.744 74.5625 322.893 74.9062V75H321.756ZM319.957 74.1738C320.297 74.1738 320.619 74.0859 320.924 73.9102C321.229 73.7344 321.449 73.5059 321.586 73.2246V71.9238H320.736C319.408 71.9238 318.744 72.3125 318.744 73.0898C318.744 73.4297 318.857 73.6953 319.084 73.8867C319.311 74.0781 319.602 74.1738 319.957 74.1738ZM327.434 69.6328C327.27 69.6055 327.092 69.5918 326.9 69.5918C326.189 69.5918 325.707 69.8945 325.453 70.5V75H324.369V68.6602H325.424L325.441 69.3926C325.797 68.8262 326.301 68.543 326.953 68.543C327.164 68.543 327.324 68.5703 327.434 68.625V69.6328ZM330.861 74.2324C331.248 74.2324 331.586 74.1152 331.875 73.8809C332.164 73.6465 332.324 73.3535 332.355 73.002H333.381C333.361 73.3652 333.236 73.7109 333.006 74.0391C332.775 74.3672 332.467 74.6289 332.08 74.8242C331.697 75.0195 331.291 75.1172 330.861 75.1172C329.998 75.1172 329.311 74.8301 328.799 74.2559C328.291 73.6777 328.037 72.8887 328.037 71.8887V71.707C328.037 71.0898 328.15 70.541 328.377 70.0605C328.604 69.5801 328.928 69.207 329.35 68.9414C329.775 68.6758 330.277 68.543 330.855 68.543C331.566 68.543 332.156 68.7559 332.625 69.1816C333.098 69.6074 333.35 70.1602 333.381 70.8398H332.355C332.324 70.4297 332.168 70.0938 331.887 69.832C331.609 69.5664 331.266 69.4336 330.855 69.4336C330.305 69.4336 329.877 69.6328 329.572 70.0312C329.271 70.4258 329.121 70.998 329.121 71.748V71.9531C329.121 72.6836 329.271 73.2461 329.572 73.6406C329.873 74.0352 330.303 74.2324 330.861 74.2324ZM335.684 69.4277C336.164 68.8379 336.789 68.543 337.559 68.543C338.898 68.543 339.574 69.2988 339.586 70.8105V75H338.502V70.8047C338.498 70.3477 338.393 70.0098 338.186 69.791C337.982 69.5723 337.664 69.4629 337.23 69.4629C336.879 69.4629 336.57 69.5566 336.305 69.7441C336.039 69.9316 335.832 70.1777 335.684 70.4824V75H334.6V66H335.684V69.4277Z" fill="#E3E5E8"/>
<path d="M361.898 190.842L364.335 183.805H365.566L362.402 192.336H361.406L358.248 183.805H359.472L361.898 190.842ZM367.722 192.336H366.638V185.996H367.722V192.336ZM366.55 184.314C366.55 184.139 366.603 183.99 366.708 183.869C366.818 183.748 366.978 183.688 367.189 183.688C367.4 183.688 367.56 183.748 367.669 183.869C367.779 183.99 367.833 184.139 367.833 184.314C367.833 184.49 367.779 184.637 367.669 184.754C367.56 184.871 367.4 184.93 367.189 184.93C366.978 184.93 366.818 184.871 366.708 184.754C366.603 184.637 366.55 184.49 366.55 184.314ZM373.154 190.654C373.154 190.361 373.042 190.135 372.82 189.975C372.601 189.811 372.216 189.67 371.666 189.553C371.119 189.436 370.683 189.295 370.359 189.131C370.039 188.967 369.8 188.771 369.644 188.545C369.492 188.318 369.416 188.049 369.416 187.736C369.416 187.217 369.634 186.777 370.072 186.418C370.513 186.059 371.076 185.879 371.759 185.879C372.478 185.879 373.06 186.064 373.505 186.436C373.955 186.807 374.179 187.281 374.179 187.859H373.089C373.089 187.562 372.962 187.307 372.708 187.092C372.458 186.877 372.142 186.77 371.759 186.77C371.365 186.77 371.056 186.855 370.833 187.027C370.611 187.199 370.499 187.424 370.499 187.701C370.499 187.963 370.603 188.16 370.81 188.293C371.017 188.426 371.39 188.553 371.929 188.674C372.472 188.795 372.912 188.939 373.248 189.107C373.583 189.275 373.832 189.479 373.992 189.717C374.156 189.951 374.238 190.238 374.238 190.578C374.238 191.145 374.011 191.6 373.558 191.943C373.105 192.283 372.517 192.453 371.794 192.453C371.287 192.453 370.837 192.363 370.447 192.184C370.056 192.004 369.749 191.754 369.527 191.434C369.308 191.109 369.199 190.76 369.199 190.385H370.283C370.302 190.748 370.447 191.037 370.716 191.252C370.99 191.463 371.349 191.568 371.794 191.568C372.205 191.568 372.533 191.486 372.779 191.322C373.029 191.154 373.154 190.932 373.154 190.654ZM379.564 191.709C379.142 192.205 378.523 192.453 377.707 192.453C377.031 192.453 376.515 192.258 376.16 191.867C375.808 191.473 375.63 190.891 375.626 190.121V185.996H376.71V190.092C376.71 191.053 377.101 191.533 377.882 191.533C378.71 191.533 379.261 191.225 379.535 190.607V185.996H380.619V192.336H379.587L379.564 191.709ZM386.185 192.336C386.123 192.211 386.072 191.988 386.033 191.668C385.529 192.191 384.927 192.453 384.228 192.453C383.603 192.453 383.089 192.277 382.687 191.926C382.289 191.57 382.089 191.121 382.089 190.578C382.089 189.918 382.339 189.406 382.839 189.043C383.343 188.676 384.05 188.492 384.96 188.492H386.015V187.994C386.015 187.615 385.902 187.314 385.675 187.092C385.449 186.865 385.115 186.752 384.673 186.752C384.287 186.752 383.962 186.85 383.701 187.045C383.439 187.24 383.308 187.477 383.308 187.754H382.218C382.218 187.438 382.33 187.133 382.552 186.84C382.779 186.543 383.083 186.309 383.466 186.137C383.853 185.965 384.277 185.879 384.738 185.879C385.468 185.879 386.041 186.062 386.455 186.43C386.869 186.793 387.083 187.295 387.099 187.936V190.854C387.099 191.436 387.173 191.898 387.322 192.242V192.336H386.185ZM384.386 191.51C384.726 191.51 385.048 191.422 385.353 191.246C385.658 191.07 385.878 190.842 386.015 190.561V189.26H385.166C383.837 189.26 383.173 189.648 383.173 190.426C383.173 190.766 383.287 191.031 383.513 191.223C383.74 191.414 384.031 191.51 384.386 191.51ZM389.976 192.336H388.892V183.336H389.976V192.336ZM357.128 206.336V197.805H359.537C360.279 197.805 360.935 197.969 361.505 198.297C362.076 198.625 362.515 199.092 362.824 199.697C363.136 200.303 363.294 200.998 363.298 201.783V202.328C363.298 203.133 363.142 203.838 362.83 204.443C362.521 205.049 362.078 205.514 361.499 205.838C360.925 206.162 360.255 206.328 359.49 206.336H357.128ZM358.253 198.73V205.416H359.437C360.304 205.416 360.978 205.146 361.458 204.607C361.943 204.068 362.185 203.301 362.185 202.305V201.807C362.185 200.838 361.957 200.086 361.499 199.551C361.046 199.012 360.402 198.738 359.566 198.73H358.253ZM367.464 206.453C366.605 206.453 365.906 206.172 365.367 205.609C364.828 205.043 364.558 204.287 364.558 203.342V203.143C364.558 202.514 364.677 201.953 364.916 201.461C365.158 200.965 365.494 200.578 365.923 200.301C366.357 200.02 366.826 199.879 367.33 199.879C368.154 199.879 368.794 200.15 369.251 200.693C369.708 201.236 369.937 202.014 369.937 203.025V203.477H365.642C365.658 204.102 365.839 204.607 366.187 204.994C366.539 205.377 366.984 205.568 367.523 205.568C367.906 205.568 368.23 205.49 368.496 205.334C368.761 205.178 368.994 204.971 369.193 204.713L369.855 205.229C369.324 206.045 368.527 206.453 367.464 206.453ZM367.33 200.77C366.892 200.77 366.525 200.93 366.228 201.25C365.931 201.566 365.748 202.012 365.677 202.586H368.853V202.504C368.822 201.953 368.673 201.527 368.408 201.227C368.142 200.922 367.783 200.77 367.33 200.77ZM374.888 204.654C374.888 204.361 374.777 204.135 374.554 203.975C374.335 203.811 373.951 203.67 373.4 203.553C372.853 203.436 372.417 203.295 372.093 203.131C371.773 202.967 371.535 202.771 371.378 202.545C371.226 202.318 371.15 202.049 371.15 201.736C371.15 201.217 371.369 200.777 371.806 200.418C372.248 200.059 372.81 199.879 373.494 199.879C374.212 199.879 374.794 200.064 375.24 200.436C375.689 200.807 375.914 201.281 375.914 201.859H374.824C374.824 201.562 374.697 201.307 374.443 201.092C374.193 200.877 373.876 200.77 373.494 200.77C373.099 200.77 372.791 200.855 372.568 201.027C372.345 201.199 372.234 201.424 372.234 201.701C372.234 201.963 372.337 202.16 372.544 202.293C372.751 202.426 373.124 202.553 373.664 202.674C374.207 202.795 374.646 202.939 374.982 203.107C375.318 203.275 375.566 203.479 375.726 203.717C375.89 203.951 375.972 204.238 375.972 204.578C375.972 205.145 375.746 205.6 375.292 205.943C374.839 206.283 374.251 206.453 373.529 206.453C373.021 206.453 372.572 206.363 372.181 206.184C371.791 206.004 371.484 205.754 371.261 205.434C371.042 205.109 370.933 204.76 370.933 204.385H372.017C372.037 204.748 372.181 205.037 372.451 205.252C372.724 205.463 373.083 205.568 373.529 205.568C373.939 205.568 374.267 205.486 374.513 205.322C374.763 205.154 374.888 204.932 374.888 204.654ZM378.562 206.336H377.478V199.996H378.562V206.336ZM377.39 198.314C377.39 198.139 377.443 197.99 377.548 197.869C377.658 197.748 377.818 197.688 378.029 197.688C378.24 197.688 378.4 197.748 378.509 197.869C378.619 197.99 378.673 198.139 378.673 198.314C378.673 198.49 378.619 198.637 378.509 198.754C378.4 198.871 378.24 198.93 378.029 198.93C377.818 198.93 377.658 198.871 377.548 198.754C377.443 198.637 377.39 198.49 377.39 198.314ZM380.044 203.113C380.044 202.125 380.273 201.34 380.73 200.758C381.187 200.172 381.792 199.879 382.546 199.879C383.32 199.879 383.923 200.152 384.357 200.699L384.41 199.996H385.4V206.184C385.4 207.004 385.156 207.65 384.667 208.123C384.183 208.596 383.531 208.832 382.71 208.832C382.253 208.832 381.806 208.734 381.369 208.539C380.931 208.344 380.597 208.076 380.367 207.736L380.929 207.086C381.394 207.66 381.962 207.947 382.634 207.947C383.162 207.947 383.572 207.799 383.865 207.502C384.162 207.205 384.31 206.787 384.31 206.248V205.703C383.876 206.203 383.285 206.453 382.535 206.453C381.792 206.453 381.191 206.154 380.73 205.557C380.273 204.959 380.044 204.145 380.044 203.113ZM381.134 203.236C381.134 203.951 381.281 204.514 381.574 204.924C381.867 205.33 382.277 205.533 382.804 205.533C383.488 205.533 383.99 205.223 384.31 204.602V201.707C383.978 201.102 383.48 200.799 382.816 200.799C382.289 200.799 381.876 201.004 381.58 201.414C381.283 201.824 381.134 202.432 381.134 203.236ZM388.066 199.996L388.101 200.793C388.585 200.184 389.218 199.879 389.999 199.879C391.339 199.879 392.015 200.635 392.027 202.146V206.336H390.943V202.141C390.939 201.684 390.833 201.346 390.626 201.127C390.423 200.908 390.105 200.799 389.671 200.799C389.32 200.799 389.011 200.893 388.746 201.08C388.48 201.268 388.273 201.514 388.124 201.818V206.336H387.041V199.996H388.066Z" fill="#E3E5E8"/>
<path d="M289.756 324.898H288.631V316.367H289.756V324.898ZM292.674 318.559L292.709 319.355C293.194 318.746 293.826 318.441 294.608 318.441C295.947 318.441 296.623 319.197 296.635 320.709V324.898H295.551V320.703C295.547 320.246 295.442 319.908 295.235 319.689C295.031 319.471 294.713 319.361 294.279 319.361C293.928 319.361 293.619 319.455 293.354 319.643C293.088 319.83 292.881 320.076 292.733 320.381V324.898H291.649V318.559H292.674ZM298.803 324.898V319.396H297.801V318.559H298.803V317.908C298.803 317.229 298.985 316.703 299.348 316.332C299.711 315.961 300.225 315.775 300.889 315.775C301.139 315.775 301.387 315.809 301.633 315.875L301.574 316.754C301.391 316.719 301.195 316.701 300.988 316.701C300.637 316.701 300.365 316.805 300.174 317.012C299.983 317.215 299.887 317.508 299.887 317.891V318.559H301.24V319.396H299.887V324.898H298.803ZM302.154 321.67C302.154 321.049 302.276 320.49 302.518 319.994C302.764 319.498 303.104 319.115 303.537 318.846C303.975 318.576 304.473 318.441 305.031 318.441C305.895 318.441 306.592 318.74 307.123 319.338C307.658 319.936 307.926 320.73 307.926 321.723V321.799C307.926 322.416 307.807 322.971 307.569 323.463C307.334 323.951 306.996 324.332 306.555 324.605C306.117 324.879 305.613 325.016 305.043 325.016C304.184 325.016 303.486 324.717 302.951 324.119C302.42 323.521 302.154 322.73 302.154 321.746V321.67ZM303.244 321.799C303.244 322.502 303.406 323.066 303.731 323.492C304.059 323.918 304.496 324.131 305.043 324.131C305.594 324.131 306.031 323.916 306.356 323.486C306.68 323.053 306.842 322.447 306.842 321.67C306.842 320.975 306.676 320.412 306.344 319.982C306.016 319.549 305.578 319.332 305.031 319.332C304.496 319.332 304.065 319.545 303.736 319.971C303.408 320.396 303.244 321.006 303.244 321.799ZM312.35 319.531C312.186 319.504 312.008 319.49 311.817 319.49C311.106 319.49 310.623 319.793 310.369 320.398V324.898H309.285V318.559H310.34L310.358 319.291C310.713 318.725 311.217 318.441 311.869 318.441C312.08 318.441 312.24 318.469 312.35 318.523V319.531ZM314.371 318.559L314.401 319.262C314.865 318.715 315.492 318.441 316.281 318.441C317.168 318.441 317.772 318.781 318.092 319.461C318.303 319.156 318.576 318.91 318.912 318.723C319.252 318.535 319.652 318.441 320.113 318.441C321.504 318.441 322.211 319.178 322.235 320.65V324.898H321.151V320.715C321.151 320.262 321.047 319.924 320.84 319.701C320.633 319.475 320.285 319.361 319.797 319.361C319.395 319.361 319.061 319.482 318.795 319.725C318.529 319.963 318.375 320.285 318.332 320.691V324.898H317.242V320.744C317.242 319.822 316.791 319.361 315.889 319.361C315.178 319.361 314.692 319.664 314.43 320.27V324.898H313.346V318.559H314.371ZM327.789 324.898C327.727 324.773 327.676 324.551 327.637 324.23C327.133 324.754 326.531 325.016 325.832 325.016C325.207 325.016 324.694 324.84 324.291 324.488C323.893 324.133 323.694 323.684 323.694 323.141C323.694 322.48 323.944 321.969 324.444 321.605C324.947 321.238 325.654 321.055 326.565 321.055H327.619V320.557C327.619 320.178 327.506 319.877 327.279 319.654C327.053 319.428 326.719 319.314 326.277 319.314C325.891 319.314 325.567 319.412 325.305 319.607C325.043 319.803 324.912 320.039 324.912 320.316H323.822C323.822 320 323.934 319.695 324.156 319.402C324.383 319.105 324.688 318.871 325.07 318.699C325.457 318.527 325.881 318.441 326.342 318.441C327.072 318.441 327.645 318.625 328.059 318.992C328.473 319.355 328.688 319.857 328.703 320.498V323.416C328.703 323.998 328.777 324.461 328.926 324.805V324.898H327.789ZM325.99 324.072C326.33 324.072 326.652 323.984 326.957 323.809C327.262 323.633 327.483 323.404 327.619 323.123V321.822H326.77C325.442 321.822 324.777 322.211 324.777 322.988C324.777 323.328 324.891 323.594 325.117 323.785C325.344 323.977 325.635 324.072 325.99 324.072ZM331.873 317.023V318.559H333.057V319.396H331.873V323.328C331.873 323.582 331.926 323.773 332.031 323.902C332.137 324.027 332.317 324.09 332.57 324.09C332.695 324.09 332.867 324.066 333.086 324.02V324.898C332.801 324.977 332.524 325.016 332.254 325.016C331.77 325.016 331.404 324.869 331.158 324.576C330.912 324.283 330.789 323.867 330.789 323.328V319.396H329.635V318.559H330.789V317.023H331.873ZM335.506 324.898H334.422V318.559H335.506V324.898ZM334.334 316.877C334.334 316.701 334.387 316.553 334.492 316.432C334.602 316.311 334.762 316.25 334.973 316.25C335.184 316.25 335.344 316.311 335.453 316.432C335.563 316.553 335.617 316.701 335.617 316.877C335.617 317.053 335.563 317.199 335.453 317.316C335.344 317.434 335.184 317.492 334.973 317.492C334.762 317.492 334.602 317.434 334.492 317.316C334.387 317.199 334.334 317.053 334.334 316.877ZM336.959 321.67C336.959 321.049 337.08 320.49 337.322 319.994C337.568 319.498 337.908 319.115 338.342 318.846C338.779 318.576 339.277 318.441 339.836 318.441C340.699 318.441 341.397 318.74 341.928 319.338C342.463 319.936 342.731 320.73 342.731 321.723V321.799C342.731 322.416 342.611 322.971 342.373 323.463C342.139 323.951 341.801 324.332 341.36 324.605C340.922 324.879 340.418 325.016 339.848 325.016C338.988 325.016 338.291 324.717 337.756 324.119C337.225 323.521 336.959 322.73 336.959 321.746V321.67ZM338.049 321.799C338.049 322.502 338.211 323.066 338.535 323.492C338.863 323.918 339.301 324.131 339.848 324.131C340.399 324.131 340.836 323.916 341.16 323.486C341.485 323.053 341.647 322.447 341.647 321.67C341.647 320.975 341.481 320.412 341.149 319.982C340.82 319.549 340.383 319.332 339.836 319.332C339.301 319.332 338.869 319.545 338.541 319.971C338.213 320.396 338.049 321.006 338.049 321.799ZM345.115 318.559L345.151 319.355C345.635 318.746 346.268 318.441 347.049 318.441C348.389 318.441 349.065 319.197 349.076 320.709V324.898H347.992V320.703C347.988 320.246 347.883 319.908 347.676 319.689C347.473 319.471 347.154 319.361 346.721 319.361C346.369 319.361 346.061 319.455 345.795 319.643C345.529 319.83 345.322 320.076 345.174 320.381V324.898H344.09V318.559H345.115ZM301.363 338.898V330.367H303.772C304.514 330.367 305.17 330.531 305.74 330.859C306.311 331.188 306.75 331.654 307.059 332.26C307.371 332.865 307.529 333.561 307.533 334.346V334.891C307.533 335.695 307.377 336.4 307.065 337.006C306.756 337.611 306.313 338.076 305.735 338.4C305.16 338.725 304.49 338.891 303.725 338.898H301.363ZM302.488 331.293V337.979H303.672C304.539 337.979 305.213 337.709 305.694 337.17C306.178 336.631 306.42 335.863 306.42 334.867V334.369C306.42 333.4 306.192 332.648 305.735 332.113C305.281 331.574 304.637 331.301 303.801 331.293H302.488ZM311.699 339.016C310.84 339.016 310.141 338.734 309.602 338.172C309.063 337.605 308.793 336.85 308.793 335.904V335.705C308.793 335.076 308.912 334.516 309.151 334.023C309.393 333.527 309.729 333.141 310.158 332.863C310.592 332.582 311.061 332.441 311.565 332.441C312.389 332.441 313.029 332.713 313.486 333.256C313.944 333.799 314.172 334.576 314.172 335.588V336.039H309.877C309.893 336.664 310.074 337.17 310.422 337.557C310.774 337.939 311.219 338.131 311.758 338.131C312.141 338.131 312.465 338.053 312.731 337.896C312.996 337.74 313.229 337.533 313.428 337.275L314.09 337.791C313.559 338.607 312.762 339.016 311.699 339.016ZM311.565 333.332C311.127 333.332 310.76 333.492 310.463 333.812C310.166 334.129 309.983 334.574 309.912 335.148H313.088V335.066C313.057 334.516 312.908 334.09 312.643 333.789C312.377 333.484 312.018 333.332 311.565 333.332ZM319.123 337.217C319.123 336.924 319.012 336.697 318.789 336.537C318.57 336.373 318.186 336.232 317.635 336.115C317.088 335.998 316.652 335.857 316.328 335.693C316.008 335.529 315.77 335.334 315.613 335.107C315.461 334.881 315.385 334.611 315.385 334.299C315.385 333.779 315.604 333.34 316.041 332.98C316.483 332.621 317.045 332.441 317.729 332.441C318.447 332.441 319.029 332.627 319.475 332.998C319.924 333.369 320.149 333.844 320.149 334.422H319.059C319.059 334.125 318.932 333.869 318.678 333.654C318.428 333.439 318.111 333.332 317.729 333.332C317.334 333.332 317.026 333.418 316.803 333.59C316.58 333.762 316.469 333.986 316.469 334.264C316.469 334.525 316.572 334.723 316.779 334.855C316.986 334.988 317.36 335.115 317.899 335.236C318.442 335.357 318.881 335.502 319.217 335.67C319.553 335.838 319.801 336.041 319.961 336.279C320.125 336.514 320.207 336.801 320.207 337.141C320.207 337.707 319.981 338.162 319.527 338.506C319.074 338.846 318.486 339.016 317.764 339.016C317.256 339.016 316.807 338.926 316.416 338.746C316.026 338.566 315.719 338.316 315.496 337.996C315.277 337.672 315.168 337.322 315.168 336.947H316.252C316.272 337.311 316.416 337.6 316.686 337.814C316.959 338.025 317.319 338.131 317.764 338.131C318.174 338.131 318.502 338.049 318.748 337.885C318.998 337.717 319.123 337.494 319.123 337.217ZM322.797 338.898H321.713V332.559H322.797V338.898ZM321.625 330.877C321.625 330.701 321.678 330.553 321.783 330.432C321.893 330.311 322.053 330.25 322.264 330.25C322.475 330.25 322.635 330.311 322.744 330.432C322.854 330.553 322.908 330.701 322.908 330.877C322.908 331.053 322.854 331.199 322.744 331.316C322.635 331.434 322.475 331.492 322.264 331.492C322.053 331.492 321.893 331.434 321.783 331.316C321.678 331.199 321.625 331.053 321.625 330.877ZM324.279 335.676C324.279 334.688 324.508 333.902 324.965 333.32C325.422 332.734 326.027 332.441 326.781 332.441C327.555 332.441 328.158 332.715 328.592 333.262L328.645 332.559H329.635V338.746C329.635 339.566 329.391 340.213 328.902 340.686C328.418 341.158 327.766 341.395 326.945 341.395C326.488 341.395 326.041 341.297 325.604 341.102C325.166 340.906 324.832 340.639 324.602 340.299L325.164 339.648C325.629 340.223 326.197 340.51 326.869 340.51C327.397 340.51 327.807 340.361 328.1 340.064C328.397 339.768 328.545 339.35 328.545 338.811V338.266C328.111 338.766 327.52 339.016 326.77 339.016C326.027 339.016 325.426 338.717 324.965 338.119C324.508 337.521 324.279 336.707 324.279 335.676ZM325.369 335.799C325.369 336.514 325.516 337.076 325.809 337.486C326.102 337.893 326.512 338.096 327.039 338.096C327.723 338.096 328.225 337.785 328.545 337.164V334.27C328.213 333.664 327.715 333.361 327.051 333.361C326.524 333.361 326.111 333.566 325.815 333.977C325.518 334.387 325.369 334.994 325.369 335.799ZM332.301 332.559L332.336 333.355C332.82 332.746 333.453 332.441 334.235 332.441C335.574 332.441 336.25 333.197 336.262 334.709V338.898H335.178V334.703C335.174 334.246 335.068 333.908 334.861 333.689C334.658 333.471 334.34 333.361 333.906 333.361C333.555 333.361 333.246 333.455 332.981 333.643C332.715 333.83 332.508 334.076 332.36 334.381V338.898H331.276V332.559H332.301Z" fill="#E3E5E8"/>
<path d="M165.04 369.836H163.915V361.305H165.04V369.836ZM167.958 363.496L167.993 364.293C168.478 363.684 169.111 363.379 169.892 363.379C171.232 363.379 171.907 364.135 171.919 365.646V369.836H170.835V365.641C170.831 365.184 170.726 364.846 170.519 364.627C170.316 364.408 169.997 364.299 169.564 364.299C169.212 364.299 168.904 364.393 168.638 364.58C168.372 364.768 168.165 365.014 168.017 365.318V369.836H166.933V363.496H167.958ZM175.025 361.961V363.496H176.208V364.334H175.025V368.266C175.025 368.52 175.077 368.711 175.183 368.84C175.288 368.965 175.468 369.027 175.722 369.027C175.847 369.027 176.019 369.004 176.238 368.957V369.836C175.952 369.914 175.675 369.953 175.405 369.953C174.921 369.953 174.556 369.807 174.31 369.514C174.064 369.221 173.941 368.805 173.941 368.266V364.334H172.786V363.496H173.941V361.961H175.025ZM180.111 369.953C179.251 369.953 178.552 369.672 178.013 369.109C177.474 368.543 177.204 367.787 177.204 366.842V366.643C177.204 366.014 177.323 365.453 177.562 364.961C177.804 364.465 178.14 364.078 178.57 363.801C179.003 363.52 179.472 363.379 179.976 363.379C180.8 363.379 181.441 363.65 181.898 364.193C182.355 364.736 182.583 365.514 182.583 366.525V366.977H178.288C178.304 367.602 178.486 368.107 178.833 368.494C179.185 368.877 179.63 369.068 180.169 369.068C180.552 369.068 180.876 368.99 181.142 368.834C181.407 368.678 181.64 368.471 181.839 368.213L182.501 368.729C181.97 369.545 181.173 369.953 180.111 369.953ZM179.976 364.27C179.538 364.27 179.171 364.43 178.874 364.75C178.577 365.066 178.394 365.512 178.323 366.086H181.499V366.004C181.468 365.453 181.32 365.027 181.054 364.727C180.788 364.422 180.429 364.27 179.976 364.27ZM186.907 364.469C186.743 364.441 186.566 364.428 186.374 364.428C185.663 364.428 185.181 364.73 184.927 365.336V369.836H183.843V363.496H184.898L184.915 364.229C185.271 363.662 185.775 363.379 186.427 363.379C186.638 363.379 186.798 363.406 186.907 363.461V364.469ZM191.589 369.836C191.527 369.711 191.476 369.488 191.437 369.168C190.933 369.691 190.331 369.953 189.632 369.953C189.007 369.953 188.493 369.777 188.091 369.426C187.693 369.07 187.493 368.621 187.493 368.078C187.493 367.418 187.743 366.906 188.243 366.543C188.747 366.176 189.454 365.992 190.364 365.992H191.419V365.494C191.419 365.115 191.306 364.814 191.079 364.592C190.853 364.365 190.519 364.252 190.077 364.252C189.691 364.252 189.366 364.35 189.105 364.545C188.843 364.74 188.712 364.977 188.712 365.254H187.622C187.622 364.938 187.734 364.633 187.956 364.34C188.183 364.043 188.488 363.809 188.87 363.637C189.257 363.465 189.681 363.379 190.142 363.379C190.872 363.379 191.445 363.562 191.859 363.93C192.273 364.293 192.488 364.795 192.503 365.436V368.354C192.503 368.936 192.577 369.398 192.726 369.742V369.836H191.589ZM189.79 369.01C190.13 369.01 190.452 368.922 190.757 368.746C191.062 368.57 191.282 368.342 191.419 368.061V366.76H190.57C189.241 366.76 188.577 367.148 188.577 367.926C188.577 368.266 188.691 368.531 188.917 368.723C189.144 368.914 189.435 369.01 189.79 369.01ZM196.745 369.068C197.132 369.068 197.47 368.951 197.759 368.717C198.048 368.482 198.208 368.189 198.239 367.838H199.265C199.245 368.201 199.12 368.547 198.89 368.875C198.659 369.203 198.351 369.465 197.964 369.66C197.581 369.855 197.175 369.953 196.745 369.953C195.882 369.953 195.195 369.666 194.683 369.092C194.175 368.514 193.921 367.725 193.921 366.725V366.543C193.921 365.926 194.034 365.377 194.261 364.896C194.488 364.416 194.812 364.043 195.234 363.777C195.659 363.512 196.161 363.379 196.739 363.379C197.45 363.379 198.04 363.592 198.509 364.018C198.982 364.443 199.234 364.996 199.265 365.676H198.239C198.208 365.266 198.052 364.93 197.771 364.668C197.493 364.402 197.15 364.27 196.739 364.27C196.189 364.27 195.761 364.469 195.456 364.867C195.155 365.262 195.005 365.834 195.005 366.584V366.789C195.005 367.52 195.155 368.082 195.456 368.477C195.757 368.871 196.187 369.068 196.745 369.068ZM201.954 361.961V363.496H203.138V364.334H201.954V368.266C201.954 368.52 202.007 368.711 202.113 368.84C202.218 368.965 202.398 369.027 202.652 369.027C202.777 369.027 202.948 369.004 203.167 368.957V369.836C202.882 369.914 202.605 369.953 202.335 369.953C201.851 369.953 201.486 369.807 201.239 369.514C200.993 369.221 200.87 368.805 200.87 368.266V364.334H199.716V363.496H200.87V361.961H201.954ZM205.587 369.836H204.503V363.496H205.587V369.836ZM204.415 361.814C204.415 361.639 204.468 361.49 204.573 361.369C204.683 361.248 204.843 361.188 205.054 361.188C205.265 361.188 205.425 361.248 205.534 361.369C205.644 361.49 205.698 361.639 205.698 361.814C205.698 361.99 205.644 362.137 205.534 362.254C205.425 362.371 205.265 362.43 205.054 362.43C204.843 362.43 204.683 362.371 204.573 362.254C204.468 362.137 204.415 361.99 204.415 361.814ZM207.04 366.607C207.04 365.986 207.161 365.428 207.404 364.932C207.65 364.436 207.989 364.053 208.423 363.783C208.861 363.514 209.359 363.379 209.917 363.379C210.78 363.379 211.478 363.678 212.009 364.275C212.544 364.873 212.812 365.668 212.812 366.66V366.736C212.812 367.354 212.693 367.908 212.454 368.4C212.22 368.889 211.882 369.27 211.441 369.543C211.003 369.816 210.499 369.953 209.929 369.953C209.07 369.953 208.372 369.654 207.837 369.057C207.306 368.459 207.04 367.668 207.04 366.684V366.607ZM208.13 366.736C208.13 367.439 208.292 368.004 208.616 368.43C208.945 368.855 209.382 369.068 209.929 369.068C210.48 369.068 210.917 368.854 211.241 368.424C211.566 367.99 211.728 367.385 211.728 366.607C211.728 365.912 211.562 365.35 211.23 364.92C210.902 364.486 210.464 364.27 209.917 364.27C209.382 364.27 208.95 364.482 208.622 364.908C208.294 365.334 208.13 365.943 208.13 366.736ZM215.196 363.496L215.232 364.293C215.716 363.684 216.349 363.379 217.13 363.379C218.47 363.379 219.146 364.135 219.157 365.646V369.836H218.073V365.641C218.07 365.184 217.964 364.846 217.757 364.627C217.554 364.408 217.236 364.299 216.802 364.299C216.45 364.299 216.142 364.393 215.876 364.58C215.611 364.768 215.404 365.014 215.255 365.318V369.836H214.171V363.496H215.196ZM174.046 383.836V375.305H176.454C177.196 375.305 177.853 375.469 178.423 375.797C178.993 376.125 179.433 376.592 179.741 377.197C180.054 377.803 180.212 378.498 180.216 379.283V379.828C180.216 380.633 180.06 381.338 179.747 381.943C179.439 382.549 178.995 383.014 178.417 383.338C177.843 383.662 177.173 383.828 176.407 383.836H174.046ZM175.171 376.23V382.916H176.355C177.222 382.916 177.896 382.646 178.376 382.107C178.861 381.568 179.103 380.801 179.103 379.805V379.307C179.103 378.338 178.874 377.586 178.417 377.051C177.964 376.512 177.32 376.238 176.484 376.23H175.171ZM184.382 383.953C183.523 383.953 182.823 383.672 182.284 383.109C181.745 382.543 181.476 381.787 181.476 380.842V380.643C181.476 380.014 181.595 379.453 181.833 378.961C182.075 378.465 182.411 378.078 182.841 377.801C183.275 377.52 183.743 377.379 184.247 377.379C185.071 377.379 185.712 377.65 186.169 378.193C186.626 378.736 186.855 379.514 186.855 380.525V380.977H182.56C182.575 381.602 182.757 382.107 183.105 382.494C183.456 382.877 183.902 383.068 184.441 383.068C184.823 383.068 185.148 382.99 185.413 382.834C185.679 382.678 185.911 382.471 186.111 382.213L186.773 382.729C186.241 383.545 185.445 383.953 184.382 383.953ZM184.247 378.27C183.81 378.27 183.443 378.43 183.146 378.75C182.849 379.066 182.665 379.512 182.595 380.086H185.771V380.004C185.739 379.453 185.591 379.027 185.325 378.727C185.06 378.422 184.7 378.27 184.247 378.27ZM191.806 382.154C191.806 381.861 191.695 381.635 191.472 381.475C191.253 381.311 190.868 381.17 190.318 381.053C189.771 380.936 189.335 380.795 189.011 380.631C188.691 380.467 188.452 380.271 188.296 380.045C188.144 379.818 188.068 379.549 188.068 379.236C188.068 378.717 188.286 378.277 188.724 377.918C189.165 377.559 189.728 377.379 190.411 377.379C191.13 377.379 191.712 377.564 192.157 377.936C192.607 378.307 192.831 378.781 192.831 379.359H191.741C191.741 379.062 191.614 378.807 191.361 378.592C191.111 378.377 190.794 378.27 190.411 378.27C190.017 378.27 189.708 378.355 189.486 378.527C189.263 378.699 189.152 378.924 189.152 379.201C189.152 379.463 189.255 379.66 189.462 379.793C189.669 379.926 190.042 380.053 190.581 380.174C191.124 380.295 191.564 380.439 191.9 380.607C192.236 380.775 192.484 380.979 192.644 381.217C192.808 381.451 192.89 381.738 192.89 382.078C192.89 382.645 192.663 383.1 192.21 383.443C191.757 383.783 191.169 383.953 190.446 383.953C189.939 383.953 189.489 383.863 189.099 383.684C188.708 383.504 188.402 383.254 188.179 382.934C187.96 382.609 187.851 382.26 187.851 381.885H188.935C188.954 382.248 189.099 382.537 189.368 382.752C189.642 382.963 190.001 383.068 190.446 383.068C190.857 383.068 191.185 382.986 191.431 382.822C191.681 382.654 191.806 382.432 191.806 382.154ZM195.48 383.836H194.396V377.496H195.48V383.836ZM194.308 375.814C194.308 375.639 194.361 375.49 194.466 375.369C194.575 375.248 194.736 375.188 194.946 375.188C195.157 375.188 195.318 375.248 195.427 375.369C195.536 375.49 195.591 375.639 195.591 375.814C195.591 375.99 195.536 376.137 195.427 376.254C195.318 376.371 195.157 376.43 194.946 376.43C194.736 376.43 194.575 376.371 194.466 376.254C194.361 376.137 194.308 375.99 194.308 375.814ZM196.962 380.613C196.962 379.625 197.191 378.84 197.648 378.258C198.105 377.672 198.71 377.379 199.464 377.379C200.238 377.379 200.841 377.652 201.275 378.199L201.327 377.496H202.318V383.684C202.318 384.504 202.073 385.15 201.585 385.623C201.101 386.096 200.448 386.332 199.628 386.332C199.171 386.332 198.724 386.234 198.286 386.039C197.849 385.844 197.515 385.576 197.284 385.236L197.847 384.586C198.312 385.16 198.88 385.447 199.552 385.447C200.079 385.447 200.489 385.299 200.782 385.002C201.079 384.705 201.228 384.287 201.228 383.748V383.203C200.794 383.703 200.202 383.953 199.452 383.953C198.71 383.953 198.109 383.654 197.648 383.057C197.191 382.459 196.962 381.645 196.962 380.613ZM198.052 380.736C198.052 381.451 198.198 382.014 198.491 382.424C198.784 382.83 199.195 383.033 199.722 383.033C200.405 383.033 200.907 382.723 201.228 382.102V379.207C200.896 378.602 200.398 378.299 199.734 378.299C199.206 378.299 198.794 378.504 198.497 378.914C198.2 379.324 198.052 379.932 198.052 380.736ZM204.984 377.496L205.019 378.293C205.503 377.684 206.136 377.379 206.917 377.379C208.257 377.379 208.933 378.135 208.945 379.646V383.836H207.861V379.641C207.857 379.184 207.751 378.846 207.544 378.627C207.341 378.408 207.023 378.299 206.589 378.299C206.238 378.299 205.929 378.393 205.663 378.58C205.398 378.768 205.191 379.014 205.042 379.318V383.836H203.958V377.496H204.984Z" fill="#E3E5E8"/>
<path d="M47.0793 323.408H43.4992V327.176H42.3742V318.645H47.6594V319.57H43.4992V322.488H47.0793V323.408ZM52.552 327.176C52.4895 327.051 52.4387 326.828 52.3996 326.508C51.8957 327.031 51.2942 327.293 50.5949 327.293C49.9699 327.293 49.4563 327.117 49.0539 326.766C48.6555 326.41 48.4563 325.961 48.4563 325.418C48.4563 324.758 48.7063 324.246 49.2063 323.883C49.7102 323.516 50.4172 323.332 51.3274 323.332H52.382V322.834C52.382 322.455 52.2688 322.154 52.0422 321.932C51.8156 321.705 51.4817 321.592 51.0402 321.592C50.6535 321.592 50.3293 321.689 50.0676 321.885C49.8059 322.08 49.675 322.316 49.675 322.594H48.5852C48.5852 322.277 48.6965 321.973 48.9192 321.68C49.1457 321.383 49.4504 321.148 49.8332 320.977C50.2199 320.805 50.6438 320.719 51.1047 320.719C51.8352 320.719 52.4074 320.902 52.8215 321.27C53.2356 321.633 53.4504 322.135 53.466 322.775V325.693C53.466 326.275 53.5402 326.738 53.6887 327.082V327.176H52.552ZM50.7531 326.35C51.093 326.35 51.4152 326.262 51.7199 326.086C52.0246 325.91 52.2453 325.682 52.382 325.4V324.1H51.5324C50.2043 324.1 49.5402 324.488 49.5402 325.266C49.5402 325.605 49.6535 325.871 49.8801 326.062C50.1067 326.254 50.3977 326.35 50.7531 326.35ZM58.8567 325.494C58.8567 325.201 58.7453 324.975 58.5227 324.814C58.3039 324.65 57.9192 324.51 57.3684 324.393C56.8215 324.275 56.3859 324.135 56.0617 323.971C55.7414 323.807 55.5031 323.611 55.3469 323.385C55.1945 323.158 55.1184 322.889 55.1184 322.576C55.1184 322.057 55.3371 321.617 55.7746 321.258C56.216 320.898 56.7785 320.719 57.4621 320.719C58.1809 320.719 58.7629 320.904 59.2082 321.275C59.6574 321.646 59.882 322.121 59.882 322.699H58.7922C58.7922 322.402 58.6652 322.146 58.4113 321.932C58.1613 321.717 57.8449 321.609 57.4621 321.609C57.0676 321.609 56.759 321.695 56.5363 321.867C56.3137 322.039 56.2024 322.264 56.2024 322.541C56.2024 322.803 56.3059 323 56.5129 323.133C56.7199 323.266 57.093 323.393 57.632 323.514C58.175 323.635 58.6145 323.779 58.9504 323.947C59.2863 324.115 59.5344 324.318 59.6945 324.557C59.8586 324.791 59.9406 325.078 59.9406 325.418C59.9406 325.984 59.7141 326.439 59.2609 326.783C58.8078 327.123 58.2199 327.293 57.4973 327.293C56.9895 327.293 56.5402 327.203 56.1496 327.023C55.759 326.844 55.4524 326.594 55.2297 326.273C55.0109 325.949 54.9016 325.6 54.9016 325.225H55.9856C56.0051 325.588 56.1496 325.877 56.4192 326.092C56.6926 326.303 57.052 326.408 57.4973 326.408C57.9074 326.408 58.2356 326.326 58.4817 326.162C58.7317 325.994 58.8567 325.771 58.8567 325.494ZM62.8234 319.301V320.836H64.007V321.674H62.8234V325.605C62.8234 325.859 62.8762 326.051 62.9817 326.18C63.0871 326.305 63.2668 326.367 63.5207 326.367C63.6457 326.367 63.8176 326.344 64.0363 326.297V327.176C63.7512 327.254 63.4738 327.293 63.2043 327.293C62.7199 327.293 62.3547 327.146 62.1086 326.854C61.8625 326.561 61.7395 326.145 61.7395 325.605V321.674H60.5852V320.836H61.7395V319.301H62.8234ZM69.632 327.176H68.507V318.645H69.632V327.176ZM72.9953 319.301V320.836H74.1789V321.674H72.9953V325.605C72.9953 325.859 73.0481 326.051 73.1535 326.18C73.259 326.305 73.4387 326.367 73.6926 326.367C73.8176 326.367 73.9895 326.344 74.2082 326.297V327.176C73.9231 327.254 73.6457 327.293 73.3762 327.293C72.8918 327.293 72.5266 327.146 72.2805 326.854C72.0344 326.561 71.9113 326.145 71.9113 325.605V321.674H70.757V320.836H71.9113V319.301H72.9953ZM78.0813 327.293C77.2219 327.293 76.5227 327.012 75.9836 326.449C75.4445 325.883 75.175 325.127 75.175 324.182V323.982C75.175 323.354 75.2942 322.793 75.5324 322.301C75.7746 321.805 76.1106 321.418 76.5402 321.141C76.9738 320.859 77.4426 320.719 77.9465 320.719C78.7707 320.719 79.4113 320.99 79.8684 321.533C80.3254 322.076 80.5539 322.854 80.5539 323.865V324.316H76.259C76.2746 324.941 76.4563 325.447 76.8039 325.834C77.1555 326.217 77.6008 326.408 78.1399 326.408C78.5227 326.408 78.8469 326.33 79.1125 326.174C79.3781 326.018 79.6106 325.811 79.8098 325.553L80.4719 326.068C79.9406 326.885 79.1438 327.293 78.0813 327.293ZM77.9465 321.609C77.509 321.609 77.1418 321.77 76.8449 322.09C76.5481 322.406 76.3645 322.852 76.2942 323.426H79.4699V323.344C79.4387 322.793 79.2902 322.367 79.0246 322.066C78.759 321.762 78.3996 321.609 77.9465 321.609ZM84.8781 321.809C84.7141 321.781 84.5363 321.768 84.3449 321.768C83.634 321.768 83.1516 322.07 82.8977 322.676V327.176H81.8137V320.836H82.8684L82.8859 321.568C83.2414 321.002 83.7453 320.719 84.3977 320.719C84.6086 320.719 84.7688 320.746 84.8781 320.801V321.809ZM89.5598 327.176C89.4973 327.051 89.4465 326.828 89.4074 326.508C88.9035 327.031 88.302 327.293 87.6027 327.293C86.9777 327.293 86.4641 327.117 86.0617 326.766C85.6633 326.41 85.4641 325.961 85.4641 325.418C85.4641 324.758 85.7141 324.246 86.2141 323.883C86.718 323.516 87.425 323.332 88.3352 323.332H89.3899V322.834C89.3899 322.455 89.2766 322.154 89.05 321.932C88.8234 321.705 88.4895 321.592 88.0481 321.592C87.6613 321.592 87.3371 321.689 87.0754 321.885C86.8137 322.08 86.6828 322.316 86.6828 322.594H85.593C85.593 322.277 85.7043 321.973 85.927 321.68C86.1535 321.383 86.4582 321.148 86.841 320.977C87.2277 320.805 87.6516 320.719 88.1125 320.719C88.843 320.719 89.4152 320.902 89.8293 321.27C90.2434 321.633 90.4582 322.135 90.4738 322.775V325.693C90.4738 326.275 90.5481 326.738 90.6965 327.082V327.176H89.5598ZM87.7609 326.35C88.1008 326.35 88.4231 326.262 88.7277 326.086C89.0324 325.91 89.2531 325.682 89.3899 325.4V324.1H88.5402C87.2121 324.1 86.5481 324.488 86.5481 325.266C86.5481 325.605 86.6613 325.871 86.8879 326.062C87.1145 326.254 87.4055 326.35 87.7609 326.35ZM93.6438 319.301V320.836H94.8274V321.674H93.6438V325.605C93.6438 325.859 93.6965 326.051 93.802 326.18C93.9074 326.305 94.0871 326.367 94.341 326.367C94.466 326.367 94.6379 326.344 94.8567 326.297V327.176C94.5715 327.254 94.2942 327.293 94.0246 327.293C93.5402 327.293 93.175 327.146 92.9289 326.854C92.6828 326.561 92.5598 326.145 92.5598 325.605V321.674H91.4055V320.836H92.5598V319.301H93.6438ZM97.2766 327.176H96.1926V320.836H97.2766V327.176ZM96.1047 319.154C96.1047 318.979 96.1574 318.83 96.2629 318.709C96.3723 318.588 96.5324 318.527 96.7434 318.527C96.9543 318.527 97.1145 318.588 97.2238 318.709C97.3332 318.83 97.3879 318.979 97.3879 319.154C97.3879 319.33 97.3332 319.477 97.2238 319.594C97.1145 319.711 96.9543 319.77 96.7434 319.77C96.5324 319.77 96.3723 319.711 96.2629 319.594C96.1574 319.477 96.1047 319.33 96.1047 319.154ZM98.7297 323.947C98.7297 323.326 98.8508 322.768 99.093 322.271C99.3391 321.775 99.6789 321.393 100.113 321.123C100.55 320.854 101.048 320.719 101.607 320.719C102.47 320.719 103.167 321.018 103.698 321.615C104.234 322.213 104.501 323.008 104.501 324V324.076C104.501 324.693 104.382 325.248 104.144 325.74C103.909 326.229 103.571 326.609 103.13 326.883C102.693 327.156 102.189 327.293 101.618 327.293C100.759 327.293 100.062 326.994 99.5266 326.396C98.9953 325.799 98.7297 325.008 98.7297 324.023V323.947ZM99.8195 324.076C99.8195 324.779 99.9817 325.344 100.306 325.77C100.634 326.195 101.071 326.408 101.618 326.408C102.169 326.408 102.607 326.193 102.931 325.764C103.255 325.33 103.417 324.725 103.417 323.947C103.417 323.252 103.251 322.689 102.919 322.26C102.591 321.826 102.154 321.609 101.607 321.609C101.071 321.609 100.64 321.822 100.312 322.248C99.9836 322.674 99.8195 323.283 99.8195 324.076ZM106.886 320.836L106.921 321.633C107.405 321.023 108.038 320.719 108.82 320.719C110.159 320.719 110.835 321.475 110.847 322.986V327.176H109.763V322.98C109.759 322.523 109.654 322.186 109.446 321.967C109.243 321.748 108.925 321.639 108.491 321.639C108.14 321.639 107.831 321.732 107.566 321.92C107.3 322.107 107.093 322.354 106.945 322.658V327.176H105.861V320.836H106.886ZM43.6223 332.645L46.4113 339.605L49.2004 332.645H50.6594V341.176H49.5344V337.854L49.6399 334.268L46.8391 341.176H45.9777L43.1828 334.285L43.2942 337.854V341.176H42.1692V332.645H43.6223ZM56.3899 341.176C56.3274 341.051 56.2766 340.828 56.2375 340.508C55.7336 341.031 55.132 341.293 54.4328 341.293C53.8078 341.293 53.2942 341.117 52.8918 340.766C52.4934 340.41 52.2942 339.961 52.2942 339.418C52.2942 338.758 52.5442 338.246 53.0442 337.883C53.5481 337.516 54.2551 337.332 55.1652 337.332H56.2199V336.834C56.2199 336.455 56.1067 336.154 55.8801 335.932C55.6535 335.705 55.3195 335.592 54.8781 335.592C54.4914 335.592 54.1672 335.689 53.9055 335.885C53.6438 336.08 53.5129 336.316 53.5129 336.594H52.4231C52.4231 336.277 52.5344 335.973 52.757 335.68C52.9836 335.383 53.2883 335.148 53.6711 334.977C54.0578 334.805 54.4817 334.719 54.9426 334.719C55.6731 334.719 56.2453 334.902 56.6594 335.27C57.0734 335.633 57.2883 336.135 57.3039 336.775V339.693C57.3039 340.275 57.3781 340.738 57.5266 341.082V341.176H56.3899ZM54.591 340.35C54.9309 340.35 55.2531 340.262 55.5578 340.086C55.8625 339.91 56.0832 339.682 56.2199 339.4V338.1H55.3703C54.0422 338.1 53.3781 338.488 53.3781 339.266C53.3781 339.605 53.4914 339.871 53.718 340.062C53.9445 340.254 54.2356 340.35 54.591 340.35ZM60.0285 334.836L60.0637 335.633C60.5481 335.023 61.1809 334.719 61.9621 334.719C63.302 334.719 63.9777 335.475 63.9895 336.986V341.176H62.9055V336.98C62.9016 336.523 62.7961 336.186 62.5891 335.967C62.3859 335.748 62.0676 335.639 61.634 335.639C61.2824 335.639 60.9738 335.732 60.7082 335.92C60.4426 336.107 60.2356 336.354 60.0871 336.658V341.176H59.0031V334.836H60.0285ZM69.5383 341.176C69.4758 341.051 69.425 340.828 69.3859 340.508C68.882 341.031 68.2805 341.293 67.5813 341.293C66.9563 341.293 66.4426 341.117 66.0402 340.766C65.6418 340.41 65.4426 339.961 65.4426 339.418C65.4426 338.758 65.6926 338.246 66.1926 337.883C66.6965 337.516 67.4035 337.332 68.3137 337.332H69.3684V336.834C69.3684 336.455 69.2551 336.154 69.0285 335.932C68.802 335.705 68.468 335.592 68.0266 335.592C67.6399 335.592 67.3156 335.689 67.0539 335.885C66.7922 336.08 66.6613 336.316 66.6613 336.594H65.5715C65.5715 336.277 65.6828 335.973 65.9055 335.68C66.132 335.383 66.4367 335.148 66.8195 334.977C67.2063 334.805 67.6301 334.719 68.091 334.719C68.8215 334.719 69.3938 334.902 69.8078 335.27C70.2219 335.633 70.4367 336.135 70.4524 336.775V339.693C70.4524 340.275 70.5266 340.738 70.675 341.082V341.176H69.5383ZM67.7395 340.35C68.0793 340.35 68.4016 340.262 68.7063 340.086C69.0109 339.91 69.2317 339.682 69.3684 339.4V338.1H68.5188C67.1906 338.1 66.5266 338.488 66.5266 339.266C66.5266 339.605 66.6399 339.871 66.8664 340.062C67.093 340.254 67.384 340.35 67.7395 340.35ZM71.8938 337.953C71.8938 336.965 72.1223 336.18 72.5793 335.598C73.0363 335.012 73.6418 334.719 74.3957 334.719C75.1692 334.719 75.7727 334.992 76.2063 335.539L76.259 334.836H77.2492V341.023C77.2492 341.844 77.0051 342.49 76.5168 342.963C76.0324 343.436 75.3801 343.672 74.5598 343.672C74.1027 343.672 73.6555 343.574 73.218 343.379C72.7805 343.184 72.4465 342.916 72.216 342.576L72.7785 341.926C73.2434 342.5 73.8117 342.787 74.4836 342.787C75.0109 342.787 75.4211 342.639 75.7141 342.342C76.0109 342.045 76.1594 341.627 76.1594 341.088V340.543C75.7258 341.043 75.134 341.293 74.384 341.293C73.6418 341.293 73.0402 340.994 72.5793 340.396C72.1223 339.799 71.8938 338.984 71.8938 337.953ZM72.9836 338.076C72.9836 338.791 73.1301 339.354 73.4231 339.764C73.716 340.17 74.1262 340.373 74.6535 340.373C75.3371 340.373 75.8391 340.062 76.1594 339.441V336.547C75.8274 335.941 75.3293 335.639 74.6652 335.639C74.1379 335.639 73.7258 335.844 73.4289 336.254C73.132 336.664 72.9836 337.271 72.9836 338.076ZM81.5207 341.293C80.6613 341.293 79.9621 341.012 79.4231 340.449C78.884 339.883 78.6145 339.127 78.6145 338.182V337.982C78.6145 337.354 78.7336 336.793 78.9719 336.301C79.2141 335.805 79.55 335.418 79.9797 335.141C80.4133 334.859 80.882 334.719 81.3859 334.719C82.2102 334.719 82.8508 334.99 83.3078 335.533C83.7649 336.076 83.9934 336.854 83.9934 337.865V338.316H79.6984C79.7141 338.941 79.8957 339.447 80.2434 339.834C80.5949 340.217 81.0402 340.408 81.5793 340.408C81.9621 340.408 82.2863 340.33 82.552 340.174C82.8176 340.018 83.05 339.811 83.2492 339.553L83.9113 340.068C83.3801 340.885 82.5832 341.293 81.5207 341.293ZM81.3859 335.609C80.9484 335.609 80.5813 335.77 80.2844 336.09C79.9875 336.406 79.8039 336.852 79.7336 337.426H82.9094V337.344C82.8781 336.793 82.7297 336.367 82.4641 336.066C82.1984 335.762 81.8391 335.609 81.3859 335.609ZM86.2727 334.836L86.302 335.539C86.7668 334.992 87.3938 334.719 88.1828 334.719C89.0695 334.719 89.6731 335.059 89.9934 335.738C90.2043 335.434 90.4777 335.188 90.8137 335C91.1535 334.812 91.5539 334.719 92.0149 334.719C93.4055 334.719 94.1125 335.455 94.1359 336.928V341.176H93.052V336.992C93.052 336.539 92.9484 336.201 92.7414 335.979C92.5344 335.752 92.1867 335.639 91.6984 335.639C91.2961 335.639 90.9621 335.76 90.6965 336.002C90.4309 336.24 90.2766 336.562 90.2336 336.969V341.176H89.1438V337.021C89.1438 336.1 88.6926 335.639 87.7902 335.639C87.0793 335.639 86.593 335.941 86.3313 336.547V341.176H85.2473V334.836H86.2727ZM98.4074 341.293C97.5481 341.293 96.8488 341.012 96.3098 340.449C95.7707 339.883 95.5012 339.127 95.5012 338.182V337.982C95.5012 337.354 95.6203 336.793 95.8586 336.301C96.1008 335.805 96.4367 335.418 96.8664 335.141C97.3 334.859 97.7688 334.719 98.2727 334.719C99.0969 334.719 99.7375 334.99 100.195 335.533C100.652 336.076 100.88 336.854 100.88 337.865V338.316H96.5852C96.6008 338.941 96.7824 339.447 97.1301 339.834C97.4817 340.217 97.927 340.408 98.466 340.408C98.8488 340.408 99.1731 340.33 99.4387 340.174C99.7043 340.018 99.9367 339.811 100.136 339.553L100.798 340.068C100.267 340.885 99.4699 341.293 98.4074 341.293ZM98.2727 335.609C97.8352 335.609 97.468 335.77 97.1711 336.09C96.8742 336.406 96.6906 336.852 96.6203 337.426H99.7961V337.344C99.7649 336.793 99.6164 336.367 99.3508 336.066C99.0852 335.762 98.7258 335.609 98.2727 335.609ZM103.165 334.836L103.2 335.633C103.685 335.023 104.318 334.719 105.099 334.719C106.439 334.719 107.114 335.475 107.126 336.986V341.176H106.042V336.98C106.038 336.523 105.933 336.186 105.726 335.967C105.523 335.748 105.204 335.639 104.771 335.639C104.419 335.639 104.111 335.732 103.845 335.92C103.579 336.107 103.372 336.354 103.224 336.658V341.176H102.14V334.836H103.165ZM110.232 333.301V334.836H111.415V335.674H110.232V339.605C110.232 339.859 110.284 340.051 110.39 340.18C110.495 340.305 110.675 340.367 110.929 340.367C111.054 340.367 111.226 340.344 111.445 340.297V341.176C111.159 341.254 110.882 341.293 110.613 341.293C110.128 341.293 109.763 341.146 109.517 340.854C109.271 340.561 109.148 340.145 109.148 339.605V335.674H107.993V334.836H109.148V333.301H110.232Z" fill="#E3E5E8"/>
<path d="M7.26562 183.09C7.16016 183.992 6.82617 184.689 6.26367 185.182C5.70508 185.67 4.96094 185.914 4.03125 185.914C3.02344 185.914 2.21484 185.553 1.60547 184.83C1 184.107 0.697266 183.141 0.697266 181.93V181.109C0.697266 180.316 0.837891 179.619 1.11914 179.018C1.4043 178.416 1.80664 177.955 2.32617 177.635C2.8457 177.311 3.44727 177.148 4.13086 177.148C5.03711 177.148 5.76367 177.402 6.31055 177.91C6.85742 178.414 7.17578 179.113 7.26562 180.008H6.13477C6.03711 179.328 5.82422 178.836 5.49609 178.531C5.17188 178.227 4.7168 178.074 4.13086 178.074C3.41211 178.074 2.84766 178.34 2.4375 178.871C2.03125 179.402 1.82812 180.158 1.82812 181.139V181.965C1.82812 182.891 2.02148 183.627 2.4082 184.174C2.79492 184.721 3.33594 184.994 4.03125 184.994C4.65625 184.994 5.13477 184.854 5.4668 184.572C5.80273 184.287 6.02539 183.793 6.13477 183.09H7.26562ZM8.34961 182.568C8.34961 181.947 8.4707 181.389 8.71289 180.893C8.95898 180.396 9.29883 180.014 9.73242 179.744C10.1699 179.475 10.668 179.34 11.2266 179.34C12.0898 179.34 12.7871 179.639 13.3184 180.236C13.8535 180.834 14.1211 181.629 14.1211 182.621V182.697C14.1211 183.314 14.002 183.869 13.7637 184.361C13.5293 184.85 13.1914 185.23 12.75 185.504C12.3125 185.777 11.8086 185.914 11.2383 185.914C10.3789 185.914 9.68164 185.615 9.14648 185.018C8.61523 184.42 8.34961 183.629 8.34961 182.645V182.568ZM9.43945 182.697C9.43945 183.4 9.60156 183.965 9.92578 184.391C10.2539 184.816 10.6914 185.029 11.2383 185.029C11.7891 185.029 12.2266 184.814 12.5508 184.385C12.875 183.951 13.0371 183.346 13.0371 182.568C13.0371 181.873 12.8711 181.311 12.5391 180.881C12.2109 180.447 11.7734 180.23 11.2266 180.23C10.6914 180.23 10.2598 180.443 9.93164 180.869C9.60352 181.295 9.43945 181.904 9.43945 182.697ZM20.8359 182.697C20.8359 183.662 20.6152 184.439 20.1738 185.029C19.7324 185.619 19.1348 185.914 18.3809 185.914C17.6113 185.914 17.0059 185.67 16.5645 185.182V188.234H15.4805V179.457H16.4707L16.5234 180.16C16.9648 179.613 17.5781 179.34 18.3633 179.34C19.125 179.34 19.7266 179.627 20.168 180.201C20.6133 180.775 20.8359 181.574 20.8359 182.598V182.697ZM19.752 182.574C19.752 181.859 19.5996 181.295 19.2949 180.881C18.9902 180.467 18.5723 180.26 18.041 180.26C17.3848 180.26 16.8926 180.551 16.5645 181.133V184.162C16.8887 184.74 17.3848 185.029 18.0527 185.029C18.5723 185.029 18.9844 184.824 19.2891 184.414C19.5977 184 19.752 183.387 19.752 182.574ZM24.2227 184.209L25.6992 179.457H26.8594L24.3105 186.775C23.916 187.83 23.2891 188.357 22.4297 188.357L22.2246 188.34L21.8203 188.264V187.385L22.1133 187.408C22.4805 187.408 22.7656 187.334 22.9688 187.186C23.1758 187.037 23.3457 186.766 23.4785 186.371L23.7188 185.727L21.457 179.457H22.6406L24.2227 184.209ZM33.4453 184.303L34.6641 179.457H35.748L33.9023 185.797H33.0234L31.4824 180.992L29.9824 185.797H29.1035L27.2637 179.457H28.3418L29.5898 184.203L31.0664 179.457H31.9395L33.4453 184.303ZM39.9199 180.43C39.7559 180.402 39.5781 180.389 39.3867 180.389C38.6758 180.389 38.1934 180.691 37.9395 181.297V185.797H36.8555V179.457H37.9102L37.9277 180.189C38.2832 179.623 38.7871 179.34 39.4395 179.34C39.6504 179.34 39.8105 179.367 39.9199 179.422V180.43ZM42.0996 185.797H41.0156V179.457H42.0996V185.797ZM40.9277 177.775C40.9277 177.6 40.9805 177.451 41.0859 177.33C41.1953 177.209 41.3555 177.148 41.5664 177.148C41.7773 177.148 41.9375 177.209 42.0469 177.33C42.1562 177.451 42.2109 177.6 42.2109 177.775C42.2109 177.951 42.1562 178.098 42.0469 178.215C41.9375 178.332 41.7773 178.391 41.5664 178.391C41.3555 178.391 41.1953 178.332 41.0859 178.215C40.9805 178.098 40.9277 177.951 40.9277 177.775ZM45.3105 177.922V179.457H46.4941V180.295H45.3105V184.227C45.3105 184.48 45.3633 184.672 45.4688 184.801C45.5742 184.926 45.7539 184.988 46.0078 184.988C46.1328 184.988 46.3047 184.965 46.5234 184.918V185.797C46.2383 185.875 45.9609 185.914 45.6914 185.914C45.207 185.914 44.8418 185.768 44.5957 185.475C44.3496 185.182 44.2266 184.766 44.2266 184.227V180.295H43.0723V179.457H44.2266V177.922H45.3105ZM48.9434 185.797H47.8594V179.457H48.9434V185.797ZM47.7715 177.775C47.7715 177.6 47.8242 177.451 47.9297 177.33C48.0391 177.209 48.1992 177.148 48.4102 177.148C48.6211 177.148 48.7812 177.209 48.8906 177.33C49 177.451 49.0547 177.6 49.0547 177.775C49.0547 177.951 49 178.098 48.8906 178.215C48.7812 178.332 48.6211 178.391 48.4102 178.391C48.1992 178.391 48.0391 178.332 47.9297 178.215C47.8242 178.098 47.7715 177.951 47.7715 177.775ZM51.709 179.457L51.7441 180.254C52.2285 179.645 52.8613 179.34 53.6426 179.34C54.9824 179.34 55.6582 180.096 55.6699 181.607V185.797H54.5859V181.602C54.582 181.145 54.4766 180.807 54.2695 180.588C54.0664 180.369 53.748 180.26 53.3145 180.26C52.9629 180.26 52.6543 180.354 52.3887 180.541C52.123 180.729 51.916 180.975 51.7676 181.279V185.797H50.6836V179.457H51.709ZM57.0469 182.574C57.0469 181.586 57.2754 180.801 57.7324 180.219C58.1895 179.633 58.7949 179.34 59.5488 179.34C60.3223 179.34 60.9258 179.613 61.3594 180.16L61.4121 179.457H62.4023V185.645C62.4023 186.465 62.1582 187.111 61.6699 187.584C61.1855 188.057 60.5332 188.293 59.7129 188.293C59.2559 188.293 58.8086 188.195 58.3711 188C57.9336 187.805 57.5996 187.537 57.3691 187.197L57.9316 186.547C58.3965 187.121 58.9648 187.408 59.6367 187.408C60.1641 187.408 60.5742 187.26 60.8672 186.963C61.1641 186.666 61.3125 186.248 61.3125 185.709V185.164C60.8789 185.664 60.2871 185.914 59.5371 185.914C58.7949 185.914 58.1934 185.615 57.7324 185.018C57.2754 184.42 57.0469 183.605 57.0469 182.574ZM58.1367 182.697C58.1367 183.412 58.2832 183.975 58.5762 184.385C58.8691 184.791 59.2793 184.994 59.8066 184.994C60.4902 184.994 60.9922 184.684 61.3125 184.062V181.168C60.9805 180.562 60.4824 180.26 59.8184 180.26C59.291 180.26 58.8789 180.465 58.582 180.875C58.2852 181.285 58.1367 181.893 58.1367 182.697Z" fill="#E3E5E8"/>
</svg>
