<svg width="415" height="387" viewBox="0 0 415 387" fill="none" xmlns="http://www.w3.org/2000/svg">
<path d="M158.066 11H156.941V2.46875H158.066V11ZM160.984 4.66016L161.019 5.45703C161.503 4.84766 162.136 4.54297 162.917 4.54297C164.257 4.54297 164.933 5.29883 164.945 6.81055V11H163.861V6.80469C163.857 6.34766 163.751 6.00977 163.544 5.79102C163.341 5.57227 163.023 5.46289 162.589 5.46289C162.238 5.46289 161.929 5.55664 161.663 5.74414C161.398 5.93164 161.191 6.17773 161.042 6.48242V11H159.958V4.66016H160.984ZM167.113 11V5.49805H166.111V4.66016H167.113V4.00977C167.113 3.33008 167.294 2.80469 167.658 2.43359C168.021 2.0625 168.535 1.87695 169.199 1.87695C169.449 1.87695 169.697 1.91016 169.943 1.97656L169.884 2.85547C169.701 2.82031 169.505 2.80273 169.298 2.80273C168.947 2.80273 168.675 2.90625 168.484 3.11328C168.292 3.31641 168.197 3.60938 168.197 3.99219V4.66016H169.55V5.49805H168.197V11H167.113ZM170.464 7.77148C170.464 7.15039 170.585 6.5918 170.827 6.0957C171.074 5.59961 171.413 5.2168 171.847 4.94727C172.285 4.67773 172.783 4.54297 173.341 4.54297C174.204 4.54297 174.902 4.8418 175.433 5.43945C175.968 6.03711 176.236 6.83203 176.236 7.82422V7.90039C176.236 8.51758 176.117 9.07227 175.878 9.56445C175.644 10.0527 175.306 10.4336 174.865 10.707C174.427 10.9805 173.923 11.1172 173.353 11.1172C172.494 11.1172 171.796 10.8184 171.261 10.2207C170.73 9.62305 170.464 8.83203 170.464 7.84766V7.77148ZM171.554 7.90039C171.554 8.60352 171.716 9.16797 172.04 9.59375C172.369 10.0195 172.806 10.2324 173.353 10.2324C173.904 10.2324 174.341 10.0176 174.665 9.58789C174.99 9.1543 175.152 8.54883 175.152 7.77148C175.152 7.07617 174.986 6.51367 174.654 6.08398C174.326 5.65039 173.888 5.43359 173.341 5.43359C172.806 5.43359 172.374 5.64648 172.046 6.07227C171.718 6.49805 171.554 7.10742 171.554 7.90039ZM180.66 5.63281C180.495 5.60547 180.318 5.5918 180.126 5.5918C179.415 5.5918 178.933 5.89453 178.679 6.5V11H177.595V4.66016H178.65L178.667 5.39258C179.023 4.82617 179.527 4.54297 180.179 4.54297C180.39 4.54297 180.55 4.57031 180.66 4.625V5.63281ZM182.681 4.66016L182.71 5.36328C183.175 4.81641 183.802 4.54297 184.591 4.54297C185.478 4.54297 186.081 4.88281 186.402 5.5625C186.613 5.25781 186.886 5.01172 187.222 4.82422C187.562 4.63672 187.962 4.54297 188.423 4.54297C189.814 4.54297 190.521 5.2793 190.544 6.75195V11H189.46V6.81641C189.46 6.36328 189.357 6.02539 189.15 5.80273C188.943 5.57617 188.595 5.46289 188.107 5.46289C187.704 5.46289 187.37 5.58398 187.105 5.82617C186.839 6.06445 186.685 6.38672 186.642 6.79297V11H185.552V6.8457C185.552 5.92383 185.101 5.46289 184.199 5.46289C183.488 5.46289 183.001 5.76562 182.74 6.37109V11H181.656V4.66016H182.681ZM196.099 11C196.036 10.875 195.986 10.6523 195.947 10.332C195.443 10.8555 194.841 11.1172 194.142 11.1172C193.517 11.1172 193.003 10.9414 192.601 10.5898C192.202 10.2344 192.003 9.78516 192.003 9.24219C192.003 8.58203 192.253 8.07031 192.753 7.70703C193.257 7.33984 193.964 7.15625 194.874 7.15625H195.929V6.6582C195.929 6.2793 195.816 5.97852 195.589 5.75586C195.363 5.5293 195.029 5.41602 194.587 5.41602C194.201 5.41602 193.876 5.51367 193.615 5.70898C193.353 5.9043 193.222 6.14062 193.222 6.41797H192.132C192.132 6.10156 192.244 5.79688 192.466 5.50391C192.693 5.20703 192.997 4.97266 193.38 4.80078C193.767 4.62891 194.191 4.54297 194.652 4.54297C195.382 4.54297 195.954 4.72656 196.369 5.09375C196.783 5.45703 196.997 5.95898 197.013 6.59961V9.51758C197.013 10.0996 197.087 10.5625 197.236 10.9062V11H196.099ZM194.3 10.1738C194.64 10.1738 194.962 10.0859 195.267 9.91016C195.572 9.73438 195.792 9.50586 195.929 9.22461V7.92383H195.079C193.751 7.92383 193.087 8.3125 193.087 9.08984C193.087 9.42969 193.201 9.69531 193.427 9.88672C193.654 10.0781 193.945 10.1738 194.3 10.1738ZM200.183 3.125V4.66016H201.367V5.49805H200.183V9.42969C200.183 9.68359 200.236 9.875 200.341 10.0039C200.447 10.1289 200.626 10.1914 200.88 10.1914C201.005 10.1914 201.177 10.168 201.396 10.1211V11C201.111 11.0781 200.833 11.1172 200.564 11.1172C200.079 11.1172 199.714 10.9707 199.468 10.6777C199.222 10.3848 199.099 9.96875 199.099 9.42969V5.49805H197.945V4.66016H199.099V3.125H200.183ZM203.816 11H202.732V4.66016H203.816V11ZM202.644 2.97852C202.644 2.80273 202.697 2.6543 202.802 2.5332C202.911 2.41211 203.072 2.35156 203.283 2.35156C203.494 2.35156 203.654 2.41211 203.763 2.5332C203.872 2.6543 203.927 2.80273 203.927 2.97852C203.927 3.1543 203.872 3.30078 203.763 3.41797C203.654 3.53516 203.494 3.59375 203.283 3.59375C203.072 3.59375 202.911 3.53516 202.802 3.41797C202.697 3.30078 202.644 3.1543 202.644 2.97852ZM205.269 7.77148C205.269 7.15039 205.39 6.5918 205.632 6.0957C205.878 5.59961 206.218 5.2168 206.652 4.94727C207.089 4.67773 207.587 4.54297 208.146 4.54297C209.009 4.54297 209.706 4.8418 210.238 5.43945C210.773 6.03711 211.04 6.83203 211.04 7.82422V7.90039C211.04 8.51758 210.921 9.07227 210.683 9.56445C210.449 10.0527 210.111 10.4336 209.669 10.707C209.232 10.9805 208.728 11.1172 208.158 11.1172C207.298 11.1172 206.601 10.8184 206.066 10.2207C205.535 9.62305 205.269 8.83203 205.269 7.84766V7.77148ZM206.359 7.90039C206.359 8.60352 206.521 9.16797 206.845 9.59375C207.173 10.0195 207.611 10.2324 208.158 10.2324C208.708 10.2324 209.146 10.0176 209.47 9.58789C209.794 9.1543 209.956 8.54883 209.956 7.77148C209.956 7.07617 209.79 6.51367 209.458 6.08398C209.13 5.65039 208.693 5.43359 208.146 5.43359C207.611 5.43359 207.179 5.64648 206.851 6.07227C206.523 6.49805 206.359 7.10742 206.359 7.90039ZM213.425 4.66016L213.46 5.45703C213.945 4.84766 214.577 4.54297 215.359 4.54297C216.699 4.54297 217.374 5.29883 217.386 6.81055V11H216.302V6.80469C216.298 6.34766 216.193 6.00977 215.986 5.79102C215.783 5.57227 215.464 5.46289 215.031 5.46289C214.679 5.46289 214.37 5.55664 214.105 5.74414C213.839 5.93164 213.632 6.17773 213.484 6.48242V11H212.4V4.66016H213.425ZM160.228 22.7734H156.654L155.851 25H154.691L157.949 16.4688H158.933L162.197 25H161.042L160.228 22.7734ZM156.994 21.8477H159.894L158.441 17.8574L156.994 21.8477ZM166.24 19.6328C166.076 19.6055 165.898 19.5918 165.706 19.5918C164.995 19.5918 164.513 19.8945 164.259 20.5V25H163.175V18.6602H164.23L164.247 19.3926C164.603 18.8262 165.107 18.543 165.759 18.543C165.97 18.543 166.13 18.5703 166.24 18.625V19.6328ZM169.667 24.2324C170.054 24.2324 170.392 24.1152 170.681 23.8809C170.97 23.6465 171.13 23.3535 171.161 23.002H172.187C172.167 23.3652 172.042 23.7109 171.812 24.0391C171.581 24.3672 171.273 24.6289 170.886 24.8242C170.503 25.0195 170.097 25.1172 169.667 25.1172C168.804 25.1172 168.117 24.8301 167.605 24.2559C167.097 23.6777 166.843 22.8887 166.843 21.8887V21.707C166.843 21.0898 166.956 20.541 167.183 20.0605C167.41 19.5801 167.734 19.207 168.156 18.9414C168.581 18.6758 169.083 18.543 169.661 18.543C170.372 18.543 170.962 18.7559 171.431 19.1816C171.904 19.6074 172.156 20.1602 172.187 20.8398H171.161C171.13 20.4297 170.974 20.0938 170.693 19.832C170.415 19.5664 170.072 19.4336 169.661 19.4336C169.111 19.4336 168.683 19.6328 168.378 20.0312C168.077 20.4258 167.927 20.998 167.927 21.748V21.9531C167.927 22.6836 168.077 23.2461 168.378 23.6406C168.679 24.0352 169.109 24.2324 169.667 24.2324ZM174.49 19.4277C174.97 18.8379 175.595 18.543 176.365 18.543C177.704 18.543 178.38 19.2988 178.392 20.8105V25H177.308V20.8047C177.304 20.3477 177.199 20.0098 176.992 19.791C176.788 19.5723 176.47 19.4629 176.036 19.4629C175.685 19.4629 175.376 19.5566 175.111 19.7441C174.845 19.9316 174.638 20.1777 174.49 20.4824V25H173.406V16H174.49V19.4277ZM181.193 25H180.109V18.6602H181.193V25ZM180.021 16.9785C180.021 16.8027 180.074 16.6543 180.179 16.5332C180.288 16.4121 180.449 16.3516 180.66 16.3516C180.87 16.3516 181.031 16.4121 181.14 16.5332C181.249 16.6543 181.304 16.8027 181.304 16.9785C181.304 17.1543 181.249 17.3008 181.14 17.418C181.031 17.5352 180.87 17.5938 180.66 17.5938C180.449 17.5938 180.288 17.5352 180.179 17.418C180.074 17.3008 180.021 17.1543 180.021 16.9785ZM184.404 17.125V18.6602H185.587V19.498H184.404V23.4297C184.404 23.6836 184.456 23.875 184.562 24.0039C184.667 24.1289 184.847 24.1914 185.101 24.1914C185.226 24.1914 185.398 24.168 185.617 24.1211V25C185.331 25.0781 185.054 25.1172 184.785 25.1172C184.3 25.1172 183.935 24.9707 183.689 24.6777C183.443 24.3848 183.32 23.9688 183.32 23.4297V19.498H182.165V18.6602H183.32V17.125H184.404ZM189.49 25.1172C188.63 25.1172 187.931 24.8359 187.392 24.2734C186.853 23.707 186.583 22.9512 186.583 22.0059V21.8066C186.583 21.1777 186.702 20.6172 186.941 20.125C187.183 19.6289 187.519 19.2422 187.949 18.9648C188.382 18.6836 188.851 18.543 189.355 18.543C190.179 18.543 190.82 18.8145 191.277 19.3574C191.734 19.9004 191.962 20.6777 191.962 21.6895V22.1406H187.667C187.683 22.7656 187.865 23.2715 188.212 23.6582C188.564 24.041 189.009 24.2324 189.548 24.2324C189.931 24.2324 190.255 24.1543 190.521 23.998C190.786 23.8418 191.019 23.6348 191.218 23.377L191.88 23.8926C191.349 24.709 190.552 25.1172 189.49 25.1172ZM189.355 19.4336C188.917 19.4336 188.55 19.5938 188.253 19.9141C187.956 20.2305 187.773 20.6758 187.702 21.25H190.878V21.168C190.847 20.6172 190.699 20.1914 190.433 19.8906C190.167 19.5859 189.808 19.4336 189.355 19.4336ZM195.765 24.2324C196.152 24.2324 196.49 24.1152 196.779 23.8809C197.068 23.6465 197.228 23.3535 197.259 23.002H198.285C198.265 23.3652 198.14 23.7109 197.91 24.0391C197.679 24.3672 197.37 24.6289 196.984 24.8242C196.601 25.0195 196.195 25.1172 195.765 25.1172C194.902 25.1172 194.214 24.8301 193.702 24.2559C193.195 23.6777 192.941 22.8887 192.941 21.8887V21.707C192.941 21.0898 193.054 20.541 193.281 20.0605C193.507 19.5801 193.831 19.207 194.253 18.9414C194.679 18.6758 195.181 18.543 195.759 18.543C196.47 18.543 197.06 18.7559 197.529 19.1816C198.001 19.6074 198.253 20.1602 198.285 20.8398H197.259C197.228 20.4297 197.072 20.0938 196.79 19.832C196.513 19.5664 196.169 19.4336 195.759 19.4336C195.208 19.4336 194.781 19.6328 194.476 20.0312C194.175 20.4258 194.025 20.998 194.025 21.748V21.9531C194.025 22.6836 194.175 23.2461 194.476 23.6406C194.777 24.0352 195.206 24.2324 195.765 24.2324ZM200.974 17.125V18.6602H202.158V19.498H200.974V23.4297C200.974 23.6836 201.027 23.875 201.132 24.0039C201.238 24.1289 201.417 24.1914 201.671 24.1914C201.796 24.1914 201.968 24.168 202.187 24.1211V25C201.902 25.0781 201.624 25.1172 201.355 25.1172C200.87 25.1172 200.505 24.9707 200.259 24.6777C200.013 24.3848 199.89 23.9688 199.89 23.4297V19.498H198.736V18.6602H199.89V17.125H200.974ZM207.343 24.373C206.921 24.8691 206.302 25.1172 205.486 25.1172C204.81 25.1172 204.294 24.9219 203.939 24.5312C203.587 24.1367 203.41 23.5547 203.406 22.7852V18.6602H204.49V22.7559C204.49 23.7168 204.88 24.1973 205.661 24.1973C206.49 24.1973 207.04 23.8887 207.314 23.2715V18.6602H208.398V25H207.367L207.343 24.373ZM213.115 19.6328C212.951 19.6055 212.773 19.5918 212.581 19.5918C211.87 19.5918 211.388 19.8945 211.134 20.5V25H210.05V18.6602H211.105L211.122 19.3926C211.478 18.8262 211.982 18.543 212.634 18.543C212.845 18.543 213.005 18.5703 213.115 18.625V19.6328ZM216.63 25.1172C215.771 25.1172 215.072 24.8359 214.533 24.2734C213.994 23.707 213.724 22.9512 213.724 22.0059V21.8066C213.724 21.1777 213.843 20.6172 214.081 20.125C214.324 19.6289 214.66 19.2422 215.089 18.9648C215.523 18.6836 215.992 18.543 216.495 18.543C217.32 18.543 217.96 18.8145 218.417 19.3574C218.874 19.9004 219.103 20.6777 219.103 21.6895V22.1406H214.808C214.824 22.7656 215.005 23.2715 215.353 23.6582C215.704 24.041 216.15 24.2324 216.689 24.2324C217.072 24.2324 217.396 24.1543 217.661 23.998C217.927 23.8418 218.16 23.6348 218.359 23.377L219.021 23.8926C218.49 24.709 217.693 25.1172 216.63 25.1172ZM216.495 19.4336C216.058 19.4336 215.691 19.5938 215.394 19.9141C215.097 20.2305 214.913 20.6758 214.843 21.25H218.019V21.168C217.988 20.6172 217.839 20.1914 217.574 19.8906C217.308 19.5859 216.949 19.4336 216.495 19.4336Z" fill="#54565A"/>
<path d="M290.892 92.1468L187.328 49.9648L84.346 93.3104L42.1641 196.874L85.5096 299.857L189.074 342.039L292.056 298.693L334.238 195.129L290.892 92.1468Z" stroke="#BBBBBB" stroke-width="0.5" stroke-miterlimit="10"/>
<path d="M290.892 92.1468L187.328 49.9648L84.346 93.3104L42.1641 196.874L85.5096 299.857L189.074 342.039L292.056 298.693L334.238 195.129L290.892 92.1468Z" stroke="#BBBBBB" stroke-width="0.5" stroke-miterlimit="10"/>
<path d="M105.579 279.495L70.6699 196.586L104.706 113.386L187.325 78.4766L270.525 112.513L305.434 195.422L271.689 278.623L188.779 313.532L105.579 279.495Z" stroke="#BBBBBB" stroke-width="0.5" stroke-miterlimit="10"/>
<path d="M125.653 259.128L99.4707 196.583L125.071 133.746L187.616 107.273L250.453 132.873L276.926 195.419L251.326 258.256L188.489 284.729L125.653 259.128Z" stroke="#BBBBBB" stroke-width="0.5" stroke-miterlimit="10"/>
<path d="M146.019 238.758L127.982 196.285L145.437 153.812L187.619 136.066L230.383 153.23L248.128 195.703L230.674 238.176L188.492 255.921L146.019 238.758Z" stroke="#BBBBBB" stroke-width="0.5" stroke-miterlimit="10"/>
<path d="M166.088 218.397L156.779 196.287L165.798 173.887L187.907 164.578L210.016 173.596L219.325 195.706L210.307 218.106L188.198 227.415L166.088 218.397Z" stroke="#BBBBBB" stroke-width="0.5" stroke-miterlimit="10"/>
<path d="M188.199 196.004L75.0352 82.8398" stroke="#BBBBBB" stroke-width="0.5" stroke-miterlimit="10"/>
<path d="M188.2 196H28.1992" stroke="#BBBBBB" stroke-width="0.5" stroke-miterlimit="10"/>
<path d="M188.199 196V356.001" stroke="#BBBBBB" stroke-width="0.5" stroke-miterlimit="10"/>
<path d="M188.199 196H348.2" stroke="#BBBBBB" stroke-width="0.5" stroke-miterlimit="10"/>
<path d="M188.199 196.004L75.0352 82.8398" stroke="#BBBBBB" stroke-width="0.5" stroke-miterlimit="10"/>
<path d="M188.199 196L75.0352 309.164" stroke="#BBBBBB" stroke-width="0.5" stroke-miterlimit="10"/>
<path d="M188.199 196L301.363 309.164" stroke="#BBBBBB" stroke-width="0.5" stroke-miterlimit="10"/>
<path d="M188.199 196.004L301.363 82.8398" stroke="#BBBBBB" stroke-width="0.5" stroke-miterlimit="10"/>
<path d="M188.199 196.001V36" stroke="#BBBBBB" stroke-width="0.5" stroke-miterlimit="10"/>
<path opacity="0.25" d="M187.326 78.4766L230.381 153.24L334.235 195.131L271.69 278.623L188.78 313.532L105.58 279.495L127.98 196.295L187.326 78.4766Z" fill="#319795"/>
<path d="M187.326 78.4766L230.381 153.24L334.235 195.131L271.69 278.623L188.78 313.532L105.58 279.495L127.98 196.295L187.326 78.4766Z" stroke="#319795" stroke-width="3" stroke-miterlimit="10"/>
<path d="M67.5488 70.9746H63.8516V73.998H68.1465V74.918H62.7266V66.3867H68.0879V67.3125H63.8516V70.0547H67.5488V70.9746ZM68.9961 71.6953C68.9961 70.7227 69.2266 69.9414 69.6875 69.3516C70.1484 68.7578 70.752 68.4609 71.498 68.4609C72.2402 68.4609 72.8281 68.7148 73.2617 69.2227V65.918H74.3457V74.918H73.3496L73.2969 74.2383C72.8633 74.7695 72.2598 75.0352 71.4863 75.0352C70.752 75.0352 70.1523 74.7344 69.6875 74.1328C69.2266 73.5312 68.9961 72.7461 68.9961 71.7773V71.6953ZM70.0801 71.8184C70.0801 72.5371 70.2285 73.0996 70.5254 73.5059C70.8223 73.9121 71.2324 74.1152 71.7559 74.1152C72.4434 74.1152 72.9453 73.8066 73.2617 73.1895V70.2773C72.9375 69.6797 72.4395 69.3809 71.7676 69.3809C71.2363 69.3809 70.8223 69.5859 70.5254 69.9961C70.2285 70.4062 70.0801 71.0137 70.0801 71.8184ZM77.2109 74.918H76.127V68.5781H77.2109V74.918ZM76.0391 66.8965C76.0391 66.7207 76.0918 66.5723 76.1973 66.4512C76.3066 66.3301 76.4668 66.2695 76.6777 66.2695C76.8887 66.2695 77.0488 66.3301 77.1582 66.4512C77.2676 66.5723 77.3223 66.7207 77.3223 66.8965C77.3223 67.0723 77.2676 67.2188 77.1582 67.3359C77.0488 67.4531 76.8887 67.5117 76.6777 67.5117C76.4668 67.5117 76.3066 67.4531 76.1973 67.3359C76.0918 67.2188 76.0391 67.0723 76.0391 66.8965ZM80.4219 67.043V68.5781H81.6055V69.416H80.4219V73.3477C80.4219 73.6016 80.4746 73.793 80.5801 73.9219C80.6855 74.0469 80.8652 74.1094 81.1191 74.1094C81.2441 74.1094 81.416 74.0859 81.6348 74.0391V74.918C81.3496 74.9961 81.0723 75.0352 80.8027 75.0352C80.3184 75.0352 79.9531 74.8887 79.707 74.5957C79.4609 74.3027 79.3379 73.8867 79.3379 73.3477V69.416H78.1836V68.5781H79.3379V67.043H80.4219ZM84.0547 74.918H82.9707V68.5781H84.0547V74.918ZM82.8828 66.8965C82.8828 66.7207 82.9355 66.5723 83.041 66.4512C83.1504 66.3301 83.3105 66.2695 83.5215 66.2695C83.7324 66.2695 83.8926 66.3301 84.002 66.4512C84.1113 66.5723 84.166 66.7207 84.166 66.8965C84.166 67.0723 84.1113 67.2188 84.002 67.3359C83.8926 67.4531 83.7324 67.5117 83.5215 67.5117C83.3105 67.5117 83.1504 67.4531 83.041 67.3359C82.9355 67.2188 82.8828 67.0723 82.8828 66.8965ZM86.8203 68.5781L86.8555 69.375C87.3398 68.7656 87.9727 68.4609 88.7539 68.4609C90.0938 68.4609 90.7695 69.2168 90.7812 70.7285V74.918H89.6973V70.7227C89.6934 70.2656 89.5879 69.9277 89.3809 69.709C89.1777 69.4902 88.8594 69.3809 88.4258 69.3809C88.0742 69.3809 87.7656 69.4746 87.5 69.6621C87.2344 69.8496 87.0273 70.0957 86.8789 70.4004V74.918H85.7949V68.5781H86.8203ZM92.1582 71.6953C92.1582 70.707 92.3867 69.9219 92.8438 69.3398C93.3008 68.7539 93.9062 68.4609 94.6602 68.4609C95.4336 68.4609 96.0371 68.7344 96.4707 69.2812L96.5234 68.5781H97.5137V74.7656C97.5137 75.5859 97.2695 76.2324 96.7812 76.7051C96.2969 77.1777 95.6445 77.4141 94.8242 77.4141C94.3672 77.4141 93.9199 77.3164 93.4824 77.1211C93.0449 76.9258 92.7109 76.6582 92.4805 76.3184L93.043 75.668C93.5078 76.2422 94.0762 76.5293 94.748 76.5293C95.2754 76.5293 95.6855 76.3809 95.9785 76.084C96.2754 75.7871 96.4238 75.3691 96.4238 74.8301V74.2852C95.9902 74.7852 95.3984 75.0352 94.6484 75.0352C93.9062 75.0352 93.3047 74.7363 92.8438 74.1387C92.3867 73.541 92.1582 72.7266 92.1582 71.6953ZM93.248 71.8184C93.248 72.5332 93.3945 73.0957 93.6875 73.5059C93.9805 73.9121 94.3906 74.1152 94.918 74.1152C95.6016 74.1152 96.1035 73.8047 96.4238 73.1836V70.2891C96.0918 69.6836 95.5938 69.3809 94.9297 69.3809C94.4023 69.3809 93.9902 69.5859 93.6934 69.9961C93.3965 70.4062 93.248 71.0137 93.248 71.8184Z" fill="#54565A"/>
<path d="M297.996 52.4688V58.2695C297.992 59.0742 297.738 59.7324 297.234 60.2441C296.734 60.7559 296.055 61.043 295.195 61.1055L294.896 61.1172C293.963 61.1172 293.219 60.8652 292.664 60.3613C292.109 59.8574 291.828 59.1641 291.82 58.2812V52.4688H292.934V58.2461C292.934 58.8633 293.104 59.3438 293.443 59.6875C293.783 60.0273 294.268 60.1973 294.896 60.1973C295.533 60.1973 296.02 60.0273 296.355 59.6875C296.695 59.3477 296.865 58.8691 296.865 58.252V52.4688H297.996ZM303.293 59.3184C303.293 59.0254 303.182 58.7988 302.959 58.6387C302.74 58.4746 302.355 58.334 301.805 58.2168C301.258 58.0996 300.822 57.959 300.498 57.7949C300.178 57.6309 299.939 57.4355 299.783 57.209C299.631 56.9824 299.555 56.7129 299.555 56.4004C299.555 55.8809 299.773 55.4414 300.211 55.082C300.652 54.7227 301.215 54.543 301.898 54.543C302.617 54.543 303.199 54.7285 303.645 55.0996C304.094 55.4707 304.318 55.9453 304.318 56.5234H303.229C303.229 56.2266 303.102 55.9707 302.848 55.7559C302.598 55.541 302.281 55.4336 301.898 55.4336C301.504 55.4336 301.195 55.5195 300.973 55.6914C300.75 55.8633 300.639 56.0879 300.639 56.3652C300.639 56.627 300.742 56.8242 300.949 56.957C301.156 57.0898 301.529 57.2168 302.068 57.3379C302.611 57.459 303.051 57.6035 303.387 57.7715C303.723 57.9395 303.971 58.1426 304.131 58.3809C304.295 58.6152 304.377 58.9023 304.377 59.2422C304.377 59.8086 304.15 60.2637 303.697 60.6074C303.244 60.9473 302.656 61.1172 301.934 61.1172C301.426 61.1172 300.977 61.0273 300.586 60.8477C300.195 60.668 299.889 60.418 299.666 60.0977C299.447 59.7734 299.338 59.4238 299.338 59.0488H300.422C300.441 59.4121 300.586 59.7012 300.855 59.916C301.129 60.127 301.488 60.2324 301.934 60.2324C302.344 60.2324 302.672 60.1504 302.918 59.9863C303.168 59.8184 303.293 59.5957 303.293 59.3184ZM308.42 61.1172C307.561 61.1172 306.861 60.8359 306.322 60.2734C305.783 59.707 305.514 58.9512 305.514 58.0059V57.8066C305.514 57.1777 305.633 56.6172 305.871 56.125C306.113 55.6289 306.449 55.2422 306.879 54.9648C307.312 54.6836 307.781 54.543 308.285 54.543C309.109 54.543 309.75 54.8145 310.207 55.3574C310.664 55.9004 310.893 56.6777 310.893 57.6895V58.1406H306.598C306.613 58.7656 306.795 59.2715 307.143 59.6582C307.494 60.041 307.939 60.2324 308.479 60.2324C308.861 60.2324 309.186 60.1543 309.451 59.998C309.717 59.8418 309.949 59.6348 310.148 59.377L310.811 59.8926C310.279 60.709 309.482 61.1172 308.42 61.1172ZM308.285 55.4336C307.848 55.4336 307.48 55.5938 307.184 55.9141C306.887 56.2305 306.703 56.6758 306.633 57.25H309.809V57.168C309.777 56.6172 309.629 56.1914 309.363 55.8906C309.098 55.5859 308.738 55.4336 308.285 55.4336ZM315.217 55.6328C315.053 55.6055 314.875 55.5918 314.684 55.5918C313.973 55.5918 313.49 55.8945 313.236 56.5V61H312.152V54.6602H313.207L313.225 55.3926C313.58 54.8262 314.084 54.543 314.736 54.543C314.947 54.543 315.107 54.5703 315.217 54.625V55.6328ZM295.119 71.5488H293.115V75H291.984V66.4688H294.809C295.77 66.4688 296.508 66.6875 297.023 67.125C297.543 67.5625 297.803 68.1992 297.803 69.0352C297.803 69.5664 297.658 70.0293 297.369 70.4238C297.084 70.8184 296.686 71.1133 296.174 71.3086L298.178 74.9297V75H296.971L295.119 71.5488ZM293.115 70.6289H294.844C295.402 70.6289 295.846 70.4844 296.174 70.1953C296.506 69.9062 296.672 69.5195 296.672 69.0352C296.672 68.5078 296.514 68.1035 296.197 67.8223C295.885 67.541 295.432 67.3984 294.838 67.3945H293.115V70.6289ZM301.846 75.1172C300.986 75.1172 300.287 74.8359 299.748 74.2734C299.209 73.707 298.939 72.9512 298.939 72.0059V71.8066C298.939 71.1777 299.059 70.6172 299.297 70.125C299.539 69.6289 299.875 69.2422 300.305 68.9648C300.738 68.6836 301.207 68.543 301.711 68.543C302.535 68.543 303.176 68.8145 303.633 69.3574C304.09 69.9004 304.318 70.6777 304.318 71.6895V72.1406H300.023C300.039 72.7656 300.221 73.2715 300.568 73.6582C300.92 74.041 301.365 74.2324 301.904 74.2324C302.287 74.2324 302.611 74.1543 302.877 73.998C303.143 73.8418 303.375 73.6348 303.574 73.377L304.236 73.8926C303.705 74.709 302.908 75.1172 301.846 75.1172ZM301.711 69.4336C301.273 69.4336 300.906 69.5938 300.609 69.9141C300.312 70.2305 300.129 70.6758 300.059 71.25H303.234V71.168C303.203 70.6172 303.055 70.1914 302.789 69.8906C302.523 69.5859 302.164 69.4336 301.711 69.4336ZM309.27 73.3184C309.27 73.0254 309.158 72.7988 308.936 72.6387C308.717 72.4746 308.332 72.334 307.781 72.2168C307.234 72.0996 306.799 71.959 306.475 71.7949C306.154 71.6309 305.916 71.4355 305.76 71.209C305.607 70.9824 305.531 70.7129 305.531 70.4004C305.531 69.8809 305.75 69.4414 306.188 69.082C306.629 68.7227 307.191 68.543 307.875 68.543C308.594 68.543 309.176 68.7285 309.621 69.0996C310.07 69.4707 310.295 69.9453 310.295 70.5234H309.205C309.205 70.2266 309.078 69.9707 308.824 69.7559C308.574 69.541 308.258 69.4336 307.875 69.4336C307.48 69.4336 307.172 69.5195 306.949 69.6914C306.727 69.8633 306.615 70.0879 306.615 70.3652C306.615 70.627 306.719 70.8242 306.926 70.957C307.133 71.0898 307.506 71.2168 308.045 71.3379C308.588 71.459 309.027 71.6035 309.363 71.7715C309.699 71.9395 309.947 72.1426 310.107 72.3809C310.271 72.6152 310.354 72.9023 310.354 73.2422C310.354 73.8086 310.127 74.2637 309.674 74.6074C309.221 74.9473 308.633 75.1172 307.91 75.1172C307.402 75.1172 306.953 75.0273 306.562 74.8477C306.172 74.668 305.865 74.418 305.643 74.0977C305.424 73.7734 305.314 73.4238 305.314 73.0488H306.398C306.418 73.4121 306.562 73.7012 306.832 73.916C307.105 74.127 307.465 74.2324 307.91 74.2324C308.32 74.2324 308.648 74.1504 308.895 73.9863C309.145 73.8184 309.27 73.5957 309.27 73.3184ZM314.396 75.1172C313.537 75.1172 312.838 74.8359 312.299 74.2734C311.76 73.707 311.49 72.9512 311.49 72.0059V71.8066C311.49 71.1777 311.609 70.6172 311.848 70.125C312.09 69.6289 312.426 69.2422 312.855 68.9648C313.289 68.6836 313.758 68.543 314.262 68.543C315.086 68.543 315.727 68.8145 316.184 69.3574C316.641 69.9004 316.869 70.6777 316.869 71.6895V72.1406H312.574C312.59 72.7656 312.771 73.2715 313.119 73.6582C313.471 74.041 313.916 74.2324 314.455 74.2324C314.838 74.2324 315.162 74.1543 315.428 73.998C315.693 73.8418 315.926 73.6348 316.125 73.377L316.787 73.8926C316.256 74.709 315.459 75.1172 314.396 75.1172ZM314.262 69.4336C313.824 69.4336 313.457 69.5938 313.16 69.9141C312.863 70.2305 312.68 70.6758 312.609 71.25H315.785V71.168C315.754 70.6172 315.605 70.1914 315.34 69.8906C315.074 69.5859 314.715 69.4336 314.262 69.4336ZM322.043 75C321.98 74.875 321.93 74.6523 321.891 74.332C321.387 74.8555 320.785 75.1172 320.086 75.1172C319.461 75.1172 318.947 74.9414 318.545 74.5898C318.146 74.2344 317.947 73.7852 317.947 73.2422C317.947 72.582 318.197 72.0703 318.697 71.707C319.201 71.3398 319.908 71.1562 320.818 71.1562H321.873V70.6582C321.873 70.2793 321.76 69.9785 321.533 69.7559C321.307 69.5293 320.973 69.416 320.531 69.416C320.145 69.416 319.82 69.5137 319.559 69.709C319.297 69.9043 319.166 70.1406 319.166 70.418H318.076C318.076 70.1016 318.188 69.7969 318.41 69.5039C318.637 69.207 318.941 68.9727 319.324 68.8008C319.711 68.6289 320.135 68.543 320.596 68.543C321.326 68.543 321.898 68.7266 322.312 69.0938C322.727 69.457 322.941 69.959 322.957 70.5996V73.5176C322.957 74.0996 323.031 74.5625 323.18 74.9062V75H322.043ZM320.244 74.1738C320.584 74.1738 320.906 74.0859 321.211 73.9102C321.516 73.7344 321.736 73.5059 321.873 73.2246V71.9238H321.023C319.695 71.9238 319.031 72.3125 319.031 73.0898C319.031 73.4297 319.145 73.6953 319.371 73.8867C319.598 74.0781 319.889 74.1738 320.244 74.1738ZM327.721 69.6328C327.557 69.6055 327.379 69.5918 327.188 69.5918C326.477 69.5918 325.994 69.8945 325.74 70.5V75H324.656V68.6602H325.711L325.729 69.3926C326.084 68.8262 326.588 68.543 327.24 68.543C327.451 68.543 327.611 68.5703 327.721 68.625V69.6328ZM331.148 74.2324C331.535 74.2324 331.873 74.1152 332.162 73.8809C332.451 73.6465 332.611 73.3535 332.643 73.002H333.668C333.648 73.3652 333.523 73.7109 333.293 74.0391C333.062 74.3672 332.754 74.6289 332.367 74.8242C331.984 75.0195 331.578 75.1172 331.148 75.1172C330.285 75.1172 329.598 74.8301 329.086 74.2559C328.578 73.6777 328.324 72.8887 328.324 71.8887V71.707C328.324 71.0898 328.438 70.541 328.664 70.0605C328.891 69.5801 329.215 69.207 329.637 68.9414C330.062 68.6758 330.564 68.543 331.143 68.543C331.854 68.543 332.443 68.7559 332.912 69.1816C333.385 69.6074 333.637 70.1602 333.668 70.8398H332.643C332.611 70.4297 332.455 70.0938 332.174 69.832C331.896 69.5664 331.553 69.4336 331.143 69.4336C330.592 69.4336 330.164 69.6328 329.859 70.0312C329.559 70.4258 329.408 70.998 329.408 71.748V71.9531C329.408 72.6836 329.559 73.2461 329.859 73.6406C330.16 74.0352 330.59 74.2324 331.148 74.2324ZM335.971 69.4277C336.451 68.8379 337.076 68.543 337.846 68.543C339.186 68.543 339.861 69.2988 339.873 70.8105V75H338.789V70.8047C338.785 70.3477 338.68 70.0098 338.473 69.791C338.27 69.5723 337.951 69.4629 337.518 69.4629C337.166 69.4629 336.857 69.5566 336.592 69.7441C336.326 69.9316 336.119 70.1777 335.971 70.4824V75H334.887V66H335.971V69.4277Z" fill="#54565A"/>
<path d="M362.185 190.842L364.623 183.805H365.853L362.689 192.336H361.693L358.535 183.805H359.759L362.185 190.842ZM368.009 192.336H366.925V185.996H368.009V192.336ZM366.837 184.314C366.837 184.139 366.89 183.99 366.996 183.869C367.105 183.748 367.265 183.688 367.476 183.688C367.687 183.688 367.847 183.748 367.957 183.869C368.066 183.99 368.121 184.139 368.121 184.314C368.121 184.49 368.066 184.637 367.957 184.754C367.847 184.871 367.687 184.93 367.476 184.93C367.265 184.93 367.105 184.871 366.996 184.754C366.89 184.637 366.837 184.49 366.837 184.314ZM373.441 190.654C373.441 190.361 373.33 190.135 373.107 189.975C372.888 189.811 372.503 189.67 371.953 189.553C371.406 189.436 370.97 189.295 370.646 189.131C370.326 188.967 370.087 188.771 369.931 188.545C369.779 188.318 369.703 188.049 369.703 187.736C369.703 187.217 369.921 186.777 370.359 186.418C370.8 186.059 371.363 185.879 372.046 185.879C372.765 185.879 373.347 186.064 373.792 186.436C374.242 186.807 374.466 187.281 374.466 187.859H373.376C373.376 187.562 373.249 187.307 372.996 187.092C372.746 186.877 372.429 186.77 372.046 186.77C371.652 186.77 371.343 186.855 371.121 187.027C370.898 187.199 370.787 187.424 370.787 187.701C370.787 187.963 370.89 188.16 371.097 188.293C371.304 188.426 371.677 188.553 372.216 188.674C372.759 188.795 373.199 188.939 373.535 189.107C373.871 189.275 374.119 189.479 374.279 189.717C374.443 189.951 374.525 190.238 374.525 190.578C374.525 191.145 374.298 191.6 373.845 191.943C373.392 192.283 372.804 192.453 372.082 192.453C371.574 192.453 371.124 192.363 370.734 192.184C370.343 192.004 370.037 191.754 369.814 191.434C369.595 191.109 369.486 190.76 369.486 190.385H370.57C370.589 190.748 370.734 191.037 371.003 191.252C371.277 191.463 371.636 191.568 372.082 191.568C372.492 191.568 372.82 191.486 373.066 191.322C373.316 191.154 373.441 190.932 373.441 190.654ZM379.851 191.709C379.429 192.205 378.81 192.453 377.994 192.453C377.318 192.453 376.802 192.258 376.447 191.867C376.095 191.473 375.917 190.891 375.914 190.121V185.996H376.998V190.092C376.998 191.053 377.388 191.533 378.169 191.533C378.998 191.533 379.548 191.225 379.822 190.607V185.996H380.906V192.336H379.874L379.851 191.709ZM386.472 192.336C386.41 192.211 386.359 191.988 386.32 191.668C385.816 192.191 385.214 192.453 384.515 192.453C383.89 192.453 383.376 192.277 382.974 191.926C382.576 191.57 382.376 191.121 382.376 190.578C382.376 189.918 382.626 189.406 383.126 189.043C383.63 188.676 384.337 188.492 385.248 188.492H386.302V187.994C386.302 187.615 386.189 187.314 385.962 187.092C385.736 186.865 385.402 186.752 384.96 186.752C384.574 186.752 384.249 186.85 383.988 187.045C383.726 187.24 383.595 187.477 383.595 187.754H382.505C382.505 187.438 382.617 187.133 382.839 186.84C383.066 186.543 383.371 186.309 383.753 186.137C384.14 185.965 384.564 185.879 385.025 185.879C385.755 185.879 386.328 186.062 386.742 186.43C387.156 186.793 387.371 187.295 387.386 187.936V190.854C387.386 191.436 387.46 191.898 387.609 192.242V192.336H386.472ZM384.673 191.51C385.013 191.51 385.335 191.422 385.64 191.246C385.945 191.07 386.166 190.842 386.302 190.561V189.26H385.453C384.124 189.26 383.46 189.648 383.46 190.426C383.46 190.766 383.574 191.031 383.8 191.223C384.027 191.414 384.318 191.51 384.673 191.51ZM390.263 192.336H389.179V183.336H390.263V192.336ZM357.416 206.336V197.805H359.824C360.566 197.805 361.222 197.969 361.792 198.297C362.363 198.625 362.802 199.092 363.111 199.697C363.423 200.303 363.582 200.998 363.585 201.783V202.328C363.585 203.133 363.429 203.838 363.117 204.443C362.808 205.049 362.365 205.514 361.787 205.838C361.212 206.162 360.542 206.328 359.777 206.336H357.416ZM358.541 198.73V205.416H359.724C360.591 205.416 361.265 205.146 361.746 204.607C362.23 204.068 362.472 203.301 362.472 202.305V201.807C362.472 200.838 362.244 200.086 361.787 199.551C361.333 199.012 360.689 198.738 359.853 198.73H358.541ZM367.751 206.453C366.892 206.453 366.193 206.172 365.654 205.609C365.115 205.043 364.845 204.287 364.845 203.342V203.143C364.845 202.514 364.964 201.953 365.203 201.461C365.445 200.965 365.781 200.578 366.21 200.301C366.644 200.02 367.113 199.879 367.617 199.879C368.441 199.879 369.082 200.15 369.539 200.693C369.996 201.236 370.224 202.014 370.224 203.025V203.477H365.929C365.945 204.102 366.126 204.607 366.474 204.994C366.826 205.377 367.271 205.568 367.81 205.568C368.193 205.568 368.517 205.49 368.783 205.334C369.048 205.178 369.281 204.971 369.48 204.713L370.142 205.229C369.611 206.045 368.814 206.453 367.751 206.453ZM367.617 200.77C367.179 200.77 366.812 200.93 366.515 201.25C366.218 201.566 366.035 202.012 365.964 202.586H369.14V202.504C369.109 201.953 368.96 201.527 368.695 201.227C368.429 200.922 368.07 200.77 367.617 200.77ZM375.175 204.654C375.175 204.361 375.064 204.135 374.841 203.975C374.623 203.811 374.238 203.67 373.687 203.553C373.14 203.436 372.705 203.295 372.38 203.131C372.06 202.967 371.822 202.771 371.666 202.545C371.513 202.318 371.437 202.049 371.437 201.736C371.437 201.217 371.656 200.777 372.093 200.418C372.535 200.059 373.097 199.879 373.781 199.879C374.499 199.879 375.082 200.064 375.527 200.436C375.976 200.807 376.201 201.281 376.201 201.859H375.111C375.111 201.562 374.984 201.307 374.73 201.092C374.48 200.877 374.164 200.77 373.781 200.77C373.386 200.77 373.078 200.855 372.855 201.027C372.632 201.199 372.521 201.424 372.521 201.701C372.521 201.963 372.624 202.16 372.832 202.293C373.039 202.426 373.412 202.553 373.951 202.674C374.494 202.795 374.933 202.939 375.269 203.107C375.605 203.275 375.853 203.479 376.013 203.717C376.177 203.951 376.259 204.238 376.259 204.578C376.259 205.145 376.033 205.6 375.58 205.943C375.126 206.283 374.539 206.453 373.816 206.453C373.308 206.453 372.859 206.363 372.468 206.184C372.078 206.004 371.771 205.754 371.548 205.434C371.33 205.109 371.22 204.76 371.22 204.385H372.304C372.324 204.748 372.468 205.037 372.738 205.252C373.011 205.463 373.371 205.568 373.816 205.568C374.226 205.568 374.554 205.486 374.8 205.322C375.05 205.154 375.175 204.932 375.175 204.654ZM378.849 206.336H377.765V199.996H378.849V206.336ZM377.677 198.314C377.677 198.139 377.73 197.99 377.835 197.869C377.945 197.748 378.105 197.688 378.316 197.688C378.527 197.688 378.687 197.748 378.796 197.869C378.906 197.99 378.96 198.139 378.96 198.314C378.96 198.49 378.906 198.637 378.796 198.754C378.687 198.871 378.527 198.93 378.316 198.93C378.105 198.93 377.945 198.871 377.835 198.754C377.73 198.637 377.677 198.49 377.677 198.314ZM380.332 203.113C380.332 202.125 380.56 201.34 381.017 200.758C381.474 200.172 382.08 199.879 382.833 199.879C383.607 199.879 384.21 200.152 384.644 200.699L384.697 199.996H385.687V206.184C385.687 207.004 385.443 207.65 384.955 208.123C384.47 208.596 383.818 208.832 382.998 208.832C382.541 208.832 382.093 208.734 381.656 208.539C381.218 208.344 380.884 208.076 380.654 207.736L381.216 207.086C381.681 207.66 382.249 207.947 382.921 207.947C383.449 207.947 383.859 207.799 384.152 207.502C384.449 207.205 384.597 206.787 384.597 206.248V205.703C384.164 206.203 383.572 206.453 382.822 206.453C382.08 206.453 381.478 206.154 381.017 205.557C380.56 204.959 380.332 204.145 380.332 203.113ZM381.421 203.236C381.421 203.951 381.568 204.514 381.861 204.924C382.154 205.33 382.564 205.533 383.091 205.533C383.775 205.533 384.277 205.223 384.597 204.602V201.707C384.265 201.102 383.767 200.799 383.103 200.799C382.576 200.799 382.164 201.004 381.867 201.414C381.57 201.824 381.421 202.432 381.421 203.236ZM388.353 199.996L388.388 200.793C388.873 200.184 389.505 199.879 390.287 199.879C391.626 199.879 392.302 200.635 392.314 202.146V206.336H391.23V202.141C391.226 201.684 391.121 201.346 390.914 201.127C390.71 200.908 390.392 200.799 389.958 200.799C389.607 200.799 389.298 200.893 389.033 201.08C388.767 201.268 388.56 201.514 388.412 201.818V206.336H387.328V199.996H388.353Z" fill="#54565A"/>
<path d="M290.043 324.898H288.918V316.367H290.043V324.898ZM292.961 318.559L292.996 319.355C293.481 318.746 294.113 318.441 294.895 318.441C296.235 318.441 296.91 319.197 296.922 320.709V324.898H295.838V320.703C295.834 320.246 295.729 319.908 295.522 319.689C295.319 319.471 295 319.361 294.567 319.361C294.215 319.361 293.906 319.455 293.641 319.643C293.375 319.83 293.168 320.076 293.02 320.381V324.898H291.936V318.559H292.961ZM299.09 324.898V319.396H298.088V318.559H299.09V317.908C299.09 317.229 299.272 316.703 299.635 316.332C299.998 315.961 300.512 315.775 301.176 315.775C301.426 315.775 301.674 315.809 301.92 315.875L301.861 316.754C301.678 316.719 301.483 316.701 301.276 316.701C300.924 316.701 300.652 316.805 300.461 317.012C300.27 317.215 300.174 317.508 300.174 317.891V318.559H301.527V319.396H300.174V324.898H299.09ZM302.442 321.67C302.442 321.049 302.563 320.49 302.805 319.994C303.051 319.498 303.391 319.115 303.824 318.846C304.262 318.576 304.76 318.441 305.319 318.441C306.182 318.441 306.879 318.74 307.41 319.338C307.945 319.936 308.213 320.73 308.213 321.723V321.799C308.213 322.416 308.094 322.971 307.856 323.463C307.621 323.951 307.283 324.332 306.842 324.605C306.404 324.879 305.901 325.016 305.33 325.016C304.471 325.016 303.774 324.717 303.238 324.119C302.707 323.521 302.442 322.73 302.442 321.746V321.67ZM303.531 321.799C303.531 322.502 303.694 323.066 304.018 323.492C304.346 323.918 304.783 324.131 305.33 324.131C305.881 324.131 306.319 323.916 306.643 323.486C306.967 323.053 307.129 322.447 307.129 321.67C307.129 320.975 306.963 320.412 306.631 319.982C306.303 319.549 305.865 319.332 305.319 319.332C304.783 319.332 304.352 319.545 304.024 319.971C303.695 320.396 303.531 321.006 303.531 321.799ZM312.637 319.531C312.473 319.504 312.295 319.49 312.104 319.49C311.393 319.49 310.91 319.793 310.656 320.398V324.898H309.572V318.559H310.627L310.645 319.291C311 318.725 311.504 318.441 312.156 318.441C312.367 318.441 312.527 318.469 312.637 318.523V319.531ZM314.658 318.559L314.688 319.262C315.152 318.715 315.779 318.441 316.569 318.441C317.455 318.441 318.059 318.781 318.379 319.461C318.59 319.156 318.863 318.91 319.199 318.723C319.539 318.535 319.94 318.441 320.401 318.441C321.791 318.441 322.498 319.178 322.522 320.65V324.898H321.438V320.715C321.438 320.262 321.334 319.924 321.127 319.701C320.92 319.475 320.572 319.361 320.084 319.361C319.682 319.361 319.348 319.482 319.082 319.725C318.817 319.963 318.662 320.285 318.619 320.691V324.898H317.529V320.744C317.529 319.822 317.078 319.361 316.176 319.361C315.465 319.361 314.979 319.664 314.717 320.27V324.898H313.633V318.559H314.658ZM328.076 324.898C328.014 324.773 327.963 324.551 327.924 324.23C327.42 324.754 326.819 325.016 326.119 325.016C325.494 325.016 324.981 324.84 324.578 324.488C324.18 324.133 323.981 323.684 323.981 323.141C323.981 322.48 324.231 321.969 324.731 321.605C325.235 321.238 325.942 321.055 326.852 321.055H327.906V320.557C327.906 320.178 327.793 319.877 327.567 319.654C327.34 319.428 327.006 319.314 326.565 319.314C326.178 319.314 325.854 319.412 325.592 319.607C325.33 319.803 325.199 320.039 325.199 320.316H324.11C324.11 320 324.221 319.695 324.444 319.402C324.67 319.105 324.975 318.871 325.358 318.699C325.744 318.527 326.168 318.441 326.629 318.441C327.36 318.441 327.932 318.625 328.346 318.992C328.76 319.355 328.975 319.857 328.99 320.498V323.416C328.99 323.998 329.065 324.461 329.213 324.805V324.898H328.076ZM326.277 324.072C326.617 324.072 326.94 323.984 327.244 323.809C327.549 323.633 327.77 323.404 327.906 323.123V321.822H327.057C325.729 321.822 325.065 322.211 325.065 322.988C325.065 323.328 325.178 323.594 325.404 323.785C325.631 323.977 325.922 324.072 326.277 324.072ZM332.16 317.023V318.559H333.344V319.396H332.16V323.328C332.16 323.582 332.213 323.773 332.318 323.902C332.424 324.027 332.604 324.09 332.858 324.09C332.983 324.09 333.154 324.066 333.373 324.02V324.898C333.088 324.977 332.811 325.016 332.541 325.016C332.057 325.016 331.692 324.869 331.445 324.576C331.199 324.283 331.076 323.867 331.076 323.328V319.396H329.922V318.559H331.076V317.023H332.16ZM335.793 324.898H334.709V318.559H335.793V324.898ZM334.621 316.877C334.621 316.701 334.674 316.553 334.779 316.432C334.889 316.311 335.049 316.25 335.26 316.25C335.471 316.25 335.631 316.311 335.74 316.432C335.85 316.553 335.904 316.701 335.904 316.877C335.904 317.053 335.85 317.199 335.74 317.316C335.631 317.434 335.471 317.492 335.26 317.492C335.049 317.492 334.889 317.434 334.779 317.316C334.674 317.199 334.621 317.053 334.621 316.877ZM337.246 321.67C337.246 321.049 337.367 320.49 337.61 319.994C337.856 319.498 338.195 319.115 338.629 318.846C339.067 318.576 339.565 318.441 340.123 318.441C340.986 318.441 341.684 318.74 342.215 319.338C342.75 319.936 343.018 320.73 343.018 321.723V321.799C343.018 322.416 342.899 322.971 342.66 323.463C342.426 323.951 342.088 324.332 341.647 324.605C341.209 324.879 340.705 325.016 340.135 325.016C339.276 325.016 338.578 324.717 338.043 324.119C337.512 323.521 337.246 322.73 337.246 321.746V321.67ZM338.336 321.799C338.336 322.502 338.498 323.066 338.822 323.492C339.151 323.918 339.588 324.131 340.135 324.131C340.686 324.131 341.123 323.916 341.447 323.486C341.772 323.053 341.934 322.447 341.934 321.67C341.934 320.975 341.768 320.412 341.436 319.982C341.108 319.549 340.67 319.332 340.123 319.332C339.588 319.332 339.156 319.545 338.828 319.971C338.5 320.396 338.336 321.006 338.336 321.799ZM345.402 318.559L345.438 319.355C345.922 318.746 346.555 318.441 347.336 318.441C348.676 318.441 349.352 319.197 349.363 320.709V324.898H348.279V320.703C348.276 320.246 348.17 319.908 347.963 319.689C347.76 319.471 347.442 319.361 347.008 319.361C346.656 319.361 346.348 319.455 346.082 319.643C345.817 319.83 345.61 320.076 345.461 320.381V324.898H344.377V318.559H345.402ZM301.651 338.898V330.367H304.059C304.801 330.367 305.457 330.531 306.027 330.859C306.598 331.188 307.037 331.654 307.346 332.26C307.658 332.865 307.817 333.561 307.82 334.346V334.891C307.82 335.695 307.664 336.4 307.352 337.006C307.043 337.611 306.6 338.076 306.022 338.4C305.447 338.725 304.777 338.891 304.012 338.898H301.651ZM302.776 331.293V337.979H303.959C304.826 337.979 305.5 337.709 305.981 337.17C306.465 336.631 306.707 335.863 306.707 334.867V334.369C306.707 333.4 306.479 332.648 306.022 332.113C305.569 331.574 304.924 331.301 304.088 331.293H302.776ZM311.986 339.016C311.127 339.016 310.428 338.734 309.889 338.172C309.35 337.605 309.08 336.85 309.08 335.904V335.705C309.08 335.076 309.199 334.516 309.438 334.023C309.68 333.527 310.016 333.141 310.445 332.863C310.879 332.582 311.348 332.441 311.852 332.441C312.676 332.441 313.317 332.713 313.774 333.256C314.231 333.799 314.459 334.576 314.459 335.588V336.039H310.164C310.18 336.664 310.361 337.17 310.709 337.557C311.061 337.939 311.506 338.131 312.045 338.131C312.428 338.131 312.752 338.053 313.018 337.896C313.283 337.74 313.516 337.533 313.715 337.275L314.377 337.791C313.846 338.607 313.049 339.016 311.986 339.016ZM311.852 333.332C311.414 333.332 311.047 333.492 310.75 333.812C310.453 334.129 310.27 334.574 310.199 335.148H313.375V335.066C313.344 334.516 313.195 334.09 312.93 333.789C312.664 333.484 312.305 333.332 311.852 333.332ZM319.41 337.217C319.41 336.924 319.299 336.697 319.076 336.537C318.858 336.373 318.473 336.232 317.922 336.115C317.375 335.998 316.94 335.857 316.615 335.693C316.295 335.529 316.057 335.334 315.901 335.107C315.748 334.881 315.672 334.611 315.672 334.299C315.672 333.779 315.891 333.34 316.328 332.98C316.77 332.621 317.332 332.441 318.016 332.441C318.735 332.441 319.317 332.627 319.762 332.998C320.211 333.369 320.436 333.844 320.436 334.422H319.346C319.346 334.125 319.219 333.869 318.965 333.654C318.715 333.439 318.399 333.332 318.016 333.332C317.621 333.332 317.313 333.418 317.09 333.59C316.867 333.762 316.756 333.986 316.756 334.264C316.756 334.525 316.86 334.723 317.067 334.855C317.274 334.988 317.647 335.115 318.186 335.236C318.729 335.357 319.168 335.502 319.504 335.67C319.84 335.838 320.088 336.041 320.248 336.279C320.412 336.514 320.494 336.801 320.494 337.141C320.494 337.707 320.268 338.162 319.815 338.506C319.361 338.846 318.774 339.016 318.051 339.016C317.543 339.016 317.094 338.926 316.703 338.746C316.313 338.566 316.006 338.316 315.783 337.996C315.565 337.672 315.455 337.322 315.455 336.947H316.539C316.559 337.311 316.703 337.6 316.973 337.814C317.246 338.025 317.606 338.131 318.051 338.131C318.461 338.131 318.789 338.049 319.035 337.885C319.285 337.717 319.41 337.494 319.41 337.217ZM323.084 338.898H322V332.559H323.084V338.898ZM321.912 330.877C321.912 330.701 321.965 330.553 322.07 330.432C322.18 330.311 322.34 330.25 322.551 330.25C322.762 330.25 322.922 330.311 323.031 330.432C323.141 330.553 323.195 330.701 323.195 330.877C323.195 331.053 323.141 331.199 323.031 331.316C322.922 331.434 322.762 331.492 322.551 331.492C322.34 331.492 322.18 331.434 322.07 331.316C321.965 331.199 321.912 331.053 321.912 330.877ZM324.567 335.676C324.567 334.688 324.795 333.902 325.252 333.32C325.709 332.734 326.315 332.441 327.069 332.441C327.842 332.441 328.445 332.715 328.879 333.262L328.932 332.559H329.922V338.746C329.922 339.566 329.678 340.213 329.19 340.686C328.705 341.158 328.053 341.395 327.233 341.395C326.776 341.395 326.328 341.297 325.891 341.102C325.453 340.906 325.119 340.639 324.889 340.299L325.451 339.648C325.916 340.223 326.485 340.51 327.156 340.51C327.684 340.51 328.094 340.361 328.387 340.064C328.684 339.768 328.832 339.35 328.832 338.811V338.266C328.399 338.766 327.807 339.016 327.057 339.016C326.315 339.016 325.713 338.717 325.252 338.119C324.795 337.521 324.567 336.707 324.567 335.676ZM325.656 335.799C325.656 336.514 325.803 337.076 326.096 337.486C326.389 337.893 326.799 338.096 327.326 338.096C328.01 338.096 328.512 337.785 328.832 337.164V334.27C328.5 333.664 328.002 333.361 327.338 333.361C326.811 333.361 326.399 333.566 326.102 333.977C325.805 334.387 325.656 334.994 325.656 335.799ZM332.588 332.559L332.623 333.355C333.108 332.746 333.74 332.441 334.522 332.441C335.861 332.441 336.537 333.197 336.549 334.709V338.898H335.465V334.703C335.461 334.246 335.356 333.908 335.149 333.689C334.945 333.471 334.627 333.361 334.193 333.361C333.842 333.361 333.533 333.455 333.268 333.643C333.002 333.83 332.795 334.076 332.647 334.381V338.898H331.563V332.559H332.588Z" fill="#54565A"/>
<path d="M165.327 369.836H164.202V361.305H165.327V369.836ZM168.245 363.496L168.28 364.293C168.765 363.684 169.398 363.379 170.179 363.379C171.519 363.379 172.195 364.135 172.206 365.646V369.836H171.122V365.641C171.118 365.184 171.013 364.846 170.806 364.627C170.603 364.408 170.284 364.299 169.851 364.299C169.499 364.299 169.191 364.393 168.925 364.58C168.659 364.768 168.452 365.014 168.304 365.318V369.836H167.22V363.496H168.245ZM175.312 361.961V363.496H176.495V364.334H175.312V368.266C175.312 368.52 175.364 368.711 175.47 368.84C175.575 368.965 175.755 369.027 176.009 369.027C176.134 369.027 176.306 369.004 176.525 368.957V369.836C176.239 369.914 175.962 369.953 175.693 369.953C175.208 369.953 174.843 369.807 174.597 369.514C174.351 369.221 174.228 368.805 174.228 368.266V364.334H173.073V363.496H174.228V361.961H175.312ZM180.398 369.953C179.538 369.953 178.839 369.672 178.3 369.109C177.761 368.543 177.491 367.787 177.491 366.842V366.643C177.491 366.014 177.611 365.453 177.849 364.961C178.091 364.465 178.427 364.078 178.857 363.801C179.29 363.52 179.759 363.379 180.263 363.379C181.087 363.379 181.728 363.65 182.185 364.193C182.642 364.736 182.87 365.514 182.87 366.525V366.977H178.575C178.591 367.602 178.773 368.107 179.12 368.494C179.472 368.877 179.917 369.068 180.456 369.068C180.839 369.068 181.163 368.99 181.429 368.834C181.695 368.678 181.927 368.471 182.126 368.213L182.788 368.729C182.257 369.545 181.46 369.953 180.398 369.953ZM180.263 364.27C179.825 364.27 179.458 364.43 179.161 364.75C178.864 365.066 178.681 365.512 178.611 366.086H181.786V366.004C181.755 365.453 181.607 365.027 181.341 364.727C181.075 364.422 180.716 364.27 180.263 364.27ZM187.195 364.469C187.03 364.441 186.853 364.428 186.661 364.428C185.95 364.428 185.468 364.73 185.214 365.336V369.836H184.13V363.496H185.185L185.202 364.229C185.558 363.662 186.062 363.379 186.714 363.379C186.925 363.379 187.085 363.406 187.195 363.461V364.469ZM191.876 369.836C191.814 369.711 191.763 369.488 191.724 369.168C191.22 369.691 190.618 369.953 189.919 369.953C189.294 369.953 188.78 369.777 188.378 369.426C187.98 369.07 187.78 368.621 187.78 368.078C187.78 367.418 188.03 366.906 188.53 366.543C189.034 366.176 189.741 365.992 190.652 365.992H191.706V365.494C191.706 365.115 191.593 364.814 191.366 364.592C191.14 364.365 190.806 364.252 190.364 364.252C189.978 364.252 189.654 364.35 189.392 364.545C189.13 364.74 188.999 364.977 188.999 365.254H187.909C187.909 364.938 188.021 364.633 188.243 364.34C188.47 364.043 188.775 363.809 189.157 363.637C189.544 363.465 189.968 363.379 190.429 363.379C191.159 363.379 191.732 363.562 192.146 363.93C192.56 364.293 192.775 364.795 192.79 365.436V368.354C192.79 368.936 192.864 369.398 193.013 369.742V369.836H191.876ZM190.077 369.01C190.417 369.01 190.739 368.922 191.044 368.746C191.349 368.57 191.57 368.342 191.706 368.061V366.76H190.857C189.529 366.76 188.864 367.148 188.864 367.926C188.864 368.266 188.978 368.531 189.204 368.723C189.431 368.914 189.722 369.01 190.077 369.01ZM197.032 369.068C197.419 369.068 197.757 368.951 198.046 368.717C198.335 368.482 198.495 368.189 198.527 367.838H199.552C199.532 368.201 199.407 368.547 199.177 368.875C198.946 369.203 198.638 369.465 198.251 369.66C197.868 369.855 197.462 369.953 197.032 369.953C196.169 369.953 195.482 369.666 194.97 369.092C194.462 368.514 194.208 367.725 194.208 366.725V366.543C194.208 365.926 194.321 365.377 194.548 364.896C194.775 364.416 195.099 364.043 195.521 363.777C195.946 363.512 196.448 363.379 197.027 363.379C197.738 363.379 198.327 363.592 198.796 364.018C199.269 364.443 199.521 364.996 199.552 365.676H198.527C198.495 365.266 198.339 364.93 198.058 364.668C197.78 364.402 197.437 364.27 197.027 364.27C196.476 364.27 196.048 364.469 195.743 364.867C195.443 365.262 195.292 365.834 195.292 366.584V366.789C195.292 367.52 195.443 368.082 195.743 368.477C196.044 368.871 196.474 369.068 197.032 369.068ZM202.241 361.961V363.496H203.425V364.334H202.241V368.266C202.241 368.52 202.294 368.711 202.4 368.84C202.505 368.965 202.685 369.027 202.939 369.027C203.064 369.027 203.236 369.004 203.454 368.957V369.836C203.169 369.914 202.892 369.953 202.622 369.953C202.138 369.953 201.773 369.807 201.527 369.514C201.28 369.221 201.157 368.805 201.157 368.266V364.334H200.003V363.496H201.157V361.961H202.241ZM205.874 369.836H204.79V363.496H205.874V369.836ZM204.702 361.814C204.702 361.639 204.755 361.49 204.861 361.369C204.97 361.248 205.13 361.188 205.341 361.188C205.552 361.188 205.712 361.248 205.821 361.369C205.931 361.49 205.986 361.639 205.986 361.814C205.986 361.99 205.931 362.137 205.821 362.254C205.712 362.371 205.552 362.43 205.341 362.43C205.13 362.43 204.97 362.371 204.861 362.254C204.755 362.137 204.702 361.99 204.702 361.814ZM207.327 366.607C207.327 365.986 207.448 365.428 207.691 364.932C207.937 364.436 208.277 364.053 208.71 363.783C209.148 363.514 209.646 363.379 210.204 363.379C211.068 363.379 211.765 363.678 212.296 364.275C212.831 364.873 213.099 365.668 213.099 366.66V366.736C213.099 367.354 212.98 367.908 212.741 368.4C212.507 368.889 212.169 369.27 211.728 369.543C211.29 369.816 210.786 369.953 210.216 369.953C209.357 369.953 208.659 369.654 208.124 369.057C207.593 368.459 207.327 367.668 207.327 366.684V366.607ZM208.417 366.736C208.417 367.439 208.579 368.004 208.904 368.43C209.232 368.855 209.669 369.068 210.216 369.068C210.767 369.068 211.204 368.854 211.529 368.424C211.853 367.99 212.015 367.385 212.015 366.607C212.015 365.912 211.849 365.35 211.517 364.92C211.189 364.486 210.751 364.27 210.204 364.27C209.669 364.27 209.238 364.482 208.909 364.908C208.581 365.334 208.417 365.943 208.417 366.736ZM215.484 363.496L215.519 364.293C216.003 363.684 216.636 363.379 217.417 363.379C218.757 363.379 219.433 364.135 219.445 365.646V369.836H218.361V365.641C218.357 365.184 218.251 364.846 218.044 364.627C217.841 364.408 217.523 364.299 217.089 364.299C216.738 364.299 216.429 364.393 216.163 364.58C215.898 364.768 215.691 365.014 215.542 365.318V369.836H214.458V363.496H215.484ZM174.333 383.836V375.305H176.741C177.484 375.305 178.14 375.469 178.71 375.797C179.28 376.125 179.72 376.592 180.029 377.197C180.341 377.803 180.499 378.498 180.503 379.283V379.828C180.503 380.633 180.347 381.338 180.034 381.943C179.726 382.549 179.282 383.014 178.704 383.338C178.13 383.662 177.46 383.828 176.695 383.836H174.333ZM175.458 376.23V382.916H176.642C177.509 382.916 178.183 382.646 178.663 382.107C179.148 381.568 179.39 380.801 179.39 379.805V379.307C179.39 378.338 179.161 377.586 178.704 377.051C178.251 376.512 177.607 376.238 176.771 376.23H175.458ZM184.669 383.953C183.81 383.953 183.111 383.672 182.571 383.109C182.032 382.543 181.763 381.787 181.763 380.842V380.643C181.763 380.014 181.882 379.453 182.12 378.961C182.363 378.465 182.698 378.078 183.128 377.801C183.562 377.52 184.03 377.379 184.534 377.379C185.359 377.379 185.999 377.65 186.456 378.193C186.913 378.736 187.142 379.514 187.142 380.525V380.977H182.847C182.863 381.602 183.044 382.107 183.392 382.494C183.743 382.877 184.189 383.068 184.728 383.068C185.111 383.068 185.435 382.99 185.7 382.834C185.966 382.678 186.198 382.471 186.398 382.213L187.06 382.729C186.529 383.545 185.732 383.953 184.669 383.953ZM184.534 378.27C184.097 378.27 183.73 378.43 183.433 378.75C183.136 379.066 182.952 379.512 182.882 380.086H186.058V380.004C186.027 379.453 185.878 379.027 185.613 378.727C185.347 378.422 184.988 378.27 184.534 378.27ZM192.093 382.154C192.093 381.861 191.982 381.635 191.759 381.475C191.54 381.311 191.155 381.17 190.605 381.053C190.058 380.936 189.622 380.795 189.298 380.631C188.978 380.467 188.739 380.271 188.583 380.045C188.431 379.818 188.355 379.549 188.355 379.236C188.355 378.717 188.573 378.277 189.011 377.918C189.452 377.559 190.015 377.379 190.698 377.379C191.417 377.379 191.999 377.564 192.445 377.936C192.894 378.307 193.118 378.781 193.118 379.359H192.029C192.029 379.062 191.902 378.807 191.648 378.592C191.398 378.377 191.081 378.27 190.698 378.27C190.304 378.27 189.995 378.355 189.773 378.527C189.55 378.699 189.439 378.924 189.439 379.201C189.439 379.463 189.542 379.66 189.749 379.793C189.956 379.926 190.329 380.053 190.868 380.174C191.411 380.295 191.851 380.439 192.187 380.607C192.523 380.775 192.771 380.979 192.931 381.217C193.095 381.451 193.177 381.738 193.177 382.078C193.177 382.645 192.95 383.1 192.497 383.443C192.044 383.783 191.456 383.953 190.734 383.953C190.226 383.953 189.777 383.863 189.386 383.684C188.995 383.504 188.689 383.254 188.466 382.934C188.247 382.609 188.138 382.26 188.138 381.885H189.222C189.241 382.248 189.386 382.537 189.655 382.752C189.929 382.963 190.288 383.068 190.734 383.068C191.144 383.068 191.472 382.986 191.718 382.822C191.968 382.654 192.093 382.432 192.093 382.154ZM195.767 383.836H194.683V377.496H195.767V383.836ZM194.595 375.814C194.595 375.639 194.648 375.49 194.753 375.369C194.863 375.248 195.023 375.188 195.234 375.188C195.445 375.188 195.605 375.248 195.714 375.369C195.823 375.49 195.878 375.639 195.878 375.814C195.878 375.99 195.823 376.137 195.714 376.254C195.605 376.371 195.445 376.43 195.234 376.43C195.023 376.43 194.863 376.371 194.753 376.254C194.648 376.137 194.595 375.99 194.595 375.814ZM197.249 380.613C197.249 379.625 197.478 378.84 197.935 378.258C198.392 377.672 198.997 377.379 199.751 377.379C200.525 377.379 201.128 377.652 201.562 378.199L201.614 377.496H202.605V383.684C202.605 384.504 202.361 385.15 201.872 385.623C201.388 386.096 200.736 386.332 199.915 386.332C199.458 386.332 199.011 386.234 198.573 386.039C198.136 385.844 197.802 385.576 197.571 385.236L198.134 384.586C198.599 385.16 199.167 385.447 199.839 385.447C200.366 385.447 200.777 385.299 201.07 385.002C201.366 384.705 201.515 384.287 201.515 383.748V383.203C201.081 383.703 200.489 383.953 199.739 383.953C198.997 383.953 198.396 383.654 197.935 383.057C197.478 382.459 197.249 381.645 197.249 380.613ZM198.339 380.736C198.339 381.451 198.486 382.014 198.779 382.424C199.071 382.83 199.482 383.033 200.009 383.033C200.693 383.033 201.195 382.723 201.515 382.102V379.207C201.183 378.602 200.685 378.299 200.021 378.299C199.493 378.299 199.081 378.504 198.784 378.914C198.488 379.324 198.339 379.932 198.339 380.736ZM205.271 377.496L205.306 378.293C205.79 377.684 206.423 377.379 207.204 377.379C208.544 377.379 209.22 378.135 209.232 379.646V383.836H208.148V379.641C208.144 379.184 208.038 378.846 207.831 378.627C207.628 378.408 207.31 378.299 206.876 378.299C206.525 378.299 206.216 378.393 205.95 378.58C205.685 378.768 205.478 379.014 205.329 379.318V383.836H204.245V377.496H205.271Z" fill="#54565A"/>
<path d="M47.3664 323.408H43.7863V327.176H42.6613V318.645H47.9465V319.57H43.7863V322.488H47.3664V323.408ZM52.8391 327.176C52.7766 327.051 52.7258 326.828 52.6867 326.508C52.1828 327.031 51.5813 327.293 50.882 327.293C50.257 327.293 49.7434 327.117 49.341 326.766C48.9426 326.41 48.7434 325.961 48.7434 325.418C48.7434 324.758 48.9934 324.246 49.4934 323.883C49.9973 323.516 50.7043 323.332 51.6145 323.332H52.6692V322.834C52.6692 322.455 52.5559 322.154 52.3293 321.932C52.1027 321.705 51.7688 321.592 51.3274 321.592C50.9406 321.592 50.6164 321.689 50.3547 321.885C50.093 322.08 49.9621 322.316 49.9621 322.594H48.8723C48.8723 322.277 48.9836 321.973 49.2063 321.68C49.4328 321.383 49.7375 321.148 50.1203 320.977C50.507 320.805 50.9309 320.719 51.3918 320.719C52.1223 320.719 52.6945 320.902 53.1086 321.27C53.5227 321.633 53.7375 322.135 53.7531 322.775V325.693C53.7531 326.275 53.8274 326.738 53.9758 327.082V327.176H52.8391ZM51.0402 326.35C51.3801 326.35 51.7024 326.262 52.007 326.086C52.3117 325.91 52.5324 325.682 52.6692 325.4V324.1H51.8195C50.4914 324.1 49.8274 324.488 49.8274 325.266C49.8274 325.605 49.9406 325.871 50.1672 326.062C50.3938 326.254 50.6848 326.35 51.0402 326.35ZM59.1438 325.494C59.1438 325.201 59.0324 324.975 58.8098 324.814C58.591 324.65 58.2063 324.51 57.6555 324.393C57.1086 324.275 56.6731 324.135 56.3488 323.971C56.0285 323.807 55.7902 323.611 55.634 323.385C55.4817 323.158 55.4055 322.889 55.4055 322.576C55.4055 322.057 55.6242 321.617 56.0617 321.258C56.5031 320.898 57.0656 320.719 57.7492 320.719C58.468 320.719 59.05 320.904 59.4953 321.275C59.9445 321.646 60.1692 322.121 60.1692 322.699H59.0793C59.0793 322.402 58.9524 322.146 58.6984 321.932C58.4484 321.717 58.132 321.609 57.7492 321.609C57.3547 321.609 57.0461 321.695 56.8234 321.867C56.6008 322.039 56.4895 322.264 56.4895 322.541C56.4895 322.803 56.593 323 56.8 323.133C57.007 323.266 57.3801 323.393 57.9192 323.514C58.4621 323.635 58.9016 323.779 59.2375 323.947C59.5734 324.115 59.8215 324.318 59.9817 324.557C60.1457 324.791 60.2277 325.078 60.2277 325.418C60.2277 325.984 60.0012 326.439 59.5481 326.783C59.0949 327.123 58.507 327.293 57.7844 327.293C57.2766 327.293 56.8274 327.203 56.4367 327.023C56.0461 326.844 55.7395 326.594 55.5168 326.273C55.2981 325.949 55.1887 325.6 55.1887 325.225H56.2727C56.2922 325.588 56.4367 325.877 56.7063 326.092C56.9797 326.303 57.3391 326.408 57.7844 326.408C58.1945 326.408 58.5227 326.326 58.7688 326.162C59.0188 325.994 59.1438 325.771 59.1438 325.494ZM63.1106 319.301V320.836H64.2942V321.674H63.1106V325.605C63.1106 325.859 63.1633 326.051 63.2688 326.18C63.3742 326.305 63.5539 326.367 63.8078 326.367C63.9328 326.367 64.1047 326.344 64.3234 326.297V327.176C64.0383 327.254 63.7609 327.293 63.4914 327.293C63.007 327.293 62.6418 327.146 62.3957 326.854C62.1496 326.561 62.0266 326.145 62.0266 325.605V321.674H60.8723V320.836H62.0266V319.301H63.1106ZM69.9192 327.176H68.7942V318.645H69.9192V327.176ZM73.2824 319.301V320.836H74.466V321.674H73.2824V325.605C73.2824 325.859 73.3352 326.051 73.4406 326.18C73.5461 326.305 73.7258 326.367 73.9797 326.367C74.1047 326.367 74.2766 326.344 74.4953 326.297V327.176C74.2102 327.254 73.9328 327.293 73.6633 327.293C73.1789 327.293 72.8137 327.146 72.5676 326.854C72.3215 326.561 72.1984 326.145 72.1984 325.605V321.674H71.0442V320.836H72.1984V319.301H73.2824ZM78.3684 327.293C77.509 327.293 76.8098 327.012 76.2707 326.449C75.7317 325.883 75.4621 325.127 75.4621 324.182V323.982C75.4621 323.354 75.5813 322.793 75.8195 322.301C76.0617 321.805 76.3977 321.418 76.8274 321.141C77.2609 320.859 77.7297 320.719 78.2336 320.719C79.0578 320.719 79.6984 320.99 80.1555 321.533C80.6125 322.076 80.841 322.854 80.841 323.865V324.316H76.5461C76.5617 324.941 76.7434 325.447 77.091 325.834C77.4426 326.217 77.8879 326.408 78.427 326.408C78.8098 326.408 79.134 326.33 79.3996 326.174C79.6652 326.018 79.8977 325.811 80.0969 325.553L80.759 326.068C80.2277 326.885 79.4309 327.293 78.3684 327.293ZM78.2336 321.609C77.7961 321.609 77.4289 321.77 77.132 322.09C76.8352 322.406 76.6516 322.852 76.5813 323.426H79.757V323.344C79.7258 322.793 79.5774 322.367 79.3117 322.066C79.0461 321.762 78.6867 321.609 78.2336 321.609ZM85.1652 321.809C85.0012 321.781 84.8234 321.768 84.632 321.768C83.9211 321.768 83.4387 322.07 83.1848 322.676V327.176H82.1008V320.836H83.1555L83.1731 321.568C83.5285 321.002 84.0324 320.719 84.6848 320.719C84.8957 320.719 85.0559 320.746 85.1652 320.801V321.809ZM89.8469 327.176C89.7844 327.051 89.7336 326.828 89.6945 326.508C89.1906 327.031 88.5891 327.293 87.8899 327.293C87.2649 327.293 86.7512 327.117 86.3488 326.766C85.9504 326.41 85.7512 325.961 85.7512 325.418C85.7512 324.758 86.0012 324.246 86.5012 323.883C87.0051 323.516 87.7121 323.332 88.6223 323.332H89.677V322.834C89.677 322.455 89.5637 322.154 89.3371 321.932C89.1106 321.705 88.7766 321.592 88.3352 321.592C87.9484 321.592 87.6242 321.689 87.3625 321.885C87.1008 322.08 86.9699 322.316 86.9699 322.594H85.8801C85.8801 322.277 85.9914 321.973 86.2141 321.68C86.4406 321.383 86.7453 321.148 87.1281 320.977C87.5149 320.805 87.9387 320.719 88.3996 320.719C89.1301 320.719 89.7024 320.902 90.1164 321.27C90.5305 321.633 90.7453 322.135 90.7609 322.775V325.693C90.7609 326.275 90.8352 326.738 90.9836 327.082V327.176H89.8469ZM88.0481 326.35C88.3879 326.35 88.7102 326.262 89.0149 326.086C89.3195 325.91 89.5402 325.682 89.677 325.4V324.1H88.8274C87.4992 324.1 86.8352 324.488 86.8352 325.266C86.8352 325.605 86.9484 325.871 87.175 326.062C87.4016 326.254 87.6926 326.35 88.0481 326.35ZM93.9309 319.301V320.836H95.1145V321.674H93.9309V325.605C93.9309 325.859 93.9836 326.051 94.0891 326.18C94.1945 326.305 94.3742 326.367 94.6281 326.367C94.7531 326.367 94.925 326.344 95.1438 326.297V327.176C94.8586 327.254 94.5813 327.293 94.3117 327.293C93.8274 327.293 93.4621 327.146 93.216 326.854C92.9699 326.561 92.8469 326.145 92.8469 325.605V321.674H91.6926V320.836H92.8469V319.301H93.9309ZM97.5637 327.176H96.4797V320.836H97.5637V327.176ZM96.3918 319.154C96.3918 318.979 96.4445 318.83 96.55 318.709C96.6594 318.588 96.8195 318.527 97.0305 318.527C97.2414 318.527 97.4016 318.588 97.5109 318.709C97.6203 318.83 97.675 318.979 97.675 319.154C97.675 319.33 97.6203 319.477 97.5109 319.594C97.4016 319.711 97.2414 319.77 97.0305 319.77C96.8195 319.77 96.6594 319.711 96.55 319.594C96.4445 319.477 96.3918 319.33 96.3918 319.154ZM99.0168 323.947C99.0168 323.326 99.1379 322.768 99.3801 322.271C99.6262 321.775 99.966 321.393 100.4 321.123C100.837 320.854 101.335 320.719 101.894 320.719C102.757 320.719 103.454 321.018 103.986 321.615C104.521 322.213 104.788 323.008 104.788 324V324.076C104.788 324.693 104.669 325.248 104.431 325.74C104.196 326.229 103.859 326.609 103.417 326.883C102.98 327.156 102.476 327.293 101.905 327.293C101.046 327.293 100.349 326.994 99.8137 326.396C99.2824 325.799 99.0168 325.008 99.0168 324.023V323.947ZM100.107 324.076C100.107 324.779 100.269 325.344 100.593 325.77C100.921 326.195 101.359 326.408 101.905 326.408C102.456 326.408 102.894 326.193 103.218 325.764C103.542 325.33 103.704 324.725 103.704 323.947C103.704 323.252 103.538 322.689 103.206 322.26C102.878 321.826 102.441 321.609 101.894 321.609C101.359 321.609 100.927 321.822 100.599 322.248C100.271 322.674 100.107 323.283 100.107 324.076ZM107.173 320.836L107.208 321.633C107.693 321.023 108.325 320.719 109.107 320.719C110.446 320.719 111.122 321.475 111.134 322.986V327.176H110.05V322.98C110.046 322.523 109.941 322.186 109.734 321.967C109.53 321.748 109.212 321.639 108.779 321.639C108.427 321.639 108.118 321.732 107.853 321.92C107.587 322.107 107.38 322.354 107.232 322.658V327.176H106.148V320.836H107.173ZM43.9094 332.645L46.6984 339.605L49.4875 332.645H50.9465V341.176H49.8215V337.854L49.927 334.268L47.1262 341.176H46.2649L43.4699 334.285L43.5813 337.854V341.176H42.4563V332.645H43.9094ZM56.677 341.176C56.6145 341.051 56.5637 340.828 56.5246 340.508C56.0207 341.031 55.4192 341.293 54.7199 341.293C54.0949 341.293 53.5813 341.117 53.1789 340.766C52.7805 340.41 52.5813 339.961 52.5813 339.418C52.5813 338.758 52.8313 338.246 53.3313 337.883C53.8352 337.516 54.5422 337.332 55.4524 337.332H56.507V336.834C56.507 336.455 56.3938 336.154 56.1672 335.932C55.9406 335.705 55.6067 335.592 55.1652 335.592C54.7785 335.592 54.4543 335.689 54.1926 335.885C53.9309 336.08 53.8 336.316 53.8 336.594H52.7102C52.7102 336.277 52.8215 335.973 53.0442 335.68C53.2707 335.383 53.5754 335.148 53.9582 334.977C54.3449 334.805 54.7688 334.719 55.2297 334.719C55.9602 334.719 56.5324 334.902 56.9465 335.27C57.3606 335.633 57.5754 336.135 57.591 336.775V339.693C57.591 340.275 57.6652 340.738 57.8137 341.082V341.176H56.677ZM54.8781 340.35C55.218 340.35 55.5402 340.262 55.8449 340.086C56.1496 339.91 56.3703 339.682 56.507 339.4V338.1H55.6574C54.3293 338.1 53.6652 338.488 53.6652 339.266C53.6652 339.605 53.7785 339.871 54.0051 340.062C54.2317 340.254 54.5227 340.35 54.8781 340.35ZM60.3156 334.836L60.3508 335.633C60.8352 335.023 61.468 334.719 62.2492 334.719C63.5891 334.719 64.2649 335.475 64.2766 336.986V341.176H63.1926V336.98C63.1887 336.523 63.0832 336.186 62.8762 335.967C62.6731 335.748 62.3547 335.639 61.9211 335.639C61.5695 335.639 61.2609 335.732 60.9953 335.92C60.7297 336.107 60.5227 336.354 60.3742 336.658V341.176H59.2902V334.836H60.3156ZM69.8254 341.176C69.7629 341.051 69.7121 340.828 69.6731 340.508C69.1692 341.031 68.5676 341.293 67.8684 341.293C67.2434 341.293 66.7297 341.117 66.3274 340.766C65.9289 340.41 65.7297 339.961 65.7297 339.418C65.7297 338.758 65.9797 338.246 66.4797 337.883C66.9836 337.516 67.6906 337.332 68.6008 337.332H69.6555V336.834C69.6555 336.455 69.5422 336.154 69.3156 335.932C69.0891 335.705 68.7551 335.592 68.3137 335.592C67.927 335.592 67.6027 335.689 67.341 335.885C67.0793 336.08 66.9484 336.316 66.9484 336.594H65.8586C65.8586 336.277 65.9699 335.973 66.1926 335.68C66.4192 335.383 66.7238 335.148 67.1067 334.977C67.4934 334.805 67.9172 334.719 68.3781 334.719C69.1086 334.719 69.6809 334.902 70.0949 335.27C70.509 335.633 70.7238 336.135 70.7395 336.775V339.693C70.7395 340.275 70.8137 340.738 70.9621 341.082V341.176H69.8254ZM68.0266 340.35C68.3664 340.35 68.6887 340.262 68.9934 340.086C69.2981 339.91 69.5188 339.682 69.6555 339.4V338.1H68.8059C67.4777 338.1 66.8137 338.488 66.8137 339.266C66.8137 339.605 66.927 339.871 67.1535 340.062C67.3801 340.254 67.6711 340.35 68.0266 340.35ZM72.1809 337.953C72.1809 336.965 72.4094 336.18 72.8664 335.598C73.3234 335.012 73.9289 334.719 74.6828 334.719C75.4563 334.719 76.0598 334.992 76.4934 335.539L76.5461 334.836H77.5363V341.023C77.5363 341.844 77.2922 342.49 76.8039 342.963C76.3195 343.436 75.6672 343.672 74.8469 343.672C74.3899 343.672 73.9426 343.574 73.5051 343.379C73.0676 343.184 72.7336 342.916 72.5031 342.576L73.0656 341.926C73.5305 342.5 74.0988 342.787 74.7707 342.787C75.2981 342.787 75.7082 342.639 76.0012 342.342C76.2981 342.045 76.4465 341.627 76.4465 341.088V340.543C76.0129 341.043 75.4211 341.293 74.6711 341.293C73.9289 341.293 73.3274 340.994 72.8664 340.396C72.4094 339.799 72.1809 338.984 72.1809 337.953ZM73.2707 338.076C73.2707 338.791 73.4172 339.354 73.7102 339.764C74.0031 340.17 74.4133 340.373 74.9406 340.373C75.6242 340.373 76.1262 340.062 76.4465 339.441V336.547C76.1145 335.941 75.6164 335.639 74.9524 335.639C74.425 335.639 74.0129 335.844 73.716 336.254C73.4192 336.664 73.2707 337.271 73.2707 338.076ZM81.8078 341.293C80.9484 341.293 80.2492 341.012 79.7102 340.449C79.1711 339.883 78.9016 339.127 78.9016 338.182V337.982C78.9016 337.354 79.0207 336.793 79.259 336.301C79.5012 335.805 79.8371 335.418 80.2668 335.141C80.7004 334.859 81.1692 334.719 81.6731 334.719C82.4973 334.719 83.1379 334.99 83.5949 335.533C84.052 336.076 84.2805 336.854 84.2805 337.865V338.316H79.9856C80.0012 338.941 80.1828 339.447 80.5305 339.834C80.882 340.217 81.3274 340.408 81.8664 340.408C82.2492 340.408 82.5734 340.33 82.8391 340.174C83.1047 340.018 83.3371 339.811 83.5363 339.553L84.1984 340.068C83.6672 340.885 82.8703 341.293 81.8078 341.293ZM81.6731 335.609C81.2356 335.609 80.8684 335.77 80.5715 336.09C80.2746 336.406 80.091 336.852 80.0207 337.426H83.1965V337.344C83.1652 336.793 83.0168 336.367 82.7512 336.066C82.4856 335.762 82.1262 335.609 81.6731 335.609ZM86.5598 334.836L86.5891 335.539C87.0539 334.992 87.6809 334.719 88.4699 334.719C89.3567 334.719 89.9602 335.059 90.2805 335.738C90.4914 335.434 90.7649 335.188 91.1008 335C91.4406 334.812 91.841 334.719 92.302 334.719C93.6926 334.719 94.3996 335.455 94.4231 336.928V341.176H93.3391V336.992C93.3391 336.539 93.2356 336.201 93.0285 335.979C92.8215 335.752 92.4738 335.639 91.9856 335.639C91.5832 335.639 91.2492 335.76 90.9836 336.002C90.718 336.24 90.5637 336.562 90.5207 336.969V341.176H89.4309V337.021C89.4309 336.1 88.9797 335.639 88.0774 335.639C87.3664 335.639 86.8801 335.941 86.6184 336.547V341.176H85.5344V334.836H86.5598ZM98.6945 341.293C97.8352 341.293 97.1359 341.012 96.5969 340.449C96.0578 339.883 95.7883 339.127 95.7883 338.182V337.982C95.7883 337.354 95.9074 336.793 96.1457 336.301C96.3879 335.805 96.7238 335.418 97.1535 335.141C97.5871 334.859 98.0559 334.719 98.5598 334.719C99.384 334.719 100.025 334.99 100.482 335.533C100.939 336.076 101.167 336.854 101.167 337.865V338.316H96.8723C96.8879 338.941 97.0695 339.447 97.4172 339.834C97.7688 340.217 98.2141 340.408 98.7531 340.408C99.1359 340.408 99.4602 340.33 99.7258 340.174C99.9914 340.018 100.224 339.811 100.423 339.553L101.085 340.068C100.554 340.885 99.757 341.293 98.6945 341.293ZM98.5598 335.609C98.1223 335.609 97.7551 335.77 97.4582 336.09C97.1613 336.406 96.9777 336.852 96.9074 337.426H100.083V337.344C100.052 336.793 99.9035 336.367 99.6379 336.066C99.3723 335.762 99.0129 335.609 98.5598 335.609ZM103.452 334.836L103.488 335.633C103.972 335.023 104.605 334.719 105.386 334.719C106.726 334.719 107.402 335.475 107.413 336.986V341.176H106.329V336.98C106.325 336.523 106.22 336.186 106.013 335.967C105.81 335.748 105.491 335.639 105.058 335.639C104.706 335.639 104.398 335.732 104.132 335.92C103.866 336.107 103.659 336.354 103.511 336.658V341.176H102.427V334.836H103.452ZM110.519 333.301V334.836H111.702V335.674H110.519V339.605C110.519 339.859 110.571 340.051 110.677 340.18C110.782 340.305 110.962 340.367 111.216 340.367C111.341 340.367 111.513 340.344 111.732 340.297V341.176C111.446 341.254 111.169 341.293 110.9 341.293C110.415 341.293 110.05 341.146 109.804 340.854C109.558 340.561 109.435 340.145 109.435 339.605V335.674H108.28V334.836H109.435V333.301H110.519Z" fill="#54565A"/>
<path d="M7.55273 183.09C7.44727 183.992 7.11328 184.689 6.55078 185.182C5.99219 185.67 5.24805 185.914 4.31836 185.914C3.31055 185.914 2.50195 185.553 1.89258 184.83C1.28711 184.107 0.984375 183.141 0.984375 181.93V181.109C0.984375 180.316 1.125 179.619 1.40625 179.018C1.69141 178.416 2.09375 177.955 2.61328 177.635C3.13281 177.311 3.73438 177.148 4.41797 177.148C5.32422 177.148 6.05078 177.402 6.59766 177.91C7.14453 178.414 7.46289 179.113 7.55273 180.008H6.42188C6.32422 179.328 6.11133 178.836 5.7832 178.531C5.45898 178.227 5.00391 178.074 4.41797 178.074C3.69922 178.074 3.13477 178.34 2.72461 178.871C2.31836 179.402 2.11523 180.158 2.11523 181.139V181.965C2.11523 182.891 2.30859 183.627 2.69531 184.174C3.08203 184.721 3.62305 184.994 4.31836 184.994C4.94336 184.994 5.42188 184.854 5.75391 184.572C6.08984 184.287 6.3125 183.793 6.42188 183.09H7.55273ZM8.63672 182.568C8.63672 181.947 8.75781 181.389 9 180.893C9.24609 180.396 9.58594 180.014 10.0195 179.744C10.457 179.475 10.9551 179.34 11.5137 179.34C12.377 179.34 13.0742 179.639 13.6055 180.236C14.1406 180.834 14.4082 181.629 14.4082 182.621V182.697C14.4082 183.314 14.2891 183.869 14.0508 184.361C13.8164 184.85 13.4785 185.23 13.0371 185.504C12.5996 185.777 12.0957 185.914 11.5254 185.914C10.666 185.914 9.96875 185.615 9.43359 185.018C8.90234 184.42 8.63672 183.629 8.63672 182.645V182.568ZM9.72656 182.697C9.72656 183.4 9.88867 183.965 10.2129 184.391C10.541 184.816 10.9785 185.029 11.5254 185.029C12.0762 185.029 12.5137 184.814 12.8379 184.385C13.1621 183.951 13.3242 183.346 13.3242 182.568C13.3242 181.873 13.1582 181.311 12.8262 180.881C12.498 180.447 12.0605 180.23 11.5137 180.23C10.9785 180.23 10.5469 180.443 10.2188 180.869C9.89062 181.295 9.72656 181.904 9.72656 182.697ZM21.123 182.697C21.123 183.662 20.9023 184.439 20.4609 185.029C20.0195 185.619 19.4219 185.914 18.668 185.914C17.8984 185.914 17.293 185.67 16.8516 185.182V188.234H15.7676V179.457H16.7578L16.8105 180.16C17.252 179.613 17.8652 179.34 18.6504 179.34C19.4121 179.34 20.0137 179.627 20.4551 180.201C20.9004 180.775 21.123 181.574 21.123 182.598V182.697ZM20.0391 182.574C20.0391 181.859 19.8867 181.295 19.582 180.881C19.2773 180.467 18.8594 180.26 18.3281 180.26C17.6719 180.26 17.1797 180.551 16.8516 181.133V184.162C17.1758 184.74 17.6719 185.029 18.3398 185.029C18.8594 185.029 19.2715 184.824 19.5762 184.414C19.8848 184 20.0391 183.387 20.0391 182.574ZM24.5098 184.209L25.9863 179.457H27.1465L24.5977 186.775C24.2031 187.83 23.5762 188.357 22.7168 188.357L22.5117 188.34L22.1074 188.264V187.385L22.4004 187.408C22.7676 187.408 23.0527 187.334 23.2559 187.186C23.4629 187.037 23.6328 186.766 23.7656 186.371L24.0059 185.727L21.7441 179.457H22.9277L24.5098 184.209ZM33.7324 184.303L34.9512 179.457H36.0352L34.1895 185.797H33.3105L31.7695 180.992L30.2695 185.797H29.3906L27.5508 179.457H28.6289L29.877 184.203L31.3535 179.457H32.2266L33.7324 184.303ZM40.207 180.43C40.043 180.402 39.8652 180.389 39.6738 180.389C38.9629 180.389 38.4805 180.691 38.2266 181.297V185.797H37.1426V179.457H38.1973L38.2148 180.189C38.5703 179.623 39.0742 179.34 39.7266 179.34C39.9375 179.34 40.0977 179.367 40.207 179.422V180.43ZM42.3867 185.797H41.3027V179.457H42.3867V185.797ZM41.2148 177.775C41.2148 177.6 41.2676 177.451 41.373 177.33C41.4824 177.209 41.6426 177.148 41.8535 177.148C42.0645 177.148 42.2246 177.209 42.334 177.33C42.4434 177.451 42.498 177.6 42.498 177.775C42.498 177.951 42.4434 178.098 42.334 178.215C42.2246 178.332 42.0645 178.391 41.8535 178.391C41.6426 178.391 41.4824 178.332 41.373 178.215C41.2676 178.098 41.2148 177.951 41.2148 177.775ZM45.5977 177.922V179.457H46.7812V180.295H45.5977V184.227C45.5977 184.48 45.6504 184.672 45.7559 184.801C45.8613 184.926 46.041 184.988 46.2949 184.988C46.4199 184.988 46.5918 184.965 46.8105 184.918V185.797C46.5254 185.875 46.248 185.914 45.9785 185.914C45.4941 185.914 45.1289 185.768 44.8828 185.475C44.6367 185.182 44.5137 184.766 44.5137 184.227V180.295H43.3594V179.457H44.5137V177.922H45.5977ZM49.2305 185.797H48.1465V179.457H49.2305V185.797ZM48.0586 177.775C48.0586 177.6 48.1113 177.451 48.2168 177.33C48.3262 177.209 48.4863 177.148 48.6973 177.148C48.9082 177.148 49.0684 177.209 49.1777 177.33C49.2871 177.451 49.3418 177.6 49.3418 177.775C49.3418 177.951 49.2871 178.098 49.1777 178.215C49.0684 178.332 48.9082 178.391 48.6973 178.391C48.4863 178.391 48.3262 178.332 48.2168 178.215C48.1113 178.098 48.0586 177.951 48.0586 177.775ZM51.9961 179.457L52.0312 180.254C52.5156 179.645 53.1484 179.34 53.9297 179.34C55.2695 179.34 55.9453 180.096 55.957 181.607V185.797H54.873V181.602C54.8691 181.145 54.7637 180.807 54.5566 180.588C54.3535 180.369 54.0352 180.26 53.6016 180.26C53.25 180.26 52.9414 180.354 52.6758 180.541C52.4102 180.729 52.2031 180.975 52.0547 181.279V185.797H50.9707V179.457H51.9961ZM57.334 182.574C57.334 181.586 57.5625 180.801 58.0195 180.219C58.4766 179.633 59.082 179.34 59.8359 179.34C60.6094 179.34 61.2129 179.613 61.6465 180.16L61.6992 179.457H62.6895V185.645C62.6895 186.465 62.4453 187.111 61.957 187.584C61.4727 188.057 60.8203 188.293 60 188.293C59.543 188.293 59.0957 188.195 58.6582 188C58.2207 187.805 57.8867 187.537 57.6562 187.197L58.2188 186.547C58.6836 187.121 59.252 187.408 59.9238 187.408C60.4512 187.408 60.8613 187.26 61.1543 186.963C61.4512 186.666 61.5996 186.248 61.5996 185.709V185.164C61.166 185.664 60.5742 185.914 59.8242 185.914C59.082 185.914 58.4805 185.615 58.0195 185.018C57.5625 184.42 57.334 183.605 57.334 182.574ZM58.4238 182.697C58.4238 183.412 58.5703 183.975 58.8633 184.385C59.1562 184.791 59.5664 184.994 60.0938 184.994C60.7773 184.994 61.2793 184.684 61.5996 184.062V181.168C61.2676 180.562 60.7695 180.26 60.1055 180.26C59.5781 180.26 59.166 180.465 58.8691 180.875C58.5723 181.285 58.4238 181.893 58.4238 182.697Z" fill="#54565A"/>
</svg>
