<svg width="237" height="191" viewBox="0 0 237 191" fill="none" xmlns="http://www.w3.org/2000/svg">
<path d="M41.0814 12.9824C40.8952 14.9544 40.1674 16.4948 38.8979 17.6035C37.6283 18.7038 35.9398 19.2539 33.8324 19.2539C32.3598 19.2539 31.0606 18.9069 29.935 18.2129C28.8178 17.5104 27.9545 16.516 27.3451 15.2295C26.7357 13.943 26.4184 12.4492 26.393 10.748V9.02148C26.393 7.27799 26.7019 5.74186 27.3197 4.41309C27.9376 3.08431 28.822 2.06022 29.973 1.34082C31.1326 0.621419 32.4698 0.261719 33.9848 0.261719C36.0245 0.261719 37.6664 0.816081 38.9105 1.9248C40.1547 3.03353 40.8783 4.59928 41.0814 6.62207H37.8822C37.7299 5.29329 37.3406 4.33691 36.7143 3.75293C36.0964 3.16048 35.1866 2.86426 33.9848 2.86426C32.5883 2.86426 31.5134 3.3763 30.7602 4.40039C30.0154 5.41602 29.6345 6.90983 29.6176 8.88184V10.5195C29.6176 12.5169 29.973 14.0404 30.684 15.0898C31.4034 16.1393 32.4529 16.6641 33.8324 16.6641C35.0935 16.6641 36.0414 16.3805 36.6762 15.8135C37.3109 15.2464 37.713 14.3027 37.8822 12.9824H41.0814ZM44.3873 12.0049C44.3873 10.6592 44.6539 9.44889 45.1871 8.37402C45.7203 7.29069 46.4693 6.46126 47.4342 5.88574C48.399 5.30176 49.5077 5.00977 50.7603 5.00977C52.6139 5.00977 54.1161 5.60645 55.2672 6.7998C56.4267 7.99316 57.053 9.57585 57.1461 11.5479L57.1588 12.2715C57.1588 13.6257 56.8964 14.8359 56.3717 15.9023C55.8554 16.9688 55.1106 17.7939 54.1373 18.3779C53.1725 18.9619 52.0553 19.2539 50.7857 19.2539C48.8476 19.2539 47.2945 18.6107 46.1266 17.3242C44.9671 16.0293 44.3873 14.307 44.3873 12.1572V12.0049ZM47.4723 12.2715C47.4723 13.6849 47.7643 14.7936 48.3482 15.5977C48.9322 16.3932 49.7447 16.791 50.7857 16.791C51.8268 16.791 52.635 16.3848 53.2105 15.5723C53.7945 14.7598 54.0865 13.5706 54.0865 12.0049C54.0865 10.6169 53.7861 9.5166 53.1852 8.7041C52.5927 7.8916 51.7844 7.48535 50.7603 7.48535C49.7532 7.48535 48.9534 7.88737 48.3609 8.69141C47.7685 9.48698 47.4723 10.6803 47.4723 12.2715ZM63.9686 5.26367L64.0574 6.69824C65.0223 5.57259 66.3426 5.00977 68.0184 5.00977C69.8549 5.00977 71.1118 5.71224 71.7889 7.11719C72.7876 5.71224 74.1925 5.00977 76.0037 5.00977C77.5187 5.00977 78.6443 5.42871 79.3807 6.2666C80.1255 7.10449 80.5063 8.34017 80.5232 9.97363V19H77.4383V10.0625C77.4383 9.19076 77.2478 8.55176 76.867 8.14551C76.4861 7.73926 75.8556 7.53613 74.9754 7.53613C74.2729 7.53613 73.6974 7.72656 73.2488 8.10742C72.8087 8.47982 72.4998 8.9707 72.3221 9.58008L72.3348 19H69.2498V9.96094C69.2075 8.3444 68.3823 7.53613 66.7742 7.53613C65.5385 7.53613 64.6626 8.03971 64.1463 9.04688V19H61.0613V5.26367H63.9686ZM87.8916 5.26367L87.9805 6.69824C88.9453 5.57259 90.2656 5.00977 91.9414 5.00977C93.778 5.00977 95.0348 5.71224 95.7119 7.11719C96.7106 5.71224 98.1156 5.00977 99.9268 5.00977C101.442 5.00977 102.567 5.42871 103.304 6.2666C104.049 7.10449 104.429 8.34017 104.446 9.97363V19H101.361V10.0625C101.361 9.19076 101.171 8.55176 100.79 8.14551C100.409 7.73926 99.7786 7.53613 98.8984 7.53613C98.196 7.53613 97.6204 7.72656 97.1719 8.10742C96.7318 8.47982 96.4229 8.9707 96.2451 9.58008L96.2578 19H93.1729V9.96094C93.1305 8.3444 92.3053 7.53613 90.6973 7.53613C89.4616 7.53613 88.5856 8.03971 88.0693 9.04688V19H84.9844V5.26367H87.8916ZM117.236 17.6543C116.33 18.7207 115.043 19.2539 113.376 19.2539C111.887 19.2539 110.757 18.818 109.987 17.9463C109.225 17.0745 108.844 15.8135 108.844 14.1631V5.26367H111.929V14.125C111.929 15.8685 112.653 16.7402 114.1 16.7402C115.598 16.7402 116.609 16.2028 117.134 15.1279V5.26367H120.219V19H117.312L117.236 17.6543ZM127.524 5.26367L127.613 6.85059C128.628 5.62337 129.961 5.00977 131.612 5.00977C134.472 5.00977 135.928 6.64746 135.979 9.92285V19H132.894V10.1006C132.894 9.22884 132.704 8.58561 132.323 8.1709C131.95 7.74772 131.337 7.53613 130.482 7.53613C129.238 7.53613 128.311 8.09896 127.702 9.22461V19H124.617V5.26367H127.524ZM143.715 19H140.63V5.26367H143.715V19ZM140.44 1.69629C140.44 1.22233 140.588 0.828776 140.884 0.515625C141.189 0.202474 141.621 0.0458984 142.179 0.0458984C142.738 0.0458984 143.17 0.202474 143.474 0.515625C143.779 0.828776 143.931 1.22233 143.931 1.69629C143.931 2.16178 143.779 2.55111 143.474 2.86426C143.17 3.16895 142.738 3.32129 142.179 3.32129C141.621 3.32129 141.189 3.16895 140.884 2.86426C140.588 2.55111 140.44 2.16178 140.44 1.69629ZM154.029 16.791C154.799 16.791 155.438 16.5667 155.946 16.1182C156.454 15.6696 156.725 15.1152 156.759 14.4551H159.666C159.632 15.3099 159.365 16.1097 158.866 16.8545C158.367 17.5908 157.69 18.1748 156.835 18.6064C155.98 19.0381 155.057 19.2539 154.067 19.2539C152.146 19.2539 150.623 18.6318 149.497 17.3877C148.371 16.1436 147.808 14.4255 147.808 12.2334V11.916C147.808 9.82552 148.367 8.15397 149.484 6.90137C150.601 5.6403 152.125 5.00977 154.054 5.00977C155.688 5.00977 157.017 5.48796 158.041 6.44434C159.073 7.39225 159.615 8.64062 159.666 10.1895H156.759C156.725 9.40234 156.454 8.75488 155.946 8.24707C155.447 7.73926 154.808 7.48535 154.029 7.48535C153.03 7.48535 152.26 7.84928 151.719 8.57715C151.177 9.29655 150.902 10.3926 150.893 11.8652V12.3604C150.893 13.8499 151.16 14.9629 151.693 15.6992C152.235 16.4271 153.013 16.791 154.029 16.791ZM171.503 19C171.368 18.7376 171.249 18.3102 171.147 17.7178C170.166 18.7419 168.964 19.2539 167.542 19.2539C166.162 19.2539 165.037 18.8604 164.165 18.0732C163.293 17.2861 162.857 16.3128 162.857 15.1533C162.857 13.6891 163.399 12.5677 164.482 11.7891C165.574 11.002 167.132 10.6084 169.154 10.6084H171.046V9.70703C171.046 8.99609 170.847 8.42904 170.449 8.00586C170.051 7.57422 169.446 7.3584 168.634 7.3584C167.931 7.3584 167.356 7.53613 166.907 7.8916C166.459 8.23861 166.234 8.68294 166.234 9.22461H163.149C163.149 8.47135 163.399 7.76888 163.898 7.11719C164.398 6.45703 165.075 5.94076 165.93 5.56836C166.793 5.19596 167.754 5.00977 168.812 5.00977C170.42 5.00977 171.702 5.41602 172.658 6.22852C173.615 7.03255 174.105 8.16667 174.131 9.63086V15.8262C174.131 17.0618 174.304 18.0479 174.651 18.7842V19H171.503ZM168.113 16.7783C168.723 16.7783 169.294 16.6302 169.827 16.334C170.369 16.0378 170.775 15.64 171.046 15.1406V12.5508H169.383C168.24 12.5508 167.381 12.7497 166.806 13.1475C166.23 13.5452 165.942 14.1081 165.942 14.8359C165.942 15.4284 166.137 15.9023 166.526 16.2578C166.924 16.6048 167.453 16.7783 168.113 16.7783ZM182.528 1.9248V5.26367H184.952V7.54883H182.528V15.2168C182.528 15.7415 182.629 16.1224 182.832 16.3594C183.044 16.5879 183.416 16.7021 183.949 16.7021C184.305 16.7021 184.665 16.6598 185.029 16.5752V18.9619C184.326 19.1566 183.649 19.2539 182.997 19.2539C180.627 19.2539 179.443 17.9463 179.443 15.3311V7.54883H177.183V5.26367H179.443V1.9248H182.528ZM187.662 12.0049C187.662 10.6592 187.928 9.44889 188.461 8.37402C188.995 7.29069 189.744 6.46126 190.708 5.88574C191.673 5.30176 192.782 5.00977 194.035 5.00977C195.888 5.00977 197.39 5.60645 198.541 6.7998C199.701 7.99316 200.327 9.57585 200.42 11.5479L200.433 12.2715C200.433 13.6257 200.171 14.8359 199.646 15.9023C199.13 16.9688 198.385 17.7939 197.412 18.3779C196.447 18.9619 195.329 19.2539 194.06 19.2539C192.122 19.2539 190.569 18.6107 189.401 17.3242C188.241 16.0293 187.662 14.307 187.662 12.1572V12.0049ZM190.746 12.2715C190.746 13.6849 191.038 14.7936 191.622 15.5977C192.206 16.3932 193.019 16.791 194.06 16.791C195.101 16.791 195.909 16.3848 196.485 15.5723C197.069 14.7598 197.361 13.5706 197.361 12.0049C197.361 10.6169 197.06 9.5166 196.459 8.7041C195.867 7.8916 195.059 7.48535 194.035 7.48535C193.027 7.48535 192.228 7.88737 191.635 8.69141C191.043 9.48698 190.746 10.6803 190.746 12.2715ZM211.534 8.08203C211.128 8.01432 210.709 7.98047 210.277 7.98047C208.864 7.98047 207.911 8.52214 207.421 9.60547V19H204.336V5.26367H207.281L207.357 6.7998C208.102 5.60645 209.134 5.00977 210.455 5.00977C210.895 5.00977 211.259 5.06901 211.546 5.1875L211.534 8.08203ZM45.5879 35.4414H42.4844V44H40.7686V35.4414H37.6924V34.0469H45.5879V35.4414ZM50.0818 44.1367C49.0291 44.1367 48.1746 43.8063 47.5184 43.1455C46.8667 42.4801 46.5408 41.596 46.5408 40.4932V40.2881C46.5408 39.5498 46.6821 38.8913 46.9646 38.3125C47.2518 37.7292 47.6528 37.2757 48.1678 36.9521C48.6827 36.6286 49.257 36.4668 49.8904 36.4668C50.8976 36.4668 51.6746 36.7881 52.2215 37.4307C52.7729 38.0732 53.0486 38.9824 53.0486 40.1582V40.8281H48.2156C48.2658 41.4388 48.4686 41.9219 48.824 42.2773C49.1841 42.6328 49.6352 42.8105 50.1775 42.8105C50.9386 42.8105 51.5584 42.5029 52.0369 41.8877L52.9324 42.7422C52.6362 43.1842 52.2397 43.5283 51.743 43.7744C51.2508 44.016 50.6971 44.1367 50.0818 44.1367ZM49.8836 37.7998C49.4279 37.7998 49.0587 37.9593 48.7762 38.2783C48.4982 38.5973 48.3204 39.0417 48.243 39.6113H51.408V39.4883C51.3716 38.9323 51.2234 38.513 50.9637 38.2305C50.7039 37.9434 50.3439 37.7998 49.8836 37.7998ZM59.4635 44C59.3906 43.8587 59.3268 43.6286 59.2721 43.3096C58.7434 43.861 58.0963 44.1367 57.3307 44.1367C56.5878 44.1367 55.9817 43.9248 55.5123 43.501C55.0429 43.0771 54.8082 42.5531 54.8082 41.9287C54.8082 41.1403 55.0999 40.5365 55.6832 40.1172C56.2711 39.6934 57.1096 39.4814 58.1988 39.4814H59.2174V38.9961C59.2174 38.6133 59.1103 38.3079 58.8961 38.0801C58.6819 37.8477 58.3561 37.7314 57.9186 37.7314C57.5403 37.7314 57.2304 37.8271 56.9889 38.0186C56.7473 38.2054 56.6266 38.4447 56.6266 38.7363H54.9654C54.9654 38.3307 55.0999 37.9525 55.3688 37.6016C55.6376 37.2461 56.0022 36.9681 56.4625 36.7676C56.9273 36.5671 57.4446 36.4668 58.0143 36.4668C58.8801 36.4668 59.5706 36.6855 60.0855 37.123C60.6005 37.556 60.8648 38.1667 60.8785 38.9551V42.291C60.8785 42.9564 60.9719 43.4873 61.1588 43.8838V44H59.4635ZM57.6383 42.8037C57.9664 42.8037 58.274 42.724 58.5611 42.5645C58.8528 42.4049 59.0716 42.1908 59.2174 41.9219V40.5273H58.3219C57.7066 40.5273 57.2441 40.6344 56.9342 40.8486C56.6243 41.0628 56.4693 41.3659 56.4693 41.7578C56.4693 42.0768 56.5742 42.332 56.7838 42.5234C56.998 42.7103 57.2828 42.8037 57.6383 42.8037ZM66.3568 42.8105C66.7715 42.8105 67.1156 42.6898 67.3891 42.4482C67.6625 42.2067 67.8083 41.9082 67.8266 41.5527H69.392C69.3738 42.013 69.2302 42.4437 68.9613 42.8447C68.6924 43.2412 68.3279 43.5557 67.8676 43.7881C67.4073 44.0205 66.9105 44.1367 66.3773 44.1367C65.3428 44.1367 64.5225 43.8018 63.9164 43.1318C63.3103 42.4619 63.0072 41.5368 63.0072 40.3564V40.1855C63.0072 39.0599 63.308 38.1598 63.9096 37.4854C64.5111 36.8063 65.3314 36.4668 66.3705 36.4668C67.2501 36.4668 67.9656 36.7243 68.517 37.2393C69.073 37.7497 69.3646 38.4219 69.392 39.2559H67.8266C67.8083 38.832 67.6625 38.4834 67.3891 38.21C67.1202 37.9365 66.7761 37.7998 66.3568 37.7998C65.8191 37.7998 65.4044 37.9958 65.1127 38.3877C64.821 38.7751 64.6729 39.3652 64.6684 40.1582V40.4248C64.6684 41.2269 64.8119 41.8262 65.099 42.2227C65.3907 42.6146 65.81 42.8105 66.3568 42.8105ZM72.9836 37.4102C73.5259 36.7812 74.2118 36.4668 75.0412 36.4668C76.618 36.4668 77.4178 37.3669 77.4406 39.167V44H75.7795V39.2285C75.7795 38.7181 75.6678 38.3581 75.4445 38.1484C75.2258 37.9342 74.9022 37.8271 74.4738 37.8271C73.8085 37.8271 73.3117 38.1234 72.9836 38.7158V44H71.3225V33.5H72.9836V37.4102ZM83.083 44.1367C82.0303 44.1367 81.1758 43.8063 80.5195 43.1455C79.8678 42.4801 79.542 41.596 79.542 40.4932V40.2881C79.542 39.5498 79.6833 38.8913 79.9658 38.3125C80.2529 37.7292 80.654 37.2757 81.1689 36.9521C81.6839 36.6286 82.2581 36.4668 82.8916 36.4668C83.8988 36.4668 84.6758 36.7881 85.2227 37.4307C85.7741 38.0732 86.0498 38.9824 86.0498 40.1582V40.8281H81.2168C81.2669 41.4388 81.4697 41.9219 81.8252 42.2773C82.1852 42.6328 82.6364 42.8105 83.1787 42.8105C83.9398 42.8105 84.5596 42.5029 85.0381 41.8877L85.9336 42.7422C85.6374 43.1842 85.2409 43.5283 84.7441 43.7744C84.252 44.016 83.6982 44.1367 83.083 44.1367ZM82.8848 37.7998C82.429 37.7998 82.0599 37.9593 81.7773 38.2783C81.4993 38.5973 81.3216 39.0417 81.2441 39.6113H84.4092V39.4883C84.3727 38.9323 84.2246 38.513 83.9648 38.2305C83.7051 37.9434 83.3451 37.7998 82.8848 37.7998ZM91.9178 38.1211C91.699 38.0846 91.4734 38.0664 91.241 38.0664C90.4799 38.0664 89.9672 38.3581 89.7029 38.9414V44H88.0418V36.6035H89.6277L89.6687 37.4307C90.0698 36.7881 90.6258 36.4668 91.3367 36.4668C91.5737 36.4668 91.7697 36.4987 91.9246 36.5625L91.9178 38.1211ZM7.50977 111.83H14.6104V114H4.79199V98.3594H7.50977V111.83ZM22.6605 114.215C21.0063 114.215 19.6635 113.696 18.6322 112.657C17.6081 111.612 17.0961 110.222 17.0961 108.489V108.167C17.0961 107.007 17.3181 105.972 17.7621 105.062C18.2133 104.146 18.8435 103.433 19.6527 102.925C20.462 102.416 21.3643 102.162 22.3598 102.162C23.9424 102.162 25.1635 102.667 26.0229 103.677C26.8894 104.687 27.3227 106.115 27.3227 107.963V109.016H19.7279C19.8067 109.975 20.1254 110.734 20.684 111.293C21.2497 111.852 21.9587 112.131 22.8109 112.131C24.0069 112.131 24.9809 111.647 25.7328 110.681L27.14 112.023C26.6745 112.718 26.0515 113.259 25.2709 113.646C24.4975 114.025 23.6273 114.215 22.6605 114.215ZM22.349 104.257C21.6329 104.257 21.0528 104.507 20.6088 105.009C20.1719 105.51 19.8926 106.208 19.7709 107.104H24.7445V106.91C24.6872 106.036 24.4545 105.378 24.0463 104.934C23.6381 104.482 23.0723 104.257 22.349 104.257ZM37.4031 114C37.2885 113.778 37.1883 113.416 37.1023 112.915C36.2716 113.782 35.2547 114.215 34.0516 114.215C32.8842 114.215 31.9318 113.882 31.1941 113.216C30.4565 112.55 30.0877 111.726 30.0877 110.745C30.0877 109.506 30.546 108.557 31.4627 107.898C32.3865 107.232 33.7042 106.899 35.4158 106.899H37.0164V106.137C37.0164 105.535 36.8481 105.055 36.5115 104.697C36.1749 104.332 35.6629 104.149 34.9754 104.149C34.381 104.149 33.894 104.3 33.5145 104.601C33.1349 104.894 32.9451 105.27 32.9451 105.729H30.3348C30.3348 105.091 30.546 104.497 30.9686 103.945C31.3911 103.387 31.964 102.95 32.6873 102.635C33.4178 102.32 34.2306 102.162 35.1258 102.162C36.4865 102.162 37.5714 102.506 38.3807 103.193C39.1899 103.874 39.6053 104.833 39.6268 106.072V111.314C39.6268 112.36 39.7736 113.194 40.0672 113.817V114H37.4031ZM34.535 112.12C35.0506 112.12 35.534 111.995 35.9852 111.744C36.4435 111.493 36.7872 111.157 37.0164 110.734V108.543H35.6092C34.6424 108.543 33.9155 108.711 33.4285 109.048C32.9415 109.384 32.698 109.861 32.698 110.477C32.698 110.978 32.8628 111.379 33.1922 111.68C33.5288 111.973 33.9764 112.12 34.535 112.12ZM42.9719 108.103C42.9719 106.312 43.3872 104.876 44.218 103.795C45.0487 102.706 46.1623 102.162 47.5588 102.162C48.7906 102.162 49.786 102.592 50.5451 103.451V97.5H53.1555V114H50.7922L50.6633 112.797C49.8827 113.742 48.8407 114.215 47.5373 114.215C46.1766 114.215 45.0738 113.667 44.2287 112.571C43.3908 111.476 42.9719 109.986 42.9719 108.103ZM45.5822 108.328C45.5822 109.51 45.8078 110.434 46.259 111.1C46.7173 111.758 47.3654 112.088 48.2033 112.088C49.2704 112.088 50.051 111.612 50.5451 110.659V105.696C50.0653 104.765 49.2919 104.3 48.2248 104.3C47.3798 104.3 46.7281 104.636 46.2697 105.31C45.8114 105.976 45.5822 106.982 45.5822 108.328ZM62.0973 114.215C60.443 114.215 59.1002 113.696 58.0689 112.657C57.0449 111.612 56.5328 110.222 56.5328 108.489V108.167C56.5328 107.007 56.7548 105.972 57.1988 105.062C57.65 104.146 58.2802 103.433 59.0895 102.925C59.8987 102.416 60.801 102.162 61.7965 102.162C63.3792 102.162 64.6002 102.667 65.4596 103.677C66.3261 104.687 66.7594 106.115 66.7594 107.963V109.016H59.1646C59.2434 109.975 59.5621 110.734 60.1207 111.293C60.6865 111.852 61.3954 112.131 62.2477 112.131C63.4436 112.131 64.4176 111.647 65.1695 110.681L66.5768 112.023C66.1113 112.718 65.4882 113.259 64.7076 113.646C63.9342 114.025 63.0641 114.215 62.0973 114.215ZM61.7857 104.257C61.0696 104.257 60.4895 104.507 60.0455 105.009C59.6087 105.51 59.3294 106.208 59.2076 107.104H64.1813V106.91C64.124 106.036 63.8912 105.378 63.483 104.934C63.0748 104.482 62.5091 104.257 61.7857 104.257ZM75.9805 104.762C75.6367 104.704 75.2822 104.676 74.917 104.676C73.721 104.676 72.9154 105.134 72.5 106.051V114H69.8896V102.377H72.3818L72.4463 103.677C73.0765 102.667 73.9502 102.162 75.0674 102.162C75.4398 102.162 75.7477 102.212 75.9912 102.312L75.9805 104.762ZM119.76 114V91.25H126.479C128.49 91.25 130.271 91.6979 131.823 92.5938C133.385 93.4896 134.594 94.7604 135.448 96.4062C136.302 98.0521 136.729 99.9375 136.729 102.062V103.203C136.729 105.359 136.297 107.255 135.432 108.891C134.578 110.526 133.354 111.786 131.76 112.672C130.177 113.557 128.359 114 126.307 114H119.76ZM123.713 94.4375V110.844H126.292C128.365 110.844 129.953 110.198 131.057 108.906C132.172 107.604 132.74 105.74 132.76 103.312V102.047C132.76 99.5781 132.224 97.6927 131.151 96.3906C130.078 95.0885 128.521 94.4375 126.479 94.4375H123.713ZM149.345 114.312C146.938 114.312 144.985 113.557 143.485 112.047C141.996 110.526 141.251 108.505 141.251 105.984V105.516C141.251 103.828 141.574 102.323 142.22 101C142.876 99.6667 143.793 98.6302 144.97 97.8906C146.147 97.151 147.459 96.7812 148.907 96.7812C151.209 96.7812 152.985 97.5156 154.235 98.9844C155.496 100.453 156.126 102.531 156.126 105.219V106.75H145.079C145.194 108.146 145.657 109.25 146.47 110.062C147.293 110.875 148.324 111.281 149.563 111.281C151.303 111.281 152.72 110.578 153.813 109.172L155.86 111.125C155.183 112.135 154.277 112.922 153.142 113.484C152.017 114.036 150.751 114.312 149.345 114.312ZM148.892 99.8281C147.85 99.8281 147.006 100.193 146.36 100.922C145.725 101.651 145.319 102.667 145.142 103.969H152.376V103.688C152.293 102.417 151.954 101.458 151.36 100.812C150.767 100.156 149.944 99.8281 148.892 99.8281ZM170.163 109.406C170.163 108.729 169.882 108.214 169.32 107.859C168.768 107.505 167.846 107.193 166.554 106.922C165.262 106.651 164.184 106.307 163.32 105.891C161.424 104.974 160.476 103.646 160.476 101.906C160.476 100.448 161.091 99.2292 162.32 98.25C163.549 97.2708 165.111 96.7812 167.007 96.7812C169.028 96.7812 170.658 97.2812 171.898 98.2812C173.148 99.2812 173.773 100.578 173.773 102.172H169.976C169.976 101.443 169.705 100.839 169.163 100.359C168.622 99.8698 167.903 99.625 167.007 99.625C166.174 99.625 165.492 99.8177 164.96 100.203C164.44 100.589 164.179 101.104 164.179 101.75C164.179 102.333 164.424 102.786 164.913 103.109C165.403 103.432 166.393 103.76 167.882 104.094C169.372 104.417 170.538 104.807 171.382 105.266C172.236 105.714 172.867 106.255 173.273 106.891C173.69 107.526 173.898 108.297 173.898 109.203C173.898 110.724 173.268 111.958 172.007 112.906C170.747 113.844 169.096 114.312 167.054 114.312C165.669 114.312 164.434 114.062 163.351 113.562C162.268 113.062 161.424 112.375 160.82 111.5C160.216 110.625 159.913 109.682 159.913 108.672H163.601C163.653 109.568 163.992 110.26 164.617 110.75C165.242 111.229 166.07 111.469 167.101 111.469C168.101 111.469 168.861 111.281 169.382 110.906C169.903 110.521 170.163 110.021 170.163 109.406ZM182.857 114H179.06V97.0938H182.857V114ZM178.826 92.7031C178.826 92.1198 179.008 91.6354 179.373 91.25C179.748 90.8646 180.279 90.6719 180.967 90.6719C181.654 90.6719 182.185 90.8646 182.56 91.25C182.935 91.6354 183.123 92.1198 183.123 92.7031C183.123 93.276 182.935 93.7552 182.56 94.1406C182.185 94.5156 181.654 94.7031 180.967 94.7031C180.279 94.7031 179.748 94.5156 179.373 94.1406C179.008 93.7552 178.826 93.276 178.826 92.7031ZM187.942 105.422C187.942 102.797 188.556 100.703 189.785 99.1406C191.025 97.5677 192.666 96.7812 194.707 96.7812C196.634 96.7812 198.15 97.4531 199.254 98.7969L199.426 97.0938H202.848V113.484C202.848 115.703 202.155 117.453 200.77 118.734C199.395 120.016 197.535 120.656 195.192 120.656C193.952 120.656 192.738 120.396 191.551 119.875C190.374 119.365 189.478 118.693 188.863 117.859L190.66 115.578C191.827 116.964 193.265 117.656 194.973 117.656C196.233 117.656 197.228 117.312 197.957 116.625C198.686 115.948 199.051 114.948 199.051 113.625V112.484C197.957 113.703 196.499 114.312 194.676 114.312C192.697 114.312 191.077 113.526 189.817 111.953C188.567 110.38 187.942 108.203 187.942 105.422ZM191.723 105.75C191.723 107.448 192.067 108.786 192.754 109.766C193.452 110.734 194.416 111.219 195.645 111.219C197.176 111.219 198.311 110.562 199.051 109.25V101.812C198.332 100.531 197.207 99.8906 195.676 99.8906C194.426 99.8906 193.452 100.385 192.754 101.375C192.067 102.365 191.723 103.823 191.723 105.75ZM211.885 97.0938L211.995 99.0469C213.245 97.5365 214.885 96.7812 216.917 96.7812C220.437 96.7812 222.229 98.7969 222.292 102.828V114H218.495V103.047C218.495 101.974 218.26 101.182 217.792 100.672C217.333 100.151 216.578 99.8906 215.526 99.8906C213.995 99.8906 212.854 100.583 212.104 101.969V114H208.307V97.0938H211.885ZM152.175 148.836L154.144 139.203H156.35L153.397 152H151.27L148.835 142.657L146.348 152H144.212L141.259 139.203H143.465L145.451 148.818L147.895 139.203H149.758L152.175 148.836ZM162.576 152.176C161.223 152.176 160.124 151.751 159.28 150.901C158.442 150.046 158.023 148.909 158.023 147.491V147.228C158.023 146.278 158.205 145.432 158.568 144.688C158.937 143.938 159.453 143.354 160.115 142.938C160.777 142.522 161.515 142.314 162.33 142.314C163.625 142.314 164.624 142.728 165.327 143.554C166.036 144.38 166.39 145.549 166.39 147.061V147.922H160.177C160.241 148.707 160.502 149.328 160.959 149.785C161.422 150.242 162.002 150.471 162.699 150.471C163.678 150.471 164.474 150.075 165.09 149.284L166.241 150.383C165.86 150.951 165.35 151.394 164.712 151.71C164.079 152.021 163.367 152.176 162.576 152.176ZM162.321 144.028C161.735 144.028 161.261 144.233 160.897 144.644C160.54 145.054 160.311 145.625 160.212 146.357H164.281V146.199C164.234 145.484 164.044 144.945 163.71 144.582C163.376 144.213 162.913 144.028 162.321 144.028ZM177.301 147.342C177.301 148.818 176.97 149.993 176.308 150.866C175.652 151.739 174.747 152.176 173.592 152.176C172.479 152.176 171.612 151.774 170.991 150.972L170.885 152H168.952V138.5H171.087V143.404C171.703 142.678 172.532 142.314 173.575 142.314C174.735 142.314 175.646 142.745 176.308 143.606C176.97 144.468 177.301 145.672 177.301 147.219V147.342ZM175.165 147.157C175.165 146.126 174.984 145.353 174.621 144.837C174.257 144.321 173.73 144.063 173.039 144.063C172.113 144.063 171.462 144.468 171.087 145.276V149.196C171.468 150.022 172.124 150.436 173.056 150.436C173.724 150.436 174.24 150.187 174.603 149.688C174.966 149.19 175.154 148.438 175.165 147.43V147.157Z" fill="#319795"/>
<path d="M98.5199 44V29.0703H102.929C104.248 29.0703 105.417 29.3643 106.436 29.9521C107.461 30.54 108.254 31.374 108.815 32.4541C109.375 33.5342 109.656 34.7715 109.656 36.166V36.9146C109.656 38.3296 109.372 39.5737 108.805 40.647C108.244 41.7202 107.441 42.5474 106.395 43.1284C105.356 43.7095 104.163 44 102.816 44H98.5199ZM101.114 31.1621V41.9287H102.806C104.166 41.9287 105.209 41.5049 105.933 40.6572C106.665 39.8027 107.037 38.5791 107.051 36.9863V36.1558C107.051 34.5356 106.699 33.2983 105.995 32.4438C105.291 31.5894 104.269 31.1621 102.929 31.1621H101.114ZM117.935 44.2051C116.356 44.2051 115.074 43.7095 114.089 42.7183C113.112 41.7202 112.623 40.394 112.623 38.7397V38.4321C112.623 37.3247 112.835 36.3369 113.259 35.4688C113.69 34.5938 114.291 33.9136 115.064 33.4282C115.836 32.9429 116.697 32.7002 117.648 32.7002C119.158 32.7002 120.324 33.1821 121.144 34.146C121.971 35.1099 122.385 36.4736 122.385 38.2373V39.2422H115.135C115.211 40.1582 115.515 40.8828 116.048 41.416C116.588 41.9492 117.265 42.2158 118.078 42.2158C119.22 42.2158 120.15 41.7544 120.867 40.8315L122.211 42.1133C121.766 42.7764 121.171 43.2925 120.426 43.6616C119.688 44.0239 118.858 44.2051 117.935 44.2051ZM117.637 34.6997C116.954 34.6997 116.4 34.939 115.976 35.4175C115.559 35.896 115.293 36.5625 115.176 37.417H119.924V37.2324C119.869 36.3984 119.647 35.7695 119.257 35.3457C118.868 34.915 118.328 34.6997 117.637 34.6997ZM129.146 40.8418L131.494 32.9053H134.068L130.223 44H128.059L124.183 32.9053H126.767L129.146 40.8418ZM141.424 44.2051C139.845 44.2051 138.563 43.7095 137.579 42.7183C136.602 41.7202 136.113 40.394 136.113 38.7397V38.4321C136.113 37.3247 136.325 36.3369 136.749 35.4688C137.179 34.5938 137.781 33.9136 138.553 33.4282C139.326 32.9429 140.187 32.7002 141.137 32.7002C142.648 32.7002 143.813 33.1821 144.634 34.146C145.461 35.1099 145.875 36.4736 145.875 38.2373V39.2422H138.625C138.7 40.1582 139.004 40.8828 139.538 41.416C140.078 41.9492 140.754 42.2158 141.568 42.2158C142.709 42.2158 143.639 41.7544 144.357 40.8315L145.7 42.1133C145.256 42.7764 144.661 43.2925 143.916 43.6616C143.178 44.0239 142.347 44.2051 141.424 44.2051ZM141.127 34.6997C140.443 34.6997 139.89 34.939 139.466 35.4175C139.049 35.896 138.782 36.5625 138.666 37.417H143.414V37.2324C143.359 36.3984 143.137 35.7695 142.747 35.3457C142.357 34.915 141.817 34.6997 141.127 34.6997ZM151.518 44H149.027V28.25H151.518V44ZM154.824 38.3501C154.824 37.2632 155.039 36.2856 155.47 35.4175C155.901 34.5425 156.506 33.8726 157.285 33.4077C158.064 32.936 158.96 32.7002 159.972 32.7002C161.469 32.7002 162.682 33.1821 163.612 34.146C164.548 35.1099 165.054 36.3882 165.129 37.981L165.14 38.5654C165.14 39.6592 164.928 40.6367 164.504 41.498C164.087 42.3594 163.485 43.0259 162.699 43.4976C161.92 43.9692 161.017 44.2051 159.992 44.2051C158.427 44.2051 157.172 43.6855 156.229 42.6465C155.292 41.6006 154.824 40.2095 154.824 38.4731V38.3501ZM157.316 38.5654C157.316 39.707 157.552 40.6025 158.023 41.252C158.495 41.8945 159.151 42.2158 159.992 42.2158C160.833 42.2158 161.486 41.8877 161.951 41.2314C162.422 40.5752 162.658 39.6147 162.658 38.3501C162.658 37.229 162.415 36.3403 161.93 35.6841C161.452 35.0278 160.799 34.6997 159.972 34.6997C159.158 34.6997 158.512 35.0244 158.034 35.6738C157.555 36.3164 157.316 37.2803 157.316 38.5654ZM178.012 38.5654C178.012 40.2812 177.623 41.6519 176.843 42.6772C176.064 43.6958 175.018 44.2051 173.706 44.2051C172.489 44.2051 171.515 43.8052 170.783 43.0054V48.2656H168.292V32.9053H170.588L170.691 34.0332C171.422 33.1445 172.417 32.7002 173.675 32.7002C175.028 32.7002 176.088 33.2061 176.854 34.2178C177.626 35.2227 178.012 36.6206 178.012 38.4116V38.5654ZM175.531 38.3501C175.531 37.2427 175.309 36.3643 174.864 35.7148C174.427 35.0654 173.798 34.7407 172.978 34.7407C171.959 34.7407 171.228 35.1611 170.783 36.002V40.9238C171.234 41.7852 171.973 42.2158 172.998 42.2158C173.791 42.2158 174.41 41.8979 174.854 41.2622C175.305 40.6196 175.531 39.6489 175.531 38.3501ZM186.066 44.2051C184.487 44.2051 183.205 43.7095 182.221 42.7183C181.243 41.7202 180.754 40.394 180.754 38.7397V38.4321C180.754 37.3247 180.966 36.3369 181.39 35.4688C181.821 34.5938 182.422 33.9136 183.195 33.4282C183.967 32.9429 184.828 32.7002 185.779 32.7002C187.289 32.7002 188.455 33.1821 189.275 34.146C190.102 35.1099 190.516 36.4736 190.516 38.2373V39.2422H183.266C183.342 40.1582 183.646 40.8828 184.179 41.416C184.719 41.9492 185.396 42.2158 186.209 42.2158C187.351 42.2158 188.281 41.7544 188.998 40.8315L190.342 42.1133C189.897 42.7764 189.303 43.2925 188.557 43.6616C187.819 44.0239 186.989 44.2051 186.066 44.2051ZM185.768 34.6997C185.085 34.6997 184.531 34.939 184.107 35.4175C183.69 35.896 183.424 36.5625 183.307 37.417H188.055V37.2324C188 36.3984 187.778 35.7695 187.388 35.3457C186.999 34.915 186.459 34.6997 185.768 34.6997ZM199.318 35.1816C198.99 35.127 198.651 35.0996 198.303 35.0996C197.161 35.0996 196.392 35.5371 195.996 36.4121V44H193.504V32.9053H195.883L195.944 34.146C196.546 33.1821 197.38 32.7002 198.446 32.7002C198.802 32.7002 199.096 32.748 199.328 32.8438L199.318 35.1816ZM98.1738 95.5156V107.868C98.1738 109.832 97.5433 111.389 96.2822 112.54C95.0296 113.683 93.3581 114.254 91.2676 114.254C89.1517 114.254 87.4717 113.691 86.2275 112.565C84.9834 111.431 84.3613 109.861 84.3613 107.855V95.5156H87.5605V107.881C87.5605 109.117 87.8737 110.06 88.5 110.712C89.1263 111.364 90.0488 111.689 91.2676 111.689C93.7389 111.689 94.9746 110.386 94.9746 107.779V95.5156H98.1738ZM106.304 114H103.105V95.5156H106.304V114ZM200.235 129.25V144.453C200.235 146.87 199.459 148.786 197.907 150.203C196.365 151.609 194.308 152.312 191.735 152.312C189.131 152.312 187.063 151.62 185.532 150.234C184.001 148.839 183.235 146.906 183.235 144.438V129.25H187.173V144.469C187.173 145.99 187.558 147.151 188.329 147.953C189.1 148.755 190.235 149.156 191.735 149.156C194.777 149.156 196.298 147.552 196.298 144.344V129.25H200.235ZM213.898 137.469L218.679 129.25H223.241L216.366 140.531L223.398 152H218.788L213.898 143.656L208.991 152H204.398L211.444 140.531L204.554 129.25H209.116L213.898 137.469ZM4.37813 181.547V190H0.425003V167.25H9.12813C11.6698 167.25 13.6854 167.911 15.175 169.234C16.675 170.557 17.425 172.307 17.425 174.484C17.425 176.714 16.6906 178.448 15.2219 179.688C13.7635 180.927 11.7167 181.547 9.08125 181.547H4.37813ZM4.37813 178.375H9.12813C10.5344 178.375 11.6073 178.047 12.3469 177.391C13.0865 176.724 13.4563 175.766 13.4563 174.516C13.4563 173.286 13.0813 172.307 12.3313 171.578C11.5813 170.839 10.55 170.458 9.2375 170.438H4.37813V178.375ZM30.9781 176.562C30.4781 176.479 29.9625 176.438 29.4313 176.438C27.6917 176.438 26.5198 177.104 25.9156 178.438V190H22.1188V173.094H25.7438L25.8375 174.984C26.7542 173.516 28.025 172.781 29.65 172.781C30.1917 172.781 30.6396 172.854 30.9938 173L30.9781 176.562ZM33.7031 181.391C33.7031 179.734 34.0313 178.245 34.6875 176.922C35.3438 175.589 36.2656 174.568 37.4531 173.859C38.6406 173.141 40.0052 172.781 41.5469 172.781C43.8281 172.781 45.6771 173.516 47.0938 174.984C48.5208 176.453 49.2917 178.401 49.4063 180.828L49.4219 181.719C49.4219 183.385 49.099 184.875 48.4531 186.188C47.8177 187.5 46.901 188.516 45.7031 189.234C44.5156 189.953 43.1406 190.312 41.5781 190.312C39.1927 190.312 37.2813 189.521 35.8438 187.938C34.4167 186.344 33.7031 184.224 33.7031 181.578V181.391ZM37.5 181.719C37.5 183.458 37.8594 184.823 38.5781 185.812C39.2969 186.792 40.2969 187.281 41.5781 187.281C42.8594 187.281 43.8542 186.781 44.5625 185.781C45.2813 184.781 45.6406 183.318 45.6406 181.391C45.6406 179.682 45.2708 178.328 44.5313 177.328C43.8021 176.328 42.8073 175.828 41.5469 175.828C40.3073 175.828 39.3229 176.323 38.5938 177.312C37.8646 178.292 37.5 179.76 37.5 181.719ZM69.0688 181.719C69.0688 184.344 68.4802 186.432 67.3031 187.984C66.1365 189.536 64.5271 190.312 62.475 190.312C60.4958 190.312 58.9542 189.599 57.85 188.172L57.6625 190H54.225V166H58.0219V174.719C59.1156 173.427 60.5896 172.781 62.4438 172.781C64.5063 172.781 66.126 173.547 67.3031 175.078C68.4802 176.609 69.0688 178.75 69.0688 181.5V181.719ZM65.2719 181.391C65.2719 179.557 64.949 178.182 64.3031 177.266C63.6573 176.349 62.7198 175.891 61.4906 175.891C59.8448 175.891 58.6885 176.609 58.0219 178.047V185.016C58.699 186.484 59.8656 187.219 61.5219 187.219C62.7094 187.219 63.626 186.776 64.2719 185.891C64.9177 185.005 65.251 183.667 65.2719 181.875V181.391ZM77.9031 190H74.1063V166H77.9031V190ZM91.0969 190.312C88.6906 190.312 86.7375 189.557 85.2375 188.047C83.7479 186.526 83.0031 184.505 83.0031 181.984V181.516C83.0031 179.828 83.326 178.323 83.9719 177C84.6281 175.667 85.5448 174.63 86.7219 173.891C87.899 173.151 89.2115 172.781 90.6594 172.781C92.9615 172.781 94.7375 173.516 95.9875 174.984C97.2479 176.453 97.8781 178.531 97.8781 181.219V182.75H86.8313C86.9458 184.146 87.4094 185.25 88.2219 186.062C89.0448 186.875 90.076 187.281 91.3156 187.281C93.0552 187.281 94.4719 186.578 95.5656 185.172L97.6125 187.125C96.9354 188.135 96.0292 188.922 94.8938 189.484C93.7688 190.036 92.5031 190.312 91.0969 190.312ZM90.6438 175.828C89.6021 175.828 88.7583 176.193 88.1125 176.922C87.4771 177.651 87.0708 178.667 86.8938 179.969H94.1281V179.688C94.0448 178.417 93.7063 177.458 93.1125 176.812C92.5188 176.156 91.6958 175.828 90.6438 175.828ZM106.009 173.094L106.119 174.859C107.306 173.474 108.931 172.781 110.994 172.781C113.254 172.781 114.801 173.646 115.634 175.375C116.864 173.646 118.593 172.781 120.822 172.781C122.686 172.781 124.072 173.297 124.978 174.328C125.895 175.359 126.364 176.88 126.384 178.891V190H122.588V179C122.588 177.927 122.353 177.141 121.884 176.641C121.416 176.141 120.64 175.891 119.556 175.891C118.692 175.891 117.983 176.125 117.431 176.594C116.89 177.052 116.509 177.656 116.291 178.406L116.306 190H112.509V178.875C112.457 176.885 111.442 175.891 109.463 175.891C107.942 175.891 106.864 176.51 106.228 177.75V190H102.431V173.094H106.009ZM153.709 184.141C153.709 183.141 153.355 182.37 152.647 181.828C151.949 181.286 150.683 180.74 148.85 180.188C147.017 179.635 145.558 179.021 144.475 178.344C142.402 177.042 141.366 175.344 141.366 173.25C141.366 171.417 142.11 169.906 143.6 168.719C145.1 167.531 147.043 166.938 149.428 166.938C151.011 166.938 152.423 167.229 153.663 167.812C154.902 168.396 155.876 169.229 156.584 170.312C157.293 171.385 157.647 172.578 157.647 173.891H153.709C153.709 172.703 153.334 171.776 152.584 171.109C151.845 170.432 150.782 170.094 149.397 170.094C148.105 170.094 147.1 170.37 146.381 170.922C145.673 171.474 145.319 172.245 145.319 173.234C145.319 174.068 145.704 174.766 146.475 175.328C147.246 175.88 148.517 176.422 150.288 176.953C152.058 177.474 153.48 178.073 154.553 178.75C155.626 179.417 156.413 180.188 156.913 181.062C157.413 181.927 157.663 182.943 157.663 184.109C157.663 186.005 156.933 187.516 155.475 188.641C154.027 189.755 152.058 190.312 149.569 190.312C147.923 190.312 146.407 190.01 145.022 189.406C143.647 188.792 142.574 187.948 141.803 186.875C141.043 185.802 140.663 184.552 140.663 183.125H144.616C144.616 184.417 145.043 185.417 145.897 186.125C146.751 186.833 147.975 187.188 149.569 187.188C150.944 187.188 151.975 186.911 152.663 186.359C153.36 185.797 153.709 185.057 153.709 184.141ZM161.653 181.391C161.653 179.734 161.981 178.245 162.637 176.922C163.294 175.589 164.216 174.568 165.403 173.859C166.591 173.141 167.955 172.781 169.497 172.781C171.778 172.781 173.627 173.516 175.044 174.984C176.471 176.453 177.242 178.401 177.356 180.828L177.372 181.719C177.372 183.385 177.049 184.875 176.403 186.188C175.768 187.5 174.851 188.516 173.653 189.234C172.466 189.953 171.091 190.312 169.528 190.312C167.143 190.312 165.231 189.521 163.794 187.938C162.367 186.344 161.653 184.224 161.653 181.578V181.391ZM165.45 181.719C165.45 183.458 165.809 184.823 166.528 185.812C167.247 186.792 168.247 187.281 169.528 187.281C170.809 187.281 171.804 186.781 172.512 185.781C173.231 184.781 173.591 183.318 173.591 181.391C173.591 179.682 173.221 178.328 172.481 177.328C171.752 176.328 170.757 175.828 169.497 175.828C168.257 175.828 167.273 176.323 166.544 177.312C165.815 178.292 165.45 179.76 165.45 181.719ZM186.222 190H182.425V166H186.222V190ZM197.931 185.188L201.509 173.094H205.431L199.572 190H196.275L190.369 173.094H194.306L197.931 185.188ZM216.641 190.312C214.234 190.312 212.281 189.557 210.781 188.047C209.292 186.526 208.547 184.505 208.547 181.984V181.516C208.547 179.828 208.87 178.323 209.516 177C210.172 175.667 211.089 174.63 212.266 173.891C213.443 173.151 214.755 172.781 216.203 172.781C218.505 172.781 220.281 173.516 221.531 174.984C222.792 176.453 223.422 178.531 223.422 181.219V182.75H212.375C212.49 184.146 212.953 185.25 213.766 186.062C214.589 186.875 215.62 187.281 216.859 187.281C218.599 187.281 220.016 186.578 221.109 185.172L223.156 187.125C222.479 188.135 221.573 188.922 220.438 189.484C219.312 190.036 218.047 190.312 216.641 190.312ZM216.188 175.828C215.146 175.828 214.302 176.193 213.656 176.922C213.021 177.651 212.615 178.667 212.438 179.969H219.672V179.688C219.589 178.417 219.25 177.458 218.656 176.812C218.062 176.156 217.24 175.828 216.188 175.828ZM236.834 176.562C236.334 176.479 235.819 176.438 235.288 176.438C233.548 176.438 232.376 177.104 231.772 178.438V190H227.975V173.094H231.6L231.694 174.984C232.61 173.516 233.881 172.781 235.506 172.781C236.048 172.781 236.496 172.854 236.85 173L236.834 176.562Z" fill="#54565A"/>
<path d="M24.1477 59.4941H18.1623V76H14.8532V59.4941H8.92061V56.8047H24.1477V59.4941ZM32.8146 76.2637C30.7843 76.2637 29.1363 75.6265 27.8707 74.3521C26.6139 73.0688 25.9855 71.3638 25.9855 69.2368V68.8413C25.9855 67.4175 26.2579 66.1475 26.8028 65.0312C27.3565 63.9062 28.13 63.0317 29.1231 62.4077C30.1163 61.7837 31.2237 61.4717 32.4454 61.4717C34.3878 61.4717 35.8863 62.0913 36.941 63.3306C38.0045 64.5698 38.5362 66.3232 38.5362 68.5908V69.8828H29.2154C29.3121 71.0605 29.7032 71.9922 30.3888 72.6777C31.0831 73.3633 31.9532 73.7061 32.9991 73.7061C34.4669 73.7061 35.6622 73.1128 36.5851 71.9263L38.3121 73.5742C37.7408 74.4268 36.9762 75.0903 36.0182 75.5649C35.0689 76.0308 34.0011 76.2637 32.8146 76.2637ZM32.4322 64.0425C31.5533 64.0425 30.8414 64.3501 30.2965 64.9653C29.7604 65.5806 29.4176 66.4375 29.2682 67.5361H35.3722V67.2988C35.3019 66.2266 35.0162 65.418 34.5152 64.873C34.0143 64.3193 33.3199 64.0425 32.4322 64.0425ZM50.9077 76C50.7671 75.7275 50.644 75.2837 50.5386 74.6685C49.519 75.7319 48.271 76.2637 46.7944 76.2637C45.3618 76.2637 44.1929 75.855 43.2876 75.0376C42.3823 74.2202 41.9297 73.2095 41.9297 72.0054C41.9297 70.4849 42.4922 69.3203 43.6172 68.5117C44.751 67.6943 46.3682 67.2856 48.4688 67.2856H50.4331V66.3496C50.4331 65.6113 50.2266 65.0225 49.8135 64.583C49.4004 64.1348 48.772 63.9106 47.9282 63.9106C47.1987 63.9106 46.6011 64.0952 46.1353 64.4644C45.6694 64.8247 45.4365 65.2861 45.4365 65.8486H42.2329C42.2329 65.0664 42.4922 64.3369 43.0107 63.6602C43.5293 62.9746 44.2324 62.4385 45.1201 62.0518C46.0166 61.665 47.0142 61.4717 48.1128 61.4717C49.7827 61.4717 51.1143 61.8936 52.1074 62.7373C53.1006 63.5723 53.6104 64.75 53.6367 66.2705V72.7041C53.6367 73.9873 53.8169 75.0112 54.1772 75.7759V76H50.9077ZM47.3877 73.6929C48.0205 73.6929 48.6138 73.5391 49.1675 73.2314C49.73 72.9238 50.1519 72.5107 50.4331 71.9922V69.3027H48.7061C47.5195 69.3027 46.6274 69.5093 46.0298 69.9224C45.4321 70.3354 45.1333 70.9199 45.1333 71.6758C45.1333 72.291 45.3355 72.7832 45.7397 73.1523C46.1528 73.5127 46.7022 73.6929 47.3877 73.6929ZM61.3544 61.7354L61.4467 63.2251C62.4486 62.0562 63.8197 61.4717 65.56 61.4717C67.4672 61.4717 68.7724 62.2012 69.4755 63.6602C70.5126 62.2012 71.9716 61.4717 73.8524 61.4717C75.4257 61.4717 76.5946 61.9067 77.3593 62.7769C78.1327 63.647 78.5282 64.9302 78.5458 66.6265V76H75.3422V66.7188C75.3422 65.8135 75.1444 65.1499 74.7489 64.728C74.3534 64.3062 73.6986 64.0952 72.7846 64.0952C72.0551 64.0952 71.4574 64.293 70.9916 64.6885C70.5346 65.0752 70.2138 65.585 70.0292 66.2178L70.0424 76H66.8388V66.6133C66.7948 64.9346 65.9379 64.0952 64.268 64.0952C62.9848 64.0952 62.0751 64.6182 61.539 65.6641V76H58.3354V61.7354H61.3544ZM106.888 66.9033C106.888 68.7842 106.563 70.4365 105.912 71.8604C105.262 73.2754 104.33 74.3652 103.117 75.1299C101.913 75.8857 100.525 76.2637 98.9514 76.2637C97.3957 76.2637 96.007 75.8857 94.7854 75.1299C93.5725 74.3652 92.632 73.2798 91.9641 71.8735C91.3049 70.4673 90.9709 68.8457 90.9621 67.0088V65.9277C90.9621 64.0557 91.2917 62.4033 91.9509 60.9707C92.6189 59.5381 93.5549 58.4438 94.759 57.688C95.9719 56.9233 97.3605 56.541 98.925 56.541C100.489 56.541 101.874 56.9189 103.078 57.6748C104.291 58.4219 105.227 59.5029 105.886 60.918C106.545 62.3242 106.879 63.9634 106.888 65.8354V66.9033ZM103.552 65.9014C103.552 63.7744 103.148 62.144 102.34 61.0103C101.54 59.8765 100.402 59.3096 98.925 59.3096C97.4836 59.3096 96.3542 59.8765 95.5368 61.0103C94.7282 62.1353 94.3151 63.7305 94.2976 65.7959V66.9033C94.2976 69.0127 94.7063 70.6431 95.5236 71.7944C96.3498 72.9458 97.4924 73.5215 98.9514 73.5215C100.428 73.5215 101.562 72.959 102.353 71.834C103.153 70.709 103.552 69.0654 103.552 66.9033V65.9014ZM118.719 64.6621C118.297 64.5918 117.862 64.5566 117.414 64.5566C115.946 64.5566 114.957 65.1191 114.447 66.2441V76H111.244V61.7354H114.302L114.381 63.3306C115.155 62.0913 116.227 61.4717 117.598 61.4717C118.055 61.4717 118.433 61.5332 118.732 61.6562L118.719 64.6621ZM125.5 76H122.297V61.7354H125.5V76ZM122.099 58.0308C122.099 57.5386 122.253 57.1299 122.561 56.8047C122.877 56.4795 123.325 56.3169 123.905 56.3169C124.485 56.3169 124.934 56.4795 125.25 56.8047C125.566 57.1299 125.725 57.5386 125.725 58.0308C125.725 58.5142 125.566 58.9185 125.25 59.2437C124.934 59.5601 124.485 59.7183 123.905 59.7183C123.325 59.7183 122.877 59.5601 122.561 59.2437C122.253 58.9185 122.099 58.5142 122.099 58.0308ZM136.633 76.2637C134.602 76.2637 132.954 75.6265 131.689 74.3521C130.432 73.0688 129.804 71.3638 129.804 69.2368V68.8413C129.804 67.4175 130.076 66.1475 130.621 65.0312C131.175 63.9062 131.948 63.0317 132.941 62.4077C133.934 61.7837 135.042 61.4717 136.264 61.4717C138.206 61.4717 139.704 62.0913 140.759 63.3306C141.823 64.5698 142.354 66.3232 142.354 68.5908V69.8828H133.034C133.13 71.0605 133.521 71.9922 134.207 72.6777C134.901 73.3633 135.771 73.7061 136.817 73.7061C138.285 73.7061 139.48 73.1128 140.403 71.9263L142.13 73.5742C141.559 74.4268 140.794 75.0903 139.836 75.5649C138.887 76.0308 137.819 76.2637 136.633 76.2637ZM136.25 64.0425C135.371 64.0425 134.66 64.3501 134.115 64.9653C133.579 65.5806 133.236 66.4375 133.086 67.5361H139.19V67.2988C139.12 66.2266 138.834 65.418 138.333 64.873C137.832 64.3193 137.138 64.0425 136.25 64.0425ZM149.176 61.7354L149.268 63.3833C150.323 62.1089 151.707 61.4717 153.421 61.4717C156.391 61.4717 157.903 63.1724 157.956 66.5737V76H154.752V66.7583C154.752 65.853 154.554 65.1851 154.159 64.7544C153.772 64.3149 153.135 64.0952 152.247 64.0952C150.955 64.0952 149.993 64.6797 149.36 65.8486V76H146.157V61.7354H149.176ZM166.596 58.2681V61.7354H169.114V64.1084H166.596V72.0713C166.596 72.6162 166.702 73.0117 166.913 73.2578C167.133 73.4951 167.519 73.6138 168.073 73.6138C168.442 73.6138 168.816 73.5698 169.194 73.4819V75.9604C168.464 76.1626 167.761 76.2637 167.084 76.2637C164.623 76.2637 163.393 74.9058 163.393 72.1899V64.1084H161.046V61.7354H163.393V58.2681H166.596ZM181.446 76C181.306 75.7275 181.183 75.2837 181.077 74.6685C180.058 75.7319 178.81 76.2637 177.333 76.2637C175.9 76.2637 174.732 75.855 173.826 75.0376C172.921 74.2202 172.468 73.2095 172.468 72.0054C172.468 70.4849 173.031 69.3203 174.156 68.5117C175.29 67.6943 176.907 67.2856 179.007 67.2856H180.972V66.3496C180.972 65.6113 180.765 65.0225 180.352 64.583C179.939 64.1348 179.311 63.9106 178.467 63.9106C177.737 63.9106 177.14 64.0952 176.674 64.4644C176.208 64.8247 175.975 65.2861 175.975 65.8486H172.772C172.772 65.0664 173.031 64.3369 173.549 63.6602C174.068 62.9746 174.771 62.4385 175.659 62.0518C176.555 61.665 177.553 61.4717 178.651 61.4717C180.321 61.4717 181.653 61.8936 182.646 62.7373C183.639 63.5723 184.149 64.75 184.175 66.2705V72.7041C184.175 73.9873 184.356 75.0112 184.716 75.7759V76H181.446ZM177.926 73.6929C178.559 73.6929 179.152 73.5391 179.706 73.2314C180.269 72.9238 180.691 72.5107 180.972 71.9922V69.3027H179.245C178.058 69.3027 177.166 69.5093 176.568 69.9224C175.971 70.3354 175.672 70.9199 175.672 71.6758C175.672 72.291 175.874 72.7832 176.278 73.1523C176.692 73.5127 177.241 73.6929 177.926 73.6929ZM192.895 58.2681V61.7354H195.413V64.1084H192.895V72.0713C192.895 72.6162 193 73.0117 193.211 73.2578C193.431 73.4951 193.818 73.6138 194.372 73.6138C194.741 73.6138 195.114 73.5698 195.492 73.4819V75.9604C194.763 76.1626 194.06 76.2637 193.383 76.2637C190.922 76.2637 189.691 74.9058 189.691 72.1899V64.1084H187.345V61.7354H189.691V58.2681H192.895ZM205.504 76.2637C203.474 76.2637 201.826 75.6265 200.56 74.3521C199.303 73.0688 198.675 71.3638 198.675 69.2368V68.8413C198.675 67.4175 198.947 66.1475 199.492 65.0312C200.046 63.9062 200.819 63.0317 201.812 62.4077C202.806 61.7837 203.913 61.4717 205.135 61.4717C207.077 61.4717 208.576 62.0913 209.63 63.3306C210.694 64.5698 211.225 66.3232 211.225 68.5908V69.8828H201.905C202.001 71.0605 202.392 71.9922 203.078 72.6777C203.772 73.3633 204.642 73.7061 205.688 73.7061C207.156 73.7061 208.351 73.1128 209.274 71.9263L211.001 73.5742C210.43 74.4268 209.665 75.0903 208.707 75.5649C207.758 76.0308 206.69 76.2637 205.504 76.2637ZM205.121 64.0425C204.243 64.0425 203.531 64.3501 202.986 64.9653C202.45 65.5806 202.107 66.4375 201.957 67.5361H208.061V67.2988C207.991 66.2266 207.705 65.418 207.204 64.873C206.704 64.3193 206.009 64.0425 205.121 64.0425ZM214.474 68.7622C214.474 66.5649 214.984 64.8027 216.003 63.4756C217.023 62.1396 218.389 61.4717 220.103 61.4717C221.615 61.4717 222.837 61.999 223.768 63.0537V55.75H226.972V76H224.072L223.913 74.5234C222.955 75.6836 221.677 76.2637 220.077 76.2637C218.407 76.2637 217.054 75.5913 216.016 74.2466C214.988 72.9019 214.474 71.0737 214.474 68.7622ZM217.678 69.0391C217.678 70.4893 217.954 71.623 218.508 72.4404C219.071 73.249 219.866 73.6533 220.894 73.6533C222.204 73.6533 223.162 73.0688 223.768 71.8999V65.8091C223.179 64.6665 222.23 64.0952 220.921 64.0952C219.884 64.0952 219.084 64.5083 218.521 65.3345C217.959 66.1519 217.678 67.3867 217.678 69.0391Z" fill="#737478"/>
<path d="M30.2743 149.416C29.5542 150.355 28.5562 151.066 27.2801 151.549C26.0041 152.032 24.5549 152.273 22.9325 152.273C21.2645 152.273 19.7879 151.895 18.5028 151.139C17.2176 150.382 16.2241 149.302 15.5223 147.898C14.8296 146.486 14.4696 144.84 14.4422 142.963V141.404C14.4422 138.396 15.1623 136.049 16.6024 134.363C18.0425 132.668 20.0523 131.82 22.6317 131.82C24.8465 131.82 26.6057 132.367 27.909 133.461C29.2124 134.555 29.9963 136.132 30.2606 138.191H26.87C26.4872 135.794 25.0972 134.596 22.7001 134.596C21.1506 134.596 19.9702 135.156 19.159 136.277C18.357 137.389 17.9422 139.025 17.9149 141.186V142.717C17.9149 144.868 18.3661 146.54 19.2684 147.734C20.1799 148.919 21.4422 149.512 23.0555 149.512C24.8238 149.512 26.0816 149.111 26.829 148.309V144.412H22.7274V141.787H30.2743V149.416ZM42.8989 140.242C42.4614 140.169 42.0102 140.133 41.5454 140.133C40.0232 140.133 38.9978 140.716 38.4692 141.883V152H35.1469V137.207H38.3188L38.4008 138.861C39.2029 137.576 40.3149 136.934 41.7368 136.934C42.2107 136.934 42.6027 136.997 42.9126 137.125L42.8989 140.242ZM54.8262 152C54.6804 151.717 54.5528 151.257 54.4434 150.619C53.3861 151.722 52.0919 152.273 50.5606 152.273C49.0749 152.273 47.8627 151.85 46.9239 151.002C45.9851 150.154 45.5157 149.106 45.5157 147.857C45.5157 146.281 46.099 145.073 47.2657 144.234C48.4415 143.387 50.1185 142.963 52.2969 142.963H54.334V141.992C54.334 141.227 54.1198 140.616 53.6915 140.16C53.2631 139.695 52.6114 139.463 51.7364 139.463C50.9799 139.463 50.3601 139.654 49.877 140.037C49.3939 140.411 49.1524 140.889 49.1524 141.473H45.8301C45.8301 140.661 46.099 139.905 46.6368 139.203C47.1745 138.492 47.9037 137.936 48.8243 137.535C49.754 137.134 50.7885 136.934 51.9278 136.934C53.6596 136.934 55.0404 137.371 56.0704 138.246C57.1003 139.112 57.629 140.333 57.6563 141.91V148.582C57.6563 149.913 57.8432 150.975 58.2169 151.768V152H54.8262ZM51.1758 149.607C51.8321 149.607 52.4473 149.448 53.0215 149.129C53.6049 148.81 54.0424 148.382 54.334 147.844V145.055H52.543C51.3126 145.055 50.3874 145.269 49.7676 145.697C49.1478 146.126 48.8379 146.732 48.8379 147.516C48.8379 148.154 49.0476 148.664 49.4669 149.047C49.8952 149.421 50.4649 149.607 51.1758 149.607ZM75.4899 144.754C75.4899 147.042 74.9704 148.869 73.9313 150.236C72.8922 151.594 71.4977 152.273 69.7477 152.273C68.1253 152.273 66.8265 151.74 65.8512 150.674V157.688H62.529V137.207H65.5915L65.7282 138.711C66.7034 137.526 68.0296 136.934 69.7067 136.934C71.5114 136.934 72.9241 137.608 73.945 138.957C74.9749 140.297 75.4899 142.161 75.4899 144.549V144.754ZM72.1813 144.467C72.1813 142.99 71.8851 141.819 71.2926 140.953C70.7093 140.087 69.8708 139.654 68.777 139.654C67.4189 139.654 66.4437 140.215 65.8512 141.336V147.898C66.4528 149.047 67.4372 149.621 68.8044 149.621C69.8616 149.621 70.6865 149.197 71.279 148.35C71.8805 147.493 72.1813 146.199 72.1813 144.467ZM82.9876 138.82C84.0722 137.562 85.4439 136.934 87.1028 136.934C90.2564 136.934 91.856 138.734 91.9016 142.334V152H88.5794V142.457C88.5794 141.436 88.356 140.716 87.9094 140.297C87.4719 139.868 86.8248 139.654 85.968 139.654C84.6373 139.654 83.6438 140.247 82.9876 141.432V152H79.6653V131H82.9876V138.82ZM100.206 152H96.8837V137.207H100.206V152ZM96.6786 133.365C96.6786 132.855 96.8381 132.431 97.1571 132.094C97.4852 131.757 97.9501 131.588 98.5516 131.588C99.1532 131.588 99.618 131.757 99.9462 132.094C100.274 132.431 100.438 132.855 100.438 133.365C100.438 133.867 100.274 134.286 99.9462 134.623C99.618 134.951 99.1532 135.115 98.5516 135.115C97.9501 135.115 97.4852 134.951 97.1571 134.623C96.8381 134.286 96.6786 133.867 96.6786 133.365ZM111.313 149.621C112.142 149.621 112.831 149.38 113.377 148.896C113.924 148.413 114.216 147.816 114.252 147.105H117.383C117.347 148.026 117.06 148.887 116.522 149.689C115.984 150.482 115.255 151.111 114.334 151.576C113.414 152.041 112.42 152.273 111.354 152.273C109.285 152.273 107.644 151.604 106.432 150.264C105.22 148.924 104.614 147.074 104.614 144.713V144.371C104.614 142.12 105.215 140.32 106.418 138.971C107.622 137.613 109.262 136.934 111.34 136.934C113.099 136.934 114.53 137.449 115.633 138.479C116.745 139.499 117.329 140.844 117.383 142.512H114.252C114.216 141.664 113.924 140.967 113.377 140.42C112.84 139.873 112.151 139.6 111.313 139.6C110.237 139.6 109.408 139.992 108.825 140.775C108.241 141.55 107.945 142.73 107.936 144.316V144.85C107.936 146.454 108.223 147.652 108.797 148.445C109.381 149.229 110.219 149.621 111.313 149.621ZM129.584 147.98C129.584 147.388 129.338 146.937 128.846 146.627C128.363 146.317 127.556 146.044 126.426 145.807C125.296 145.57 124.352 145.269 123.596 144.904C121.937 144.102 121.107 142.94 121.107 141.418C121.107 140.142 121.645 139.076 122.721 138.219C123.796 137.362 125.163 136.934 126.822 136.934C128.591 136.934 130.017 137.371 131.102 138.246C132.195 139.121 132.742 140.256 132.742 141.65H129.42C129.42 141.012 129.183 140.484 128.709 140.064C128.235 139.636 127.606 139.422 126.822 139.422C126.093 139.422 125.496 139.59 125.031 139.928C124.576 140.265 124.348 140.716 124.348 141.281C124.348 141.792 124.562 142.188 124.99 142.471C125.419 142.753 126.285 143.04 127.588 143.332C128.891 143.615 129.912 143.956 130.65 144.357C131.398 144.749 131.949 145.223 132.305 145.779C132.669 146.335 132.852 147.01 132.852 147.803C132.852 149.133 132.3 150.214 131.197 151.043C130.094 151.863 128.65 152.273 126.863 152.273C125.651 152.273 124.571 152.055 123.623 151.617C122.675 151.18 121.937 150.578 121.408 149.812C120.88 149.047 120.615 148.222 120.615 147.338H123.842C123.887 148.122 124.184 148.728 124.731 149.156C125.277 149.576 126.002 149.785 126.904 149.785C127.779 149.785 128.445 149.621 128.9 149.293C129.356 148.956 129.584 148.518 129.584 147.98Z" fill="#949598"/>
</svg>
